<svg width="16" height="18" viewBox="0 0 16 18" fill="none" xmlns="http://www.w3.org/2000/svg">
<path d="M6.71333 0.805986C7.07369 0.503172 7.5293 0.337158 8 0.337158C8.4707 0.337158 8.92631 0.503172 9.28667 0.805986L15.2867 5.85132C15.51 6.03899 15.6896 6.27325 15.8128 6.53767C15.936 6.80209 15.9999 7.09026 16 7.38199V15.762C16 16.1156 15.8595 16.4547 15.6095 16.7048C15.3594 16.9548 15.0203 17.0953 14.6667 17.0953H11C10.6464 17.0953 10.3072 16.9548 10.0572 16.7048C9.80714 16.4547 9.66667 16.1156 9.66667 15.762V11.0953H6.33333V15.762C6.33333 16.1156 6.19286 16.4547 5.94281 16.7048C5.69276 16.9548 5.35362 17.0953 5 17.0953H1.33333C0.979711 17.0953 0.640573 16.9548 0.390524 16.7048C0.140476 16.4547 0 16.1156 0 15.762V7.38132C7.37732e-05 7.0896 0.0639639 6.80142 0.18719 6.53701C0.310416 6.27259 0.489995 6.03833 0.713333 5.85065L6.71333 0.805319V0.805986Z" fill="#FD6D14"/>
</svg>
