<svg width="50" height="36" viewBox="0 0 50 36" fill="none" xmlns="http://www.w3.org/2000/svg">
<g filter="url(#filter0_dd)">
<path d="M41.6 4H8V23.6H41.6V4Z" fill="white"/>
<path d="M41.6 4H8V10.5H41.6V4Z" fill="#F0953E"/>
<path d="M41.6 17.1H8V23.6H41.6V17.1Z" fill="#3B8916"/>
<path d="M24.7 10.9C23.1 10.9 21.8 12.2 21.8 13.8C21.8 15.4 23.1 16.7 24.7 16.7C26.3 16.7 27.6 15.4 27.6 13.8C27.7 12.2 26.4 10.9 24.7 10.9ZM24.7 11.1L24.6 12.6L24.7 13.4L24.8 12.6L24.7 11.1C24.8 11.1 24.9 11.1 24.9 11.1C24.9 11.2 25 11.2 25 11.2C25.1 11.2 25.1 11.1 25.1 11.1C25.2 11.1 25.2 11.1 25.3 11.2L24.8 12.6L24.7 13.4L25 12.6L25.3 11.2C25.4 11.2 25.4 11.2 25.5 11.3C25.5 11.4 25.6 11.4 25.6 11.4C25.6 11.4 25.7 11.4 25.7 11.3C25.8 11.3 25.8 11.4 25.9 11.4L25.1 12.6L24.7 13.4L25.2 12.7L25.9 11.4C26 11.4 26 11.5 26.1 11.5C26.1 11.5 26.1 11.5 26.1 11.6C26.1 11.7 26.2 11.7 26.2 11.7C26.2 11.7 26.3 11.7 26.3 11.6C26.4 11.7 26.4 11.7 26.5 11.8L25.4 12.8L24.9 13.5L25.6 13L26.6 11.9C26.7 12 26.7 12 26.7 12.1V12.2C26.7 12.3 26.8 12.3 26.8 12.3H26.9C26.9 12.4 27 12.4 27 12.5L25.7 13.2L25 13.7L25.8 13.3L27 12.5C27 12.6 27.1 12.6 27.1 12.7L27 12.8C27 12.9 27.1 12.9 27.1 12.9C27.1 13 27.1 13 27.2 13.1L25.8 13.4L25 13.7L25.8 13.6L27.2 13.2C27.2 13.3 27.2 13.3 27.2 13.4C27.1 13.4 27.1 13.5 27.1 13.5L27.2 13.6C27.2 13.7 27.2 13.7 27.2 13.8L25.7 13.7L24.9 13.8L25.7 13.9L27.2 13.8C27.2 13.9 27.2 14 27.2 14C27.1 14 27.1 14.1 27.1 14.1C27.1 14.1 27.1 14.2 27.2 14.2C27.2 14.3 27.2 14.3 27.2 14.4L26.7 14.2L25.8 13.9L25 13.8L25.8 14.1L27.2 14.4C27.2 14.5 27.2 14.5 27.1 14.6C27 14.6 27 14.7 27 14.7C27 14.8 26.9 14.8 26.9 14.9L25.7 14.1L24.9 13.7L25.3 14L25.6 14.2L26.9 14.9C26.9 15 26.8 15 26.8 15.1C26.8 15.1 26.8 15.1 26.7 15.1C26.6 15.1 26.6 15.2 26.6 15.2V15.3C26.6 15.4 26.5 15.4 26.5 15.5L25.5 14.4L24.9 13.9L25.4 14.6L26.5 15.6C26.4 15.7 26.4 15.7 26.3 15.7C26.3 15.7 26.3 15.7 26.2 15.7C26.1 15.7 26.1 15.8 26.1 15.8C26.1 15.8 26.1 15.8 26.1 15.9C26 15.9 26 16 25.9 16L25.2 14.7L24.7 14L25.1 14.8L25.9 16C25.8 16 25.8 16.1 25.7 16.1L25.6 16C25.5 16 25.5 16.1 25.5 16.1C25.4 16.1 25.4 16.1 25.3 16.2L25 14.8L24.7 14L24.8 14.8L25.3 16.2C25.2 16.2 25.2 16.2 25.1 16.2C25.1 16.1 25 16.1 25 16.1C24.9 16.1 24.9 16.2 24.9 16.2C24.8 16.2 24.8 16.2 24.7 16.2L24.8 14.7L24.7 13.9L24.6 14.7L24.7 16.2C24.6 16.2 24.5 16.2 24.5 16.2C24.5 16.1 24.4 16.1 24.4 16.1C24.3 16.1 24.3 16.1 24.3 16.2C24.2 16.2 24.2 16.2 24.1 16.2L24.6 14.8L24.7 14L24.4 14.8L24.1 16.3C24 16.3 24 16.3 23.9 16.2C23.9 16.1 23.8 16.1 23.8 16.1C23.7 16.1 23.7 16.1 23.7 16.2C23.6 16.2 23.6 16.1 23.5 16.1L24.3 14.9L24.7 14.1L24.2 14.8L23.5 16.1C23.4 16.1 23.4 16 23.3 16C23.3 16 23.3 16 23.3 15.9C23.3 15.8 23.2 15.8 23.2 15.8H23.1C23 15.7 23 15.7 22.9 15.7L24 14.7L24.5 14L23.8 14.5L22.8 15.6C22.7 15.5 22.7 15.5 22.6 15.4V15.3C22.6 15.2 22.5 15.2 22.5 15.2H22.4C22.4 15.1 22.3 15.1 22.3 15L23.6 14.3L24.3 13.8L23.5 14.2L22.3 15C22.3 14.9 22.2 14.9 22.2 14.8L22.3 14.7C22.3 14.6 22.2 14.6 22.2 14.6C22.2 14.6 22.2 14.6 22.1 14.6C22.1 14.5 22.1 14.5 22 14.4L23.4 14.1L24.2 13.8L23.4 13.9L22 14.4C22 14.3 22 14.3 22 14.2C22.1 14.2 22.1 14.1 22.1 14.1C22.1 14 22 14 22 14C22 13.9 22 13.9 22 13.8L23.5 13.9L24.3 13.8L23.5 13.7L22 13.8C22 13.7 22 13.7 22 13.6C22.1 13.6 22.1 13.5 22.1 13.5C22.1 13.4 22.1 13.4 22 13.4C22 13.3 22 13.3 22 13.2L23.4 13.6L24.2 13.7L23.4 13.4L22 13.1C22 13 22 13 22.1 12.9C22.2 12.9 22.2 12.8 22.2 12.8C22.2 12.7 22.2 12.7 22.1 12.7C22.1 12.6 22.2 12.6 22.2 12.5L23.4 13.3L24.2 13.7L23.5 13.2L22.2 12.5C22.2 12.4 22.3 12.4 22.3 12.3C22.3 12.3 22.3 12.3 22.4 12.3C22.5 12.3 22.5 12.2 22.5 12.2V12.1C22.5 12 22.6 12 22.6 11.9L23.6 13L24.3 13.5L23.8 12.8L22.7 11.8C22.8 11.7 22.8 11.7 22.9 11.7H23C23.1 11.7 23.1 11.6 23.1 11.6V11.5C23.2 11.5 23.2 11.4 23.3 11.4L24 12.7L24.5 13.4L24.1 12.6L23.3 11.4C23.4 11.4 23.4 11.3 23.5 11.3L23.6 11.4C23.7 11.4 23.7 11.3 23.7 11.3C23.7 11.3 23.7 11.3 23.7 11.2C23.8 11.2 23.8 11.2 23.9 11.1L24.2 12.5L24.5 13.3L24.4 12.5L23.9 11.1C24 11.1 24 11.1 24.1 11C24.1 11.1 24.2 11.1 24.2 11.1C24.3 11.1 24.3 11 24.3 11C24.6 11.1 24.7 11.1 24.7 11.1Z" fill="#16007E"/>
<path d="M24.7 13.4C24.9 13.4 25.1 13.6 25.1 13.8C25.1 14 24.9 14.2 24.7 14.2C24.5 14.2 24.3 14 24.3 13.8C24.3 13.6 24.5 13.4 24.7 13.4Z" fill="white"/>
<path d="M24.7 13.5C24.9 13.5 25 13.6 25 13.8C25 14 24.8 14.1 24.7 14.1C24.5 14.1 24.4 13.9 24.4 13.8C24.4 13.6 24.6 13.5 24.7 13.5Z" fill="#16007E"/>
</g>
<defs>
<filter id="filter0_dd" x="0" y="0" width="49.6" height="35.6" filterUnits="userSpaceOnUse" color-interpolation-filters="sRGB">
<feFlood flood-opacity="0" result="BackgroundImageFix"/>
<feColorMatrix in="SourceAlpha" type="matrix" values="0 0 0 0 0 0 0 0 0 0 0 0 0 0 0 0 0 0 127 0"/>
<feOffset/>
<feGaussianBlur stdDeviation="0.5"/>
<feColorMatrix type="matrix" values="0 0 0 0 0 0 0 0 0 0 0 0 0 0 0 0 0 0 0.04 0"/>
<feBlend mode="normal" in2="BackgroundImageFix" result="effect1_dropShadow"/>
<feColorMatrix in="SourceAlpha" type="matrix" values="0 0 0 0 0 0 0 0 0 0 0 0 0 0 0 0 0 0 127 0"/>
<feOffset dy="4"/>
<feGaussianBlur stdDeviation="4"/>
<feColorMatrix type="matrix" values="0 0 0 0 0 0 0 0 0 0 0 0 0 0 0 0 0 0 0.04 0"/>
<feBlend mode="normal" in2="effect1_dropShadow" result="effect2_dropShadow"/>
<feBlend mode="normal" in="SourceGraphic" in2="effect2_dropShadow" result="shape"/>
</filter>
</defs>
</svg>
