<svg width="35" height="37" viewBox="0 0 35 37" fill="none" xmlns="http://www.w3.org/2000/svg">
<path d="M17.5085 11.0899C20.2704 11.0899 23.0322 11.0899 25.8116 11.0899C26.4273 11.0899 26.8143 11.4756 26.8143 12.0891C26.8143 13.5266 26.8143 14.9641 26.8143 16.4016C26.7967 18.4701 25.3014 20.2407 23.2609 20.6088C22.7331 20.6965 22.2054 20.6789 21.6601 20.6789C21.5193 20.6789 21.449 20.7315 21.3962 20.8542C21.062 21.6781 20.6398 22.4495 20.0944 23.1682C19.7778 23.5714 19.4436 23.922 19.0214 24.2025C18.0539 24.8686 16.9632 24.8686 15.9957 24.2025C15.2745 23.6941 14.7643 23.0104 14.3245 22.2742C14.0607 21.8359 13.832 21.3977 13.6561 20.9243C13.5857 20.749 13.4977 20.6965 13.3042 20.6965C12.7941 20.714 12.2664 20.7315 11.7562 20.6263C9.9795 20.3108 8.55461 18.8558 8.27315 17.0677C8.22038 16.682 8.22038 16.3139 8.22038 15.9282C8.22038 14.6485 8.22038 13.3864 8.22038 12.1067C8.22038 11.4931 8.60738 11.1074 9.22308 11.1074C11.9673 11.0899 14.7291 11.0899 17.5085 11.0899ZM11.035 12.9306C10.7535 12.9306 10.4896 12.9306 10.2082 12.9306C10.085 12.9306 10.0499 12.9656 10.0499 13.0883C10.0499 14.1752 10.0499 15.2796 10.0499 16.3665C10.0499 16.8047 10.1554 17.2255 10.4017 17.5936C10.9294 18.4351 11.7034 18.8383 12.6885 18.8032C12.9348 18.8032 12.9348 18.8032 12.8645 18.5578C12.6182 17.6813 12.4423 16.7697 12.3015 15.8756C12.1432 14.929 12.0553 13.9824 12.0025 13.0358C12.0025 12.9306 11.9673 12.913 11.8793 12.913C11.5803 12.9481 11.2988 12.9306 11.035 12.9306ZM24.9496 14.8238C24.9496 14.2453 24.9496 13.6844 24.9496 13.1059C24.9496 12.9656 24.9144 12.9306 24.7737 12.9306C24.3163 12.9306 23.8414 12.9306 23.384 12.9306C23.0146 12.9306 23.0146 12.9306 22.997 13.2987C22.9442 14.3505 22.8035 15.4023 22.6276 16.4366C22.4869 17.1904 22.3285 17.9267 22.135 18.663C22.1174 18.7331 22.0647 18.8032 22.2054 18.8032C22.4869 18.8032 22.7507 18.8032 23.0146 18.7506C24.158 18.4876 24.932 17.5235 24.9496 16.349C24.9496 15.8406 24.9496 15.3322 24.9496 14.8238Z" fill="#262C46"/>
<path d="M17.4909 28.6551C16.154 28.6551 14.7995 28.6551 13.4626 28.6551C13.0756 28.6551 12.7237 28.4097 12.6006 28.0416C12.4775 27.6734 12.583 27.2702 12.8821 27.0248C13.058 26.8846 13.2515 26.8144 13.4626 26.8144C13.7616 26.8144 14.0783 26.8144 14.3773 26.8144C15.0634 26.8144 15.6263 26.2535 15.6439 25.5698C15.6439 25.2367 15.6439 25.2367 15.9781 25.3244C17.016 25.6399 18.0363 25.6399 19.0742 25.3068C19.3556 25.2192 19.3556 25.2192 19.3556 25.5172C19.3732 26.0782 19.6371 26.4814 20.1472 26.7093C20.3055 26.7794 20.4639 26.8144 20.6222 26.8144C20.9036 26.8144 21.1851 26.8144 21.4666 26.8144C22.0471 26.8144 22.4693 27.2001 22.4693 27.7435C22.4693 28.287 22.0471 28.6551 21.4666 28.6551C20.1296 28.6551 18.8103 28.6551 17.4909 28.6551Z" fill="#262C46"/>
<path d="M1.94031 15.8055L1.58849 15.7705C1.53571 15.7705 1.50053 15.788 1.50053 15.8581L1.46535 16.2263C1.44776 16.4191 1.39498 16.5418 1.30703 16.6119C1.21907 16.682 1.09593 16.7171 0.937612 16.6996L0.427467 16.647C0.110825 16.6119 -0.0299051 16.4191 0.00527736 16.0334L0.058051 15.5075C0.0932334 15.1394 0.269146 14.9641 0.585787 14.9991L0.867247 15.0342L0.796882 15.7004L0.585787 15.6828C0.533014 15.6828 0.497831 15.7004 0.497831 15.7705L0.48024 15.8757C0.48024 15.9458 0.497831 15.9808 0.550605 15.9808L0.920021 16.0159C0.972794 16.0159 1.00798 15.9984 1.00798 15.9282L1.04316 15.5601C1.06075 15.3673 1.11352 15.2446 1.20148 15.1569C1.28944 15.0868 1.41257 15.0517 1.5709 15.0693L2.08104 15.1219C2.39768 15.1569 2.53841 15.3497 2.50323 15.7354L2.45046 16.2613C2.41527 16.647 2.23936 16.8048 1.92272 16.7872L1.62367 16.7522L1.69403 16.086L1.90513 16.1035C1.9579 16.1035 1.99308 16.086 1.99308 16.0159L2.01068 15.9107C2.02827 15.8406 1.99308 15.8055 1.94031 15.8055Z" fill="#262C46"/>
<path d="M0.796883 11.9489L1.20148 10.8795C1.34221 10.5289 1.5533 10.4062 1.85236 10.5114L2.52082 10.7568C2.81987 10.862 2.90783 11.1074 2.7671 11.458L2.59119 11.8963L3.34761 12.1768L3.10133 12.8078L0.796883 11.9489ZM2.20418 11.3704L1.71163 11.1775C1.65885 11.16 1.62367 11.1775 1.60608 11.2301L1.51812 11.4755L2.18659 11.721L2.27454 11.4755C2.27454 11.423 2.25695 11.3879 2.20418 11.3704Z" fill="#262C46"/>
<path d="M3.22447 7.21575L3.5587 6.75996C3.78739 6.46195 4.03367 6.39183 4.27994 6.58466L5.51133 7.49623C5.7752 7.68906 5.79279 7.93448 5.5641 8.2325L5.22987 8.68828C5.00118 8.98629 4.75491 9.05642 4.50863 8.86358L3.27725 7.95201C3.01338 7.75918 2.99579 7.51376 3.22447 7.21575ZM5.05396 7.96954L3.9633 7.16316C3.91053 7.12809 3.87535 7.14563 3.84016 7.19822L3.73462 7.32093C3.69943 7.37352 3.69943 7.40858 3.75221 7.44364L4.84286 8.25003C4.89564 8.28509 4.93082 8.26756 4.966 8.21497L5.07155 8.09226C5.08914 8.05719 5.08914 8.0046 5.05396 7.96954Z" fill="#262C46"/>
<path d="M7.63986 4.91927L8.18519 5.62048L7.63986 6.0412L6.12702 4.07782L7.04176 3.37661C7.34081 3.14872 7.58709 3.14872 7.78059 3.41167L8.1676 3.92005C8.32592 4.11288 8.32592 4.30571 8.18519 4.48101L9.09993 4.91927L8.51942 5.35752L7.65745 4.90174L7.63986 4.91927ZM7.1649 3.86746L6.9538 4.02523L7.3584 4.55113L7.5695 4.39336C7.62227 4.3583 7.62227 4.30571 7.58709 4.27065L7.28804 3.88499C7.25286 3.8324 7.21767 3.8324 7.1649 3.86746Z" fill="#262C46"/>
<path d="M11.5451 0.922363L11.7386 1.36062L11.2988 1.53592L12.0729 3.37659L11.4396 3.63954L10.6656 1.79887L10.2258 1.97417L10.0323 1.53592L11.5451 0.922363Z" fill="#262C46"/>
<path d="M15.6439 1.93912L15.5911 1.58852C15.5911 1.53593 15.5559 1.50087 15.4855 1.5184L15.1161 1.55346C14.9226 1.57099 14.7819 1.55346 14.6939 1.48334C14.606 1.41322 14.5532 1.29051 14.5356 1.13273L14.4653 0.624359C14.4301 0.308815 14.5884 0.133513 14.9578 0.0809228L15.4855 0.010802C15.855 -0.0417886 16.0661 0.098453 16.1012 0.413997L16.154 0.71201L15.4855 0.799661L15.4504 0.589298C15.4504 0.536708 15.4152 0.501648 15.3448 0.519178L15.2393 0.536708C15.1689 0.536708 15.1513 0.571768 15.1513 0.641889L15.2041 1.01002C15.2041 1.06261 15.2393 1.09767 15.3096 1.08014L15.6791 1.02755C15.8726 1.01002 16.0133 1.02755 16.1012 1.09767C16.1892 1.1678 16.242 1.27298 16.2596 1.43075L16.3299 1.93912C16.3651 2.25467 16.2068 2.42997 15.8374 2.48256L15.3096 2.55268C14.9402 2.60527 14.7291 2.46503 14.6764 2.14949L14.6412 1.85147L15.3096 1.76382L15.3448 1.97418C15.3448 2.02677 15.38 2.06184 15.4504 2.04431L15.5559 2.02677C15.6087 2.02677 15.6439 1.99171 15.6439 1.93912Z" fill="#262C46"/>
<path d="M18.8279 2.44749L18.8982 1.81641L19.5667 1.88653L19.4963 2.51761L18.8279 2.44749Z" fill="#262C46"/>
<path d="M24.0349 2.14949L23.4016 1.9216L23.5423 1.55346C23.5599 1.50087 23.5423 1.46581 23.472 1.44828L23.3488 1.39569C23.296 1.37816 23.2433 1.39569 23.2257 1.44828L22.7331 2.78058C22.7155 2.83317 22.7331 2.86823 22.8035 2.88576L22.9266 2.93835C22.9794 2.95588 23.0322 2.93835 23.0498 2.88576L23.1729 2.51763L23.8062 2.74552L23.6655 3.14871C23.5599 3.44673 23.3136 3.53438 22.9618 3.41167L22.4517 3.21883C22.0998 3.09612 21.9767 2.86823 22.0823 2.57022L22.61 1.13274C22.7155 0.834727 22.9618 0.747076 23.3136 0.869787L23.8238 1.06262C24.1756 1.18533 24.2987 1.41322 24.1932 1.71124L24.0349 2.14949Z" fill="#262C46"/>
<path d="M26.6384 5.46273L26.7967 5.11212L26.3217 4.76152L26.0403 5.00694L25.4949 4.62128L27.4827 2.99097L28.1512 3.48181L27.2013 5.86592L26.6384 5.46273ZM26.6911 4.44597L27.0078 4.67387L27.3772 3.83242L26.6911 4.44597Z" fill="#262C46"/>
<path d="M29.9631 7.47867L29.2595 8.0221L28.8373 7.4962L30.7899 5.97107L31.4936 6.88264C31.7222 7.18065 31.7222 7.42608 31.4584 7.61891L30.9482 8.0221C30.7547 8.17987 30.5612 8.17987 30.3853 8.03963L29.9455 8.9512L29.4882 8.37271L29.9455 7.51373L29.9631 7.47867ZM31.001 7.00535L30.8427 6.79499L30.3149 7.19818L30.4733 7.40855C30.5084 7.46114 30.5612 7.46114 30.5964 7.42608L30.9834 7.12806C31.0362 7.093 31.0362 7.04041 31.001 7.00535Z" fill="#262C46"/>
<path d="M33.4462 10.0205L33.8859 11.0723C34.0267 11.4229 33.9563 11.6508 33.6573 11.7735L32.25 12.352C31.9509 12.4747 31.7398 12.352 31.5815 12.0014L31.1417 10.9496L33.4462 10.0205ZM32.0213 11.7209L33.3406 11.1775C33.3934 11.16 33.411 11.1074 33.3758 11.0548L33.2703 10.8094L31.7926 11.4054L31.8981 11.6508C31.9333 11.7209 31.9685 11.7385 32.0213 11.7209Z" fill="#262C46"/>
<path d="M33.0592 15.8055L33.411 15.7705C33.4638 15.7705 33.499 15.7354 33.4814 15.6653L33.4462 15.2972C33.4286 15.1043 33.4462 14.9641 33.5341 14.8764C33.6045 14.7888 33.7276 14.7362 33.886 14.7187L34.3961 14.6661C34.7127 14.631 34.8887 14.8063 34.9414 15.1745L34.9942 15.7004C35.0294 16.0685 34.9063 16.2789 34.572 16.3139L34.273 16.349L34.2026 15.6828L34.4137 15.6653C34.4665 15.6653 34.5017 15.6302 34.4841 15.5601L34.4665 15.4549C34.4665 15.3848 34.4313 15.3673 34.3785 15.3673L34.0091 15.4023C33.9563 15.4023 33.9211 15.4374 33.9387 15.5075L33.9739 15.8757C33.9915 16.0685 33.9739 16.2087 33.9036 16.2964C33.8332 16.384 33.7276 16.4366 33.5693 16.4542L33.0592 16.5067C32.7425 16.5418 32.5666 16.3665 32.5138 15.9984L32.4611 15.4725C32.4259 15.1043 32.549 14.894 32.8833 14.8589L33.1823 14.8238L33.2527 15.49L33.0416 15.5075C32.9888 15.5075 32.9536 15.5426 32.9712 15.6127L32.9888 15.7179C32.9712 15.788 33.0064 15.8055 33.0592 15.8055Z" fill="#262C46"/>
<path d="M17.5613 36.3509C8.29074 36.3509 0.761703 28.848 0.761703 19.6095C0.761703 19.3115 1.00798 19.0661 1.30703 19.0661C1.60608 19.0661 1.85236 19.3115 1.85236 19.6095C1.85236 28.2519 8.90644 35.2815 17.5789 35.2815C26.2514 35.2815 33.3055 28.2519 33.3055 19.6095C33.3055 19.3115 33.5517 19.0661 33.8508 19.0661C34.1498 19.0661 34.3961 19.3115 34.3961 19.6095C34.3609 28.8304 26.8319 36.3509 17.5613 36.3509Z" fill="#262C46"/>
</svg>
