<svg width="13" height="13" viewBox="0 0 13 13" fill="none" xmlns="http://www.w3.org/2000/svg">
<circle cx="6.5" cy="6.5" r="6.5" fill="#262C46"/>
<path d="M4.25548 9.66984C4.30347 9.37354 4.35679 9.0353 4.41277 8.69427C4.47409 8.32808 4.53275 7.9591 4.59673 7.59291C4.61006 7.51744 4.5914 7.46153 4.53541 7.40842C4.09551 6.96117 3.65561 6.51112 3.21838 6.06387C3.16772 6.01076 3.1144 5.96044 3.07174 5.90174C2.93844 5.72004 2.99443 5.54394 3.21038 5.49083C3.35701 5.45449 3.50898 5.43492 3.65828 5.41256C4.17549 5.33149 4.69538 5.25323 5.21259 5.17775C5.30591 5.16377 5.35123 5.12184 5.39122 5.03799C5.66049 4.46215 5.93243 3.88631 6.20437 3.31047C6.2177 3.28252 6.23103 3.25177 6.24436 3.22382C6.30302 3.1176 6.359 3.00578 6.49497 3.00019C6.63894 2.9946 6.70293 3.11201 6.75625 3.22661C7.03885 3.82202 7.32145 4.41742 7.59606 5.01842C7.64405 5.12184 7.7027 5.16937 7.81201 5.18614C8.40654 5.27 8.99841 5.36224 9.59294 5.45449C9.67559 5.46847 9.7609 5.48244 9.83822 5.51319C10.0035 5.57748 10.0462 5.71725 9.94753 5.87099C9.90221 5.94367 9.83822 6.00517 9.77957 6.06667C9.34766 6.51112 8.91576 6.95278 8.48119 7.39165C8.40654 7.46712 8.39321 7.53701 8.40921 7.63764C8.51852 8.27777 8.62516 8.92069 8.72914 9.56362C8.75046 9.69779 8.78779 9.85433 8.65715 9.95217C8.52385 10.0556 8.39321 9.96894 8.27324 9.90185C7.7187 9.59716 7.16416 9.29247 6.61228 8.98499C6.5323 8.94026 6.47098 8.94026 6.391 8.98499C5.83912 9.29247 5.28458 9.59716 4.73004 9.90465C4.68738 9.92981 4.64206 9.95217 4.59673 9.96894C4.38611 10.05 4.25281 9.94937 4.25548 9.66984Z" fill="#EAE0C8"/>
</svg>
