<svg width="50" height="36" viewBox="0 0 50 36" fill="none" xmlns="http://www.w3.org/2000/svg">
<g filter="url(#filter0_dd)">
<path d="M41.6 4H8V23.6H41.6V4Z" fill="white"/>
<path d="M30.5 11.1L41.6 4.9V4H40.8L28.2 11.1H30.5Z" fill="#BD0034"/>
<path d="M29.9 16.9L41.6 23.4V22.1L32.3 16.9H29.9Z" fill="#BD0034"/>
<path d="M8 5.50001L17.9 11.1H20.3L8 4.20001V5.50001Z" fill="#BD0034"/>
<path d="M19.7 16.9L8 23.5V23.6H10.1L22.1 16.9H19.7Z" fill="#BD0034"/>
<path d="M39.3 4H27.5V10.6L39.3 4Z" fill="#1A237B"/>
<path d="M22.3 4H10.6L22.3 10.6V4Z" fill="#1A237B"/>
<path d="M41.6 11.1V6.59998L33.6 11.1H41.6Z" fill="#1A237B"/>
<path d="M41.6 21.3V16.9H33.6L41.6 21.3Z" fill="#1A237B"/>
<path d="M11.3 23.6H22.3V17.4L11.3 23.6Z" fill="#1A237B"/>
<path d="M27.5 23.6H38.6L27.5 17.4V23.6Z" fill="#1A237B"/>
<path d="M8 16.9V21.5L16.2 16.9H8Z" fill="#1A237B"/>
<path d="M8 11.1H16.2L8 6.40002V11.1Z" fill="#1A237B"/>
<path d="M23.4 4V12.2H8V15.7H23.4V23.6H26.5V15.7H41.6V12.2H26.5V4H23.4Z" fill="#BD0034"/>
</g>
<defs>
<filter id="filter0_dd" x="0" y="0" width="49.6" height="35.6" filterUnits="userSpaceOnUse" color-interpolation-filters="sRGB">
<feFlood flood-opacity="0" result="BackgroundImageFix"/>
<feColorMatrix in="SourceAlpha" type="matrix" values="0 0 0 0 0 0 0 0 0 0 0 0 0 0 0 0 0 0 127 0"/>
<feOffset/>
<feGaussianBlur stdDeviation="0.5"/>
<feColorMatrix type="matrix" values="0 0 0 0 0 0 0 0 0 0 0 0 0 0 0 0 0 0 0.04 0"/>
<feBlend mode="normal" in2="BackgroundImageFix" result="effect1_dropShadow"/>
<feColorMatrix in="SourceAlpha" type="matrix" values="0 0 0 0 0 0 0 0 0 0 0 0 0 0 0 0 0 0 127 0"/>
<feOffset dy="4"/>
<feGaussianBlur stdDeviation="4"/>
<feColorMatrix type="matrix" values="0 0 0 0 0 0 0 0 0 0 0 0 0 0 0 0 0 0 0.04 0"/>
<feBlend mode="normal" in2="effect1_dropShadow" result="effect2_dropShadow"/>
<feBlend mode="normal" in="SourceGraphic" in2="effect2_dropShadow" result="shape"/>
</filter>
</defs>
</svg>
