<svg width="58" height="59" viewBox="0 0 58 59" fill="none" xmlns="http://www.w3.org/2000/svg">
<g filter="url(#filter0_d)">
<rect x="8.67188" y="0.322449" width="40.6268" height="42.5077" rx="8" fill="#000059"/>
<rect x="8.92188" y="0.572449" width="40.1268" height="42.0077" rx="7.75" stroke="#7782AD" stroke-opacity="0.3" stroke-width="0.5"/>
</g>
<path d="M38.8524 30.6495C37.3563 33.7862 28.9832 37.4782 28.9832 37.4782C28.9832 37.4782 20.6101 33.7862 19.1139 30.6495C17.2212 26.6706 18.2126 12.9859 18.2126 12.9859C18.2126 12.9859 26.2522 11.1649 28.9832 11.1649C31.7141 11.1649 39.7537 12.9859 39.7537 12.9859C39.7537 12.9859 40.7496 26.6706 38.8524 30.6495Z" fill="#58DBD2"/>
<path d="M37.9382 30.0623C36.5818 32.9076 28.9883 36.2537 28.9883 36.2537C28.9883 36.2537 21.3904 32.9076 20.0384 30.0623C18.3214 26.4522 19.2227 14.0421 19.2227 14.0421C19.2227 14.0421 26.5143 12.3896 28.9928 12.3896C31.4714 12.3896 38.7629 14.0421 38.7629 14.0421C38.7629 14.0421 39.6552 26.4522 37.9382 30.0623Z" fill="#00457C"/>
<path d="M26.7175 7.11777L23.1078 9.80828C22.8509 9.99949 22.4904 9.94486 22.3011 9.68537L22.0172 9.29385C21.8279 9.03436 21.882 8.67017 22.1389 8.47896L25.7486 5.78845C26.0055 5.59724 26.366 5.65187 26.5553 5.91137L26.8392 6.30288C27.0284 6.56237 26.9744 6.92657 26.7175 7.11777Z" fill="#FF7D4A"/>
<path d="M25.749 5.78845L24.7891 6.50319C25.0009 6.73081 25.1766 6.98575 25.3253 7.27255C25.4695 7.46376 25.5957 7.66862 25.6949 7.87803L26.7179 7.11777C26.9747 6.92657 27.0288 6.56237 26.8395 6.30288L26.5556 5.91136C26.3663 5.65187 26.0058 5.59724 25.749 5.78845Z" fill="#FFAE4A"/>
<path d="M25.4329 9.17089L24.5766 9.80823C24.3378 9.98578 23.9953 9.9357 23.8195 9.69442L22.4586 7.83246C22.2828 7.59118 22.3324 7.24519 22.5712 7.06764L23.4275 6.4303L25.4329 9.17089Z" fill="#58DBD2"/>
<path d="M26.2894 8.52897L25.4331 9.16632L23.4277 6.42573L24.284 5.78838C24.5228 5.61084 24.8653 5.66091 25.0411 5.9022L26.402 7.76871C26.5778 8.00999 26.5282 8.35143 26.2894 8.52897Z" fill="#FF614A"/>
<path d="M24.2836 5.78845L24.0898 5.93413L26.0952 8.67928L26.289 8.5336C26.5279 8.35605 26.5819 8.01006 26.4017 7.76878L25.0407 5.90227C24.8605 5.66099 24.5225 5.60636 24.2836 5.78845Z" fill="#FF8D00"/>
<path d="M31.5256 7.11777L35.1353 9.80828C35.3922 9.99949 35.7527 9.94486 35.942 9.68537L36.2259 9.29385C36.4152 9.03436 36.3611 8.67017 36.1042 8.47896L32.4945 5.78845C32.2376 5.59724 31.8771 5.65187 31.6878 5.91137L31.4039 6.30288C31.2147 6.56237 31.2687 6.92657 31.5256 7.11777Z" fill="#FF7D4A"/>
<path d="M32.4945 5.78845L33.4544 6.50319C33.2426 6.73081 33.0668 6.98575 32.9181 7.27255C32.7739 7.46376 32.6477 7.66862 32.5486 7.87803L31.5256 7.11777C31.2687 6.92657 31.2147 6.56237 31.4039 6.30288L31.6878 5.91136C31.8771 5.65187 32.2376 5.59724 32.4945 5.78845Z" fill="#FFAE4A"/>
<path d="M32.8164 9.17095L33.6726 9.80829C33.9115 9.98584 34.254 9.93576 34.4297 9.69448L35.7907 7.83252C35.9665 7.59124 35.9169 7.24525 35.678 7.06771L34.8218 6.43036L32.8164 9.17095Z" fill="#58DBD2"/>
<path d="M31.956 8.52901L32.8122 9.16636L34.8176 6.42121L33.9614 5.78387C33.7226 5.60632 33.3801 5.6564 33.2043 5.89768L31.8433 7.76875C31.6676 8.01003 31.7172 8.35146 31.956 8.52901Z" fill="#FF614A"/>
<path d="M33.9614 5.78845L34.1552 5.93413L32.1498 8.67928L31.956 8.5336C31.7172 8.35605 31.6631 8.01006 31.8433 7.76878L33.2043 5.90227C33.3846 5.66099 33.7225 5.60636 33.9614 5.78845Z" fill="#FF8D00"/>
<path d="M21.4006 31.7239L38.6379 14.0148C37.6961 13.8054 31.2788 12.3896 28.985 12.3896C26.511 12.3896 19.2149 14.0421 19.2149 14.0421C19.2149 14.0421 18.3136 26.4522 20.0306 30.0623C20.2965 30.6086 20.7832 31.1685 21.4006 31.7239Z" fill="#007CAB"/>
<path d="M36.1255 17.0695L32.651 13.6551C32.3085 13.3182 31.7633 13.3273 31.4298 13.6733L31.3982 13.7052C31.3937 13.7097 31.3892 13.7143 31.3847 13.7188L17.7435 27.877C17.4236 28.2094 17.2433 28.6236 17.2027 29.0516L16.707 33.7406L21.2316 33.0532C21.3397 33.0441 21.4524 33.0304 21.5605 33.0031H21.565C21.9075 32.9212 22.2365 32.7391 22.5024 32.4659L36.1436 18.3032C36.4771 17.9572 36.468 17.4063 36.1255 17.0695Z" fill="#FFAE4A"/>
<path d="M35.22 16.1863L33.5391 14.5337L41.0694 6.72168C41.4254 6.35293 42.0113 6.34383 42.3763 6.70347L42.7323 7.05401C43.0974 7.41366 43.1064 8.00548 42.7504 8.37423L35.22 16.1863Z" fill="#FF7D4A"/>
<path d="M42.4829 6.80811L42.7353 7.05394C43.1003 7.41358 43.1093 8.00541 42.7533 8.37416L35.2185 16.1862L34.3262 15.3076L42.4829 6.80811Z" fill="#FFAE4A"/>
<path d="M34.332 15.3077L16.7115 33.7133L16.707 33.7452L21.2316 33.0578C21.3397 33.0487 21.4524 33.035 21.5605 33.0077H21.565C21.9075 32.9258 22.2365 32.7437 22.5024 32.4705L36.1436 18.3078C36.4771 17.9618 36.468 17.4109 36.1255 17.074L34.332 15.3077Z" fill="#FF7D4A"/>
<path opacity="0.44" d="M32.3137 17.0649C31.6107 16.4595 30.9437 15.8085 30.3128 15.121C30.2497 15.0892 30.1866 15.0527 30.1235 15.0209L22.6562 22.7783C23.1204 23.2882 23.5981 23.7844 24.0848 24.2715C25.1303 25.3231 26.2254 26.3201 27.3791 27.2488C27.4061 27.2716 27.4376 27.2898 27.4647 27.3125L35.1933 19.2865C34.1884 18.6128 33.233 17.8571 32.3137 17.0649Z" fill="#FFAE4A"/>
<path opacity="0.44" d="M32.4982 17.2197L24.9453 25.1137C25.7294 25.8603 26.5406 26.575 27.3788 27.2533C27.4059 27.2761 27.4374 27.2943 27.4644 27.3171L35.1931 19.291C34.2557 18.6582 33.3589 17.9526 32.4982 17.2197Z" fill="#FF7D4A"/>
<path opacity="0.44" d="M30.6674 15.4943C30.5502 15.3714 30.4331 15.2485 30.3159 15.121C30.2528 15.0892 30.1897 15.0527 30.1266 15.0209L25.1875 20.147C25.3047 20.5749 25.4354 20.9983 25.539 21.4262C25.904 22.9513 26.2285 24.4855 26.6025 26.006C26.6656 26.2609 26.7287 26.5159 26.7918 26.7708C26.9856 26.9347 27.1794 27.094 27.3777 27.2534C27.4047 27.2761 27.4362 27.2943 27.4633 27.3171L33.0288 21.5355C32.1951 19.546 31.3344 17.552 30.6674 15.4943Z" fill="#FFAE4A"/>
<path opacity="0.44" d="M31.6234 18.1348L26.1074 23.8982C26.2697 24.6038 26.4319 25.3049 26.6031 26.006C26.6662 26.2609 26.7293 26.5159 26.7924 26.7708C26.9862 26.9347 27.18 27.094 27.3783 27.2534C27.4053 27.2761 27.4368 27.2943 27.4639 27.3171L33.0294 21.5355C32.5562 20.4064 32.074 19.2774 31.6234 18.1348Z" fill="#FF7D4A"/>
<path d="M21.8423 17.0694L25.3168 13.655C25.6593 13.3182 26.2046 13.3273 26.5381 13.6732L26.5696 13.7051C26.5742 13.7097 26.5787 13.7142 26.5832 13.7188L40.2243 27.8815C40.5443 28.2139 40.7246 28.6281 40.7651 29.0561L41.2608 33.7451L36.7363 33.0577C36.6282 33.0486 36.5155 33.0349 36.4073 33.0076H36.4028C36.0603 32.9257 35.7314 32.7436 35.4655 32.4704L21.8288 18.3031C21.4953 17.9571 21.4998 17.4063 21.8423 17.0694Z" fill="#FFAE4A"/>
<path d="M22.7469 16.1864L24.4278 14.5338L16.8975 6.7218C16.5415 6.35305 15.9556 6.34395 15.5906 6.70359L15.2346 7.05413C14.8695 7.41378 14.8605 8.0056 15.2166 8.37435L22.7469 16.1864Z" fill="#FF7D4A"/>
<path d="M15.4869 6.80811L15.2346 7.05394C14.8695 7.41358 14.8605 8.00541 15.2166 8.37416L22.7469 16.1817L23.6392 15.303L15.4869 6.80811Z" fill="#FFAE4A"/>
<path d="M23.6402 15.3076L41.2606 33.7133L41.2651 33.7451L36.7406 33.0577C36.6324 33.0486 36.5198 33.035 36.4116 33.0076H36.4071C36.0646 32.9257 35.7356 32.7436 35.4697 32.4704L21.8286 18.3031C21.4951 17.9572 21.5041 17.4063 21.8466 17.0694L23.6402 15.3076Z" fill="#FF7D4A"/>
<path d="M28.9872 34.3105C30.3187 34.3105 31.3981 33.22 31.3981 31.8749C31.3981 30.5298 30.3187 29.4393 28.9872 29.4393C27.6556 29.4393 26.5762 30.5298 26.5762 31.8749C26.5762 33.22 27.6556 34.3105 28.9872 34.3105Z" fill="#FF7D4A"/>
<path d="M29.5437 34.246C29.5977 34.2323 29.6473 34.2187 29.7014 34.205C30.9722 33.809 31.6843 32.4432 31.2922 31.1594C30.9001 29.8756 29.5482 29.1563 28.2773 29.5524L29.5437 34.246Z" fill="#FFAE4A"/>
<path opacity="0.53" d="M29.2515 30.2821L27.9082 30.7017L27.9974 30.9931L29.3407 30.5735L29.2515 30.2821Z" fill="#CC634A"/>
<path opacity="0.53" d="M29.6304 31.5158L28.2871 31.9354L28.3763 32.2268L29.7196 31.8073L29.6304 31.5158Z" fill="#CC634A"/>
<path opacity="0.53" d="M30.0093 32.7539L28.666 33.1735L28.7552 33.4649L30.0985 33.0453L30.0093 32.7539Z" fill="#CC634A"/>
<path opacity="0.53" d="M29.2515 30.2821L27.9082 30.7017L27.9974 30.9931L29.3407 30.5735L29.2515 30.2821Z" fill="#CC634A"/>
<path opacity="0.53" d="M29.6304 31.5158L28.2871 31.9354L28.3763 32.2268L29.7196 31.8073L29.6304 31.5158Z" fill="#CC634A"/>
<path opacity="0.53" d="M30.0093 32.7539L28.666 33.1735L28.7552 33.4649L30.0985 33.0453L30.0093 32.7539Z" fill="#CC634A"/>
<path opacity="0.53" d="M29.0108 34.3097C29.2451 34.3097 29.4794 34.2733 29.7138 34.2005C29.9481 34.1276 30.1644 34.0229 30.3537 33.8909L30.0968 33.0441L28.7539 33.463L29.0108 34.3097Z" fill="#CC634A"/>
<path opacity="0.53" d="M29.7203 31.8087L28.377 32.2283L28.6658 33.1721L30.0092 32.7525L29.7203 31.8087Z" fill="#CC634A"/>
<path opacity="0.53" d="M29.3414 30.5706L27.998 30.9902L28.2869 31.934L29.6302 31.5144L29.3414 30.5706Z" fill="#CC634A"/>
<path opacity="0.53" d="M27.9073 30.6996L29.2502 30.2808L28.9933 29.434C28.759 29.434 28.5246 29.4704 28.2903 29.5433C28.056 29.6161 27.8397 29.7208 27.6504 29.8528L27.9073 30.6996Z" fill="#CC634A"/>
<path d="M28.0469 29.6434L28.5065 29.4977L28.0739 28.9286L28.0469 29.6434Z" fill="#FFAE4A"/>
<path d="M29.7773 34.123L29.3086 34.246L29.7097 34.8378L29.7773 34.123Z" fill="#FFAE4A"/>
<path d="M31.1387 30.8907L31.2919 31.3505L31.8462 30.909L31.1387 30.8907Z" fill="#FFAE4A"/>
<path d="M26.7896 32.821L26.6363 32.3612L26.082 32.8028L26.7896 32.821Z" fill="#FFAE4A"/>
<path d="M26.7478 30.9545L26.9686 30.522L26.2656 30.431L26.7478 30.9545Z" fill="#FFAE4A"/>
<path d="M31.1066 32.8893L30.8633 33.3036L31.5573 33.4402L31.1066 32.8893Z" fill="#FFAE4A"/>
<path d="M29.8086 29.6298L30.2367 29.8437L30.3223 29.1335L29.8086 29.6298Z" fill="#FFAE4A"/>
<path d="M28.0841 34.1003L27.6514 33.8818L27.5703 34.592L28.0841 34.1003Z" fill="#FFAE4A"/>
<defs>
<filter id="filter0_d" x="0.671875" y="0.322449" width="56.6268" height="58.5077" filterUnits="userSpaceOnUse" color-interpolation-filters="sRGB">
<feFlood flood-opacity="0" result="BackgroundImageFix"/>
<feColorMatrix in="SourceAlpha" type="matrix" values="0 0 0 0 0 0 0 0 0 0 0 0 0 0 0 0 0 0 127 0"/>
<feOffset dy="8"/>
<feGaussianBlur stdDeviation="4"/>
<feColorMatrix type="matrix" values="0 0 0 0 0 0 0 0 0 0 0 0 0 0 0 0 0 0 0.02 0"/>
<feBlend mode="normal" in2="BackgroundImageFix" result="effect1_dropShadow"/>
<feBlend mode="normal" in="SourceGraphic" in2="effect1_dropShadow" result="shape"/>
</filter>
</defs>
</svg>
