<svg width="20" height="20" viewBox="0 0 20 20" fill="none" xmlns="http://www.w3.org/2000/svg">
<g clip-path="url(#clip0)">
<path d="M19.9998 10.0077C19.9998 15.5058 15.4747 20.0154 9.96119 20C4.494 20 -0.0156486 15.4595 -0.00020459 9.97683C0.0152394 4.49421 4.54034 0 10.0075 0C15.4901 0 20.0152 4.54054 19.9998 10.0077ZM0.679332 9.97683C0.679332 10.4093 0.71022 10.8417 0.756552 11.2587C0.895548 12.3707 1.23532 13.4054 1.74497 14.3938C1.7913 14.5019 1.85308 14.5174 1.97663 14.5019C2.34729 14.4247 2.7025 14.332 3.05771 14.193C4.18512 13.7761 5.20443 13.1583 6.1774 12.4788C7.75269 11.3822 9.1581 10.0849 10.4554 8.67954C11.66 7.3668 12.7411 5.97683 13.5751 4.40154C13.9766 3.64479 14.3164 2.85714 14.4863 2.00772C14.5172 1.86873 14.4708 1.80695 14.3473 1.74517C13.3898 1.23552 12.355 0.895753 11.243 0.756757C9.85308 0.571429 8.494 0.694981 7.15037 1.11197C3.30481 2.3166 0.663888 5.89961 0.679332 9.97683ZM4.04613 17.0811C4.37045 17.0656 4.494 17.1737 4.494 17.4826C4.494 17.5598 4.54034 17.5907 4.58667 17.6371C4.84922 17.8224 5.12721 17.9923 5.4052 18.1622C5.55964 18.2548 5.71408 18.3012 5.89941 18.2548C6.10018 18.2085 6.25462 18.3166 6.30095 18.5019C6.3164 18.5946 6.36273 18.6255 6.43995 18.6564C6.9496 18.8571 7.4747 19.027 8.01524 19.1351C8.13879 19.166 8.2469 19.1506 8.35501 19.1042C9.1581 18.7799 9.89941 18.3629 10.6253 17.8842C13.3125 16.1081 15.5674 13.8842 17.4515 11.2587C18.1002 10.3475 18.6716 9.38996 19.104 8.33977C19.1349 8.26255 19.1658 8.20077 19.1504 8.10811C19.0268 7.53668 18.8569 6.96525 18.6407 6.42471C18.6253 6.37838 18.6098 6.34749 18.5481 6.3166C18.2237 6.19305 18.1928 6.11583 18.2546 5.77606C18.2701 5.71429 18.2855 5.66795 18.2546 5.60618C18.0693 5.25096 17.8531 4.89575 17.606 4.57143C17.5751 4.5251 17.5442 4.50965 17.4979 4.50965C17.1581 4.49421 17.0654 4.40154 17.0809 4.04633C17.0809 3.96911 17.0963 3.90734 17.0345 3.84556C16.8492 3.64479 16.6484 3.44402 16.4631 3.24324C16.4168 3.19691 16.3859 3.19691 16.3241 3.21235C16.0152 3.32046 15.8145 3.16602 15.8299 2.8417C15.8299 2.76448 15.8454 2.7027 15.7681 2.64093C15.5983 2.51737 15.4284 2.39382 15.2585 2.27027C15.1813 2.20849 15.1504 2.23938 15.1349 2.33205C15.104 2.4556 15.0732 2.57915 15.0423 2.7027C14.6562 3.95367 14.0384 5.09652 13.2971 6.17761C11.4438 8.9112 9.1581 11.2278 6.43995 13.1274C5.17354 14.0077 3.82991 14.7645 2.3164 15.1351C2.22373 15.1506 2.23918 15.1969 2.27007 15.2587C2.37817 15.3977 2.47084 15.5367 2.57895 15.6911C2.65617 15.7992 2.73339 15.8456 2.88783 15.8301C3.16582 15.7992 3.3357 16.0463 3.22759 16.2934C3.19671 16.3861 3.21215 16.4324 3.27393 16.4788C3.44381 16.6332 3.6137 16.8031 3.78358 16.9575C3.8608 17.0502 3.95346 17.112 4.04613 17.0811ZM9.52875 19.3205C12.3859 19.3977 14.8261 18.4865 16.7874 16.417C18.5944 14.5019 19.3975 12.1853 19.3203 9.5444C16.9264 13.6834 13.6832 16.9266 9.52875 19.3205Z" fill="white"/>
<path d="M9.99223 16.3706C9.97679 16.2471 10.0386 16.1544 10.1312 16.0772C10.3166 15.9382 10.5019 15.7992 10.6872 15.6757C10.8571 15.5521 11.0424 15.583 11.166 15.7374C11.2895 15.8919 11.2586 16.0772 11.0888 16.2162C10.9034 16.3552 10.7181 16.4942 10.5328 16.6332C10.4247 16.7104 10.3011 16.7259 10.1776 16.6641C10.054 16.6023 9.99223 16.5096 9.99223 16.3706Z" fill="white"/>
<path d="M14.5019 13.0039C14.3475 13.0039 14.2548 12.9421 14.1776 12.834C14.1158 12.7104 14.1158 12.5869 14.1931 12.4788C14.3475 12.278 14.5174 12.0927 14.6873 11.9073C14.8263 11.7684 15.0116 11.7684 15.1506 11.8919C15.2896 12.0155 15.2896 12.2162 15.166 12.3707C15.027 12.5406 14.8726 12.7104 14.7182 12.8803C14.6718 12.9575 14.5946 13.0039 14.5019 13.0039Z" fill="white"/>
<path d="M11.8147 15.5675C11.6448 15.5675 11.5367 15.4903 11.4749 15.3668C11.4132 15.2432 11.4286 15.1042 11.5213 15.0116C11.722 14.8262 11.9228 14.6409 12.1236 14.4865C12.2626 14.3783 12.4479 14.4092 12.556 14.5482C12.6796 14.6718 12.695 14.8571 12.5715 14.9807C12.3707 15.1814 12.1699 15.3668 11.9383 15.5366C11.9074 15.5675 11.8456 15.583 11.8147 15.5675Z" fill="white"/>
<path d="M17.9924 7.16602C18.2549 7.16602 18.4248 7.39768 18.3321 7.62934C18.2395 7.861 18.1314 8.07721 18.0232 8.30887C17.9306 8.47875 17.7453 8.54053 17.5754 8.46331C17.4055 8.38609 17.3437 8.20076 17.4209 8.01544C17.5136 7.79922 17.6217 7.583 17.7298 7.36679C17.7761 7.24324 17.8842 7.18146 17.9924 7.16602Z" fill="white"/>
<path d="M13.1892 14.332C13.0347 14.3166 12.9266 14.2703 12.8649 14.1313C12.8031 14.0077 12.8031 13.8687 12.9112 13.7761C13.0965 13.5907 13.2818 13.4054 13.4826 13.2201C13.6062 13.112 13.7761 13.1274 13.8996 13.2355C14.0232 13.3436 14.0695 13.529 13.9768 13.6525C13.7915 13.8996 13.5598 14.1004 13.3282 14.2857C13.2818 14.3166 13.2201 14.3166 13.1892 14.332Z" fill="white"/>
<path d="M17.4826 9.22009C17.3282 9.48263 17.2046 9.8224 16.8957 10.0541C16.7722 10.1467 16.6332 10.1004 16.5251 9.99229C16.417 9.88418 16.3861 9.74518 16.4633 9.60619C16.6023 9.37453 16.7413 9.15831 16.8957 8.9421C16.9884 8.81854 17.1274 8.78766 17.2664 8.83399C17.4054 8.89576 17.4826 8.98843 17.4826 9.22009Z" fill="white"/>
<path d="M16.4479 10.6873C16.4479 10.7645 16.417 10.8417 16.3707 10.9035C16.2317 11.0888 16.0773 11.2896 15.9228 11.4595C15.7993 11.6139 15.614 11.6294 15.475 11.5058C15.3205 11.3977 15.2896 11.1969 15.3977 11.0425C15.5367 10.8417 15.6912 10.6409 15.8611 10.4556C15.9537 10.3321 16.0927 10.3166 16.2317 10.363C16.3707 10.4247 16.4325 10.5328 16.4479 10.6873Z" fill="white"/>
<path d="M6.76453 18.2085C6.76453 18.0695 6.8263 17.9614 6.94985 17.8996C7.16607 17.7915 7.39773 17.6989 7.61395 17.6062C7.79928 17.529 7.9846 17.6062 8.06182 17.7915C8.13904 17.9614 8.06182 18.1467 7.8765 18.224C7.66028 18.3321 7.44406 18.4247 7.22785 18.502C6.99619 18.5946 6.77997 18.4556 6.76453 18.2085Z" fill="white"/>
<path d="M9.37458 16.6795C9.52902 16.6795 9.63713 16.7567 9.69891 16.8957C9.76068 17.0502 9.71435 17.1892 9.5908 17.2664C9.35914 17.4208 9.12748 17.5598 8.88038 17.6834C8.74138 17.7606 8.57149 17.6834 8.49427 17.5598C8.40161 17.4363 8.40161 17.2509 8.52516 17.1583C8.75682 16.9575 9.01937 16.8185 9.29736 16.6795C9.31281 16.6795 9.3437 16.6795 9.37458 16.6795Z" fill="white"/>
<path d="M11.7683 10.0386C11.9073 10.0386 12 10.1004 12.0618 10.2239C12.1235 10.3475 12.1235 10.471 12.0309 10.5791C11.861 10.7645 11.6911 10.9498 11.5058 11.1351C11.3822 11.2587 11.1815 11.2432 11.0579 11.1197C10.9344 10.9961 10.9035 10.8108 11.027 10.6718C11.1969 10.4865 11.3668 10.3012 11.5521 10.1158C11.6139 10.054 11.6911 10.0232 11.7683 10.0386Z" fill="white"/>
<path d="M11.2587 13.6989C11.1197 13.6834 11.0116 13.6216 10.9498 13.4981C10.8881 13.3591 10.9035 13.2355 11.0116 13.1274C11.1815 12.9575 11.3668 12.7877 11.5521 12.6332C11.6911 12.5097 11.8765 12.5251 12.0155 12.6641C12.139 12.7877 12.1545 12.9884 12.0309 13.112C11.861 13.2973 11.6603 13.4672 11.4749 13.6371C11.4131 13.668 11.3359 13.6834 11.2587 13.6989Z" fill="white"/>
<path d="M8.12354 15.5367C8.12354 15.4286 8.18531 15.3359 8.27798 15.2587C8.44786 15.1352 8.61774 15.0116 8.80307 14.9035C8.9884 14.78 9.17373 14.8108 9.29728 14.9653C9.40539 15.1197 9.3745 15.3205 9.20462 15.444C9.01929 15.583 8.83396 15.7066 8.64863 15.8301C8.40153 15.9691 8.12354 15.8147 8.12354 15.5367Z" fill="white"/>
<path d="M13.3591 11.6139C13.3591 11.722 13.3282 11.7993 13.2665 11.861C13.1275 12.0155 12.973 12.1699 12.834 12.3244C12.6796 12.4788 12.4788 12.4942 12.3244 12.3552C12.1854 12.2162 12.2008 12.0155 12.3398 11.861C12.4943 11.6912 12.6487 11.5367 12.8031 11.3823C12.9113 11.2742 13.0348 11.2587 13.1738 11.3205C13.2819 11.3668 13.3591 11.4749 13.3591 11.6139Z" fill="white"/>
<path d="M10.7645 14.1159C10.7645 14.1776 10.7181 14.2703 10.6409 14.3321C10.471 14.4711 10.2857 14.6255 10.1004 14.7491C9.93049 14.8726 9.72971 14.8417 9.62161 14.6873C9.5135 14.5329 9.52894 14.3475 9.66794 14.224C9.83782 14.0695 10.0231 13.9305 10.2085 13.7915C10.3166 13.7143 10.4401 13.6989 10.5637 13.7607C10.7027 13.8379 10.7645 13.946 10.7645 14.1159Z" fill="white"/>
<path d="M16.5714 7.35134C16.5714 7.39768 16.5559 7.45945 16.525 7.50578C16.4015 7.70656 16.2934 7.90733 16.1698 8.1081C16.0617 8.26254 15.861 8.30887 15.7065 8.21621C15.5521 8.12354 15.4903 7.92277 15.583 7.75289C15.6911 7.55212 15.8146 7.35134 15.9382 7.15057C16.0308 7.01158 16.1853 6.96524 16.3243 7.01158C16.4787 7.05791 16.5714 7.1969 16.5714 7.35134Z" fill="white"/>
<path d="M9.68335 12.0927C9.68335 11.9846 9.72968 11.9073 9.8069 11.8456C9.96134 11.7066 10.1158 11.5521 10.2702 11.4131C10.4401 11.2587 10.6254 11.2587 10.7644 11.4131C10.9034 11.5521 10.888 11.7683 10.7335 11.9073C10.5791 12.0618 10.4092 12.2162 10.2393 12.3552C10.1312 12.4479 9.99223 12.4633 9.86868 12.4015C9.74513 12.3398 9.68335 12.2317 9.68335 12.0927Z" fill="white"/>
<path d="M16.4015 6.31659C16.4015 6.30115 16.4169 6.25481 16.4324 6.22393C16.525 6.02315 16.6023 5.80694 16.6949 5.60617C16.7721 5.43628 16.942 5.35906 17.1119 5.40539C17.2818 5.46717 17.3899 5.62161 17.3436 5.80694C17.2663 6.06949 17.1582 6.31659 17.0347 6.54825C16.9575 6.6718 16.803 6.71813 16.664 6.68725C16.4942 6.64091 16.386 6.50192 16.4015 6.31659Z" fill="white"/>
<path d="M14.2085 9.94592C14.332 9.96137 14.4401 10.0077 14.5019 10.1158C14.5637 10.2394 14.5791 10.3629 14.4865 10.4556C14.332 10.6563 14.1621 10.8571 13.9768 11.0424C13.8687 11.166 13.6679 11.1506 13.5444 11.0424C13.4208 10.9343 13.3745 10.749 13.4826 10.61C13.637 10.4092 13.8069 10.2085 13.9922 10.0231C14.0386 9.96137 14.1158 9.94592 14.2085 9.94592Z" fill="white"/>
<path d="M9.52899 12.8186C9.52899 12.9267 9.4981 13.0193 9.42088 13.0657C9.23555 13.2201 9.03478 13.39 8.83401 13.529C8.67957 13.6371 8.4788 13.5908 8.38613 13.4518C8.27802 13.3128 8.29347 13.112 8.43246 12.9884C8.61779 12.834 8.78768 12.695 8.98845 12.556C9.09656 12.4788 9.22011 12.4633 9.34366 12.5251C9.45177 12.5869 9.51354 12.695 9.52899 12.8186Z" fill="white"/>
<path d="M16.0927 4.50963C16.0927 4.52507 16.0927 4.5714 16.0618 4.61774C15.9691 4.83395 15.8919 5.03472 15.7993 5.25094C15.7066 5.43627 15.5213 5.49804 15.3514 5.42082C15.1815 5.3436 15.1043 5.15828 15.1815 4.97295C15.2587 4.77218 15.3514 4.55596 15.444 4.35519C15.5213 4.20075 15.6757 4.12353 15.8301 4.15442C15.9846 4.1853 16.0772 4.3243 16.0927 4.50963Z" fill="white"/>
<path d="M14.61 7.01158C14.3783 7.01158 14.2084 6.76448 14.3165 6.53281C14.4246 6.3166 14.5636 6.10038 14.7026 5.89961C14.8107 5.74517 14.9961 5.71428 15.1505 5.80695C15.2895 5.89961 15.3513 6.08494 15.2741 6.23938C15.1505 6.4556 15.027 6.67181 14.888 6.87258C14.8416 6.96525 14.749 7.01158 14.61 7.01158Z" fill="white"/>
<path d="M13.2972 8.15446C13.2972 8.07724 13.3127 8.01547 13.359 7.93825C13.4826 7.76836 13.6061 7.58303 13.7297 7.41315C13.8687 7.22782 14.054 7.19693 14.2084 7.30504C14.3629 7.41315 14.4092 7.61392 14.2857 7.79925C14.1621 7.98458 14.0231 8.16991 13.8841 8.35523C13.7915 8.47879 13.6525 8.50968 13.498 8.46334C13.3745 8.41701 13.2972 8.3089 13.2972 8.15446Z" fill="white"/>
<path d="M15.6139 8.78769C15.6139 9.03479 15.166 9.668 15.0116 9.72977C14.8726 9.77611 14.749 9.76066 14.6409 9.65255C14.5483 9.54445 14.5019 9.40545 14.5791 9.2819C14.7181 9.05024 14.8726 8.83402 15.0425 8.61781C15.1351 8.5097 15.2741 8.49425 15.4131 8.55603C15.5367 8.60236 15.6139 8.71047 15.6139 8.78769Z" fill="white"/>
<path d="M8.09262 13.9151C8.09262 14.0386 8.04629 14.1158 7.95362 14.1931C7.76829 14.3321 7.58297 14.4556 7.39764 14.5792C7.21231 14.6873 7.01154 14.6409 6.91887 14.4865C6.81077 14.3166 6.8571 14.1313 7.02698 14.0232C7.21231 13.8996 7.39764 13.7761 7.56752 13.6525C7.69107 13.5753 7.81463 13.5753 7.92273 13.6525C8.04629 13.6834 8.10806 13.7915 8.09262 13.9151Z" fill="white"/>
<path d="M4.94214 17.112C4.94214 17.0039 5.01936 16.8957 5.15835 16.834C5.35913 16.7567 5.57534 16.6795 5.77611 16.6023C5.97689 16.5405 6.14677 16.6178 6.22399 16.7876C6.30121 16.973 6.22399 17.1428 6.02322 17.2201C5.82245 17.2973 5.60623 17.39 5.40546 17.4517C5.15835 17.5598 4.94214 17.4054 4.94214 17.112Z" fill="white"/>
<path d="M4.07724 16.2471C3.87647 16.2471 3.73747 16.1544 3.70658 16C3.66025 15.8456 3.73747 15.6757 3.87647 15.6139C4.10813 15.5212 4.35523 15.4286 4.58689 15.3514C4.74134 15.305 4.89578 15.3822 4.95755 15.5212C5.03477 15.6602 5.00388 15.861 4.86489 15.9382C4.61778 16.0927 4.32435 16.1699 4.07724 16.2471Z" fill="white"/>
<path d="M7.84561 16.1699C7.83017 16.278 7.78384 16.3706 7.67573 16.4324C7.47495 16.5405 7.27418 16.6641 7.07341 16.7567C6.90353 16.8494 6.7182 16.7876 6.62553 16.6332C6.53287 16.4787 6.5792 16.278 6.74909 16.1699C6.94986 16.0463 7.16607 15.9227 7.36685 15.8301C7.59851 15.7065 7.86106 15.8919 7.84561 16.1699Z" fill="white"/>
<path d="M12.5096 9.88413C12.3706 9.88413 12.278 9.82236 12.2162 9.71425C12.1544 9.5907 12.1544 9.46714 12.2316 9.35904C12.3861 9.17371 12.5405 8.98838 12.7104 8.80305C12.834 8.66405 13.0347 8.66405 13.1737 8.77216C13.3127 8.89572 13.3436 9.08104 13.2201 9.23548C13.0811 9.42081 12.9112 9.60614 12.7567 9.77603C12.695 9.85325 12.6023 9.88413 12.5096 9.88413Z" fill="white"/>
<path d="M6.27028 14.5483C6.42472 14.5637 6.53283 14.6255 6.59461 14.7799C6.64094 14.9344 6.61005 15.0734 6.47105 15.166C6.25484 15.305 6.03862 15.4286 5.80696 15.5367C5.65252 15.6139 5.48264 15.5367 5.38997 15.3977C5.31275 15.2587 5.3282 15.0734 5.45175 14.9807C5.68341 14.8108 5.93051 14.6873 6.17762 14.5637C6.20851 14.5483 6.23939 14.5483 6.27028 14.5483Z" fill="white"/>
</g>
<defs>
<clipPath id="clip0">
<rect width="20" height="20" fill="white"/>
</clipPath>
</defs>
</svg>
