<svg width="26" height="26" viewBox="0 0 26 26" fill="none" xmlns="http://www.w3.org/2000/svg">
<path d="M0.00160753 17.7137C-0.0148166 17.4837 0.0960463 17.2949 0.2685 17.1224C1.81237 15.5827 3.35213 14.0347 4.90011 12.4949C5.04382 12.3512 5.07667 12.2609 4.90011 12.1295C4.79335 12.0474 4.70302 11.9406 4.60858 11.8421C4.31705 11.5464 4.31705 11.1522 4.61268 10.8607C6.07854 9.39486 7.54439 7.92901 9.01846 6.47137C9.16217 6.32765 9.15396 6.25375 9.01435 6.11825C8.44361 5.56393 7.8893 5.00141 7.32677 4.43888C6.51788 3.62588 6.51788 2.48851 7.33088 1.68373C7.70453 1.31419 8.07818 0.940539 8.45183 0.56689C9.16217 -0.143454 10.3447 -0.151666 11.0633 0.554571C11.6627 1.14584 12.2581 1.74122 12.8453 2.3407C12.9685 2.46388 13.0342 2.45566 13.1532 2.33659C13.7199 1.75353 14.3029 1.18279 14.8737 0.599738C15.2432 0.226089 15.6949 0.00846903 16.2081 0.000256962C16.7008 -0.0079551 17.1484 0.180922 17.5056 0.529935C17.9244 0.940539 18.3433 1.35935 18.7498 1.78228C19.4519 2.51315 19.4478 3.60535 18.7415 4.33212C18.1503 4.93982 17.5508 5.5393 16.9472 6.13467C16.8322 6.24964 16.8322 6.31123 16.9472 6.43031C18.4172 7.89205 19.883 9.36201 21.3489 10.8238C21.6815 11.1563 21.6815 11.53 21.353 11.8667C21.2134 12.0104 20.9547 12.1377 20.967 12.3142C20.9793 12.4662 21.2093 12.6058 21.3489 12.7454C22.4534 13.854 23.562 14.9626 24.6707 16.0713C25.032 16.4326 25.3974 16.7939 25.7588 17.1594C26.0831 17.4879 26.079 17.9642 25.7547 18.2967C25.5042 18.5513 25.2537 18.8018 24.9991 19.0523C24.6748 19.3725 24.2026 19.3684 23.8782 19.0481C22.5807 17.7506 21.2873 16.4531 19.9898 15.1556C19.7106 14.8764 19.4273 14.5972 19.1521 14.3098C19.0618 14.2153 19.0002 14.1948 18.9058 14.3057C18.799 14.4289 18.6758 14.5397 18.5609 14.6547C18.2652 14.9503 17.8587 14.9503 17.5631 14.6547C16.0973 13.1888 14.6273 11.723 13.1656 10.253C13.0342 10.1216 12.9644 10.1175 12.8289 10.253C11.3507 11.7435 9.86841 13.2217 8.38613 14.6999C8.1603 14.9257 7.70453 14.9298 7.47048 14.6999C7.33909 14.5685 7.2077 14.4412 7.08452 14.3057C7.0065 14.2194 6.94902 14.1989 6.85458 14.2934C5.93483 15.2213 5.01508 16.1493 4.09122 17.0731C3.42604 17.7424 2.75676 18.4076 2.08747 19.0728C1.80005 19.3561 1.31964 19.3602 1.02812 19.081C0.740694 18.8059 0.465589 18.5226 0.186379 18.2393C0.0426679 18.1038 0.00160753 17.9272 0.00160753 17.7137ZM10.2667 1.01855C10.1681 1.04319 10.2051 1.1212 10.201 1.17048C10.1969 1.65088 10.2092 2.12718 10.1969 2.60759C10.1928 2.79236 10.2462 2.92786 10.3817 3.05925C11.9543 4.62365 13.5146 6.19626 15.0872 7.75655C15.5512 8.21643 15.9782 8.72147 16.5202 9.10333C17.6781 9.91633 18.8319 10.7416 19.9857 11.5587C20.2361 11.7394 20.2279 11.7271 20.4579 11.5259C20.6139 11.3863 20.5852 11.3083 20.4497 11.1728C18.8401 9.57142 17.2346 7.96596 15.6292 6.3605C14.5986 5.32989 13.5679 4.29927 12.5373 3.27277C11.827 2.56242 11.1166 1.85208 10.4022 1.14173C10.3652 1.09246 10.3119 1.05551 10.2667 1.01855ZM7.72506 3.52323C7.74969 3.62999 7.83592 3.69158 7.90572 3.76138C8.73514 4.59491 9.56867 5.42843 10.4022 6.25785C11.868 7.72371 13.3339 9.18956 14.7998 10.6554C15.8304 11.686 16.861 12.7166 17.8916 13.7473C17.945 13.8006 17.9984 13.9033 18.0641 13.8745C18.2078 13.813 18.3104 13.6816 18.4049 13.5584C18.4664 13.4763 18.3679 13.4106 18.3227 13.349C17.6699 12.4292 17.017 11.5095 16.3559 10.5938C16.048 10.1668 15.7852 9.70281 15.4116 9.32916C13.5146 7.42396 11.6094 5.52287 9.70827 3.62178C9.61794 3.53145 9.52761 3.49039 9.40032 3.49449C8.89938 3.4986 8.40255 3.49449 7.90162 3.4986C7.84413 3.49039 7.77844 3.46986 7.72506 3.52323ZM12.3443 9.46466C12.332 9.44413 12.3156 9.4236 12.2992 9.40307C12.0241 9.12797 11.749 8.85286 11.4739 8.57776C11.4164 8.52028 11.3712 8.53259 11.3178 8.59008C10.977 8.95141 10.5829 9.27168 10.2913 9.67818C9.40853 10.9018 8.53395 12.1377 7.65936 13.3654C7.53207 13.5461 7.5526 13.5871 7.84003 13.8294C7.98374 13.9526 8.0289 13.8047 8.10281 13.7473C8.18083 13.6816 8.25063 13.6035 8.32454 13.5337C9.62615 12.2362 10.9278 10.9346 12.2335 9.63712C12.2704 9.57963 12.332 9.54678 12.3443 9.46466ZM5.72953 11.7394C5.80754 11.686 5.86092 11.6573 5.91019 11.6203C6.85047 10.951 7.79075 10.2777 8.73514 9.62069C9.41674 9.1485 10.0737 8.65578 10.6362 8.03576C10.7512 7.90848 10.7512 7.83867 10.628 7.72781C10.4022 7.5184 10.1805 7.30489 9.97516 7.07495C9.84377 6.92713 9.76576 6.95588 9.63847 7.08316C8.27116 8.45458 6.89974 9.81778 5.53244 11.1851C5.47495 11.2426 5.34766 11.2918 5.41336 11.3904C5.49959 11.5177 5.62277 11.6203 5.72953 11.7394ZM15.7893 1.95062C15.7893 1.70426 15.7934 1.4579 15.7893 1.21154C15.7893 1.14995 15.8304 1.05961 15.7482 1.03087C15.6908 1.01034 15.6415 1.08014 15.5963 1.1212C14.9681 1.74943 14.344 2.38176 13.7158 3.00587C13.6501 3.07157 13.6419 3.12084 13.7117 3.19064C13.9744 3.44932 14.2372 3.708 14.4918 3.9749C14.5698 4.05702 14.6232 4.03649 14.693 3.96258C14.849 3.79834 14.9968 3.62178 15.1734 3.48628C15.6743 3.11263 15.9084 2.63633 15.7893 2.00811C15.7852 1.99168 15.7893 1.97115 15.7893 1.95062ZM17.3291 3.49039C17.0745 3.49039 16.824 3.49449 16.5695 3.49039C16.4709 3.49039 16.3847 3.51092 16.3108 3.58482C15.9782 3.92152 15.6456 4.25411 15.3089 4.58259C15.2227 4.66471 15.2309 4.7222 15.313 4.80021C15.5676 5.04657 15.8222 5.29704 16.0644 5.55572C16.1547 5.65016 16.2122 5.64195 16.2985 5.55161C16.5407 5.30115 16.7871 5.05478 17.0334 4.80842C17.4071 4.43067 17.7848 4.05291 18.1585 3.67105C18.1996 3.62999 18.2694 3.58893 18.2365 3.51913C18.2078 3.46164 18.138 3.48628 18.0846 3.48628C17.8341 3.49039 17.5795 3.49039 17.3291 3.49039ZM9.32641 1.00624C9.27303 1.02677 9.2525 1.02677 9.23608 1.03908C8.73104 1.50307 8.25884 1.99168 7.78254 2.4803C7.69632 2.57063 7.74148 2.60759 7.84824 2.60759C8.29169 2.60759 8.73514 2.60759 9.17859 2.60759C9.26482 2.60759 9.3223 2.58295 9.3223 2.4803C9.3223 2.004 9.32641 1.51949 9.32641 1.00624ZM17.4605 2.6158C17.6781 2.6158 17.8998 2.6158 18.1174 2.6158C18.1626 2.6158 18.2201 2.63222 18.2406 2.57474C18.257 2.53368 18.216 2.50083 18.1872 2.47209C17.7315 2.01221 17.2716 1.55234 16.8117 1.09246C16.783 1.06372 16.7419 1.01034 16.6926 1.03908C16.6516 1.05961 16.668 1.11299 16.668 1.15405C16.668 1.5934 16.668 2.02864 16.668 2.46798C16.668 2.58295 16.7132 2.62401 16.8281 2.62401C17.0375 2.61169 17.247 2.6158 17.4605 2.6158ZM8.0946 11.144C7.54029 11.5382 7.01061 11.916 6.47272 12.2937C6.3947 12.3471 6.3947 12.3882 6.4604 12.4497C6.57126 12.5524 6.68213 12.6551 6.77656 12.77C6.88332 12.8932 6.9408 12.8562 7.01882 12.7413C7.35141 12.265 7.69221 11.7969 8.0248 11.3206C8.06175 11.2795 8.10281 11.2426 8.0946 11.144ZM17.908 11.1563C17.8957 11.1687 17.8793 11.1851 17.867 11.1974C18.2488 11.7353 18.6348 12.2732 19.0167 12.8111C19.0577 12.8686 19.0988 12.8727 19.148 12.8193C19.2753 12.6879 19.4067 12.5565 19.5381 12.4292C19.5956 12.3758 19.571 12.3389 19.5176 12.3019C18.9838 11.9201 18.4459 11.5382 17.908 11.1563ZM25.0484 17.7137C25.0361 17.6973 25.0197 17.6726 24.995 17.648C24.8965 17.5453 24.7897 17.4468 24.6953 17.3441C24.6296 17.2702 24.5803 17.299 24.5269 17.3565C24.4038 17.4837 24.2724 17.6028 24.1533 17.7342C23.9644 17.9354 23.9357 17.8779 24.1615 18.1038C24.2477 18.19 24.3134 18.3008 24.4325 18.346C24.4777 18.3542 25.0484 17.7835 25.0484 17.7137ZM1.99714 17.919C1.98072 17.8902 1.9725 17.8697 1.96019 17.8574C1.78363 17.6767 1.60707 17.5002 1.4264 17.3195C1.36892 17.262 1.33196 17.3072 1.2909 17.3441C0.872087 17.6973 0.872087 17.6932 1.25805 18.0791C1.26627 18.0873 1.27858 18.0997 1.2868 18.1079C1.54958 18.3706 1.54958 18.3706 1.81647 18.1079C1.87807 18.0463 1.93555 17.9806 1.99714 17.919ZM20.113 14.0059C20.1294 13.9977 20.1499 13.9895 20.1622 13.9772C20.3388 13.8006 20.5195 13.62 20.696 13.4434C20.7576 13.3818 20.7001 13.349 20.6673 13.3079C20.3183 12.8973 20.3183 12.8973 19.9364 13.2833C19.649 13.5748 19.649 13.5748 19.9405 13.8704C19.9898 13.9197 20.0308 13.9895 20.113 14.0059ZM21.8129 14.4781C21.7964 14.4535 21.7882 14.433 21.7759 14.4165C21.6609 14.3016 21.546 14.1866 21.431 14.0675C21.3776 14.01 21.3325 14.0429 21.2914 14.084C21.1272 14.2482 20.967 14.4124 20.7987 14.5767C20.7124 14.6588 20.774 14.7204 20.8315 14.7573C20.9752 14.8477 21.0163 15.0817 21.2421 15.053C21.2585 15.0489 21.2709 15.0283 21.2873 15.0119C21.4351 14.8641 21.587 14.7122 21.7348 14.5644C21.7636 14.5438 21.7882 14.511 21.8129 14.4781ZM6.31669 13.5625C6.30437 13.5461 6.30026 13.5255 6.28384 13.5132C6.11139 13.3408 5.93893 13.1642 5.76648 12.9917C5.70489 12.9302 5.65972 12.9712 5.61045 13.0164C5.20806 13.3572 5.20806 13.3572 5.5776 13.7308C5.58171 13.7349 5.58581 13.739 5.59403 13.7473C5.88555 14.0388 5.88555 14.0429 6.18119 13.7432C6.23046 13.6857 6.29616 13.6446 6.31669 13.5625ZM5.2327 14.6383C5.22038 14.6218 5.20395 14.5972 5.18753 14.5808C5.02329 14.4165 4.85905 14.2523 4.6948 14.0881C4.64143 14.0347 4.60037 14.0347 4.53878 14.084C4.11585 14.4206 4.11175 14.4371 4.49361 14.8148C4.79746 15.1146 4.79746 15.1146 5.10951 14.8066C5.15879 14.7573 5.22038 14.7204 5.2327 14.6383ZM23.9808 16.6379C23.9316 16.5845 23.8823 16.527 23.8289 16.4778C23.5333 16.178 23.5333 16.1821 23.2418 16.4696C22.8599 16.8514 22.8599 16.8514 23.2623 17.2004C23.2664 17.2045 23.2705 17.2086 23.2746 17.2169C23.328 17.2784 23.3773 17.2661 23.4265 17.2127C23.5908 17.0485 23.755 16.8843 23.9151 16.72C23.9398 16.6995 23.9562 16.6749 23.9808 16.6379ZM22.8845 15.5498C22.8763 15.5375 22.8722 15.517 22.8558 15.5046C22.7244 15.3774 22.6217 15.1803 22.4534 15.1392C22.3384 15.1105 22.2481 15.3117 22.1413 15.4061C22.1249 15.4184 22.1126 15.4348 22.0962 15.4472C21.8005 15.7387 21.8005 15.7428 22.1003 16.0343C22.1537 16.0836 22.1906 16.1616 22.2686 16.1739C22.3179 16.1821 22.8845 15.6032 22.8845 15.5498ZM2.64179 17.2579C2.65411 17.2497 2.67874 17.2333 2.69927 17.221C3.11398 16.9212 3.11809 16.8473 2.76086 16.4901C2.74444 16.4737 2.73212 16.4613 2.7157 16.4449C2.4488 16.1821 2.4488 16.178 2.18602 16.4449C2.12443 16.5065 2.04231 16.5558 2.01356 16.642C2.00535 16.679 2.58841 17.2579 2.64179 17.2579ZM4.15281 15.7387C4.1446 15.7223 4.14049 15.6976 4.12407 15.6853C3.94751 15.5046 3.76684 15.3281 3.59028 15.1515C3.54511 15.1064 3.51227 15.131 3.4671 15.1597C3.05239 15.4636 3.04418 15.5334 3.40551 15.8947C3.41372 15.9029 3.42604 15.9152 3.43425 15.9235C3.71757 16.2068 3.71757 16.2068 3.99267 15.9235C4.05016 15.866 4.12407 15.8249 4.15281 15.7387Z" fill="#7782AD"/>
<path d="M12.9808 25.5111C9.8643 25.4987 7.26929 22.8873 7.26929 19.7913C7.26929 16.6584 9.90536 14.0429 13.0424 14.0634C16.1835 14.088 18.7333 16.7693 18.7169 19.8037C18.6964 22.916 16.0726 25.5234 12.9808 25.5111ZM8.14798 19.7872C8.14798 20.4812 8.2958 21.1628 8.54216 21.7663C8.62428 21.9634 8.71872 21.9963 8.90759 21.9265C9.25661 21.7992 9.59741 21.6596 9.91768 21.4789C11.5642 20.5345 12.8904 19.2329 14.0278 17.7301C14.5 17.106 14.8942 16.4367 15.1406 15.6853C15.2021 15.4964 15.1611 15.4102 14.9763 15.3363C14.0114 14.9339 13.0177 14.8312 12.0035 15.0407C9.69185 15.5087 8.14387 17.4304 8.14798 19.7872ZM17.3209 17.5618C17.21 17.7876 17.0745 17.9354 16.8363 17.9272C16.512 17.9108 16.3642 17.611 16.475 17.2538C16.5448 17.0362 16.7624 16.8227 16.668 16.6009C16.5736 16.3833 16.3477 16.2355 16.1589 16.0754C16.1383 16.0589 16.1137 16.0425 16.0973 16.022C16.0028 15.9276 15.9536 15.9563 15.9125 16.0754C15.6169 16.9089 15.1611 17.6521 14.6314 18.3542C13.5146 19.8406 12.1883 21.0971 10.5993 22.0743C10.1928 22.3248 9.76576 22.5465 9.30999 22.6943C9.14164 22.7518 9.13753 22.8093 9.2525 22.9242C9.36336 23.0351 9.47423 23.1501 9.57277 23.2733C9.72059 23.4539 9.87662 23.495 10.1066 23.417C10.4843 23.2856 10.7635 23.5484 10.6855 23.9425C10.665 24.0452 10.6896 24.0904 10.7758 24.1314C11.0099 24.2423 11.2562 24.3285 11.4985 24.423C11.8229 24.5502 12.1103 24.501 12.4141 24.3408C13.7199 23.651 14.8162 22.7025 15.8098 21.6226C16.5325 20.8384 17.1648 19.9925 17.6247 19.0276C17.6822 18.9044 17.7397 18.7771 17.7068 18.6334C17.6247 18.2721 17.5097 17.9231 17.3209 17.5618ZM17.752 20.5797C16.6639 22.1564 15.3623 23.4539 13.8143 24.5256C15.3459 24.7145 17.7438 22.3289 17.752 20.5797Z" fill="#7782AD"/>
<path d="M12.7385 22.0538C12.7426 21.7499 13.3503 21.2243 13.6501 21.2736C13.8184 21.3024 13.9375 21.3968 13.9991 21.5569C14.0566 21.713 14.036 21.8649 13.9211 21.9757C13.7568 22.14 13.5803 22.2919 13.3914 22.4274C13.2559 22.526 13.0916 22.5177 12.9438 22.4274C12.8042 22.3453 12.7303 22.218 12.7385 22.0538Z" fill="#7782AD"/>
<path d="M16.6106 18.7155C16.6106 18.8141 16.5941 18.888 16.5531 18.9537C16.4381 19.1261 16.3314 19.2986 16.2041 19.4628C16.0563 19.6517 15.8058 19.6805 15.6169 19.5532C15.428 19.4259 15.3664 19.1754 15.4896 18.9701C15.5964 18.7935 15.7114 18.6252 15.8386 18.4651C15.9618 18.3131 16.1261 18.2639 16.3149 18.3337C16.5079 18.3953 16.5983 18.539 16.6106 18.7155Z" fill="#7782AD"/>
<path d="M14.6067 21.1382C14.4343 21.1382 14.3029 21.0684 14.2208 20.9124C14.1428 20.7604 14.1387 20.6003 14.2413 20.4648C14.3809 20.2882 14.5328 20.1199 14.6971 19.9639C14.8449 19.8243 15.0912 19.8325 15.2473 19.9556C15.4074 20.0829 15.469 20.317 15.3622 20.4894C15.2267 20.7112 15.042 20.8959 14.8408 21.0643C14.7751 21.1259 14.693 21.1382 14.6067 21.1382Z" fill="#7782AD"/>
<path d="M11.6176 23.6387C11.3712 23.6346 11.2357 23.5402 11.1577 23.3718C11.0838 23.2076 11.1331 22.9776 11.2809 22.8709C11.4616 22.7395 11.6546 22.6163 11.8558 22.5136C12.0323 22.4233 12.2089 22.4726 12.3444 22.6163C12.4799 22.76 12.5209 22.9489 12.4101 23.109C12.2048 23.3964 11.8927 23.5319 11.6176 23.6387Z" fill="#7782AD"/>
</svg>
