<svg width="26" height="20" viewBox="0 0 26 20" fill="none" xmlns="http://www.w3.org/2000/svg">
<g clip-path="url(#clip0)">
<path d="M26 17.7744C26.0165 17.5476 25.9056 17.3579 25.7331 17.1848C24.1969 15.6469 22.6648 14.1049 21.1327 12.5629C20.8986 12.3279 20.8863 12.3897 21.1245 12.1464C21.2108 12.0599 21.3011 11.9733 21.3874 11.8826C21.679 11.5816 21.6831 11.194 21.3874 10.8972C19.9211 9.42525 18.4547 7.95333 16.9801 6.48966C16.8405 6.3536 16.8323 6.27938 16.976 6.1392C17.5511 5.57847 18.1138 5.00949 18.6806 4.43639C19.4774 3.6324 19.4733 2.48208 18.6724 1.68221C18.2945 1.30702 17.9166 0.923579 17.5387 0.548384C16.8323 -0.148406 15.6822 -0.169021 14.9634 0.527769C14.3473 1.12561 13.7476 1.73581 13.1479 2.35014C13.037 2.46559 12.9754 2.46559 12.8604 2.35014C12.2853 1.76055 11.7062 1.17921 11.1229 0.593737C10.3343 -0.197882 9.22121 -0.202005 8.43258 0.585491C8.05059 0.968932 7.6686 1.35237 7.28661 1.73994C6.53906 2.5027 6.53906 3.61591 7.28661 4.37867C7.87397 4.97651 8.46133 5.57022 9.05691 6.15981C9.17603 6.27526 9.16781 6.34123 9.0528 6.45255C7.58234 7.92034 6.116 9.39639 4.64964 10.8683C4.31694 11.2023 4.31694 11.5733 4.64554 11.9156C4.78519 12.0599 5.04396 12.1835 5.02753 12.3608C5.0111 12.5175 4.78108 12.6536 4.64143 12.7938C3.5201 13.9235 2.39877 15.049 1.27745 16.1788C0.924208 16.5333 0.57097 16.8879 0.217731 17.2425C-0.086218 17.5558 -0.0821101 18.0382 0.225947 18.3516C0.4765 18.6072 0.727054 18.8587 0.981714 19.1102C1.31852 19.4442 1.79498 19.4401 2.13179 19.102C3.41331 17.8156 4.69482 16.5251 5.97634 15.2387C6.26797 14.946 6.5596 14.6574 6.84301 14.3605C6.93748 14.2615 6.99909 14.2615 7.08945 14.3646C7.19625 14.4883 7.31947 14.5996 7.43858 14.7151C7.73843 15.0161 8.13274 15.0119 8.43258 14.711C9.89893 13.2432 11.3653 11.7795 12.8193 10.3076C12.9631 10.1633 13.037 10.155 13.1849 10.3076C14.6512 11.7877 16.1258 13.2638 17.5962 14.7398C17.8509 14.9954 18.2822 14.9996 18.5368 14.7481C18.6683 14.6161 18.8038 14.4883 18.9271 14.3523C19.0092 14.2615 19.0626 14.2739 19.1447 14.3564C19.6992 14.9171 20.2538 15.4778 20.8083 16.0386C21.8474 17.0817 22.8866 18.1289 23.9299 19.1721C24.1969 19.4359 24.6857 19.4401 24.9609 19.1803C25.2607 18.8835 25.5441 18.5866 25.8316 18.2939C25.9672 18.1578 26 17.9846 26 17.7744ZM18.2904 3.50459C18.2452 3.64065 18.1631 3.70662 18.0932 3.77671C16.7255 5.14967 15.3536 6.52676 13.9858 7.89973C12.7372 9.15313 11.4885 10.4065 10.2398 11.6599C9.52105 12.3856 8.79404 13.103 8.07934 13.8328C7.97255 13.94 7.89862 13.9647 7.80415 13.8328C7.7795 13.7998 7.75075 13.7709 7.71789 13.7462C7.56591 13.6348 7.56591 13.5318 7.68092 13.3751C8.26007 12.5752 8.82279 11.763 9.40193 10.9631C9.79214 10.423 10.1166 9.83343 10.5849 9.35928C12.4866 7.4297 14.4048 5.51662 16.3147 3.59942C16.364 3.54994 16.4092 3.50047 16.4872 3.50047C17.0787 3.50459 17.6702 3.50459 18.2904 3.50459ZM15.7274 1.01841C15.8301 1.03902 15.7972 1.11736 15.7972 1.16684C15.8013 1.64923 15.789 2.1275 15.8013 2.60989C15.8054 2.8078 15.7397 2.94386 15.6041 3.0758C14.0433 4.6343 12.4907 6.20517 10.9258 7.76367C10.474 8.21308 10.0632 8.70372 9.54159 9.07891C8.33811 9.9365 7.13463 10.7982 5.92705 11.6558C5.734 11.796 5.72579 11.7877 5.46291 11.4909C5.32326 11.3383 5.47934 11.2847 5.54917 11.2146C7.14696 9.60666 8.74885 7.99868 10.3507 6.39483C11.3858 5.35583 12.4209 4.31682 13.456 3.27782C14.1665 2.56454 14.8771 1.85126 15.5877 1.13798C15.6329 1.09262 15.6822 1.05552 15.7274 1.01841ZM13.6408 9.50771C13.6572 9.48297 13.6654 9.46648 13.6819 9.44998C13.9612 9.16962 14.2446 8.88925 14.5239 8.60477C14.5814 8.54704 14.6266 8.55529 14.68 8.60889C15.0538 9.00882 15.4768 9.35928 15.7972 9.81281C16.6105 10.9673 17.432 12.1176 18.2493 13.2679C18.4752 13.5854 18.4711 13.5771 18.1877 13.8534C18.0932 13.9441 18.0398 13.9317 17.9536 13.8492C16.5489 12.4351 15.14 11.025 13.7312 9.61491C13.6942 9.58192 13.6695 9.54481 13.6408 9.50771ZM15.2468 7.89561C15.2632 7.87499 15.2797 7.84613 15.3043 7.82139C15.5713 7.5534 15.8383 7.28952 16.1011 7.02153C16.1751 6.94731 16.2285 6.96793 16.2901 7.03389C16.4051 7.15346 16.5201 7.26891 16.6392 7.38435C17.9207 8.67073 19.2023 9.95299 20.4838 11.2394C20.5289 11.2847 20.6234 11.3301 20.5988 11.396C20.5413 11.5404 20.4098 11.6269 20.2989 11.7259C20.2127 11.8042 20.1511 11.697 20.0895 11.6558C19.3337 11.1239 18.582 10.5879 17.8304 10.0478C16.9719 9.42937 16.0601 8.87276 15.3618 8.05228C15.3207 8.00693 15.2632 7.97394 15.2468 7.89561ZM7.73432 3.50459C8.34222 3.50459 8.92958 3.50459 9.51694 3.50459C9.58266 3.50459 9.63195 3.53757 9.67713 3.58293C10.0139 3.92101 10.3507 4.26323 10.6917 4.60131C10.7738 4.68377 10.7697 4.73737 10.6876 4.81983C10.4411 5.05897 10.1988 5.2981 9.96465 5.54961C9.85375 5.66918 9.78392 5.66505 9.67302 5.54961C9.08977 4.95177 8.4983 4.36218 7.91094 3.76846C7.84111 3.69425 7.76718 3.63653 7.73432 3.50459ZM10.207 1.95846C10.207 1.71932 10.2029 1.47606 10.2111 1.23693C10.2111 1.16684 10.1659 1.06788 10.2522 1.0349C10.322 1.01016 10.3713 1.09262 10.4165 1.13798C11.0367 1.76055 11.6528 2.38313 12.273 3.00158C12.3511 3.07992 12.3675 3.13352 12.2812 3.21598C12.0266 3.46336 11.7719 3.71486 11.5296 3.97461C11.4392 4.06944 11.3776 4.05295 11.2996 3.96637C11.1517 3.80557 11.0079 3.6324 10.8354 3.50459C10.3343 3.12939 10.0961 2.65112 10.2152 2.0203C10.2111 1.99969 10.207 1.97907 10.207 1.95846ZM16.6721 1.79354C16.6721 1.57914 16.668 1.36887 16.6721 1.15447C16.6721 1.10911 16.6515 1.04727 16.709 1.02665C16.7583 1.01016 16.7994 1.05552 16.8323 1.0885C17.2923 1.55028 17.7523 2.01206 18.2083 2.47383C18.2411 2.50682 18.2863 2.5398 18.2617 2.5934C18.2411 2.63876 18.1877 2.62226 18.1507 2.62226C17.7113 2.62226 17.2759 2.61814 16.8364 2.62226C16.7049 2.62226 16.6721 2.56454 16.6721 2.44497C16.6762 2.23058 16.6721 2.01206 16.6721 1.79354ZM8.51884 2.62639C8.30525 2.62639 8.09577 2.62639 7.88219 2.62639C7.837 2.62639 7.77539 2.64288 7.75075 2.5934C7.73021 2.54393 7.77539 2.50682 7.80825 2.46971C7.96434 2.30891 8.12452 2.14812 8.28061 1.98732C8.56402 1.69871 8.84743 1.41422 9.13084 1.12973C9.17192 1.0885 9.22121 1.01841 9.28282 1.0349C9.35675 1.05552 9.32389 1.1421 9.32389 1.1957C9.328 1.61212 9.32389 2.03267 9.328 2.4491C9.328 2.58103 9.28693 2.63463 9.15138 2.63051C8.9419 2.61814 8.73242 2.62639 8.51884 2.62639ZM8.09988 11.1858C8.1122 11.1981 8.12452 11.2105 8.13274 11.2229C8.08345 11.293 8.03416 11.3672 7.98487 11.4373C7.73843 11.7836 7.49198 12.1299 7.24554 12.4763C6.88408 12.9917 6.88408 12.9917 6.47334 12.501C6.40762 12.4268 6.40762 12.3856 6.49388 12.3237C7.03195 11.9527 7.56592 11.5692 8.09988 11.1858ZM17.8961 11.1775C18.3274 11.4868 18.7463 11.7795 19.1612 12.0805C19.3049 12.1877 19.5596 12.2578 19.5596 12.4186C19.5637 12.5752 19.3255 12.6824 19.2064 12.8226C19.1037 12.9463 19.0503 12.8927 18.9805 12.7896C18.6395 12.3031 18.2904 11.8166 17.9454 11.3301C17.9207 11.2971 17.8797 11.2641 17.8961 11.1775ZM21.3751 14.0884C21.4531 14.1049 21.486 14.1708 21.5353 14.2162C21.8556 14.5254 21.8515 14.5254 21.5435 14.8346C21.182 15.1934 21.182 15.1934 20.8411 14.814C20.8329 14.8058 20.8206 14.7934 20.8124 14.7852C20.7549 14.7316 20.7631 14.6821 20.8165 14.6285C20.9808 14.4636 21.1451 14.2987 21.3094 14.1379C21.3299 14.1131 21.3545 14.1008 21.3751 14.0884ZM22.4718 15.1769C22.4841 15.1851 22.5046 15.1934 22.5211 15.2057C22.6484 15.3377 22.8414 15.4407 22.8866 15.6098C22.9154 15.7335 22.7141 15.8159 22.6278 15.9272C22.6073 15.952 22.5786 15.9767 22.5539 16.0015C22.291 16.2653 22.2869 16.2695 22.0241 15.9973C21.9624 15.9355 21.8803 15.8901 21.8556 15.7994C21.8392 15.7582 22.4225 15.1769 22.4718 15.1769ZM4.81805 15.1562C4.7893 15.1398 4.76876 15.1315 4.75644 15.1191C4.57571 14.9418 4.39909 14.7646 4.22247 14.5831C4.16907 14.5295 4.21015 14.4883 4.24712 14.443C4.59625 14.0307 4.59625 14.0307 4.98234 14.4141C5.27808 14.7068 5.27808 14.7068 4.98234 15.0078C4.92484 15.0573 4.86734 15.1068 4.81805 15.1562ZM3.10936 15.6386C3.12579 15.5479 3.19151 15.5067 3.2449 15.4531C3.54475 15.1521 3.54475 15.1562 3.84459 15.4531C4.21426 15.8201 4.21426 15.8201 3.81994 16.1746C3.75012 16.2406 3.70083 16.2447 3.63511 16.1746C3.48314 16.018 3.32705 15.8654 3.17097 15.7087C3.14633 15.6881 3.12579 15.6593 3.10936 15.6386ZM23.3877 17.3208C23.2974 17.3126 23.2645 17.2466 23.2193 17.2013C22.903 16.8879 22.903 16.8879 23.2193 16.5746C23.5726 16.22 23.5684 16.2241 23.9094 16.5993C23.9833 16.6818 23.9956 16.7354 23.9094 16.8178C23.7615 16.958 23.6218 17.1064 23.474 17.2507C23.4452 17.2755 23.4124 17.3002 23.3877 17.3208ZM2.45628 16.2612C2.49325 16.2901 2.5261 16.3107 2.55075 16.3396C2.62468 16.4096 2.69451 16.4839 2.76844 16.5581C3.12579 16.9168 3.12168 16.9127 2.73558 17.259C2.65754 17.3291 2.60415 17.3332 2.53432 17.259C2.41931 17.1353 2.29609 17.0157 2.17287 16.8962C1.98803 16.7106 1.98803 16.7106 2.17697 16.521C2.23448 16.4632 2.29198 16.4055 2.34949 16.3478C2.38645 16.3148 2.41931 16.2901 2.45628 16.2612ZM20.0977 14.0554C20.0812 14.0389 20.0525 14.0224 20.0278 13.9977C19.9375 13.907 19.8471 13.8121 19.7526 13.7214C19.6746 13.6513 19.6705 13.5977 19.7485 13.5194C19.9087 13.3669 20.0607 13.2143 20.2086 13.0535C20.2825 12.9793 20.3441 12.9875 20.3893 13.0659C20.4756 13.2184 20.7302 13.2514 20.6974 13.4905C20.6974 13.5029 20.6809 13.5112 20.6686 13.5194C20.5125 13.6761 20.3605 13.8286 20.2045 13.9812C20.1839 14.0142 20.1593 14.0513 20.0977 14.0554ZM5.87366 14.0595C5.8449 14.0348 5.81615 14.01 5.7874 13.9812C5.65185 13.8451 5.52452 13.7049 5.38076 13.5771C5.26986 13.4782 5.26165 13.4163 5.37255 13.305C5.70936 12.9752 5.70114 12.9669 6.03384 13.305C6.35012 13.6266 6.35012 13.6307 6.02563 13.9523C5.98456 13.9936 5.9517 14.0513 5.87366 14.0595ZM24.0162 17.964C24.0326 17.9434 24.0531 17.9145 24.0737 17.8898C24.2338 17.729 24.394 17.5723 24.5501 17.4074C24.6117 17.3414 24.6569 17.3579 24.7226 17.4115C25.1293 17.762 25.1293 17.7579 24.7514 18.1372C24.4515 18.4382 24.4474 18.4382 24.1435 18.1289C24.0983 18.0836 24.0367 18.0424 24.0162 17.964ZM1.37603 17.3621C1.39656 17.3703 1.4171 17.3744 1.42942 17.3909C1.61015 17.5682 1.78677 17.7496 1.9675 17.931C2.01679 17.9805 1.97571 18.0176 1.94696 18.0547C1.64301 18.467 1.5855 18.4712 1.22405 18.1166C1.20351 18.096 1.18298 18.0795 1.16655 18.0589C0.90778 17.7991 0.907778 17.7991 1.17476 17.5393C1.23637 17.4734 1.28566 17.3909 1.37603 17.3621Z" fill="white"/>
</g>
<defs>
<clipPath id="clip0">
<rect width="26" height="19.3617" fill="white" transform="matrix(-1 0 0 1 26 0)"/>
</clipPath>
</defs>
</svg>
