<svg width="12" height="11" viewBox="0 0 12 11" fill="none" xmlns="http://www.w3.org/2000/svg">
<path d="M2.7 10.8H0.6C0.27 10.8 0 10.53 0 10.2V4.2C0 3.87 0.27 3.6 0.6 3.6H2.7C3.03 3.6 3.3 3.87 3.3 4.2V10.2C3.3 10.53 3.03 10.8 2.7 10.8ZM7.05 0H4.95C4.62 0 4.35 0.27 4.35 0.6V10.2C4.35 10.53 4.62 10.8 4.95 10.8H7.05C7.38 10.8 7.65 10.53 7.65 10.2V0.6C7.65 0.27 7.38 0 7.05 0ZM11.4 4.8H9.3C8.97 4.8 8.7 5.07 8.7 5.4V10.2C8.7 10.53 8.97 10.8 9.3 10.8H11.4C11.73 10.8 12 10.53 12 10.2V5.4C12 5.07 11.73 4.8 11.4 4.8Z" fill="#7782AD"/>
</svg>
