<svg width="19" height="17" viewBox="0 0 19 17" fill="none" xmlns="http://www.w3.org/2000/svg">
<path d="M9.34737 6.54346C7.82739 6.54346 6.54297 7.82787 6.54297 9.34786C6.54297 10.8678 7.82739 12.1523 9.34737 12.1523C10.8674 12.1523 12.1518 10.8678 12.1518 9.34786C12.1518 7.82787 10.8674 6.54346 9.34737 6.54346Z" fill="white"/>
<path d="M16.8264 2.8044H14.409L11.8785 0.273898C11.7919 0.186921 11.6888 0.117944 11.5754 0.0709377C11.462 0.023931 11.3404 -0.000177097 11.2176 9.79367e-07H7.47841C7.35563 -0.000177097 7.23402 0.023931 7.1206 0.0709377C7.00717 0.117944 6.90416 0.186921 6.8175 0.273898L4.287 2.8044H1.8696C0.838516 2.8044 0 3.64292 0 4.67401V14.9568C0 15.9879 0.838516 16.8264 1.8696 16.8264H16.8264C17.8575 16.8264 18.696 15.9879 18.696 14.9568V4.67401C18.696 3.64292 17.8575 2.8044 16.8264 2.8044ZM9.34801 14.022C6.8147 14.022 4.67401 11.8813 4.67401 9.34801C4.67401 6.8147 6.8147 4.67401 9.34801 4.67401C11.8813 4.67401 14.022 6.8147 14.022 9.34801C14.022 11.8813 11.8813 14.022 9.34801 14.022Z" fill="white"/>
</svg>
