<svg width="19" height="19" viewBox="0 0 19 19" fill="none" xmlns="http://www.w3.org/2000/svg">
<path d="M10.6289 18.9999C9.70107 18.9868 8.91439 18.6257 8.18823 18.1334C7.05864 17.3589 6.14422 16.3677 5.31048 15.3043C3.83798 13.4204 2.52014 11.4445 1.52503 9.27837C1.06109 8.28062 0.698009 7.25004 0.617324 6.1407C0.516468 4.76879 1.0073 3.67914 2.19067 2.91114C2.65461 2.60918 3.12527 2.30723 3.59593 2.0184C3.90522 1.82804 4.05987 1.86743 4.26158 2.16938C5.21635 3.60037 6.16439 5.03137 7.11243 6.46235C7.3007 6.74461 7.26708 6.90214 6.97796 7.0925C6.61488 7.32881 6.2518 7.56512 5.87527 7.78174C5.61977 7.92615 5.53236 8.12964 5.53908 8.40534C5.55253 8.8517 5.70045 9.26524 5.88199 9.66565C6.46023 10.9391 7.21329 12.0944 8.3496 12.9674C8.89422 13.3875 9.04214 13.3744 9.63383 13.0003C9.91622 12.823 10.1986 12.6458 10.481 12.4686C10.8239 12.2519 10.9651 12.2782 11.1937 12.6195C11.7854 13.4926 12.3704 14.3722 12.9621 15.2518C13.3251 15.79 13.6815 16.3348 14.0513 16.8731C14.2194 17.116 14.1992 17.3326 13.937 17.4902C13.2646 17.9037 12.6259 18.3697 11.9064 18.7111C11.4963 18.908 11.0593 18.9802 10.6289 18.9999Z" fill="#7782AD"/>
<path d="M18.3347 9.40968C18.3482 10.0267 18.281 10.5781 18.1734 11.1295C18.0792 11.6152 17.7498 11.8647 17.306 11.7925C16.8891 11.7203 16.6673 11.3724 16.7479 10.8997C17.1312 8.727 16.6874 6.74461 15.3158 4.99197C14.2736 3.66601 12.9087 2.79298 11.2479 2.37287C11.1404 2.34661 11.0328 2.32035 10.9252 2.28753C10.5083 2.16938 10.2932 1.84117 10.3806 1.44076C10.4613 1.06003 10.8109 0.836841 11.2547 0.922176C11.9607 1.06002 12.6398 1.27664 13.2852 1.59172C16.0285 2.95051 17.6624 5.12326 18.2339 8.06402C18.3146 8.52351 18.3549 8.99613 18.3347 9.40968Z" fill="#7782AD"/>
<path d="M14.4882 9.49495C14.4882 9.83629 14.4748 10.1711 14.3739 10.4993C14.2731 10.8537 13.9436 11.0835 13.594 11.0375C13.2242 10.9916 12.9619 10.6831 12.9619 10.3089C12.9619 10.2236 12.9754 10.1317 12.9888 10.0463C13.278 8.14929 12.1618 6.49511 10.259 5.98967C9.6606 5.83213 9.4051 5.40546 9.63371 4.95909C9.78835 4.65058 10.0909 4.52586 10.4809 4.59806C12.3635 4.9394 13.9705 6.52137 14.3806 8.42498C14.4613 8.77289 14.495 9.13392 14.4882 9.49495Z" fill="#7782AD"/>
</svg>
