<svg width="17" height="17" viewBox="0 0 17 17" fill="none" xmlns="http://www.w3.org/2000/svg">
<path d="M14.7741 6.35193H8.02836C7.20045 6.35193 6.5293 7.02308 6.5293 7.85099V14.5967C6.5293 15.4247 7.20045 16.0958 8.02836 16.0958H14.7741C15.602 16.0958 16.2732 15.4247 16.2732 14.5967V7.85099C16.2732 7.02308 15.602 6.35193 14.7741 6.35193Z" stroke="#FD6D14" stroke-linecap="round" stroke-linejoin="round"/>
<path d="M3.52984 10.8491H2.78031C2.38273 10.8491 2.00144 10.6912 1.72031 10.41C1.43919 10.1289 1.28125 9.74762 1.28125 9.35004V2.60428C1.28125 2.20671 1.43919 1.82542 1.72031 1.54429C2.00144 1.26316 2.38273 1.10522 2.78031 1.10522H9.52607C9.92365 1.10522 10.3049 1.26316 10.5861 1.54429C10.8672 1.82542 11.0251 2.20671 11.0251 2.60428V3.35381" stroke="#FD6D14" stroke-linecap="round" stroke-linejoin="round"/>
</svg>
