<svg width="11" height="12" viewBox="0 0 11 12" fill="none" xmlns="http://www.w3.org/2000/svg">
<path d="M0.769531 10.5856C0.769531 10.8197 0.942167 11.0089 1.15585 11.0089H10.0411C10.2548 11.0089 10.4275 10.8197 10.4275 10.5856V5.0297H0.769531V10.5856ZM10.0411 1.3787H8.01297V0.532095C8.01297 0.473891 7.96951 0.42627 7.91639 0.42627H7.24034C7.18722 0.42627 7.14376 0.473891 7.14376 0.532095V1.3787H4.05322V0.532095C4.05322 0.473891 4.00976 0.42627 3.95665 0.42627H3.28059C3.22747 0.42627 3.18401 0.473891 3.18401 0.532095V1.3787H1.15585C0.942167 1.3787 0.769531 1.56787 0.769531 1.80201V4.13018H10.4275V1.80201C10.4275 1.56787 10.2548 1.3787 10.0411 1.3787Z" fill="#7782AD"/>
</svg>
