<svg width="12" height="14" viewBox="0 0 12 14" fill="none" xmlns="http://www.w3.org/2000/svg">
<path d="M11.5 3.03772H9.5V1.78772C9.5 1.23616 9.05156 0.78772 8.5 0.78772H3.5C2.94844 0.78772 2.5 1.23616 2.5 1.78772V3.03772H0.5C0.223437 3.03772 0 3.26116 0 3.53772V4.03772C0 4.10647 0.05625 4.16272 0.125 4.16272H1.06875L1.45469 12.3346C1.47969 12.8674 1.92031 13.2877 2.45312 13.2877H9.54688C10.0813 13.2877 10.5203 12.869 10.5453 12.3346L10.9312 4.16272H11.875C11.9438 4.16272 12 4.10647 12 4.03772V3.53772C12 3.26116 11.7766 3.03772 11.5 3.03772ZM8.375 3.03772H3.625V1.91272H8.375V3.03772Z" fill="#FD6D14"/>
</svg>
