<svg width="13" height="13" viewBox="0 0 13 13" fill="none" xmlns="http://www.w3.org/2000/svg">
<path d="M1.48305 8.24755L0.767897 11.3406C0.743226 11.4537 0.744072 11.5709 0.770372 11.6836C0.796672 11.7963 0.847762 11.9016 0.91991 11.992C0.992058 12.0824 1.08344 12.1555 1.18738 12.2059C1.29133 12.2564 1.4052 12.2829 1.52069 12.2836C1.57451 12.2891 1.62873 12.2891 1.68255 12.2836L4.78784 11.5669L10.75 5.61466L7.42263 2.28772L1.48305 8.24755Z" fill="#FD6D14"/>
<path d="M12.5091 2.84526L10.1885 0.524724C10.036 0.372931 9.82951 0.28772 9.61429 0.28772C9.39908 0.28772 9.19262 0.372931 9.04006 0.524724L7.75 1.81478L11.2229 5.28772L12.513 3.99766C12.5885 3.92178 12.6483 3.83176 12.6889 3.73275C12.7296 3.63374 12.7504 3.52768 12.75 3.42064C12.7496 3.31361 12.7282 3.20769 12.6868 3.10896C12.6455 3.01023 12.5851 2.92062 12.5091 2.84526Z" fill="#FD6D14"/>
</svg>
