<svg width="12" height="13" viewBox="0 0 12 13" fill="none" xmlns="http://www.w3.org/2000/svg">
<path d="M0.733055 7.97204L0.0178966 11.0651C-0.00677392 11.1782 -0.00592819 11.2953 0.020372 11.408C0.0466721 11.5207 0.0977623 11.6261 0.16991 11.7165C0.242058 11.8069 0.333442 11.88 0.437385 11.9304C0.541327 11.9809 0.655204 12.0074 0.770695 12.0081C0.824509 12.0136 0.878733 12.0136 0.932546 12.0081L4.03784 11.2914L10 5.33915L6.67263 2.01221L0.733055 7.97204Z" fill="#FD6D14"/>
<path d="M11.7591 2.56975L9.43853 0.249211C9.28596 0.0974187 9.07951 0.012207 8.86429 0.012207C8.64908 0.012207 8.44262 0.0974187 8.29006 0.249211L7 1.53927L10.4729 5.01221L11.763 3.72215C11.8385 3.64627 11.8983 3.55625 11.9389 3.45724C11.9796 3.35823 12.0004 3.25217 12 3.14513C11.9996 3.03809 11.9782 2.93218 11.9368 2.83345C11.8955 2.73472 11.8351 2.64511 11.7591 2.56975Z" fill="#FD6D14"/>
</svg>
