<svg width="19" height="18" viewBox="0 0 19 18" fill="none" xmlns="http://www.w3.org/2000/svg">
<path d="M9.48223 17.9037C4.71714 17.8983 0.880382 14.0669 0.885748 9.31256C0.891114 4.5743 4.7386 0.732178 9.47686 0.732178C14.2205 0.732178 18.068 4.59576 18.0572 9.34475C18.0519 14.0723 14.2098 17.9037 9.48223 17.9037ZM8.39828 10.1121C8.39828 10.2033 8.39828 10.2892 8.39828 10.3804C8.41437 10.9868 8.85976 11.4483 9.4393 11.459C10.0403 11.4697 10.5125 11.0297 10.534 10.4126C10.5393 10.2355 10.6145 10.1765 10.7594 10.1067C11.9345 9.54867 12.6107 8.62033 12.6751 7.32174C12.777 5.21286 10.9203 3.63523 8.83293 4.01623C7.38409 4.27916 6.22501 5.68508 6.25184 7.15539C6.26257 7.64907 6.6382 8.00323 7.11578 7.97103C7.5558 7.93884 7.8241 7.61687 7.8563 7.08026C7.9046 6.25925 8.56999 5.59922 9.38564 5.56166C10.2013 5.5241 10.9203 6.109 11.0599 6.92465C11.194 7.72419 10.6789 8.50764 9.87932 8.72765C9.70224 8.77595 9.52516 8.76522 9.34807 8.78668C8.73097 8.86717 8.39828 9.32866 8.39828 10.1121ZM9.47149 14.684C10.0618 14.684 10.5447 14.1957 10.5447 13.6054C10.5447 13.0313 10.0618 12.5483 9.48759 12.5429C8.90269 12.5376 8.40901 13.0259 8.40364 13.6108C8.39828 14.1957 8.88122 14.684 9.47149 14.684Z" fill="#7782AD"/>
</svg>
