<svg width="76" height="85" viewBox="0 0 76 85" fill="none" xmlns="http://www.w3.org/2000/svg">
<g clip-path="url(#clip0)">
<path d="M64.371 66.379C60.3723 74.7513 37.9939 84.6062 37.9939 84.6062C37.9939 84.6062 15.6156 74.7513 11.6169 66.379C6.55826 55.7586 9.20801 19.2312 9.20801 19.2312C9.20801 19.2312 30.6951 14.3706 37.9939 14.3706C45.2928 14.3706 66.7799 19.2312 66.7799 19.2312C66.7799 19.2312 69.4417 55.7586 64.371 66.379Z" fill="#58DBD2"/>
<path d="M61.926 64.7993C58.3007 72.394 38.006 81.3253 38.006 81.3253C38.006 81.3253 17.6992 72.394 14.0859 64.7993C9.49706 55.1632 11.9059 22.0382 11.9059 22.0382C11.9059 22.0382 31.3816 17.6394 37.9939 17.6394C44.6063 17.6394 64.106 22.0504 64.106 22.0504C64.106 22.0504 66.5149 55.1753 61.926 64.7993Z" fill="#00457C"/>
<path d="M61.8659 39.2447L71.5134 46.4263C72.1999 46.9366 73.1635 46.7908 73.6693 46.0982L74.4281 45.0532C74.934 44.3605 74.7894 43.3884 74.1029 42.878L64.4554 35.6965C63.7689 35.1861 62.8053 35.332 62.2995 36.0246L61.5407 37.0696C61.0348 37.7623 61.1794 38.7344 61.8659 39.2447Z" fill="#FF7D4A"/>
<path d="M64.467 35.6964L67.0325 37.6041C66.4664 38.2117 65.9966 38.8922 65.5992 39.6577C65.2138 40.1681 64.8765 40.7149 64.6115 41.2739L61.8775 39.2446C61.191 38.7342 61.0464 37.7621 61.5523 37.0695L62.3111 36.0244C62.8169 35.344 63.7805 35.186 64.467 35.6964Z" fill="#FFAE4A"/>
<path d="M65.3105 44.725L67.599 46.4263C68.2373 46.9002 69.1527 46.7665 69.6224 46.1225L73.2598 41.1525C73.7295 40.5085 73.597 39.585 72.9587 39.1111L70.6703 37.4099L65.3105 44.725Z" fill="#007CAB"/>
<path d="M63.0222 43.0238L65.3106 44.725L70.6703 37.3977L68.3819 35.6965C67.7435 35.2226 66.8282 35.3563 66.3584 36.0003L62.721 40.9702C62.2393 41.6264 62.3838 42.5378 63.0222 43.0238Z" fill="#FF614A"/>
<path d="M68.3819 35.6965L68.8998 36.0853L63.5401 43.4005L63.0221 43.0117C62.3838 42.5378 62.2393 41.6143 62.721 40.9702L66.3584 36.0003C66.8281 35.3563 67.7315 35.2226 68.3819 35.6965Z" fill="#FF8D00"/>
<path d="M17.7234 69.2346L63.7929 21.9653C61.2756 21.4064 44.1245 17.6394 37.994 17.6394C31.3816 17.6394 11.8819 22.0504 11.8819 22.0504C11.8819 22.0504 9.47301 55.1753 14.0619 64.8115C14.7725 66.2575 16.0733 67.7643 17.7234 69.2346Z" fill="#007CAB"/>
<path d="M57.0843 30.119L47.7981 21.0053C46.8827 20.1061 45.4254 20.1304 44.5341 21.054L44.4498 21.139C44.4377 21.1512 44.4257 21.1633 44.4137 21.1755L7.9555 58.9787C7.10035 59.8658 6.61858 60.9716 6.51018 62.1138L5.1853 74.6298L17.2778 72.795C17.5669 72.7707 17.868 72.7342 18.157 72.6613H18.1691C19.0845 72.4426 19.9637 71.9565 20.6743 71.2274L57.1325 33.4242C58.0237 32.5006 57.9997 31.0182 57.0843 30.119Z" fill="#FFAE4A"/>
<path d="M54.6634 27.7616L50.1709 23.3506L70.297 2.51079C71.2485 1.52652 72.8142 1.50222 73.7898 2.46218L74.7413 3.39785C75.7169 4.35781 75.741 5.93751 74.7895 6.92178L54.6634 27.7616Z" fill="#FF7D4A"/>
<path d="M74.0789 2.72952L74.7534 3.3857C75.729 4.34567 75.7531 5.92536 74.8016 6.90963L54.6635 27.7616L52.2787 25.4163L74.0789 2.72952Z" fill="#FFAE4A"/>
<path d="M52.2906 25.4163L5.19735 74.5448L5.1853 74.6298L17.2778 72.795C17.5669 72.7706 17.868 72.7342 18.157 72.6613H18.1691C19.0845 72.4426 19.9637 71.9565 20.6743 71.2274L57.1325 33.4241C58.0237 32.5006 57.9997 31.0303 57.0843 30.1311L52.2906 25.4163Z" fill="#FF7D4A"/>
<path opacity="0.44" d="M46.8947 30.1068C45.0158 28.4907 43.2333 26.753 41.5471 24.9181C41.3784 24.8331 41.2098 24.7358 41.0412 24.6508L21.0837 45.3569C22.3243 46.7179 23.601 48.0424 24.9018 49.3426C27.6961 52.1496 30.6229 54.8108 33.7062 57.2897C33.7785 57.3504 33.8628 57.399 33.935 57.4598L54.5911 36.0367C51.9052 34.2383 49.3518 32.2212 46.8947 30.1068Z" fill="#FFAE4A"/>
<path opacity="0.44" d="M47.3886 30.5321L27.2023 51.5906C29.298 53.5835 31.466 55.4912 33.7062 57.3018C33.7785 57.3626 33.8628 57.4112 33.935 57.4719L54.5911 36.0489C52.0858 34.3598 49.689 32.4885 47.3886 30.5321Z" fill="#FF7D4A"/>
<path opacity="0.44" d="M42.4986 25.9267C42.1854 25.5986 41.8722 25.2705 41.5591 24.9303C41.3905 24.8452 41.2219 24.748 41.0532 24.6629L27.8527 38.3455C28.1658 39.4877 28.5151 40.6178 28.7921 41.7601C29.7677 45.8308 30.6349 49.9259 31.6346 53.9845C31.8032 54.6649 31.9718 55.3454 32.1404 56.0259C32.6583 56.4634 33.1763 56.8887 33.7062 57.314C33.7785 57.3747 33.8628 57.4233 33.935 57.4841L48.8098 42.0517C46.5816 36.7294 44.2811 31.407 42.4986 25.9267Z" fill="#FFAE4A"/>
<path opacity="0.44" d="M45.0521 32.9624L30.3098 48.3462C30.7434 50.2297 31.177 52.101 31.6347 53.9723C31.8033 54.6528 31.9719 55.3333 32.1406 56.0138C32.6585 56.4512 33.1764 56.8765 33.7063 57.3018C33.7786 57.3626 33.8629 57.4112 33.9352 57.4719L48.8099 42.0396C47.5452 39.026 46.2565 36.0124 45.0521 32.9624Z" fill="#FF7D4A"/>
<path d="M18.9037 30.119L28.1899 21.0053C29.1052 20.1061 30.5626 20.1304 31.4539 21.054L31.5382 21.139C31.5502 21.1512 31.5623 21.1633 31.5743 21.1755L68.0325 58.9787C68.8876 59.8658 69.3694 60.9716 69.4778 62.1138L70.8027 74.6298L58.7102 72.795C58.4211 72.7707 58.12 72.7342 57.8309 72.6613H57.8189C56.9035 72.4426 56.0243 71.9565 55.3137 71.2274L18.8676 33.4242C17.9763 32.5006 17.9883 31.0182 18.9037 30.119Z" fill="#FFAE4A"/>
<path d="M21.3246 27.7616L25.8172 23.3506L5.69111 2.51079C4.73961 1.52652 3.17385 1.50222 2.19826 2.46218L1.24676 3.39785C0.271168 4.35781 0.247079 5.93751 1.19858 6.92178L21.3246 27.7616Z" fill="#FF7D4A"/>
<path d="M1.92124 2.72952L1.24676 3.3857C0.271168 4.34567 0.247079 5.92536 1.19858 6.90963L21.3246 27.7494L23.7094 25.4042L1.92124 2.72952Z" fill="#FFAE4A"/>
<path d="M23.7094 25.4163L70.8027 74.5448L70.8147 74.6298L58.7222 72.795C58.4331 72.7706 58.132 72.7342 57.843 72.6613H57.8309C56.9156 72.4426 56.0363 71.9565 55.3257 71.2274L18.8675 33.4241C17.9763 32.5006 18.0004 31.0303 18.9157 30.1311L23.7094 25.4163Z" fill="#FF7D4A"/>
<path d="M38.006 76.1366C41.5647 76.1366 44.4497 73.226 44.4497 69.6356C44.4497 66.0452 41.5647 63.1346 38.006 63.1346C34.4472 63.1346 31.5623 66.0452 31.5623 69.6356C31.5623 73.226 34.4472 76.1366 38.006 76.1366Z" fill="#FF7D4A"/>
<path d="M39.4874 75.9665C39.6319 75.93 39.7644 75.8936 39.9089 75.8571C43.3054 74.8 45.2084 71.1545 44.1606 67.7278C43.1127 64.3011 39.4994 62.3811 36.1029 63.4383L39.4874 75.9665Z" fill="#FFAE4A"/>
<path opacity="0.53" d="M38.7089 65.3861L35.1187 66.506L35.357 67.2839L38.9473 66.1639L38.7089 65.3861Z" fill="#CC634A"/>
<path opacity="0.53" d="M39.7223 68.6909L36.1321 69.8108L36.3705 70.5886L39.9607 69.4687L39.7223 68.6909Z" fill="#CC634A"/>
<path opacity="0.53" d="M40.7322 71.984L37.142 73.104L37.3803 73.8818L40.9706 72.7619L40.7322 71.984Z" fill="#CC634A"/>
<path opacity="0.53" d="M38.7089 65.3861L35.1187 66.506L35.357 67.2839L38.9473 66.1639L38.7089 65.3861Z" fill="#CC634A"/>
<path opacity="0.53" d="M39.7223 68.6909L36.1321 69.8108L36.3705 70.5886L39.9607 69.4687L39.7223 68.6909Z" fill="#CC634A"/>
<path opacity="0.53" d="M40.7322 71.984L37.142 73.104L37.3803 73.8818L40.9706 72.7619L40.7322 71.984Z" fill="#CC634A"/>
<path opacity="0.53" d="M38.0663 76.1366C38.6926 76.1366 39.3189 76.0394 39.9452 75.845C40.5715 75.6506 41.1496 75.3711 41.6555 75.0187L40.969 72.7585L37.3798 73.8765L38.0663 76.1366Z" fill="#CC634A"/>
<path opacity="0.53" d="M39.9586 69.4609L36.3684 70.5809L37.1405 73.1001L40.7307 71.9802L39.9586 69.4609Z" fill="#CC634A"/>
<path opacity="0.53" d="M38.9488 66.1678L35.3585 67.2877L36.1306 69.807L39.7208 68.687L38.9488 66.1678Z" fill="#CC634A"/>
<path opacity="0.53" d="M35.1154 66.5127L38.7046 65.3947L38.018 63.1346C37.3917 63.1346 36.7654 63.2318 36.1391 63.4262C35.5128 63.6206 34.9347 63.9001 34.4288 64.2525L35.1154 66.5127Z" fill="#CC634A"/>
<path d="M35.4888 63.6935L36.7173 63.2925L35.561 61.7736L35.4888 63.6935Z" fill="#FFAE4A"/>
<path d="M40.1138 75.6384L38.8612 75.9665L39.9332 77.5462L40.1138 75.6384Z" fill="#FFAE4A"/>
<path d="M43.7511 67.023L44.1606 68.2503L45.6421 67.0595L43.7511 67.023Z" fill="#FFAE4A"/>
<path d="M32.1284 72.1631L31.7189 70.9358L30.2374 72.1145L32.1284 72.1631Z" fill="#FFAE4A"/>
<path d="M32.0199 67.181L32.6101 66.0387L30.7312 65.7836L32.0199 67.181Z" fill="#FFAE4A"/>
<path d="M43.6669 72.3454L43.0165 73.4633L44.8713 73.8157L43.6669 72.3454Z" fill="#FFAE4A"/>
<path d="M40.1981 63.6449L41.3423 64.2282L41.5712 62.3204L40.1981 63.6449Z" fill="#FFAE4A"/>
<path d="M35.5851 75.5777L34.4288 75.0065L34.212 76.9022L35.5851 75.5777Z" fill="#FFAE4A"/>
<path d="M13.8812 39.2447L4.23373 46.4263C3.5472 46.9366 2.58366 46.7908 2.0778 46.0982L1.319 45.0532C0.813143 44.3605 0.957675 43.3884 1.6442 42.878L11.2917 35.6965C11.9782 35.1861 12.9418 35.332 13.4476 36.0246L14.2064 37.0696C14.7123 37.7623 14.5678 38.7344 13.8812 39.2447Z" fill="#FF7D4A"/>
<path d="M11.2918 35.6965L8.72632 37.6043C9.2924 38.2119 9.76213 38.8924 10.1596 39.6579C10.545 40.1683 10.8823 40.7151 11.1472 41.274L13.8813 39.2447C14.5678 38.7344 14.7123 37.7623 14.2065 37.0696L13.4477 36.0246C12.9418 35.3441 11.9783 35.1861 11.2918 35.6965Z" fill="#FFAE4A"/>
<path d="M10.4486 44.725L8.16013 46.4263C7.52178 46.9002 6.60641 46.7665 6.13668 46.1225L2.4993 41.1525C2.02957 40.5085 2.16206 39.585 2.80041 39.1111L5.08883 37.4099L10.4486 44.725Z" fill="#007CAB"/>
<path d="M12.737 43.0238L10.4486 44.725L5.08887 37.3977L7.37729 35.6965C8.01564 35.2226 8.93101 35.3563 9.40074 36.0003L13.0381 40.9702C13.5199 41.6264 13.3754 42.5378 12.737 43.0238Z" fill="#FF614A"/>
<path d="M7.37728 35.6965L6.85938 36.0853L12.2191 43.4005L12.737 43.0117C13.3754 42.5378 13.5199 41.6143 13.0381 40.9702L9.40073 36.0003C8.931 35.3563 8.01563 35.2226 7.37728 35.6965Z" fill="#FF8D00"/>
<path d="M37.8374 22.1598C43.8973 22.1598 48.8098 17.2035 48.8098 11.0897C48.8098 4.97595 43.8973 0.0197449 37.8374 0.0197449C31.7775 0.0197449 26.865 4.97595 26.865 11.0897C26.865 17.2035 31.7775 22.1598 37.8374 22.1598Z" fill="#FFAE4A"/>
<path d="M37.8374 4.15124C41.6313 4.15124 44.7147 7.26202 44.7147 11.0897C44.7147 14.9174 41.6313 18.0282 37.8374 18.0282C34.0434 18.0282 30.9601 14.9174 30.9601 11.0897C30.9601 7.26202 34.0434 4.15124 37.8374 4.15124ZM37.8374 2.207C32.9715 2.207 29.033 6.18053 29.033 11.0897C29.033 15.9989 32.9715 19.9725 37.8374 19.9725C42.7033 19.9725 46.6418 15.9989 46.6418 11.0897C46.6418 6.19269 42.7033 2.207 37.8374 2.207Z" fill="#000059"/>
<path d="M37.5363 6.10764L37.3557 6.49648C37.3075 6.59369 37.2593 6.67876 37.1871 6.76382C37.0305 6.92178 36.8498 7.07975 36.5367 7.14051L36.0067 7.24987V9.24272H36.8137V15.7681H39.355V6.10764H37.5363Z" fill="#000059"/>
</g>
<defs>
<clipPath id="clip0">
<rect width="75" height="84.5865" fill="white" transform="translate(0.5 0.0197449)"/>
</clipPath>
</defs>
</svg>
