<svg width="24" height="17" viewBox="0 0 24 17" fill="none" xmlns="http://www.w3.org/2000/svg">
<path fill-rule="evenodd" clip-rule="evenodd" d="M4.29211e-08 5.40938C4.29211e-08 3.97472 0.569915 2.59883 1.58437 1.58437C2.59883 0.569915 3.97472 0 5.40938 0H17.7737C19.2083 0 20.5842 0.569915 21.5987 1.58437C22.6131 2.59883 23.1831 3.97472 23.1831 5.40938V12.4076C23.1829 13.4422 22.8334 14.4464 22.1912 15.2576C21.5491 16.0688 20.6519 16.6394 19.645 16.8771C18.6381 17.1148 17.5804 17.0056 16.6433 16.5672C15.7062 16.1288 14.9445 15.3869 14.4817 14.4616L14.2035 13.9098H8.97803L8.70138 14.4616C8.23847 15.387 7.47667 16.129 6.5394 16.5674C5.60213 17.0058 4.54431 17.1148 3.5373 16.877C2.53029 16.6391 1.63311 16.0681 0.991096 15.2567C0.349084 14.4452 -0.000141355 13.4408 4.29211e-08 12.406V5.40938ZM6.18215 9.27323V7.72769H4.63661V6.18215H6.18215V4.63661H7.72769V6.18215H9.27323V7.72769H7.72769V9.27323H6.18215ZM15.4554 9.27323H13.9098V7.72769H15.4554V9.27323ZM17.0009 6.18215H18.5465V4.63661H17.0009V6.18215Z" fill="#7782AD"/>
</svg>
