<svg width="21" height="16" viewBox="0 0 21 16" fill="none" xmlns="http://www.w3.org/2000/svg">
<path fill-rule="evenodd" clip-rule="evenodd" d="M0.986328 5.33915C0.986328 4.10396 1.477 2.91937 2.35041 2.04596C3.22381 1.17256 4.40841 0.681885 5.64359 0.681885H16.2888C17.5239 0.681885 18.7085 1.17256 19.5819 2.04596C20.4553 2.91937 20.946 4.10396 20.946 5.33915V11.3643C20.9458 12.2551 20.645 13.1196 20.0921 13.8181C19.5393 14.5165 18.7668 15.0078 17.8999 15.2124C17.033 15.4171 16.1224 15.323 15.3156 14.9456C14.5087 14.5681 13.853 13.9294 13.4545 13.1327L13.215 12.6577H8.71605L8.47787 13.1327C8.07932 13.9295 7.42344 14.5683 6.61649 14.9457C5.80954 15.3232 4.89879 15.4171 4.0318 15.2123C3.16481 15.0075 2.39237 14.5159 1.83962 13.8173C1.28688 13.1186 0.986206 12.2538 0.986328 11.363V5.33915ZM6.30891 8.66576V7.33511H4.97827V6.00447H6.30891V4.67382H7.63956V6.00447H8.9702V7.33511H7.63956V8.66576H6.30891ZM14.2928 8.66576H12.9621V7.33511H14.2928V8.66576ZM15.6234 6.00447H16.9541V4.67382H15.6234V6.00447Z" fill="#FD6D14"/>
</svg>
