<svg width="29" height="26" viewBox="0 0 29 26" fill="none" xmlns="http://www.w3.org/2000/svg">
<path d="M26.1227 5.57143H4.53125C4.03055 5.57143 3.625 5.15589 3.625 4.64286C3.625 4.12982 4.03055 3.71429 4.53125 3.71429H26.2812C26.782 3.71429 27.1875 3.29875 27.1875 2.78571C27.1875 1.24719 25.9703 0 24.4688 0H3.625C1.62275 0 0 1.66272 0 3.71429V22.2857C0 24.3373 1.62275 26 3.625 26H26.1227C27.7097 26 29 24.7505 29 23.2143V8.35714C29 6.82094 27.7097 5.57143 26.1227 5.57143ZM23.5625 17.6429C22.5617 17.6429 21.75 16.8112 21.75 15.7857C21.75 14.7602 22.5617 13.9286 23.5625 13.9286C24.5633 13.9286 25.375 14.7602 25.375 15.7857C25.375 16.8112 24.5633 17.6429 23.5625 17.6429Z" fill="#FD6D14"/>
</svg>
