<svg width="19" height="20" viewBox="0 0 19 20" fill="none" xmlns="http://www.w3.org/2000/svg">
<path d="M7.72033 1.25302C8.13474 0.904783 8.6587 0.713867 9.2 0.713867C9.7413 0.713867 10.2653 0.904783 10.6797 1.25302L17.5797 7.05515C17.8365 7.27098 18.043 7.54038 18.1847 7.84446C18.3264 8.14854 18.3999 8.47994 18.4 8.81542V18.4524C18.4 18.8591 18.2385 19.2491 17.9509 19.5366C17.6633 19.8242 17.2733 19.9858 16.8667 19.9858H12.65C12.2433 19.9858 11.8533 19.8242 11.5658 19.5366C11.2782 19.2491 11.1167 18.8591 11.1167 18.4524V13.0858H7.28333V18.4524C7.28333 18.8591 7.12179 19.2491 6.83423 19.5366C6.54667 19.8242 6.15667 19.9858 5.75 19.9858H1.53333C1.12667 19.9858 0.736659 19.8242 0.449103 19.5366C0.161547 19.2491 0 18.8591 0 18.4524V8.81465C8.48391e-05 8.47917 0.0735584 8.14777 0.215269 7.84369C0.356979 7.53961 0.563495 7.27021 0.820333 7.05439L7.72033 1.25225V1.25302Z" fill="#FF7D4A"/>
</svg>
