<svg width="15" height="15" viewBox="0 0 15 15" fill="none" xmlns="http://www.w3.org/2000/svg">
<path d="M3.00088 14.8703C2.73866 14.8703 2.53694 14.739 2.3554 14.5618C1.79061 14.0038 1.21237 13.4459 0.64758 12.8879C0.150025 12.4022 0.150025 12.0215 0.64758 11.5357C2.8933 9.3367 5.14575 7.14426 7.39819 4.94526C7.6268 4.72208 7.86213 4.50546 8.08401 4.26915C8.21176 4.13787 8.29917 4.12474 8.44037 4.25603C9.34135 5.14219 10.2423 6.02179 11.15 6.90139C11.2845 7.03268 11.2711 7.11801 11.1433 7.24929C8.62863 9.69773 6.12069 12.1527 3.60602 14.6012C3.43792 14.7653 3.24293 14.8637 3.00088 14.8703ZM3.0345 13.3934C3.12191 13.3999 3.18242 13.3277 3.24293 13.2621C5.22643 11.3256 7.21665 9.38265 9.20015 7.44621C9.36824 7.28211 9.38841 7.14426 9.20687 6.98016C8.89758 6.69134 8.59501 6.40251 8.30589 6.10056C8.12435 5.9102 7.97643 5.93646 7.80161 6.11369C5.82484 8.05012 3.84807 9.97999 1.86457 11.9099C1.68976 12.074 1.68303 12.2118 1.85785 12.3759C2.17386 12.6713 2.47643 12.9733 2.78572 13.2752C2.85296 13.3343 2.9202 13.3999 3.0345 13.3934Z" fill="#7782AD"/>
<path d="M4.77576 2.90379C4.77576 4.05908 3.79409 5.01089 2.61744 5.01089C1.44079 5.00432 0.459131 4.03282 0.465855 2.89066C0.472578 1.75506 1.44752 0.816385 2.61072 0.803256C3.79409 0.796692 4.77576 1.7485 4.77576 2.90379Z" fill="#7782AD"/>
<path d="M10.7263 5.94438C10.6927 5.91812 10.6322 5.87874 10.5851 5.83936C10.2355 5.49802 9.89258 5.15668 9.53622 4.82191C9.39502 4.69063 9.41519 4.59873 9.54295 4.47401C10.7599 3.29246 11.9702 2.1109 13.1805 0.922787C13.2948 0.811196 13.3822 0.778379 13.5099 0.909662C13.8596 1.26413 14.2159 1.61203 14.579 1.95337C14.7068 2.07152 14.6933 2.15686 14.5723 2.27501C13.3486 3.46313 12.1316 4.6578 10.9146 5.84592C10.8675 5.8853 10.8272 5.94438 10.7263 5.94438Z" fill="#7782AD"/>
<path d="M3.0543 12.901C2.95344 12.901 2.90638 12.8485 2.85931 12.8091C2.1197 12.1987 2.1197 12.1987 2.79207 11.5422C4.46628 9.90121 6.14721 8.2733 7.82141 6.6257C8.00968 6.4419 8.11053 6.4419 8.2988 6.6257C8.89048 7.21647 8.89721 7.20991 8.29207 7.80069C6.62459 9.42859 4.95039 11.0631 3.2829 12.691C3.20222 12.7697 3.12154 12.8419 3.0543 12.901Z" fill="#7782AD"/>
</svg>
