<svg width="15" height="15" viewBox="0 0 15 15" fill="none" xmlns="http://www.w3.org/2000/svg">
<path d="M7.47505 0C4.22505 0 1.45005 2.1 0.425049 5H14.575C13.525 2.1 10.75 0 7.47505 0Z" fill="#F2B200"/>
<path d="M7.47505 15C10.75 15 13.525 12.925 14.55 10H0.425049C1.45005 12.925 4.22505 15 7.47505 15Z" fill="#83BF4F"/>
<path d="M0.425 5C0.15 5.775 0 6.625 0 7.5C0 8.375 0.15 9.225 0.425 10H14.575C14.85 9.225 15 8.375 15 7.5C15 6.625 14.85 5.775 14.575 5H0.425Z" fill="white"/>
<path d="M7.4751 9.5C8.57967 9.5 9.4751 8.60457 9.4751 7.5C9.4751 6.39543 8.57967 5.5 7.4751 5.5C6.37053 5.5 5.4751 6.39543 5.4751 7.5C5.4751 8.60457 6.37053 9.5 7.4751 9.5Z" fill="#428BC1"/>
<path d="M7.4751 9.25C8.4416 9.25 9.2251 8.4665 9.2251 7.5C9.2251 6.5335 8.4416 5.75 7.4751 5.75C6.5086 5.75 5.7251 6.5335 5.7251 7.5C5.7251 8.4665 6.5086 9.25 7.4751 9.25Z" fill="white"/>
<path d="M6.82495 6C6.89399 6 6.94995 5.94404 6.94995 5.875C6.94995 5.80596 6.89399 5.75 6.82495 5.75C6.75592 5.75 6.69995 5.80596 6.69995 5.875C6.69995 5.94404 6.75592 6 6.82495 6Z" fill="#428BC1"/>
<path d="M6.42505 6.22498C6.49408 6.22498 6.55005 6.16901 6.55005 6.09998C6.55005 6.03094 6.49408 5.97498 6.42505 5.97498C6.35601 5.97498 6.30005 6.03094 6.30005 6.09998C6.30005 6.16901 6.35601 6.22498 6.42505 6.22498Z" fill="#428BC1"/>
<path d="M6.09998 6.54999C6.16901 6.54999 6.22498 6.49402 6.22498 6.42499C6.22498 6.35595 6.16901 6.29999 6.09998 6.29999C6.03094 6.29999 5.97498 6.35595 5.97498 6.42499C5.97498 6.49402 6.03094 6.54999 6.09998 6.54999Z" fill="#428BC1"/>
<path d="M5.875 6.94995C5.94404 6.94995 6 6.89399 6 6.82495C6 6.75592 5.94404 6.69995 5.875 6.69995C5.80596 6.69995 5.75 6.75592 5.75 6.82495C5.75 6.89399 5.80596 6.94995 5.875 6.94995Z" fill="#428BC1"/>
<path d="M5.75 7.39996C5.81904 7.39996 5.875 7.344 5.875 7.27496C5.875 7.20593 5.81904 7.14996 5.75 7.14996C5.68096 7.14996 5.625 7.20593 5.625 7.27496C5.625 7.344 5.68096 7.39996 5.75 7.39996Z" fill="#428BC1"/>
<path d="M5.75 7.84998C5.81904 7.84998 5.875 7.79401 5.875 7.72498C5.875 7.65594 5.81904 7.59998 5.75 7.59998C5.68096 7.59998 5.625 7.65594 5.625 7.72498C5.625 7.79401 5.68096 7.84998 5.75 7.84998Z" fill="#428BC1"/>
<path d="M5.875 8.29999C5.94404 8.29999 6 8.24402 6 8.17499C6 8.10595 5.94404 8.04999 5.875 8.04999C5.80596 8.04999 5.75 8.10595 5.75 8.17499C5.75 8.24402 5.80596 8.29999 5.875 8.29999Z" fill="#428BC1"/>
<path d="M6.09998 8.69995C6.16901 8.69995 6.22498 8.64399 6.22498 8.57495C6.22498 8.50592 6.16901 8.44995 6.09998 8.44995C6.03094 8.44995 5.97498 8.50592 5.97498 8.57495C5.97498 8.64399 6.03094 8.69995 6.09998 8.69995Z" fill="#428BC1"/>
<path d="M6.42505 9.02496C6.49408 9.02496 6.55005 8.969 6.55005 8.89996C6.55005 8.83093 6.49408 8.77496 6.42505 8.77496C6.35601 8.77496 6.30005 8.83093 6.30005 8.89996C6.30005 8.969 6.35601 9.02496 6.42505 9.02496Z" fill="#428BC1"/>
<path d="M6.82495 9.25C6.89399 9.25 6.94995 9.19404 6.94995 9.125C6.94995 9.05596 6.89399 9 6.82495 9C6.75592 9 6.69995 9.05596 6.69995 9.125C6.69995 9.19404 6.75592 9.25 6.82495 9.25Z" fill="#428BC1"/>
<path d="M7.25 9.34998C7.31904 9.34998 7.375 9.29401 7.375 9.22498C7.375 9.15594 7.31904 9.09998 7.25 9.09998C7.18096 9.09998 7.125 9.15594 7.125 9.22498C7.125 9.29401 7.18096 9.34998 7.25 9.34998Z" fill="#428BC1"/>
<path d="M7.59998 9.24998C7.59998 9.17498 7.64998 9.12498 7.69998 9.09998C7.77498 9.09998 7.82498 9.14998 7.84998 9.19998C7.84998 9.27498 7.79998 9.32498 7.74998 9.34998C7.64998 9.37498 7.59998 9.32498 7.59998 9.24998Z" fill="#428BC1"/>
<path d="M8.15002 9.25C8.21906 9.25 8.27502 9.19404 8.27502 9.125C8.27502 9.05596 8.21906 9 8.15002 9C8.08099 9 8.02502 9.05596 8.02502 9.125C8.02502 9.19404 8.08099 9.25 8.15002 9.25Z" fill="#428BC1"/>
<path d="M8.55005 9.02496C8.61908 9.02496 8.67505 8.969 8.67505 8.89996C8.67505 8.83093 8.61908 8.77496 8.55005 8.77496C8.48101 8.77496 8.42505 8.83093 8.42505 8.89996C8.42505 8.969 8.48101 9.02496 8.55005 9.02496Z" fill="#428BC1"/>
<path d="M8.875 8.69995C8.94404 8.69995 9 8.64399 9 8.57495C9 8.50592 8.94404 8.44995 8.875 8.44995C8.80596 8.44995 8.75 8.50592 8.75 8.57495C8.75 8.64399 8.80596 8.69995 8.875 8.69995Z" fill="#428BC1"/>
<path d="M9.09998 8.29999C9.16901 8.29999 9.22498 8.24402 9.22498 8.17499C9.22498 8.10595 9.16901 8.04999 9.09998 8.04999C9.03094 8.04999 8.97498 8.10595 8.97498 8.17499C8.97498 8.24402 9.03094 8.29999 9.09998 8.29999Z" fill="#428BC1"/>
<path d="M9.22498 7.84998C9.29401 7.84998 9.34998 7.79401 9.34998 7.72498C9.34998 7.65594 9.29401 7.59998 9.22498 7.59998C9.15594 7.59998 9.09998 7.65594 9.09998 7.72498C9.09998 7.79401 9.15594 7.84998 9.22498 7.84998Z" fill="#428BC1"/>
<path d="M9.22495 7.39996C9.14995 7.39996 9.09995 7.34996 9.07495 7.29996C9.07495 7.22496 9.12495 7.17496 9.17495 7.14996C9.24995 7.14996 9.29995 7.19996 9.32495 7.24996C9.34995 7.32496 9.29995 7.37496 9.22495 7.39996Z" fill="#428BC1"/>
<path d="M9.09998 6.94995C9.16901 6.94995 9.22498 6.89399 9.22498 6.82495C9.22498 6.75592 9.16901 6.69995 9.09998 6.69995C9.03094 6.69995 8.97498 6.75592 8.97498 6.82495C8.97498 6.89399 9.03094 6.94995 9.09998 6.94995Z" fill="#428BC1"/>
<path d="M8.875 6.54999C8.94404 6.54999 9 6.49402 9 6.42499C9 6.35595 8.94404 6.29999 8.875 6.29999C8.80596 6.29999 8.75 6.35595 8.75 6.42499C8.75 6.49402 8.80596 6.54999 8.875 6.54999Z" fill="#428BC1"/>
<path d="M8.55005 6.22498C8.61908 6.22498 8.67505 6.16901 8.67505 6.09998C8.67505 6.03094 8.61908 5.97498 8.55005 5.97498C8.48101 5.97498 8.42505 6.03094 8.42505 6.09998C8.42505 6.16901 8.48101 6.22498 8.55005 6.22498Z" fill="#428BC1"/>
<path d="M8.275 5.92498C8.25 5.99998 8.175 6.02498 8.1 5.99998C8.025 5.97498 8 5.89998 8.025 5.82498C8.05 5.74998 8.125 5.72498 8.2 5.74998C8.275 5.79998 8.3 5.87498 8.275 5.92498Z" fill="#428BC1"/>
<path d="M7.82498 5.77497C7.82498 5.84997 7.74998 5.89997 7.67498 5.87497C7.59998 5.87497 7.54998 5.79997 7.57498 5.72497C7.57498 5.64997 7.64998 5.59997 7.72498 5.62497C7.79998 5.64997 7.84998 5.72497 7.82498 5.77497Z" fill="#428BC1"/>
<path d="M7.375 5.75C7.375 5.825 7.325 5.875 7.275 5.9C7.2 5.9 7.15 5.85 7.125 5.8C7.125 5.725 7.175 5.675 7.225 5.65C7.3 5.625 7.375 5.675 7.375 5.75Z" fill="#428BC1"/>
<path d="M7.47498 7.875C7.68208 7.875 7.84998 7.70711 7.84998 7.5C7.84998 7.29289 7.68208 7.125 7.47498 7.125C7.26787 7.125 7.09998 7.29289 7.09998 7.5C7.09998 7.70711 7.26787 7.875 7.47498 7.875Z" fill="#428BC1"/>
<path d="M7.47505 5.75L7.42505 6.825L7.47505 7.5L7.55005 6.825L7.47505 5.75Z" fill="#428BC1"/>
<path d="M7.02502 5.79999L7.25002 6.87499L7.47502 7.49999L7.37502 6.82499L7.02502 5.79999Z" fill="#428BC1"/>
<path d="M6.59998 5.97498L7.09998 6.94998L7.47498 7.49998L7.19998 6.87498L6.59998 5.97498Z" fill="#428BC1"/>
<path d="M6.25 6.25L6.975 7.075L7.475 7.5L7.05 6.975L6.25 6.25Z" fill="#428BC1"/>
<path d="M5.97498 6.625L6.87498 7.225L7.47498 7.5L6.92498 7.1L5.97498 6.625Z" fill="#428BC1"/>
<path d="M5.80005 7.04999L6.82505 7.37499L7.47505 7.49999L6.85005 7.27499L5.80005 7.04999Z" fill="#428BC1"/>
<path d="M5.72498 7.49995L6.82498 7.54995L7.47498 7.49995L6.82498 7.44995L5.72498 7.49995Z" fill="#428BC1"/>
<path d="M5.80005 7.95L6.85005 7.725L7.47505 7.5L6.82505 7.625L5.80005 7.95Z" fill="#428BC1"/>
<path d="M5.97498 8.375L6.92498 7.9L7.47498 7.5L6.87498 7.775L5.97498 8.375Z" fill="#428BC1"/>
<path d="M6.25 8.725L7.05 8.025L7.475 7.5L6.975 7.925L6.25 8.725Z" fill="#428BC1"/>
<path d="M6.59998 9.025L7.19998 8.1L7.47498 7.5L7.09998 8.05L6.59998 9.025Z" fill="#428BC1"/>
<path d="M7.02502 9.2L7.37502 8.175L7.47502 7.5L7.25002 8.125L7.02502 9.2Z" fill="#428BC1"/>
<path d="M7.47505 9.25L7.55005 8.175L7.47505 7.5L7.42505 8.175L7.47505 9.25Z" fill="#428BC1"/>
<path d="M7.92498 9.2L7.72498 8.125L7.47498 7.5L7.59998 8.175L7.92498 9.2Z" fill="#428BC1"/>
<path d="M8.34998 9.025L7.87498 8.05L7.47498 7.5L7.77498 8.125L8.34998 9.025Z" fill="#428BC1"/>
<path d="M8.72498 8.725L7.99998 7.925L7.47498 7.5L7.92498 8.025L8.72498 8.725Z" fill="#428BC1"/>
<path d="M8.99998 8.375L8.09998 7.775L7.47498 7.5L8.02498 7.9L8.99998 8.375Z" fill="#428BC1"/>
<path d="M9.17498 7.95L8.14998 7.625L7.47498 7.5L8.12498 7.725L9.17498 7.95Z" fill="#428BC1"/>
<path d="M9.22498 7.49999L8.14998 7.42499L7.47498 7.49999L8.14998 7.54999L9.22498 7.49999Z" fill="#428BC1"/>
<path d="M9.17498 7.04999L8.12498 7.27499L7.47498 7.49999L8.14998 7.37499L9.17498 7.04999Z" fill="#428BC1"/>
<path d="M8.99998 6.625L8.02498 7.1L7.47498 7.5L8.09998 7.225L8.99998 6.625Z" fill="#428BC1"/>
<path d="M8.72498 6.27496L7.92498 6.97496L7.47498 7.49996L7.99998 7.07496L8.72498 6.27496Z" fill="#428BC1"/>
<path d="M8.34998 5.97498L7.77498 6.89998L7.47498 7.49998L7.87498 6.94998L8.34998 5.97498Z" fill="#428BC1"/>
<path d="M7.94998 5.79999L7.59998 6.82499L7.47498 7.49999L7.72498 6.87499L7.94998 5.79999Z" fill="#428BC1"/>
</svg>
