<svg width="15" height="15" viewBox="0 0 15 15" fill="none" xmlns="http://www.w3.org/2000/svg">
<circle cx="7.87853" cy="7.71166" r="6.97032" fill="#7782AD"/>
<path d="M7.71988 5.48167C7.48655 5.48167 7.29322 5.41167 7.13988 5.27167C6.99322 5.13167 6.91988 4.955 6.91988 4.74167C6.91988 4.52834 6.99322 4.355 7.13988 4.22167C7.29322 4.08167 7.48655 4.01167 7.71988 4.01167C7.95322 4.01167 8.14322 4.08167 8.28988 4.22167C8.44322 4.355 8.51988 4.52834 8.51988 4.74167C8.51988 4.955 8.44322 5.13167 8.28988 5.27167C8.14322 5.41167 7.95322 5.48167 7.71988 5.48167ZM7.07988 11.2117V6.25167H8.35988V11.2117H7.07988Z" fill="white"/>
</svg>
