<svg width="77" height="119" viewBox="0 0 77 119" fill="none" xmlns="http://www.w3.org/2000/svg">
<path d="M17.7815 32.0007C17.607 31.2834 17.51 30.566 17.161 29.8874C16.7345 29.4803 16.0947 29.8099 15.6294 29.4803C12.7211 28.9956 9.85169 28.3364 7.05979 27.4058C5.31486 26.8435 3.6087 26.1649 2.1352 25.0598C-0.133215 23.373 -0.695471 21.376 1.90254 19.3403C3.49237 18.0994 5.37302 17.3821 7.31184 16.7423C9.36699 16.0637 11.4415 15.5984 13.5161 15.0749C14.4273 14.8422 15.3579 14.8034 16.2692 14.6289C18.557 14.183 20.8448 13.6983 23.1907 13.4657C28.5225 12.9228 33.8736 13.1554 39.2248 13.1167C43.3157 13.0779 47.426 13.3881 51.4199 14.183C54.1343 14.7259 56.9068 15.1524 59.5823 16.0055C59.7374 16.0637 59.8926 16.1218 60.0089 16.2188C60.2609 16.5096 60.2028 16.7423 59.8344 16.878C59.563 16.9749 59.2721 16.9749 58.9813 16.9749C55.6659 16.8974 52.3505 17.0137 49.0352 16.9943C46.7861 16.9943 44.5371 17.3045 42.3075 17.4402C38.7594 17.6535 35.289 18.3709 31.8185 18.9525C30.2287 19.2239 28.697 19.6893 27.0878 20.3097C27.4174 20.3485 27.65 20.3678 27.8245 20.523C27.8439 21.124 27.3398 20.9689 27.0296 21.0464C25.1877 21.4148 23.3071 21.5117 21.4846 21.9383C19.0223 22.9271 17.9559 24.9047 17.7233 27.4058C17.6263 28.3364 17.8784 29.2476 18.0529 30.1589C18.1692 30.7599 18.2662 31.3609 18.3631 31.962C18.3631 32.214 18.3631 32.4855 18.0723 32.6018C17.7233 32.5242 17.9753 32.1559 17.7815 32.0007Z" fill="#AFAFAF"/>
<path d="M18.5376 14.183C19.1192 13.4463 18.9641 12.4962 19.0805 11.6626C19.2162 10.5574 19.2743 9.43292 19.3519 8.3084C19.5458 5.47773 20.5346 2.99604 23.1714 1.50316C24.4704 0.766406 25.9051 0.359254 27.3592 0.281702C31.1787 0.0490436 35.0175 -0.106062 38.837 0.08782C41.0085 0.184761 43.18 0.378643 45.332 0.82457C47.9494 1.34805 50.3536 3.86851 50.8771 6.5053C51.3036 8.638 51.3618 10.8289 51.8271 12.9616C51.9434 13.4657 52.0791 13.9504 52.4281 14.3575C51.9822 14.532 51.6332 14.3187 51.4781 13.9504C51.2067 13.2524 50.6444 13.0973 50.024 13.0197C47.7943 12.7677 45.5453 12.535 43.2963 12.283C38.7207 11.7789 34.0869 11.837 29.647 10.3829C28.8133 10.1115 27.9796 9.82068 27.3398 9.21965C26.2541 8.19207 25.7888 6.93184 26.1571 5.43895C26.5449 3.86851 27.1072 2.37562 27.9215 0.940899C24.2183 0.82457 21.1356 2.72461 20.3213 6.09815C19.8366 8.09513 19.6233 10.2278 19.6039 12.3218C19.6039 12.7095 19.6427 13.0973 19.4876 13.4657C19.3131 13.9116 19.1774 14.3963 18.5376 14.183Z" fill="#E4E4E4"/>
<path d="M18.5376 14.183C19.255 14.0473 19.3325 13.4851 19.3132 12.9422C19.2162 10.6738 19.6234 8.44413 19.9724 6.25327C20.3407 4.00424 21.9499 2.4338 24.0245 1.40623C25.2459 0.805194 26.6225 0.979688 27.8439 0.475595C28.0184 0.398043 28.2511 0.398043 28.348 0.611313C28.4644 0.843971 28.3287 1.07663 28.1929 1.23173C27.3011 2.27869 27.0103 3.5777 26.6031 4.81854C25.7694 7.43595 26.9133 9.33599 29.5307 10.1115C32.8849 11.1003 36.2972 11.4493 39.7677 11.6626C41.9973 11.7983 44.2269 12.1473 46.4372 12.3799C47.7362 12.5156 49.0546 12.632 50.3536 12.8065C50.974 12.884 51.6526 12.9228 51.672 13.8728C51.672 14.2412 52.0792 14.3187 52.4088 14.3575C54.4445 14.7259 56.4803 15.0361 58.4966 15.5402C60.261 15.9861 61.9671 16.529 63.6539 17.1688C65.4958 17.8474 67.4152 18.9719 68.4622 20.077C68.656 19.7862 68.8499 19.4954 69.0244 19.2046C69.1601 19.3015 69.2183 19.4372 69.2377 19.5923C69.2377 19.7474 69.2183 19.9025 69.1601 20.0383C68.5397 20.8138 68.3458 20.8913 67.7254 20.2515C66.1356 18.6035 64.0223 17.9637 61.9865 17.1688C61.2885 16.8974 60.5906 16.6647 59.9314 16.3157C58.3609 15.8892 56.7905 15.4626 55.1813 15.1912C52.719 14.7841 50.2954 14.2412 47.8138 13.9504C41.2024 13.1555 34.5716 13.3687 27.9409 13.4463C24.7806 13.4851 21.6203 13.834 18.4795 14.3963C15.7651 14.881 13.0314 15.2494 10.3752 15.9474C7.58331 16.7035 4.71387 17.479 2.30973 19.2433C0.603574 20.4842 0.11887 21.0077 0.564798 22.9077C0.836232 24.071 1.78625 24.7884 2.77505 25.3506C6.18737 27.27 9.90989 28.2395 13.7294 28.9374C14.3692 29.0538 15.009 29.3058 15.6488 29.4997C14.059 29.5966 12.5855 29.0344 11.0538 28.6854C9.67724 28.3946 8.35884 27.9874 7.04045 27.5609C4.8302 26.8241 2.65872 25.971 0.991338 24.2261C-0.346446 22.8495 -0.327058 21.473 1.03011 20.0383C2.71688 18.2352 4.94652 17.4015 7.23433 16.6647C8.86293 16.1218 10.5109 15.6565 12.1783 15.2882C14.2722 14.7841 16.3855 14.3575 18.5376 14.183Z" fill="#D9D9D9"/>
<path d="M50.6832 57.7676C50.5087 57.884 50.3342 58.0778 50.121 58.136C48.6475 58.485 48.3954 59.7065 48.3954 60.8891C48.3954 62.382 48.3179 63.9525 47.8719 65.2515C47.1546 67.2872 47.7556 69.4199 47.0189 71.3975C46.5148 72.7741 46.1464 74.2088 46.0882 75.7017C46.0494 76.5742 45.9331 77.4079 46.2627 78.2609C46.6311 79.1916 46.4954 80.1416 46.0301 81.0334C44.7892 80.8977 43.6841 81.46 42.5596 81.8284C40.931 82.061 39.3024 82.3518 37.6544 82.2743C36.4717 82.2743 35.2696 82.2743 34.0869 82.2743C33.3308 82.2355 32.5747 82.3518 31.8379 82.1773C31.3338 81.7896 30.7328 81.8865 30.1705 81.8671C29.2011 82.0222 28.3481 81.5375 27.4368 81.4212C26.6807 80.9365 26.4092 81.7508 25.9245 82.0028C25.9245 81.4018 25.9245 80.8008 25.498 80.2773C25.0327 79.715 25.4204 79.0559 25.5562 78.5324C25.9051 77.2528 25.4786 76.0507 25.5174 74.8098C25.6143 74.7323 25.6919 74.7517 25.7694 74.8098C25.8276 74.8874 25.8664 74.9649 25.9051 75.0619C25.9827 75.5272 26.1378 75.9925 26.2735 76.4384C26.5256 77.2527 25.8858 77.9507 25.9827 78.765C25.9827 78.9007 25.9827 79.0558 26.0021 79.1916C26.0796 79.3661 26.1184 79.6375 26.2929 79.6375C27.8827 79.715 29.3368 80.5294 30.9267 80.5681C31.0818 80.5875 31.2175 80.6069 31.3726 80.6457C32.7879 81.0141 34.2033 81.4406 35.6962 81.2273C35.89 81.1692 36.1033 81.1498 36.2972 81.1498C36.3941 81.1498 36.4911 81.1498 36.588 81.1692C37.9646 81.1692 39.3411 81.0722 40.6983 80.762C41.8422 80.51 42.9861 80.1804 44.1494 79.9671C45.0606 79.812 45.5454 79.3079 45.6617 78.3966C45.6423 78.2997 45.6229 78.2222 45.5841 78.1252C45.1382 77.3885 45.08 76.6323 45.526 75.8568C45.4678 75.4496 45.1964 75.4496 44.8862 75.5078C44.5178 75.566 44.13 75.6048 43.7616 75.6241C43.3545 75.6241 42.9473 75.6435 42.5402 75.5466C40.2912 74.9262 39.8065 74.3639 39.9616 72.0179C40.0779 70.4087 40.1942 68.7995 39.9616 67.1903C39.9034 66.7444 39.9422 66.279 40.2136 65.8913C40.4463 65.5617 40.7177 65.2902 41.1636 65.3484C41.6483 65.426 41.8422 65.7943 41.9392 66.2209C42.0361 66.628 42.0167 67.0546 41.9973 67.4811C41.9585 68.8383 41.9004 70.1761 41.8616 71.5332C41.8228 73.0649 42.0361 73.7047 42.9473 73.8792C44.0912 74.0925 45.7586 73.22 45.9913 72.1537C46.2821 70.7965 46.6311 69.4587 46.8444 68.0821C46.9219 67.5199 46.7668 67.074 46.3015 66.725C45.5066 66.1046 44.6923 65.5229 43.6259 65.5423C43.2382 65.5423 42.8504 65.4841 42.6759 65.0382C42.6565 64.7862 42.8116 64.6698 42.9861 64.5535C43.9749 63.6616 45.0607 63.5065 46.2433 64.127C46.4954 64.2627 46.825 64.2627 47.0189 63.9719C47.174 63.7198 47.1546 63.4678 46.9413 63.2739C46.1464 62.479 45.8362 61.3545 44.9249 60.6177C44.4208 60.2106 43.9943 59.8034 43.3157 59.6677C42.5984 59.5126 41.8228 59.3381 41.881 58.3105C41.9004 57.787 42.2106 57.3605 42.3463 56.8758C43.0055 54.6849 43.18 52.4359 43.1994 50.1675C43.1994 49.7797 43.1024 49.392 42.831 49.1011C42.3075 48.5389 42.133 47.8021 41.9585 47.1041C41.7259 46.1735 42.2106 45.7276 43.2382 45.8827C43.432 46.1735 43.1412 46.348 43.0443 46.5613C42.831 47.0848 42.8892 47.5695 43.2188 48.0154C43.529 48.4225 43.9555 48.2287 44.3627 48.1899C46.6505 47.9572 48.8995 47.3562 51.1679 47.046C51.6526 46.9878 52.0986 46.8133 52.5639 46.7164C53.0486 46.6194 53.5527 46.3674 54.0568 46.6582C54.1537 46.7745 54.1537 46.9297 54.0374 46.9878C52.6608 47.7633 53.2037 48.9266 53.4557 50.0124C53.6108 50.6522 53.9404 51.292 53.6108 51.9706C53.3394 52.3002 52.9516 52.339 52.5833 52.4359C51.9434 52.5716 51.3618 52.8043 50.7995 53.1339C50.1016 53.5216 49.6944 54.0645 49.5975 54.8594C49.5199 55.4992 49.3842 56.1196 49.2679 56.7595C49.1516 57.3993 49.2291 57.787 50.024 57.6513C50.2761 57.5931 50.5087 57.5931 50.6832 57.7676Z" fill="#E4E4E4"/>
<path d="M70.2072 15.928C70.4592 15.2106 70.6531 14.2606 71.6225 14.4157C72.5337 14.5514 72.398 15.5014 72.398 16.1606C72.398 18.3127 71.7776 20.3485 71.3123 22.423C71.2347 22.8108 71.1378 23.1597 71.2347 23.5669C71.3704 23.5087 71.4674 23.4893 71.5255 23.4312C72.6694 22.4618 73.5225 22.6944 74.0266 24.1873C74.1817 24.6332 74.2399 24.8465 74.7828 24.672C75.3838 24.4781 75.7134 24.9822 76.0042 25.4088C76.3144 25.8353 76.4114 26.32 76.0624 26.7466C75.6164 27.27 75.6746 27.6578 76.1012 28.1619C76.6634 28.8211 76.3532 29.4221 75.8297 29.9456C75.3838 30.3915 74.7828 30.6436 74.2011 30.7599C73.4837 30.8956 73.1735 31.2446 72.9409 31.9038C72.6113 32.8732 72.1847 33.7651 70.9051 33.7651C70.4786 33.7651 70.3429 34.1916 70.1878 34.5794C68.4622 39.3101 66.8918 44.099 64.7785 48.6746C64.4489 49.3919 64.0223 50.0899 63.7315 50.8267C63.208 52.1451 61.909 52.4553 60.8814 53.1145C60.4743 53.3665 60.009 53.5216 59.563 53.7155C58.8651 54.2196 57.9926 54.2971 57.2365 54.6849H57.2171C56.5191 55.1502 55.6854 55.2278 54.9293 55.538C54.6578 55.6543 54.3089 55.7319 54.0374 55.441C53.8048 54.8012 53.669 54.142 53.6884 53.4634C53.7466 51.7379 53.4752 50.0317 53.1262 48.345C52.9905 47.7052 53.1262 47.3368 53.8242 47.1235C54.464 46.9296 55.0456 46.5031 55.7436 46.7939C56.1507 47.3368 55.5885 47.3562 55.3364 47.4531C53.9017 48.0154 53.8048 48.0154 54.0568 49.6052C54.2895 51.1563 54.6385 52.7073 54.5997 54.2971C54.5803 54.9563 55.0456 54.7043 55.3364 54.6074C56.8293 54.1808 58.264 53.5992 59.66 52.94C60.5131 52.5328 61.3661 52.1838 62.1611 51.6797C62.6845 51.3501 63.0529 50.943 62.8396 50.245C62.2386 48.248 62.607 46.3286 63.5764 44.5449C64.856 42.1989 66.1356 39.8336 67.803 37.7203C68.8306 36.4213 69.3153 34.8896 70.0133 33.4549C71.1572 33.0089 72.0684 32.3497 72.495 31.0895C72.6888 30.5273 73.4062 30.314 74.0072 30.1783C74.0848 30.1395 74.1623 30.1007 74.2593 30.0619C74.3756 30.0038 74.4919 29.9456 74.6083 29.8874C75.7909 29.2282 75.8491 28.9568 75.1124 27.7935C75.0736 27.716 75.0542 27.619 75.0348 27.5415C74.996 27.2313 75.1511 26.9986 75.2868 26.7466C75.7134 25.971 75.4613 25.37 74.6083 25.3312C73.7358 25.2924 73.2705 24.9241 73.0184 24.1098C72.8246 23.4893 72.4174 23.2955 71.8745 23.8189C71.6225 24.0516 71.3898 24.323 71.099 24.5169C70.75 24.769 70.4592 24.7496 70.2265 24.3424C70.0714 23.722 70.052 23.121 70.3623 22.5199C70.5367 22.2485 70.7888 21.9965 70.6725 21.6475C70.5368 21.1822 70.8276 20.8526 71.0408 20.5036C71.1378 20.077 71.0796 19.6505 71.099 19.2239C70.9827 18.526 71.4674 18.0025 71.6613 17.3821C71.6807 16.9943 71.6806 16.6259 71.6806 16.2382C71.6419 15.7922 71.8358 15.3269 71.4674 14.9586C71.2153 14.9392 71.1184 15.133 70.9827 15.2882C70.8082 15.5208 70.7112 15.831 70.4204 15.9667C70.3429 15.9861 70.2653 15.9861 70.2072 15.928Z" fill="#CB8261"/>
<path d="M29.5307 58.0584C28.7551 54.743 28.3092 51.4083 28.8521 47.996C28.9684 47.3174 29.3368 46.7357 29.3174 46.0377C29.2204 45.8245 29.0847 45.6888 28.9296 45.6112C28.8521 45.7663 28.7551 45.902 28.6582 46.0377C28.6582 46.0377 28.6776 46.0377 28.6776 46.0571C28.3092 47.4919 28.4449 49.1786 26.6612 49.8184C26.3898 49.9929 26.1765 50.2256 25.8663 50.3807C23.5203 51.5828 22.2213 53.6573 21.3295 56.0227C20.9417 57.0308 21.155 57.3798 22.2213 57.6513C22.5121 57.7288 22.7836 57.7676 23.0744 57.7288C24.7612 57.5349 26.4867 57.7288 28.1735 57.4186C28.6388 57.4186 28.5225 57.8645 28.697 58.0778C28.8908 58.2911 29.0072 58.9309 29.4725 58.3298C29.5307 58.2523 29.55 58.1553 29.5307 58.0584Z" fill="#D9D9D9"/>
<path d="M26.6807 49.8185C26.3123 50.4777 25.5949 50.691 25.0521 51.1175C23.2102 52.4747 22.1245 54.3359 21.3683 56.4492C21.155 57.0503 22.1245 57.6125 23.0939 57.535C24.8776 57.3993 26.6613 57.3023 28.445 57.186C28.6777 57.8646 28.1542 57.9809 27.7276 57.9809C26.7776 57.9809 25.847 58.3105 24.8776 58.0972C24.6643 58.0585 24.3929 57.9809 24.2765 58.2329C24.1796 58.4268 24.3735 58.5819 24.4898 58.7176C24.8 59.0472 24.9939 59.4544 25.1102 59.9003C25.149 60.0942 25.149 60.2881 25.0327 60.4626C24.1796 60.5789 24.102 59.7646 23.6949 59.3381C23.4622 59.1054 23.4428 58.6789 23.0357 58.5238C22.551 60.2299 21.7949 61.8198 21.155 63.4484C20.8448 64.2239 20.9224 64.3014 22.0081 64.5147C21.853 65.1739 21.853 65.1933 20.9806 65.1739C20.3214 65.1545 19.7203 65.1933 19.7785 66.1045C19.7203 66.1821 19.6622 66.2209 19.5652 66.2403C19.0999 66.1239 18.654 65.8913 18.1693 66.1433C18.1111 64.2433 18.9836 62.5759 19.5652 60.831C20.1275 59.1054 20.8836 57.4574 21.2714 55.6737C21.6204 55.0339 22.0275 54.4135 22.3183 53.7543C23.152 51.7379 24.8388 50.6909 26.6807 49.8185Z" fill="#E0E0E0"/>
<path d="M54.1537 55.441C55.0261 55.5768 55.7241 55.0533 56.519 54.84C56.7517 54.7818 56.9843 54.6267 57.2558 54.6655C56.9262 55.4604 56.0925 55.2666 55.5108 55.4798C53.8434 56.1002 52.4087 57.2248 50.7026 57.7676C48.9382 58.0391 48.9382 58.0391 49.1515 56.2941C49.2485 55.538 49.326 54.7625 49.5587 54.0257C49.8301 53.1532 50.7026 52.8624 51.4587 52.5328C52.1373 52.242 52.874 52.1257 53.5914 51.9512C53.921 53.0757 53.7271 54.3165 54.1537 55.441Z" fill="#DADADA"/>
<path d="M69.0826 19.6117C69.0632 19.476 69.0438 19.3403 69.0244 19.2239C69.1989 18.2158 69.3928 17.2076 70.0132 16.3545C70.3622 16.7229 70.0714 17.1106 70.0714 17.4984C69.9163 18.2158 69.7612 18.9525 69.354 19.5923C69.2765 19.6505 69.1795 19.6699 69.0826 19.6117Z" fill="#C0C0C0"/>
<path d="M57.2557 54.6655C57.9343 54.1226 58.7874 53.9869 59.5823 53.6961C58.9813 54.4716 58.0894 54.5104 57.2557 54.6655Z" fill="#DADADA"/>
<path d="M15.6488 29.4803C16.1529 29.6548 16.8509 29.0537 17.1805 29.8874C16.6376 29.8486 16.056 29.9844 15.6488 29.4803Z" fill="#D9D9D9"/>
<path d="M69.8387 17.479C69.8969 17.0913 69.9551 16.7229 70.0132 16.3351C70.0714 16.1994 70.1296 16.0637 70.2071 15.928C70.2847 15.928 70.3428 15.928 70.4204 15.928C70.4592 16.529 70.7694 17.2464 69.8387 17.479Z" fill="#CA805F"/>
<path d="M59.9702 16.3157C61.3855 16.4321 62.607 17.1882 63.906 17.6341C65.5346 18.1964 66.9693 19.0495 68.152 20.3097C68.6561 20.8526 68.7142 20.0189 69.0244 19.9801C69.354 21.4148 69.5867 22.8495 68.501 24.1292C68.2683 24.4006 68.1714 24.7496 68.0357 25.0792C67.8805 25.4088 67.6673 25.7578 67.2989 25.7772C65.903 25.8547 65.7285 26.8435 65.6315 27.9099C65.2244 28.8017 65.7672 29.616 65.806 30.4691C65.7285 30.5273 65.6315 30.566 65.5152 30.566C64.6233 30.1589 64.507 29.4027 64.5652 28.5497C64.5846 28.2201 64.7397 27.9292 64.7978 27.619C64.9529 26.9211 64.7784 26.7466 64.1192 26.9986C62.0447 27.8129 59.9314 28.4527 57.7599 28.9568C56.4997 29.2476 55.2395 29.5191 53.9792 29.6742C53.068 29.7905 52.9904 30.4497 52.7578 31.0895C52.5445 31.7293 53.0292 31.9038 53.4557 32.1559C54.619 32.8926 55.0262 35.2192 54.1731 36.3243C54.0762 36.46 53.9211 36.5182 53.7466 36.4988C53.4557 36.1111 53.7466 35.6845 53.669 35.2968C53.8047 34.0365 53.6302 32.9702 52.1761 32.5436C51.769 32.4273 51.7496 32.0202 51.7496 31.6518C51.8271 30.5079 52.3312 29.4415 52.3118 28.2588C52.2731 25.1761 51.3037 23.6832 48.473 22.5199C45.0607 21.6863 41.629 20.9689 38.1197 20.7556C35.3666 20.5811 32.5941 20.3291 29.841 20.7944C29.1624 20.9107 28.4256 21.0658 27.7858 20.6005C27.2817 20.6005 26.7582 20.6005 26.2542 20.6005C27.2042 19.8638 28.3093 19.5536 29.395 19.2433C32.7298 18.3127 36.1809 18.0219 39.5738 17.3627C40.582 17.1688 41.6096 17.2658 42.6372 17.1494C46.6699 16.7229 50.722 16.6647 54.7548 16.7229C56.3058 16.7423 57.8569 16.7423 59.4273 16.7229C59.6794 16.6841 60.1641 16.8974 59.9702 16.3157Z" fill="#C0C0C0"/>
<path d="M27.8246 20.5811C29.4919 20.6199 31.1399 20.2709 32.8073 20.2127C35.2502 20.1546 37.6737 20.3872 40.0973 20.6005C43.0249 20.8719 45.8749 21.5311 48.7056 22.2679C48.3566 22.675 48.3954 23.121 48.4923 23.6251C49.1128 26.6496 49.5975 29.7129 50.1016 32.7763C50.1597 33.1253 50.1597 33.4742 50.1016 33.8426C49.9658 34.3855 50.3342 35.0059 49.9077 35.51C49.1322 35.3549 49.0158 34.7151 49.0934 34.1141C49.326 32.4854 48.8219 30.9344 48.6087 29.3446C48.4148 27.968 48.0852 26.6302 47.9107 25.2537C47.678 23.5087 47.426 23.2567 45.526 23.1016C45.6229 23.6057 45.8749 24.0516 45.9331 24.5557C46.03 25.5445 45.778 25.9322 44.7892 26.068C43.7422 26.2231 42.7534 25.8935 41.784 25.5639C41.2606 25.3894 40.6014 25.4088 40.3687 24.7302C40.6207 24.2843 40.9697 24.4975 41.2993 24.5945C42.1524 24.8659 43.0055 25.1373 43.8973 25.273C44.3045 25.3312 44.7698 25.3894 45.0412 24.9822C45.3127 24.5751 45.0412 24.1679 44.8474 23.8189C43.7229 21.8607 41.4932 21.3954 39.9809 22.7914C39.3411 23.3924 39.3411 23.5475 40.0197 24.1098C40.1942 24.2455 40.6789 24.323 40.2718 24.7302C39.5156 24.8853 38.8176 24.6139 38.585 23.9353C38.2166 22.9271 39.2442 22.5393 39.7677 21.8607C38.837 21.8026 37.9064 21.5893 36.9758 21.5893C34.7849 21.6281 32.594 21.4148 30.4226 21.8995C30.2093 21.9577 29.9766 21.9383 29.744 21.8801C28.0378 21.3566 26.2929 21.473 24.6061 21.8413C23.3459 22.1128 22.6673 23.1985 22.6867 24.4781C22.7061 26.2812 22.6867 28.0649 22.1438 29.8293C21.7948 30.9344 21.853 32.1171 21.9887 33.2804C22.0275 33.5712 22.0857 33.9396 21.7948 34.0753C21.4265 34.2498 21.252 33.8814 21.0387 33.6293C20.7091 33.1059 20.7091 32.5242 20.7867 31.9426C21.0969 29.1895 21.2907 26.417 21.8336 23.7026C21.9887 22.9465 22.0275 22.2291 21.2907 21.7056C23.1908 21.1821 25.1684 21.1434 27.0878 20.7556C27.3592 20.7168 27.6307 20.8138 27.8246 20.5811Z" fill="#B46A4F"/>
<path d="M21.3101 21.7056C22.105 21.5893 22.3183 21.9577 22.2214 22.7138C21.9111 24.9047 21.5622 27.0761 21.3683 29.2864C21.2519 30.7017 20.7479 32.1171 21.2519 33.5518C20.9223 34.0947 20.554 33.8232 20.2438 33.5518C19.7397 33.1059 19.158 32.7957 18.5376 32.5824C18.2662 32.5048 18.2856 32.214 18.1305 32.0589C17.8396 30.3334 17.258 28.666 17.51 26.8629C17.859 24.42 19.0611 22.675 21.3101 21.7056Z" fill="#2D2436"/>
<path d="M18.1499 32.0396C18.2856 32.1753 18.4213 32.2916 18.557 32.4273C18.8866 32.5824 19.1774 32.7569 19.2938 33.1447C19.4876 33.7845 19.2356 34.1916 18.5764 34.308C17.8396 34.4437 17.6652 34.7539 18.0723 35.3937C18.5376 36.0917 19.0417 36.7509 19.5652 37.4295C19.953 37.9529 20.0887 38.457 19.5264 38.9611C17.6652 37.5846 16.6957 35.161 17.3162 33.4743C17.4519 33.1059 17.6264 32.7763 17.9754 32.563C18.208 32.4467 18.1305 32.2334 18.1499 32.0396Z" fill="#C68061"/>
<path d="M65.3794 27.9292C65.2437 27.2507 65.6508 26.6884 65.8641 26.0874C65.9998 25.719 66.3294 25.5445 66.7172 25.6027C67.4346 25.6802 67.7835 25.3312 67.9193 24.6526C67.9774 24.3424 68.2101 24.0904 68.3846 23.8189C68.9274 23.0628 69.2764 22.2485 68.9081 21.2985C68.7336 20.8138 69.005 20.426 69.005 19.9801C69.0244 19.8444 69.0438 19.7087 69.0632 19.5923C69.1213 19.5923 69.1795 19.5923 69.2183 19.5729C69.6448 20.9883 69.7417 22.4036 69.0632 23.7608C68.5978 24.7108 68.5591 24.7302 69.6448 24.7496C69.8968 24.7496 70.1683 24.7496 70.4203 24.769C71.5061 24.9047 72.0102 25.6802 71.6418 26.6884C71.4673 27.2119 71.2346 27.716 70.9438 28.1619C70.4009 29.015 69.6448 29.5772 68.6172 29.4027C67.5509 29.2282 66.8917 28.4721 66.5621 27.4445C66.4845 27.1731 66.5039 26.8629 66.4264 26.5333C65.9029 26.9211 66.1162 27.8129 65.3794 27.9292Z" fill="#CA7E5D"/>
<path d="M26.099 76.3608C25.7694 75.9731 25.6919 75.5078 25.7113 75.0037C26.0796 73.9179 26.1378 72.8128 25.8664 71.7077C25.7888 69.2066 25.8082 66.7249 25.8664 64.2238C25.9051 63.9718 26.0021 63.7198 26.1184 63.5065C26.5062 62.7891 27.0103 62.6922 27.5725 63.2932C28.0185 63.7585 28.4256 64.2626 28.8134 64.7667C29.4338 65.5616 29.6083 66.3565 29.1624 67.3647C28.5807 68.6831 28.4644 70.1178 28.8909 71.5138C29.5501 73.724 30.9073 75.1394 33.3502 75.2363C34.591 75.4302 35.6186 76.1282 36.7431 76.5741C37.0921 76.7098 37.5574 76.8455 37.5768 77.2915C37.5962 77.8149 36.9952 77.6792 36.6462 77.9701C37.3442 78.4548 38.1197 78.5905 38.9146 78.6099C40.3299 78.6293 41.7453 78.668 43.1606 78.4548C43.6259 78.3772 44.3821 78.2221 44.479 78.8231C44.576 79.3272 43.8586 79.4629 43.4127 79.618C41.5126 80.2772 39.5738 80.665 37.5574 80.3354C37.3248 80.2966 37.1115 80.3354 36.8982 80.413C35.6768 80.8783 34.4359 80.8007 33.1951 80.4905C32.4196 80.2966 31.6247 80.1803 30.8104 80.1221C29.3369 80.0446 28.0378 79.366 26.6613 78.9782C26.1572 78.8231 26.0409 78.3772 26.1184 77.8731C26.1766 77.369 26.3123 76.8649 26.099 76.3608Z" fill="#D6D6D6"/>
<path d="M42.7341 64.9412C42.9086 65.3484 43.2769 65.3484 43.6259 65.329C45.0219 65.232 45.9525 66.1239 46.9025 66.9188C47.2903 67.229 47.2127 67.6943 47.1546 68.1015C46.9413 69.4974 46.5535 70.8352 46.3015 72.2312C46.0688 73.6271 43.8004 74.6741 42.5014 74.1312C41.6483 73.7822 41.4545 72.9291 41.5708 71.5332C41.7259 69.827 41.7065 68.1209 41.7259 66.3953C41.7259 66.027 41.5514 65.5616 41.0667 65.581C40.6208 65.6004 40.1942 66.0076 40.2524 66.3953C40.5238 68.7995 40.1361 71.2036 40.3105 73.5883C40.3687 74.422 40.834 75.1006 41.8422 75.1782C42.0749 75.1976 42.3657 75.1588 42.5402 75.4302C41.6677 75.7792 40.7759 75.6629 40.3493 74.9067C39.6513 73.6853 38.6044 73.2006 37.3248 72.9679C37.4411 72.1148 37.4799 71.2424 37.7513 70.4475C38.0034 69.7495 37.7319 69.1291 37.635 68.4892C37.5768 68.1015 37.1697 68.4311 37.0339 68.2178C36.8207 67.8688 36.8595 67.4811 36.8788 67.0933C36.8788 66.4535 36.7819 65.8718 36.239 65.4647C35.9288 65.232 35.8319 64.98 36.1615 64.6892C36.8013 64.2239 37.3635 63.6616 38.1585 63.4677C38.4493 63.4871 38.585 63.681 38.7401 63.8943C39.4381 64.9412 40.4075 65.2902 41.6289 64.98C41.9973 64.8637 42.3657 64.6698 42.7341 64.9412Z" fill="#DCDCDC"/>
<path d="M26.099 76.3609C26.4868 76.8843 26.2541 77.4854 26.2735 78.0476C26.2929 78.4548 26.4286 78.7262 26.8164 78.8425C28.5225 79.3272 30.2093 79.9089 32.0124 80.0446C33.3114 80.1415 34.6298 80.7814 35.89 80.3936C36.8788 80.0834 37.7707 80.2191 38.7401 80.2191C40.4656 80.2191 42.1718 79.8701 43.781 79.2303C43.9749 79.1528 44.2269 79.114 44.3433 78.7262C41.5126 78.6099 38.5656 79.6568 35.8706 77.9507C36.2778 77.4078 36.937 77.6211 37.6931 77.369C36.0645 76.6129 34.7074 75.8955 33.2532 75.4108C34.1063 75.1782 34.8431 74.5771 35.7931 74.5965C35.8125 75.2363 36.1615 75.5078 36.7819 75.5078C38.2166 75.5466 39.6513 75.7792 41.0861 75.8761C42.0555 75.9343 43.0637 76.0506 43.9167 75.3914C44.2657 75.3721 44.5953 75.4108 44.9443 75.2751C45.5647 75.0425 45.9331 75.2363 45.8555 75.9731C45.2739 76.6517 44.5759 77.2139 43.8973 77.815C44.2076 77.8925 44.5565 77.8537 44.9249 77.7956C45.2933 77.718 45.6423 77.718 45.8555 78.1058C45.8555 78.164 45.8555 78.2415 45.8555 78.2997C46.0107 78.9007 45.5841 79.1528 45.177 79.4048C44.2657 79.9477 43.2575 80.2773 42.23 80.5293C40.3687 80.9752 38.488 81.2854 36.5686 81.4018C36.5104 81.4018 36.4329 81.4018 36.3747 81.4018C36.2778 81.3242 36.1615 81.2467 36.0257 81.2467C33.9124 81.4018 31.8961 80.7814 29.8603 80.4518C29.4338 80.3936 29.0654 80.2385 28.6776 80.0834C28.5807 80.064 28.4837 80.0446 28.3868 80.0058C27.7664 79.8507 27.1847 79.6375 26.5643 79.4823C26.2153 79.4048 25.9245 79.2109 25.75 78.8813C25.5755 78.0088 26.3123 77.2527 26.099 76.3609Z" fill="#DCDCDC"/>
<path d="M44.2658 45.5725C44.0331 45.9214 43.6841 45.9408 43.3351 45.9796C42.2106 46.0572 42.1137 46.2123 42.3463 47.2592C42.5208 47.996 42.6953 48.6746 43.3157 49.1787C43.529 49.3532 43.5096 49.6246 43.529 49.896C43.7423 51.8736 43.1025 53.7737 43.0831 55.7319C43.0831 56.1584 42.7341 56.6043 42.5596 57.0309C42.2494 56.74 42.2688 56.3329 42.4433 56.0615C42.8116 55.441 42.7147 54.7625 42.7341 54.2196C42.8116 55.0339 42.6372 55.9064 42.0555 56.6819C41.5902 55.7125 40.5045 55.2278 40.0973 54.2196C40.0973 54.1226 40.1167 54.0257 40.1555 53.9481C40.6208 53.7155 40.7953 54.2777 41.2606 54.3359C41.183 53.6767 40.8922 53.1532 40.4657 52.6685C39.8259 51.9318 38.9728 51.4858 38.2167 50.8848C37.3636 50.2062 37.3442 49.9736 38.0034 49.0817C38.585 48.5001 39.2248 47.996 39.283 47.046C39.3024 46.5419 39.7871 46.3868 40.233 46.251C40.7759 46.0959 41.3963 46.2317 41.881 45.8439C42.1912 45.6694 42.5402 45.5725 42.9086 45.5531C43.3739 45.5725 43.8392 45.2235 44.2658 45.5725Z" fill="#C0C0C0"/>
<path d="M43.8974 75.4108C43.9943 75.6241 44.5953 75.8568 43.8198 75.9925C41.9973 76.3415 40.1942 76.0894 38.3911 75.8567C37.6544 75.7598 36.9176 75.7792 36.2003 75.6823C35.5023 75.5853 35.1921 75.2557 35.7737 74.6159C36.2003 73.9567 36.3554 73.0455 37.3248 72.871C38.5074 72.7159 39.5738 73.1036 40.1167 74.1312C40.6983 75.1976 41.4932 75.469 42.5596 75.3914C43.0055 75.3914 43.4514 75.4108 43.8974 75.4108Z" fill="#D6D6D6"/>
<path d="M42.1524 58.3299C42.0943 59.3769 42.9473 59.3769 43.5872 59.4738C44.0719 59.5513 44.479 59.6677 44.7311 60.0554C45.3127 60.9085 46.4372 61.3351 46.5923 62.5177C46.6117 62.731 46.8056 62.9055 47.0382 62.9831C47.7556 63.2351 47.4454 63.7974 47.3097 64.1851C47.174 64.6698 46.7087 64.5729 46.3209 64.4759C46.1464 64.4372 45.9719 64.3208 45.7974 64.2433C44.9831 63.9137 44.1882 63.7392 43.5484 64.5729C43.4708 64.6698 43.2576 64.6698 43.1024 64.728C43.0249 64.5147 43.1218 64.3596 43.2382 64.2045C44.2464 62.5371 44.0525 61.1218 42.6371 60.0167C42.4626 59.881 42.2688 59.7646 42.0749 59.6677C41.2412 59.183 41.2606 58.8534 42.1524 58.3299Z" fill="#DCDCDC"/>
<path d="M54.1538 46.7358C55.2977 46.8715 56.3446 46.3868 57.4304 46.1347C58.1477 45.9796 58.3804 45.2041 58.71 44.6806C60.2416 42.3347 61.6958 39.9499 63.1499 37.5652C64.2356 35.7815 65.1081 33.862 65.9805 31.962C66.2714 31.3028 65.4958 31.0314 65.5346 30.4691C65.6122 30.4691 65.6897 30.4497 65.7479 30.4497C66.5622 31.012 66.6785 31.4385 66.3489 32.4079C65.6316 34.4631 64.5846 36.3437 63.4989 38.205C62.006 40.7254 60.5519 43.2653 58.8457 45.65C58.109 46.6776 57.1783 47.2011 55.8793 46.9296C55.6467 46.9296 55.4334 46.9103 55.2007 46.9296C53.2231 47.1429 53.2037 47.2786 53.4752 49.2174C53.7854 51.2726 53.9211 53.3665 54.115 55.4411C53.4946 54.3553 53.5721 53.1532 53.5333 51.9512C53.7272 50.9624 53.1456 50.1093 53.0099 49.1787C52.8935 48.0929 52.8741 47.1429 54.1538 46.7358Z" fill="#EACCBE"/>
<path d="M43.2964 64.3596C43.2382 64.4953 43.1607 64.6116 43.1025 64.7473C42.9862 64.8055 42.8504 64.8831 42.7341 64.9412C41.3188 65.3678 39.9228 65.6974 38.7402 64.3596C38.5269 64.1075 38.5657 63.6422 38.1003 63.584C38.0616 63.2738 38.2942 63.2932 38.4881 63.2932C38.8953 63.4289 38.9728 63.8749 39.2636 64.1075C39.4963 64.3208 39.729 64.631 40.0779 64.4953C40.4075 64.3596 40.33 64.0106 40.3494 63.7391C40.3688 63.2351 40.3881 62.7116 40.2718 62.2075C40.1749 61.7616 40.1943 61.3156 40.4075 60.8891C40.582 60.5401 40.6596 60.133 40.931 59.8227C41.2606 59.5707 41.5127 59.6676 41.7065 59.9972C41.9392 61.0054 41.8035 62.0524 41.8229 63.08C41.8616 64.2626 41.8423 64.2626 43.0249 64.2626C43.1413 64.2432 43.2188 64.3014 43.2964 64.3596Z" fill="#ADD67A"/>
<path d="M41.5708 59.9003C41.3769 59.7646 41.2024 59.7646 41.0086 59.9003C40.3881 59.6871 39.8453 60.4238 39.2249 60.0748C39.2249 59.532 39.6902 59.4544 40.0392 59.2799C40.3494 59.1442 40.7371 59.086 40.7759 58.6401C41.2024 57.9809 41.1637 57.0309 41.978 56.585C42.5596 55.538 42.5984 54.3747 42.7341 53.2114C42.9862 54.0645 43.1025 54.9564 42.7923 55.7707C42.6372 56.1778 42.5402 56.5462 42.5596 56.9727C42.6372 57.4768 42.0555 57.787 42.1525 58.2911C41.629 58.834 41.4739 59.2799 42.4239 59.5126C42.5596 59.5514 42.6372 59.7259 42.7535 59.8228C42.3657 60.1912 41.9586 59.9197 41.5708 59.9003Z" fill="#9E9D9D"/>
<path d="M36.5493 81.4018C37.9259 80.8977 39.4188 81.014 40.8147 80.6263C42.2494 80.2385 43.7229 79.9283 45.0413 79.1722C45.4097 78.9589 45.7975 78.7844 45.8169 78.2997C46.0495 79.2303 45.3515 80.2191 44.3627 80.3161C43.0056 80.4324 41.726 80.8783 40.4076 81.1304C39.1279 81.363 37.8483 81.5181 36.5493 81.4018Z" fill="#E2E2E2"/>
<path d="M42.7341 81.5763C42.9279 81.5957 43.1412 81.6151 43.3351 81.6345C42.7728 82.4294 41.8422 82.3131 41.0861 82.41C37.635 82.7784 34.1451 82.7396 30.694 82.4488C30.0542 82.3906 29.4532 82.1192 28.8134 82.0804C28.697 82.0804 28.6001 82.0416 28.5032 82.0222C28.0766 81.809 27.4368 81.9253 27.2429 81.3049C27.2623 81.2855 27.2817 81.2467 27.3205 81.2273C28.2899 81.1885 29.1623 81.8671 30.1705 81.6539C30.6746 81.8477 31.2563 81.6926 31.741 82.0028C32.5165 82.0222 33.2726 82.0222 34.0482 82.0416C35.289 82.1967 36.5299 82.1967 37.7513 82.0416C39.4187 82.0998 41.0667 81.712 42.7341 81.5763Z" fill="#B6B5B5"/>
<path d="M45.8362 78.1058C45.2352 77.6986 44.6535 78.2609 44.0525 78.1058C43.8392 78.0476 43.5484 78.1252 43.4709 77.8731C43.3739 77.5629 43.7423 77.6017 43.8974 77.4854C44.5178 76.9619 45.0801 76.3415 45.8362 75.9731C45.2352 76.6904 45.4097 77.4078 45.8362 78.1058Z" fill="#E2E2E2"/>
<path d="M28.4255 79.8507C30.2092 80.3354 32.0123 80.6844 33.8348 80.9364C34.3777 81.014 34.9206 80.9946 35.4634 81.014C35.8318 81.0334 36.1808 80.9946 36.3553 81.4018C36.1614 81.4018 35.9675 81.4018 35.7737 81.4018C34.843 81.6926 33.9706 81.2854 33.0787 81.1885C32.4971 81.1303 31.9154 80.9558 31.3338 80.8201C31.198 80.8201 31.0817 80.8201 30.946 80.8201C30.4031 80.6456 29.8215 80.5875 29.2786 80.4711C28.949 80.413 28.5031 80.3354 28.4255 79.8507Z" fill="#E0E0E0"/>
<path d="M28.4255 79.8507C29.0847 80.6651 30.2093 80.1997 30.946 80.8202C29.7052 80.8589 28.6 80.2773 27.4174 80.0834C27.0878 80.0252 26.8163 79.812 26.4092 79.9671C25.7888 80.1803 25.9632 79.5018 25.7306 79.2691C26.6612 79.2109 27.4949 79.7732 28.4255 79.8507Z" fill="#E2E2E2"/>
<path d="M31.3145 80.8201C32.8267 80.8589 34.2421 81.4793 35.7737 81.4018C34.9207 81.9446 34.0482 81.3824 33.1951 81.3436C32.5747 81.3242 31.8961 81.1885 31.3145 80.8201Z" fill="#E2E2E2"/>
<path d="M26.0989 71.921C26.4479 73.0067 26.4479 74.073 25.7112 75.0231C25.7112 74.9649 25.7112 74.8873 25.7112 74.8292C25.7112 74.6353 25.7112 74.4414 25.7112 74.2475C25.9051 73.9761 25.7693 73.6659 25.8081 73.3945C25.8857 72.8904 25.6918 72.3475 26.0989 71.921Z" fill="#E0E0E0"/>
<path d="M37.7319 82.0028C36.4911 82.2742 35.2503 82.2549 34.0288 82.0028C35.2503 82.0028 36.4911 82.0028 37.7319 82.0028Z" fill="#DCDCDC"/>
<path d="M28.4255 79.8508C27.4561 79.9283 26.6418 79.4048 25.7112 79.2691C25.7112 79.1334 25.7112 79.0171 25.7112 78.8813C26.5449 79.4048 27.5724 79.3854 28.4255 79.8508Z" fill="#E0E0E0"/>
<path d="M31.7023 81.9641C31.14 82.0028 30.6359 81.8671 30.1318 81.6151C30.6553 81.7508 31.3145 81.2467 31.7023 81.9641Z" fill="#E2E2E2"/>
<path d="M18.1692 66.1045C18.6152 65.2127 19.0805 65.7555 19.5458 66.1045C21.0775 66.2984 22.4928 66.8994 23.9857 67.2097C24.4704 67.326 24.8969 67.5974 24.9163 68.1597C24.9357 68.7025 24.8388 69.2648 24.1602 69.4393C23.9857 69.3036 23.9469 69.0903 23.9081 68.8964C23.8694 68.625 23.9081 68.2566 23.5785 68.1597C22.3959 67.8495 21.3101 67.1709 20.0305 67.2097C19.3131 67.6362 19.0999 68.3535 19.0223 69.0709C18.9254 69.9822 18.9448 70.9128 19.3325 71.824C19.7397 72.8128 20.3407 73.4526 21.4071 73.6077C21.853 73.6853 22.2795 73.821 22.6091 74.1506C22.6673 74.7323 22.2214 74.5965 21.9112 74.6353C21.5622 74.6741 21.252 74.3833 20.903 74.4027C20.6509 74.6159 21.0968 74.8874 20.8254 75.0812C20.3601 75.2945 20.0499 74.9843 19.7009 74.7904C18.8478 74.0731 18.1692 73.22 17.8202 72.1149C17.1998 75.0037 16.6957 77.8925 16.4049 80.8008C15.9978 85.0274 16.4049 89.2346 17.8396 93.2867C17.9172 93.5 18.0335 93.6939 18.0141 93.9265C17.956 94.0429 17.8784 94.0816 17.7621 94.0041C16.8508 93.1898 16.7539 92.0071 16.5406 90.9214C16.0365 88.4009 15.7069 85.8417 15.6682 83.2631C15.6294 80.6069 16.1916 78.0282 16.5794 75.4302C16.7733 74.1312 17.0059 72.8322 17.2192 71.5332C17.4713 69.7301 17.8784 67.927 18.1692 66.1045Z" fill="#BA6346"/>
<path d="M25.9052 73.472C25.8858 73.7434 26.0021 74.0343 25.7113 74.2475C25.6919 73.2006 25.246 72.2893 24.8389 71.3587C24.7031 71.0485 24.5093 70.7383 24.548 70.3699C24.6256 70.3117 24.7031 70.2923 24.7807 70.3117C25.2072 70.4087 25.2266 70.0985 25.2654 69.8076C25.3042 69.4199 25.246 69.0709 25.1297 68.7025C25.0715 68.4117 25.0715 68.1209 25.0521 67.83C25.0134 67.1515 25.1297 66.4729 24.9746 65.7943C24.8389 65.5422 24.5674 65.4065 24.3929 65.1933C24.1991 64.9412 24.1215 64.6698 24.2766 64.379C24.4317 64.1851 24.6644 64.0881 24.7613 63.8555C24.9552 63.0024 24.8582 62.1493 24.8001 61.2962C24.7807 61.0054 24.6838 60.734 24.9164 60.4819C24.9164 60.2881 24.9164 60.0942 24.9164 59.9003C24.7613 59.4544 24.6838 59.0084 25.1297 58.6788C25.4981 58.4074 25.9246 58.4462 26.3124 58.6594C26.7777 58.9309 26.7971 59.338 26.7583 59.8421C26.7001 60.637 26.7389 61.4513 26.4869 62.2269C26.2736 62.7697 26.1379 63.332 26.0021 63.9136C25.9634 66.7443 25.9052 69.575 25.9634 72.4057C26.0021 72.774 26.0797 73.123 25.9052 73.472Z" fill="#E4E4E4"/>
<path d="M24.1601 69.4005C25.0714 68.0821 24.9357 67.6556 23.404 67.3066C22.0856 66.9964 20.7478 66.7055 19.5264 66.1045C19.5845 66.1045 19.6427 66.1045 19.7009 66.0851C19.9141 65.8719 20.1856 65.8912 20.457 65.93C20.8254 66.0657 21.1162 65.9494 21.4264 65.7167C22.0856 65.232 22.8611 65.0576 23.6754 65.0769C24.4122 65.0963 24.9551 65.3678 25.2071 66.1045C25.2459 66.3566 25.2459 66.628 25.2071 66.88C25.0908 67.326 25.1102 67.7719 25.1489 68.2178C25.2071 69.0127 24.9744 69.6525 24.3734 70.1566C24.1601 70.874 23.7918 71.572 23.7918 72.3475C23.7918 72.6577 23.7336 72.9291 23.404 73.0649C23.055 72.6189 23.4234 72.1536 23.3458 71.7077C23.4816 70.8934 23.6173 70.0791 24.1601 69.4005Z" fill="#D0CDCB"/>
<path d="M23.5785 71.7271C23.6949 72.1924 23.3459 72.5996 23.3847 73.0649C22.4346 76.3027 21.4652 79.5212 20.5346 82.759C20.2632 83.6896 19.8172 84.6396 20.3213 85.6478C20.2826 85.6672 20.2438 85.706 20.205 85.7254C19.9336 85.7254 19.7203 85.6284 19.5846 85.3958C19.4876 85.1631 19.4683 84.9111 19.4683 84.659C19.4489 83.9804 19.6427 83.3794 19.8948 82.759C20.0693 82.2161 20.3019 81.6732 20.4183 81.111C20.8836 79.6181 21.1356 78.0477 21.7561 76.6129C22.1826 75.6047 21.3101 75.469 20.8836 75.0037C20.7285 74.7323 20.1275 74.6353 20.3989 74.2282C20.6509 73.8598 21.0581 74.0537 21.4071 74.2476C21.7948 74.4802 22.2214 74.5772 22.6285 74.2282C22.6673 73.2976 22.6091 72.3088 23.5785 71.7271Z" fill="#D9A48C"/>
<path d="M17.7621 94.0041C17.8202 94.0041 17.8978 94.0041 17.956 94.0041C18.5376 94.1786 18.8284 94.7215 19.2744 95.0705C19.4101 95.2062 19.5264 95.3613 19.6815 95.4776C19.8754 95.6327 20.0305 95.9623 20.3019 95.8266C20.5734 95.6909 20.3989 95.3613 20.4377 95.1286C20.4377 94.9347 20.4377 94.7602 20.4377 94.5664C20.457 94.2755 20.5152 93.9847 20.6509 93.7133C20.7285 93.5388 20.8254 93.3643 20.903 93.1704C20.9999 91.4255 21.4846 89.6612 20.9224 87.9162C20.7866 87.4897 20.6315 87.0631 20.3989 86.6754C20.2244 86.3652 20.0111 86.055 20.2438 85.6866L20.3213 85.6284C21.7754 87.1795 22.0469 89.0795 21.7754 91.0765C21.6203 92.201 21.5622 93.3449 21.0387 94.4306C20.8448 94.8184 21.0969 95.4194 21.0775 95.9235C21.0581 96.6797 20.7479 96.8542 20.1468 96.4276C19.1968 95.7878 18.305 95.0705 17.7621 94.0041Z" fill="#D9A48C"/>
<path d="M24.3541 70.1566C25.0133 69.1485 24.8388 67.9464 25.1297 66.8607C25.3623 67.1515 25.0909 67.5392 25.3235 67.8301C25.3235 68.1597 25.3235 68.4699 25.3235 68.7995C25.498 69.1678 25.4593 69.5556 25.3623 69.9046C25.3041 70.1954 25.2072 70.5638 24.7419 70.3505C24.6837 70.3505 24.6062 70.3505 24.548 70.3505C24.4898 70.2924 24.4123 70.2342 24.3541 70.1566Z" fill="#E0E0E0"/>
<path d="M55.8986 46.9297C58.167 46.9103 58.9813 45.1266 59.9701 43.5755C61.9671 40.4152 63.9447 37.2356 65.5539 33.862C65.8448 33.2416 66.0774 32.5824 66.3101 31.9232C66.5427 31.3028 66.0774 30.8956 65.7672 30.4691C65.2437 29.6936 65.0304 28.8599 65.3794 27.9486C65.6509 27.5221 65.8835 27.0568 65.9611 26.5527C66.0192 26.2231 66.1743 25.9904 66.5427 26.0486C66.9111 26.1261 66.7754 26.417 66.756 26.669C66.6978 27.8517 67.3376 28.7823 68.4428 29.1895C69.1795 29.4609 70.0326 29.1119 70.6724 28.1425C71.0214 27.619 71.3122 27.018 71.5061 26.417C71.7388 25.7384 71.2153 25.0986 70.4397 25.0598C69.8969 25.021 69.354 25.0598 68.7918 25.0598C68.2877 25.0598 68.0744 24.672 68.3652 24.3812C69.7612 22.9659 69.0826 21.2209 69.2183 19.6117C69.4122 18.9137 69.6061 18.1964 69.7999 17.4984C70.4785 17.1688 70.0132 16.3933 70.3816 15.9474C70.5173 15.6953 70.653 15.4433 70.7887 15.1912C71.1377 15.1137 71.2347 15.3269 71.2928 15.5984C71.2928 15.6953 71.2928 15.8116 71.2541 15.9086C70.6724 17.9637 69.8775 19.9801 69.8581 22.171C69.8387 22.9853 69.9938 23.7608 70.3816 24.4782C71.1183 24.7302 71.2153 23.8577 71.7388 23.7026C72.301 23.7802 72.1071 24.2649 72.2041 24.5945C72.4173 25.4282 72.65 25.5833 73.4643 25.2731C73.7551 25.1567 74.0266 25.1761 74.3174 25.1567C74.9378 25.118 74.9766 25.3506 74.6858 25.8159C73.9684 26.9792 74.0072 27.0568 75.2286 27.5803C75.2286 27.6384 75.2286 27.6966 75.2286 27.7548C75.5001 28.1231 75.345 28.4915 75.0154 28.6272C74.2592 28.9762 74.2204 29.5772 74.2592 30.2558C73.3286 30.5079 72.4173 30.7599 71.3898 30.4691C70.4979 30.217 69.9163 31.1089 70.1489 32.1946C70.2459 32.6406 70.5561 33.0865 70.1683 33.5518C69.5479 35.4131 68.5397 37.0223 67.4346 38.6315C65.7672 41.055 64.0804 43.5173 63.0916 46.348C62.6651 47.5888 62.6263 48.8297 63.0529 50.0318C63.3631 50.9236 63.0529 51.4859 62.413 51.8155C60.4355 52.843 58.4579 53.8512 56.3058 54.5298C55.666 54.7237 55.0262 54.8594 54.367 55.1502C54.2118 54.0063 54.3282 52.9206 54.1537 51.8349C53.9598 50.6328 53.669 49.4501 53.6496 48.2287C53.6302 47.744 53.6496 47.5888 54.1343 47.4531C54.7547 47.298 55.4139 47.3756 55.8986 46.9297Z" fill="#BA6444"/>
<path d="M70.4204 24.4588C69.8388 24.0322 69.6449 23.4506 69.6255 22.7332C69.5673 20.2709 70.2847 17.9831 71.1765 15.7535C71.5061 15.7341 71.7388 15.9086 71.9521 16.1412C71.9521 16.5872 71.9521 17.0525 71.9521 17.4984C71.4092 17.9637 71.0602 18.4872 71.3704 19.2434C71.3704 19.7668 71.3704 20.2709 71.351 20.7944C70.8663 20.9107 70.401 21.0271 70.7112 21.725C70.8276 21.9965 70.7694 22.2873 70.5949 22.5393C70.2653 23.121 70.4786 23.7996 70.4204 24.4588Z" fill="#C9805D"/>
<path d="M70.2071 33.5518C70.2653 33.1834 70.1489 32.8538 70.0132 32.5242C69.703 31.8263 69.7418 31.1283 70.2653 30.5466C70.7694 29.965 71.4092 30.0038 72.0296 30.314C72.8051 30.7017 73.5419 30.1589 74.298 30.2558C73.2704 30.6048 72.4174 31.0895 72.2041 32.3304C72.1072 32.8926 71.7 33.3385 70.9826 33.1834C70.653 33.1253 70.4785 33.4549 70.2071 33.5518Z" fill="#CA805F"/>
<path d="M75.2481 27.5609C74.7246 27.7741 74.3174 27.6578 74.0266 27.1731C73.5225 26.3006 74.3756 25.9323 74.7828 25.2924C74.3174 25.2149 73.9685 25.1761 73.6001 25.4282C72.747 25.9904 72.1266 25.6996 71.9715 24.672C71.9133 24.3424 72.1072 23.9547 71.7776 23.6832C71.9715 23.373 72.1654 23.0046 72.5725 23.1597C72.9603 23.2955 73.2705 23.6057 73.3286 24.071C73.4256 24.8077 73.8327 25.1373 74.5695 25.0404C75.1317 24.9628 75.5195 25.2343 75.7328 25.6996C75.946 26.1455 75.9267 26.6302 75.4226 26.9598C75.2093 27.0762 75.2675 27.3476 75.2481 27.5609Z" fill="#CA805F"/>
<path d="M74.2786 30.2558C73.7551 29.4997 73.852 28.9181 74.7633 28.5691C75.151 28.4333 75.2867 28.1425 75.248 27.7548C76.1204 28.5303 76.0817 29.364 75.1122 29.8487C74.8408 29.9844 74.6275 30.2946 74.2786 30.2558Z" fill="#CA805F"/>
<path d="M70.6142 22.5199C70.5948 22.3067 70.6336 22.0546 70.556 21.8607C70.2264 21.027 70.4785 20.6587 71.3703 20.775C71.0795 20.9883 70.7305 21.124 70.9632 21.6281C71.0989 21.9383 71.0019 22.3261 70.6142 22.5199Z" fill="#CA805F"/>
<path d="M71.952 16.1218C71.6418 16.083 71.3704 15.9861 71.1765 15.734C71.1765 15.6759 71.1765 15.5983 71.1765 15.5402C71.3122 15.23 71.2928 14.8422 71.5643 14.5901C72.1071 14.9973 71.9327 15.5789 71.952 16.1218Z" fill="#CA805F"/>
<path d="M71.3897 19.2239C71.0989 18.4872 70.9438 17.7892 71.9714 17.479C71.8163 18.08 71.1571 18.5066 71.3897 19.2239Z" fill="#CA805F"/>
<path d="M71.5837 14.5901C71.5837 14.9585 71.6418 15.3463 71.1959 15.5402C71.1183 15.3657 71.002 15.23 70.8275 15.1718C71.0408 14.9391 71.1959 14.6095 71.5837 14.5901Z" fill="#C9805D"/>
<path d="M29.3756 58.5431C28.5613 56.0226 28.3868 53.4052 28.2899 50.7878C28.2317 49.1592 28.4062 47.4725 29.2205 45.9602C30.7522 45.8633 31.2757 46.1928 31.7604 47.55C32.0706 48.3837 32.8655 48.7327 33.5053 49.2368C34.0094 49.6246 34.8043 49.6439 35.0176 50.4195C34.94 50.497 34.8625 50.5358 34.7655 50.5552C34.1063 50.5746 33.5247 50.245 32.9237 50.0511C31.7991 49.7021 31.2175 49.9154 30.7522 50.9817C30.1705 52.3389 29.7634 53.7542 29.8409 55.2665C29.7246 56.2941 29.9767 57.2829 30.3062 58.2329C30.4032 59.0472 31.1206 59.687 31.0236 60.5595C30.9848 60.7146 30.5777 60.637 30.791 60.986C30.9848 61.2962 31.2175 61.6452 30.9267 62.033C30.4807 62.0718 30.3838 61.684 30.1511 61.4513C29.6664 60.8891 29.4338 60.2105 29.2205 59.5125C29.1623 59.1829 29.0848 58.8339 29.3756 58.5431Z" fill="#A1A0A0"/>
<path d="M29.3757 58.5431C29.3757 59.6095 29.9185 60.5013 30.3645 61.432C29.9961 61.7616 29.9961 61.7616 29.6083 61.5095C29.1236 61.1799 28.8328 60.6758 28.4256 60.2687C28.1542 60.0166 27.9603 59.5707 27.495 59.7452C27.1072 59.9003 27.0297 60.3268 26.9715 60.7146C26.894 61.1605 26.9521 61.6065 26.7583 62.033C26.6613 62.2269 26.6032 62.4789 26.2929 62.4208C26.4093 61.5289 26.4287 60.6371 26.545 59.7646C26.6225 59.1442 26.4868 58.8533 25.9052 58.7564C25.3041 58.6595 24.9939 58.9309 24.9552 59.5319C24.9358 59.6676 24.9552 59.784 24.9552 59.9197C24.6837 59.5125 24.5286 59.0085 24.1021 58.6789C23.9276 58.5625 23.598 58.2717 23.7919 57.9615C23.9664 57.6707 24.3347 57.7288 24.5868 57.8064C25.6144 58.136 26.6032 57.6901 27.6113 57.787C28.0379 57.8258 28.3869 57.7288 28.4256 57.2054C28.6971 57.089 28.8134 57.1472 28.8134 57.4574C28.8134 57.9033 28.9685 58.2911 29.3757 58.5431Z" fill="#E2E2E2"/>
<path d="M34.9982 50.4001C34.1452 49.7409 33.0788 49.3919 32.2645 48.6358C31.8186 48.2092 31.4502 47.8408 31.392 47.2398C31.3145 46.6194 30.9849 46.2898 30.3839 46.3673C29.9185 46.4255 29.6471 45.999 29.2206 45.9796C28.8328 45.8439 28.445 45.7081 28.0379 45.5724C27.4562 45.3204 26.8746 45.0683 26.2736 44.7969C26.6032 44.4673 26.9715 44.603 27.3593 44.7194C28.4063 45.0102 29.4338 45.3785 30.5002 45.6112C31.4114 45.8051 32.1094 46.251 32.187 47.298C32.2063 47.6276 32.4196 47.8796 32.6717 48.0929C33.486 48.7715 34.436 49.198 35.4054 49.6052C36.937 49.1011 38.5269 48.6939 38.9728 46.7939C39.031 46.5224 39.2055 46.2704 39.4381 46.0765C40.2718 45.8826 41.1055 45.4173 41.978 45.9796C41.7453 46.3867 41.3382 46.3286 40.9504 46.348C40.1167 46.4061 39.3993 46.5418 39.3993 47.7051C39.3993 48.4419 38.585 48.7909 38.081 49.2562C37.5962 49.5082 37.3636 50.0511 36.8595 50.3031C36.2585 50.594 35.6574 50.8848 34.9982 50.4001Z" fill="#B08472"/>
<path d="M29.8409 122.64C29.5307 121.264 28.7552 120.023 28.5807 118.608C29.2593 118.569 29.3174 119.131 29.4338 119.577C29.647 120.353 29.8991 121.128 30.2868 121.826C30.4226 122.078 30.5583 122.35 30.8491 122.446C31.1593 122.563 31.4889 122.621 31.7797 122.408C32.0318 122.214 31.8961 121.923 31.8379 121.69C31.3338 119.558 30.7909 117.425 30.4613 115.253C29.8797 111.589 29.4144 107.905 29.2981 104.202C29.2399 102.69 29.1042 101.178 29.1236 99.6654C29.1429 95.1867 29.4144 90.7081 30.2287 86.2876C30.4226 85.1824 30.6746 84.9304 31.7603 84.7171C32.943 84.5039 34.1257 84.562 35.3278 84.4457C36.1809 84.3681 36.4911 84.7171 36.5298 85.5702C36.5492 86.0937 36.6656 86.5784 36.8594 87.0631C37.0339 87.4896 37.1503 87.9162 37.189 88.3815C37.3635 90.8244 37.5962 93.2479 37.8482 95.6714C38.4493 101.507 38.1197 107.343 38.2166 113.16C38.2554 115.583 37.9064 117.987 37.7319 120.391C37.7319 120.45 37.7125 120.527 37.7125 120.585C37.4799 122.466 37.538 122.543 39.4187 122.543C39.5544 122.543 39.6707 122.563 39.8064 122.543C41.8228 122.427 41.6289 122.679 42.2687 120.818C42.5208 120.101 42.8504 119.403 43.0636 118.666C42.9279 118.957 42.7922 119.247 42.6177 119.538C42.4626 119.79 42.3075 120.062 41.9585 119.984C41.6289 119.907 41.532 119.616 41.4544 119.325C41.2993 118.705 41.532 118.104 41.6095 117.503C41.7259 116.669 42.4626 115.971 42.0749 115.04C42.9085 114.459 42.6759 113.702 42.4626 112.908C42.4045 112.655 42.6177 112.365 42.9279 112.481C43.432 112.694 43.5871 112.423 43.8004 112.035C44.1882 111.298 44.3239 111.298 45.0412 111.996C45.0994 111.589 45.0219 111.182 45.1963 110.852C45.3515 110.562 45.429 110.077 45.9719 110.271C45.9719 110.523 46.0494 110.755 45.8943 110.988C45.3321 113.509 44.5953 115.971 43.8004 118.414C43.4126 119.596 42.9667 120.779 42.5789 121.962C42.3075 122.815 41.881 123.319 40.8534 123.222C39.9034 123.125 38.9146 123.203 37.9452 123.241C37.2472 123.261 36.9758 123.048 37.0339 122.291C37.7125 112.811 37.8288 103.33 37.1115 93.849C36.9758 92.0265 36.8594 90.1846 36.4329 88.3815C36.3553 88.0713 36.2584 87.7805 36.1808 87.4703C35.7931 87.509 35.8513 87.7805 35.8125 87.9743C35.3472 90.9407 35.0563 93.9265 34.9012 96.9123C34.5329 104.067 34.6492 111.24 34.9012 118.394C34.94 119.713 35.1145 121.031 35.2308 122.35C35.289 122.97 35.0369 123.222 34.4165 123.203C33.292 123.183 32.1675 123.203 31.0236 123.241C30.442 123.338 30.0542 123.144 29.8409 122.64Z" fill="#323031"/>
<path d="M45.8361 111.066C45.8167 110.814 45.8167 110.542 45.7973 110.29C45.5453 109.999 45.6228 109.689 45.7004 109.379C46.6504 105.017 47.1545 100.596 46.8443 96.1562C46.5729 92.3367 46.3596 88.5172 45.6228 84.7365C45.429 83.7671 45.4483 82.7589 45.1769 81.7895C45.1575 81.5763 45.0412 81.4018 44.983 81.1885C45.5453 80.8783 45.7392 81.1885 45.8167 81.6926C46.9218 88.7305 47.7168 95.7878 47.3096 102.923C47.2514 103.95 47.077 104.958 46.9412 105.986C46.5535 107.653 46.4565 109.418 45.8361 111.066Z" fill="#646263"/>
<path d="M24.9357 60.4819C25.1296 61.7034 25.3428 62.9442 24.9357 64.1657C24.7224 63.9718 24.6643 63.7004 24.703 63.4677C24.9745 61.8391 23.9663 60.6952 23.1908 59.4156C23.1132 60.7922 22.5703 61.9942 21.9693 63.1769C21.7173 63.6616 21.9111 63.8943 22.4346 63.9137C22.7254 63.9137 23.0163 63.8943 23.2877 63.9524C23.5979 64.0106 23.9663 64.0688 23.8112 64.5535C23.2101 64.7086 22.6285 64.6892 22.0275 64.5535C21.6009 64.4953 21.1162 64.9412 20.7866 64.4371C20.4764 63.9524 20.8642 63.5259 21.0193 63.08C21.5428 61.5677 22.454 60.1911 22.6479 58.5625C22.6673 58.3686 22.7448 58.0778 23.0163 58.0584C23.2489 58.039 23.3265 58.2523 23.4234 58.4074C23.85 59.1635 24.2571 59.9197 24.9357 60.4819Z" fill="#D9D9D9"/>
<path d="M22.0275 64.5535C22.6091 64.2627 23.1908 64.2821 23.7724 64.5535C23.9081 64.3402 24.0633 64.1463 24.3541 64.3596C24.3153 64.631 24.4122 64.8831 24.548 65.1351C23.753 65.2321 22.9775 65.2321 22.1826 65.329C21.504 65.4066 21.1938 66.1821 20.4764 66.1239C20.2244 66.1239 19.953 66.1045 19.7009 66.1045C19.3132 65.2709 19.7009 64.8443 20.7673 64.9219C21.2326 64.9219 21.7367 65.1157 22.0275 64.5535Z" fill="#E2E2E2"/>
<path d="M39.632 122.854C39.2054 122.854 38.7595 122.757 38.3717 122.873C37.286 123.164 37.2278 122.602 37.3054 121.787C38.0809 114.788 37.887 107.77 37.8676 100.751C37.8482 97.7267 37.4217 94.7409 37.189 91.7163C37.0921 90.4173 37.1309 89.0408 36.7237 87.7417C36.4717 86.9081 35.89 86.1519 36.2196 85.1631C36.3166 84.8723 35.9094 84.6202 35.5411 84.6784C34.1257 84.9305 32.6522 84.756 31.2369 85.0662C30.7522 85.1825 30.5777 85.4733 30.5001 85.958C29.996 89.3897 29.6664 92.8214 29.4726 96.2919C29.2787 99.4328 29.4919 102.535 29.6277 105.637C29.7828 109.011 30.1899 112.384 30.8491 115.738C31.2757 117.91 31.7022 120.062 32.3226 122.195C32.4002 122.447 32.4196 122.621 32.1869 122.776C31.6053 123.145 30.4226 122.718 30.1124 122.098C29.6664 121.206 29.2205 120.333 29.1236 119.325C29.0848 119.015 28.9103 118.705 28.5807 118.588C27.5337 115.952 26.8745 113.198 26.2347 110.465C25.0908 105.579 24.6837 100.635 24.9551 95.6133C25.0327 94.2949 25.0908 92.9765 25.149 91.6582C25.4592 89.2734 25.7888 86.8887 26.0796 84.5039C26.2153 83.457 26.3317 82.41 26.6613 81.4018C27.2817 81.3243 27.7858 81.809 28.4062 81.7702C29.3368 82.0028 30.2481 82.2549 31.2369 82.2743C32.8461 82.3131 34.4359 82.6427 36.0451 82.5651C39.0697 82.4294 42.0749 82.3324 44.9637 81.3243C45.0606 81.2855 45.1576 81.3437 45.2351 81.363C45.4872 82.0028 45.2157 82.2937 44.6147 82.5069C43.781 82.7784 42.9861 83.0886 42.133 83.3406C41.3769 83.5733 41.0473 84.0192 41.183 84.8529C41.7065 88.1101 42.0943 91.3673 42.3463 94.6633C42.4626 96.0399 42.5208 97.4358 42.579 98.8124C42.8116 104.629 42.6371 110.426 41.6483 116.165C41.2993 118.162 40.7759 120.139 40.2912 122.117C40.2136 122.524 40.0003 122.737 39.632 122.854Z" fill="#211F20"/>
<path d="M45.2546 81.4018C43.2382 82.2161 41.0862 82.2742 38.9728 82.5844C35.7156 83.0304 32.4972 82.5263 29.2788 82.1773C28.9492 82.1385 28.639 82.061 28.4451 81.7701C30.0737 81.9446 31.6829 82.1967 33.3115 82.2936C36.5881 82.4681 39.8647 82.41 43.1025 81.7314C43.1995 81.712 43.277 81.6538 43.3546 81.5956C43.9168 81.4599 44.4597 81.3048 45.022 81.1497C45.1964 81.1885 45.3709 81.2079 45.4485 81.4018C45.3709 81.4987 45.3128 81.4987 45.2546 81.4018Z" fill="#575556"/>
<path d="M41.9974 45.9796C41.1249 45.8827 40.2912 46.0959 39.4575 46.3286C39.0891 46.6776 38.6432 46.7939 38.1391 46.7939C37.1891 46.7745 36.2197 46.7939 35.2697 46.7939C34.9013 46.7939 34.4554 46.6582 34.2421 47.0847C34.0094 47.5501 34.1451 48.0154 34.3972 48.4613C34.688 48.946 35.2697 49.2368 35.4054 49.8379C35.3278 49.8766 35.1921 49.993 35.1727 49.9736C34.6105 49.4501 33.8155 49.295 33.2145 48.8685C32.5553 48.4031 31.7604 47.996 31.8573 46.8715C31.9155 46.2123 31.14 46.0378 30.5777 45.9214C29.3757 45.6306 28.193 45.3204 27.0491 44.8745C26.8164 44.7775 26.545 44.8357 26.2929 44.8357C23.9857 43.9245 22.2602 42.451 21.4459 40.0274C21.3102 39.6203 21.0387 39.3876 20.5928 39.407C20.1857 39.4264 19.8561 39.2131 19.5265 39.0193C19.7785 38.3988 19.701 37.8947 19.1775 37.3907C18.654 36.8866 18.2662 36.2467 17.8397 35.6457C17.5489 35.2386 17.4519 34.7345 17.6846 34.2692C17.9172 33.8232 18.2856 34.1141 18.6152 34.1722C19.0999 34.2304 19.0999 33.9202 19.1387 33.5712C19.1969 33.0671 18.7703 32.8538 18.5764 32.5048C19.2744 32.5436 19.8367 32.8732 20.302 33.3579C20.5734 33.6294 20.8255 33.9396 21.2714 33.6293C21.4071 33.7845 21.5622 33.9396 21.8724 34.2692C21.5816 32.6599 21.4459 31.2252 21.8724 29.9068C22.551 27.8711 22.4153 25.7965 22.4153 23.722C22.4153 23.0434 22.9388 22.8301 23.3459 22.4424C25.149 20.7168 27.3011 21.6668 29.2981 21.5117C29.4532 21.4924 29.6083 21.7056 29.7828 21.8026C29.6471 21.9771 29.4532 22.0352 29.2399 22.0546C28.5807 22.1128 27.9022 22.0158 27.243 22.1903C25.9827 22.5393 25.1878 23.2761 24.9939 24.6139C24.3735 26.7272 23.9857 28.8792 23.6755 31.0507C23.3459 33.2997 23.3072 35.51 23.9082 37.6621C24.6837 40.4152 26.6031 42.3152 29.1236 43.5561C32.0124 44.9714 35.0564 45.4949 38.3136 45.2816C41.4351 45.0878 44.3239 44.2153 47.0383 42.703C47.3873 42.5091 47.7362 42.3346 48.1046 42.6255C48.3761 43.052 47.9689 43.2071 47.7556 43.3816C46.5148 44.4092 45.2158 45.3592 43.5678 45.6306C43.3545 45.6694 43.1219 45.6888 42.928 45.8245C42.6178 45.8245 42.3076 45.9021 41.9974 45.9796Z" fill="#BA6345"/>
<path d="M28.4256 81.7896C27.7858 81.964 27.2429 81.6345 26.6807 81.4212C26.797 81.1497 27.0297 81.2661 27.2235 81.2855C27.6113 81.4406 28.0184 81.6151 28.4256 81.7896Z" fill="#575556"/>
<path d="M49.8107 33.9977C50.0046 33.261 49.8301 32.5048 49.6944 31.7875C49.1321 28.8599 48.8025 25.8741 48.027 22.9852C47.8331 22.3067 48.3372 22.3454 48.725 22.2679C50.5281 22.9852 51.9434 24.1291 52.4475 26.0874C52.7577 27.3088 52.7965 28.5496 52.4475 29.7905C52.273 30.4109 52.1761 31.0313 52.0404 31.6711C51.8853 31.7875 51.9434 31.9814 51.8659 32.1365C51.672 33.0671 50.9159 33.5324 50.276 34.0753C50.1209 34.211 49.9077 34.2498 49.8107 33.9977Z" fill="#2F2537"/>
<path d="M42.928 45.7469C43.529 45.1847 44.3821 45.1847 45.0995 44.8551C46.2627 44.3122 47.2322 43.5367 48.1434 42.6642C48.2403 42.0632 48.9189 41.6173 48.7057 40.9774C48.4924 40.3183 47.7169 40.5121 47.2128 40.2795C46.4178 39.8917 46.0301 39.1356 46.1658 38.108C46.3403 36.6345 48.2985 35.2773 49.6944 35.6457C50.0628 36.4794 50.0628 37.3906 50.1404 38.2825C50.1985 39.0774 50.373 39.155 51.2067 38.9029C51.3231 38.8254 51.42 38.7284 51.5363 38.6509C52.4088 37.8753 53.1455 37.0029 53.3782 35.8202C53.4364 35.5488 53.5527 35.2579 53.9405 35.3355C53.8823 35.7233 53.8241 36.111 53.766 36.4988C53.3588 37.6427 52.719 38.6121 51.672 39.2713C51.5557 39.3488 51.4588 39.4846 51.3618 39.4846C49.9465 39.3101 49.8689 40.454 49.4424 41.3458C48.3761 43.5367 46.5148 44.8357 44.2464 45.5918C43.8004 45.5337 43.4127 45.8633 42.928 45.7469Z" fill="#CC7F5E"/>
<path d="M53.9599 35.2967C53.2619 35.6845 53.6109 36.5376 53.1456 37.1192C52.6609 37.7009 52.2343 38.3019 51.6527 38.7866C51.0129 38.5539 51.1873 38.1274 51.4394 37.7203C51.8853 36.9447 52.5057 36.2855 52.9323 35.4906C53.417 34.6181 53.3976 34.56 52.467 34.2885C52.1568 34.1916 51.9047 34.0559 51.8853 33.7263C51.8659 33.164 51.5751 32.6018 51.8078 32.0395C51.8272 31.8844 51.8465 31.7293 52.021 31.6711C52.0792 31.9038 51.9241 32.2916 52.2537 32.3303C54.0568 32.6212 54.0762 33.9202 53.9599 35.2967Z" fill="#C78062"/>
<path d="M49.6944 35.6845C47.8331 35.7039 46.3596 37.061 46.3984 38.6703C46.4178 39.504 46.8831 39.9111 47.6199 40.1438C48.1239 40.2989 48.9382 40.0856 49.0546 40.803C49.1709 41.5397 48.7831 42.2183 48.1433 42.6642C47.7362 42.451 47.4066 42.703 47.0964 42.8969C43.6259 44.952 39.8258 45.7469 35.8706 45.5337C32.0124 45.3204 28.3868 44.1571 25.6724 41.2683C24.4122 39.9305 23.6173 38.2437 23.3653 36.2855C22.8999 32.5824 23.5785 29.015 24.5092 25.4669C24.6061 25.1179 24.6643 24.7883 24.7418 24.4393C24.8969 24.3812 25.0132 24.4587 25.052 24.5751C25.2265 25.5057 26.0214 25.6414 26.6612 25.5832C28.1154 25.4669 29.5695 25.2343 30.9266 24.5945C31.7991 24.1873 31.8185 24.0128 31.1205 23.2954C30.9266 23.0822 30.7134 22.8883 30.4613 22.7332C30.3838 22.6944 30.3062 22.6362 30.2481 22.5781C30.0348 22.1515 29.298 22.326 29.2011 21.725C29.395 21.725 29.5889 21.725 29.7827 21.7056C32.2838 21.2015 34.8237 21.2985 37.3441 21.3372C38.3135 21.3566 39.3023 21.5311 40.2523 21.6281C39.8646 22.074 39.5544 22.4618 39.2054 22.8301C38.4299 23.6444 38.488 23.8189 39.438 24.3618C39.7676 24.5557 40.0585 24.6526 40.4268 24.6138C40.7564 25.3894 41.6095 25.1567 42.1718 25.4281C42.8116 25.7384 43.5871 25.8547 44.3045 25.8935C45.681 25.9516 46.0688 25.1955 45.5259 23.7995C45.3902 23.4312 44.7116 23.1791 45.0412 22.7914C45.3514 22.423 45.8943 22.8107 46.3208 22.9077C47.8525 23.2373 47.9882 23.5281 48.1821 25.1567C48.3566 26.669 48.8607 28.1619 48.977 29.6742C49.0934 31.1283 49.7913 32.5242 49.3454 34.0365C49.1709 34.6181 49.5005 35.0835 49.9077 35.4906C49.9658 35.5682 49.9658 35.6457 49.927 35.7233C49.8301 35.762 49.7525 35.762 49.6944 35.6845Z" fill="#CC7F5E"/>
<path d="M40.4268 24.6332C40.4074 24.6139 40.388 24.5751 40.3687 24.5557C39.9227 24.2649 39.186 24.2261 39.1278 23.6251C39.089 22.9659 39.7676 22.5975 40.2523 22.2873C42.5207 20.8332 44.8279 22.5393 45.4096 24.4781C45.6616 25.3118 45.1575 25.5833 44.4208 25.5833C43.2769 25.5639 42.2299 25.1761 41.1636 24.8271C40.9115 24.7496 40.6983 24.5945 40.4268 24.6332Z" fill="#3A2A38"/>
<path d="M49.8883 35.6845C49.8883 35.6263 49.8883 35.5488 49.8883 35.4906C49.8495 34.9865 49.8302 34.4824 49.7914 33.9977C50.7608 33.6681 51.3231 32.8926 51.7884 32.0589C51.7302 32.6599 52.2925 33.1252 52.0792 33.7844C52.0016 34.0171 52.3506 34.114 52.6608 34.114C53.5333 34.0947 53.7853 34.5212 53.32 35.2773C52.7772 36.1498 52.2149 37.0029 51.6139 37.8366C51.3424 38.2049 51.323 38.4958 51.6333 38.8254C51.5557 38.8835 51.4975 38.9417 51.42 39.0193C50.2567 39.3295 50.024 39.2131 50.0822 38.0886C50.1598 37.2355 49.6557 36.4988 49.8883 35.6845Z" fill="#B96444"/>
<path d="M26.2929 62.4208C26.6613 61.9748 26.6807 61.432 26.6807 60.8891C26.6807 60.2881 26.8552 59.6676 27.3787 59.4156C27.9215 59.1636 28.2511 59.7258 28.5807 60.1136C28.9879 60.5983 29.4532 61.0248 29.8991 61.4707C30.0542 61.6259 30.2287 61.6452 30.3644 61.4514C30.5583 61.6646 30.7328 61.8585 30.9267 62.0718C31.2369 62.1299 31.392 62.4014 31.5471 62.634C32.1288 63.5453 32.9431 64.1851 33.8155 64.7667C34.0676 65.0769 34.087 65.4259 33.8543 65.7168C33.4859 66.1821 33.5247 66.7056 33.5247 67.2484C33.5247 67.7719 33.4472 68.3148 33.7768 68.7801C33.8349 68.9158 33.8737 69.0515 33.8737 69.2066C33.8931 69.3617 33.8931 69.5362 33.8737 69.6913C33.7768 70.2536 33.5441 70.3699 33.137 69.9434C32.4778 69.2842 31.8573 68.5862 31.1594 67.9658C30.5971 67.4617 30.0736 67.578 29.9379 68.276C29.5889 70.0015 29.6665 71.6883 30.9655 73.0455C32.342 74.4996 33.5441 74.5771 35.0952 73.3363C35.2503 73.22 35.386 73.0843 35.5411 72.9679C35.8513 72.7547 35.9289 72.3863 36.084 72.0761C36.2003 71.8628 36.3554 71.6883 36.5105 71.4944C36.8595 70.9709 36.5687 70.4475 36.5687 69.9046C36.5687 69.3036 36.1809 68.528 37.1309 68.2372C37.383 68.1597 37.383 67.7137 37.6932 67.8107C37.984 67.9076 37.8289 68.2954 37.9452 68.4699C38.6626 69.6719 37.5187 70.8546 37.8871 72.0567C38.0034 72.4057 37.3248 72.4832 37.3442 72.8904C36.6074 73.2781 36.5299 74.2475 35.7931 74.6353C34.9788 74.9649 34.2615 75.6047 33.2727 75.4108C30.2481 75.5853 28.8134 73.0843 28.4644 70.7771C28.2705 69.5556 28.3869 68.2566 28.9879 67.1127C29.3757 66.3953 29.2399 65.8137 28.794 65.1739C28.4838 64.728 28.0766 64.3596 27.747 63.9137C26.8746 62.7504 26.7776 62.7504 26.1184 63.9718C25.9827 63.8749 26.0603 63.681 25.9246 63.5841C26.0797 63.2157 25.8276 62.6922 26.2929 62.4208Z" fill="#D6D6D6"/>
<path d="M25.9052 63.584C26.0603 63.6616 26.099 63.8167 26.099 63.9718C26.099 66.628 26.099 69.2648 26.099 71.921C26.0215 72.4444 26.2929 72.9873 25.9052 73.472C25.9052 70.176 25.9052 66.88 25.9052 63.584Z" fill="#E2E2E2"/>
<path d="M33.6603 69.1872C33.6603 69.0709 33.6409 68.9352 33.6409 68.8189C33.3113 68.3342 33.4664 67.7525 33.2725 67.2484C33.2919 66.628 33.1562 65.9688 33.7379 65.4647C33.9705 65.2708 33.7378 64.98 33.6603 64.7474C33.5634 64.4953 33.7185 64.3402 33.893 64.2239C34.3001 64.0688 34.7266 64.0688 35.1338 64.2239C35.4634 64.5341 35.9869 64.4178 36.3165 64.7474C36.2583 64.8443 36.2001 64.9606 36.1226 65.0576C37.441 65.678 37.092 66.8801 37.1114 67.9464C37.1114 68.0433 37.092 68.1403 37.092 68.2372C36.3746 68.7995 36.7624 69.5168 36.8012 70.176C36.84 70.7189 37.1696 71.3006 36.5297 71.7271C36.4134 71.7853 36.2971 71.8434 36.1808 71.9016C34.5522 72.7159 33.8542 72.4251 33.6797 70.2148C33.6797 69.8852 33.8154 69.5168 33.6603 69.1872Z" fill="#73A7CE"/>
<path d="M36.3166 64.7473C35.9289 64.631 35.3666 65.0963 35.1727 64.379C36.0452 63.6616 36.9952 63.0606 37.984 62.5177C38.0616 62.5177 38.1585 62.5177 38.2361 62.5565C38.4299 62.7116 38.2748 63.0218 38.5075 63.1769C38.5463 63.2544 38.5463 63.332 38.4881 63.3902C38.333 63.4096 38.1973 63.4289 38.1197 63.584C37.5187 63.9524 36.9177 64.3402 36.3166 64.7473Z" fill="#6E6F71"/>
<path d="M30.9266 60.6758C30.8685 59.8421 30.1899 59.2217 30.1317 58.3686C29.9184 56.8757 29.9184 56.8757 31.3144 56.5849C32.2838 56.391 33.2726 56.2747 34.2226 55.9063C34.7461 55.6931 35.2502 55.8094 35.541 56.6431C35.541 55.7512 35.9482 55.3635 36.5104 55.092C37.4217 54.6655 38.3329 54.2971 39.186 53.793C39.6125 53.541 39.9809 53.5797 40.2136 54.0838C40.737 54.5685 40.9697 55.3053 41.7646 55.538C42.1524 55.6543 41.8809 56.2359 41.9585 56.5849C41.6289 57.3023 41.2993 58.0002 40.9891 58.7176C40.6013 59.338 40.1554 59.0084 39.7676 58.737C39.3799 58.485 38.9921 58.1747 39.4186 57.6319C39.1472 57.9227 38.7013 57.9033 38.4105 58.136C39.3217 59.2023 39.0309 60.133 37.6543 60.5013C37.3441 60.5789 37.0533 60.734 36.7431 60.8115C36.2002 60.9279 35.9676 61.2187 36.0645 61.7809C36.142 62.2269 36.0451 62.6146 35.5992 62.8473C35.1532 63.0606 34.9012 62.731 34.591 62.4983C34.0675 62.1105 33.4859 61.5677 32.943 62.4983C32.8073 62.7503 32.5552 62.7116 32.3614 62.5565C32.1287 62.382 31.9154 62.1881 31.644 62.0718C31.2368 61.7228 30.7521 61.3738 30.9266 60.6758Z" fill="#E3E3E3"/>
<path d="M40.2136 54.0839C39.884 53.7931 39.5738 53.7543 39.186 54.0257C38.5074 54.5104 37.7513 54.8594 36.9564 55.1308C36.1615 55.4023 35.5992 55.8676 35.7543 56.837C35.7737 56.9727 35.6962 57.1278 35.6768 57.2635C35.5604 57.2248 35.4635 57.2054 35.4441 57.186C34.9206 55.9258 34.9206 55.9452 33.6022 56.3717C32.943 56.585 32.2257 56.7013 31.5471 56.7788C30.5583 56.8758 29.9185 57.2054 30.1511 58.3687C29.6664 57.3799 29.4725 56.3329 29.5889 55.2472C30.8103 53.192 32.691 51.8736 34.7267 50.7297C35.1145 50.5165 35.541 50.594 35.9482 50.6522C37.4992 51.2338 38.7207 52.3196 39.9809 53.3278C40.1554 53.4635 40.3299 53.6186 40.233 53.89C40.2136 53.9676 40.2136 54.0257 40.2136 54.0839Z" fill="#D9D9D8"/>
<path d="M40.233 53.89C38.934 52.6685 37.5187 51.6409 35.9676 50.8072C35.6574 50.4583 35.037 51.0205 34.8237 50.4195C34.8819 50.4195 34.9594 50.4195 35.0176 50.4001C35.9676 50.5746 36.7625 50.2062 37.4605 49.6052C37.6544 49.4307 37.8095 49.2368 38.1197 49.2756C37.5962 49.8378 37.7126 50.2062 38.3524 50.6521C39.1667 51.2144 40.0391 51.6991 40.6983 52.494C40.7953 52.6103 40.9698 52.7073 41.0279 52.843C41.2606 53.444 41.978 54.1614 41.4933 54.6655C41.0667 55.0532 40.7371 54.0451 40.233 53.89Z" fill="#A4A6A4"/>
<path d="M41.5708 59.9003C41.9586 59.4156 42.3657 59.9391 42.7535 59.8615C44.3627 60.8116 44.6341 63.0412 43.2963 64.3402C41.5708 64.8831 41.5708 64.8831 41.5708 63.08C41.5708 62.033 41.5708 60.9667 41.5708 59.9003Z" fill="#90BD51"/>
<path d="M45.0412 62.7698C44.6923 62.7698 44.6923 62.5371 44.6923 62.3045C44.6923 61.9555 44.8086 61.6259 45.177 61.5871C45.429 61.5677 45.4484 61.8779 45.4484 62.1106C45.4484 62.4402 45.3708 62.6922 45.0412 62.7698Z" fill="#E4E4E4"/>
<path d="M38.488 63.3708C38.488 63.3126 38.488 63.2545 38.488 63.1963C39.0697 62.3238 39.7483 61.5483 40.5044 60.8309C40.5432 60.8503 40.582 60.8697 40.6207 60.8891C40.1942 61.781 40.7758 62.6922 40.6013 63.6034C40.5044 64.0494 40.8534 64.6698 40.233 64.8637C39.6901 65.0382 39.3023 64.5341 38.9727 64.1657C38.7789 63.933 38.6431 63.6422 38.488 63.3708Z" fill="#8CBA4B"/>
<path d="M38.2941 62.5953C38.2359 62.5953 38.1584 62.5953 38.1002 62.6147C37.8869 61.4126 38.3522 60.385 39.2829 60.0748C39.69 59.9391 40.0972 59.8228 40.5043 59.6483C40.7952 59.5319 40.989 59.5513 41.0278 59.9003C40.8921 60.2299 40.7758 60.5595 40.6401 60.8697L40.5819 60.8309C40.3686 60.5595 40.2329 60.6564 40.0002 60.8503C39.3604 61.3932 39.0502 62.2269 38.2941 62.5953Z" fill="#8EA565"/>
<path d="M39.2636 60.0748C38.3717 60.6952 38.3136 61.684 38.0809 62.6146C37.1309 63.2157 36.2972 64.0494 35.1727 64.379C34.7462 64.379 34.3002 64.379 33.8737 64.3596C32.9818 63.7585 32.0512 63.1769 31.7604 62.033C32.2645 61.8197 32.3032 62.4789 32.6716 62.5177C33.0594 61.5483 33.9706 61.4707 34.7849 62.3238C34.9788 62.5371 35.0758 62.9636 35.5217 62.7116C35.8901 62.4983 35.8901 62.2269 35.8125 61.8197C35.6186 60.8503 35.9094 60.5207 37.4799 60.3462C38.236 60.2687 38.3717 59.7258 38.7401 59.3768C39.0309 59.1054 38.7983 58.8145 38.4105 58.6982C38.1779 58.6207 37.887 58.5431 37.9258 58.1941C37.984 57.8258 38.2942 57.8258 38.585 57.7676C38.9534 57.7094 39.3218 57.5931 39.6901 57.4962C39.7871 57.8451 39.0309 57.9227 39.4769 58.2717C39.9034 58.6013 40.2912 59.1829 40.9698 58.737C41.0667 59.2217 40.7177 59.3186 40.3687 59.435C39.981 59.5707 39.5156 59.6289 39.2636 60.0748Z" fill="#E0E0E0"/>
<path d="M19.1193 95.1674C18.654 94.8572 18.2856 94.45 17.956 94.0041C16.9091 92.4724 16.7346 90.65 16.4825 88.905C16.2499 87.2958 16.0172 85.6866 15.9978 84.0192C15.9784 81.2273 16.5019 78.5323 16.9091 75.818C17.1417 74.3251 17.5295 72.871 17.6846 71.3199C18.2469 72.5608 18.7897 73.7822 19.8949 74.6353C20.2438 75.12 19.9142 75.566 19.7591 75.9925C19.0418 77.9701 18.5959 79.9865 19.0224 82.1192C19.1969 82.9916 19.6622 83.7865 19.6816 84.6978C19.6816 84.9498 19.701 85.2213 19.701 85.4733C20.2438 85.8417 20.1663 86.4233 20.1663 86.9662C20.1469 88.6142 20.3602 90.204 21.0388 91.7357C21.2714 92.2592 21.2133 92.8602 21.0775 93.4225C21 93.5388 20.9418 93.6745 20.8643 93.7908C20.399 94.0623 20.2438 93.6551 20.0694 93.3837C19.7398 92.8796 19.5846 92.2786 19.3326 91.4836C18.9448 92.453 19.255 93.151 19.3908 93.8878C19.4683 94.3337 19.8561 94.8766 19.1193 95.1674Z" fill="#BA6346"/>
<path d="M19.8948 66.8801C21.1356 66.8025 22.1632 67.6362 23.3459 67.7719C24.0826 67.8689 24.2571 68.1791 24.1602 68.8189C24.0826 69.4005 23.8112 69.8465 23.4041 70.2924C22.6285 71.1067 21.9499 71.9986 21.3295 72.9486C20.8448 73.6853 20.6122 73.6659 19.9917 73.0455C18.7315 71.7659 18.3631 69.1291 19.6428 67.2872C19.7009 67.1321 19.8172 67.0158 19.8948 66.8801Z" fill="#B56041"/>
<path d="M19.7008 84.6978C18.9835 83.3212 18.5375 81.8477 18.5763 80.2967C18.6151 78.6487 19.0222 77.0588 19.6621 75.5466C19.7784 75.2557 19.9529 74.9649 19.9141 74.6353C20.2243 74.7904 20.4764 75.1006 20.8835 75.0231C22.5509 75.3721 22.3958 75.3721 21.8529 77.0782C21.6396 77.7568 21.4264 78.4548 21.2325 79.1334C21.0386 79.8313 20.8641 80.5293 20.6702 81.2273C20.2437 81.6538 20.2437 82.2355 20.108 82.7783C19.9529 83.4182 19.6427 84.0192 19.7008 84.6978Z" fill="#C87F5F"/>
<path d="M19.8948 66.8801C19.4488 67.9852 18.7315 69.0322 18.9448 70.2924C19.1192 71.32 19.3325 72.3669 20.205 73.1037C20.457 73.3169 20.6703 73.472 20.903 73.1231C21.7754 71.7853 22.7061 70.4863 23.9081 69.4199C24.0438 69.2842 23.9275 68.974 24.1602 68.8189C24.1602 69.0128 24.1602 69.2066 24.1796 69.4005C23.9857 70.1761 23.7918 70.9516 23.5979 71.7077C22.9387 72.4057 23.1326 73.4527 22.6285 74.2088C22.0469 74.0537 21.4652 73.8792 20.8836 73.7241C19.6621 73.3945 19.2356 72.3863 18.9254 71.3393C18.5376 70.0597 18.5376 67.9076 19.8948 66.8801Z" fill="#B56041"/>
<path d="M24.3542 64.3596C24.1603 64.4178 23.9664 64.4759 23.7725 64.5535C23.4623 63.8361 22.8225 64.2239 22.3572 64.1851C21.3684 64.1076 21.2521 64.0106 21.698 63.0994C22.2796 61.9167 22.9194 60.7534 22.8225 59.3768C22.8031 59.183 22.8419 58.9503 23.0552 58.8921C23.3266 58.8146 23.4429 59.0666 23.5593 59.2605C24.4317 60.7728 25.3624 62.2851 24.9552 64.1851C24.8001 64.3984 24.5674 64.3402 24.3542 64.3596Z" fill="#D1D1D1"/>
<path d="M20.4766 66.1045C21.6205 64.8637 23.0746 64.9994 24.5481 65.1351C24.742 65.2708 24.9358 65.3871 25.1297 65.5229C25.2654 65.7167 25.2654 65.9106 25.1297 66.1045C24.3348 65.1157 22.745 65.0382 21.5623 65.93C21.2133 66.1821 20.9225 66.5117 20.4766 66.1045Z" fill="#E0E0E0"/>
<path d="M24.7418 70.3699C25.5755 70.0985 25.2459 69.3811 25.3235 68.8188C25.6725 69.3229 25.5755 69.8658 25.401 70.3699C25.2265 70.7771 24.9551 70.9903 24.7418 70.3699Z" fill="#E2E2E2"/>
<path d="M25.1296 66.1045C25.1296 65.9107 25.1296 65.7168 25.1296 65.5229C25.5368 66.279 25.2265 67.0739 25.3235 67.8495C24.9939 67.578 25.1878 67.2097 25.1296 66.8801C25.1296 66.6086 25.1296 66.3566 25.1296 66.1045Z" fill="#E2E2E2"/>
<path d="M21.0775 93.4224C21.1163 92.6081 20.8449 91.9295 20.5153 91.1928C20.0887 90.2428 19.9142 89.1376 19.8948 88.0325C19.8754 87.1794 20.0887 86.307 19.7203 85.4733C19.8948 85.5508 20.0693 85.6284 20.2632 85.7059C20.302 86.3263 20.8448 86.6947 21.0387 87.2182C21.7755 89.2733 21.4071 91.3479 21.0775 93.4224Z" fill="#CB8062"/>
<path d="M20.0886 82.7589C20.0886 82.1773 19.9529 81.5375 20.6509 81.2079C20.4764 81.7314 20.2825 82.2548 20.0886 82.7589Z" fill="#CB8062"/>
<path d="M19.1194 95.1674C19.5459 94.7021 19.1969 94.2561 19.1 93.8102C19.003 93.3061 18.751 92.802 18.8091 92.3173C18.8479 91.9296 18.7122 91.2316 19.2163 91.1734C19.7398 91.0959 19.6041 91.7745 19.7786 92.1234C20.0694 92.7245 20.05 93.5194 20.8643 93.7908C20.8061 94.0429 20.7286 94.3143 20.6704 94.5663C20.2245 94.7602 20.399 94.9541 20.6704 95.148C20.6704 95.3419 20.6704 95.5358 20.6898 95.7296C20.7286 96.4082 20.3408 96.3113 19.9918 96.0398C19.6622 95.8072 19.4102 95.4582 19.1194 95.1674Z" fill="#C67B5F"/>
<path d="M20.6703 95.1674C20.3795 95.1286 19.9142 95.3031 19.9336 94.799C19.953 94.2174 20.4377 94.7408 20.6509 94.5857C20.6509 94.7796 20.6703 94.9735 20.6703 95.1674Z" fill="#CB8062"/>
<path d="M34.8043 50.4195C35.0951 50.8073 35.6768 50.4001 35.9482 50.8073C34.4165 50.7103 33.4859 51.8154 32.3614 52.5522C31.2563 53.2696 30.5777 54.4328 29.5695 55.2471C29.4919 53.6573 29.9573 52.1644 30.5777 50.7297C31.0818 49.5664 31.7991 49.3338 32.9818 49.7797C33.5828 50.0123 34.2033 50.2062 34.8043 50.4195Z" fill="#C0C0BF"/>
<path d="M31.7604 62.033C32.3226 62.9248 33.2145 63.5453 33.8737 64.3596C33.7961 64.4953 33.7186 64.6116 33.6604 64.7473C32.342 64.2626 31.6247 63.1575 30.9267 62.0524C31.0236 61.6646 30.7134 61.4126 30.5971 61.1024C30.5195 60.8891 30.3644 60.4432 30.9267 60.6758C31.0818 61.1993 31.4502 61.6064 31.7604 62.033Z" fill="#7C7C7C"/>
<path d="M35.3859 49.8185C34.6298 49.1787 33.7767 48.6358 33.8155 47.4531C33.8543 46.7358 34.0481 46.4643 34.8431 46.4837C36.3747 46.5419 37.9064 46.7164 39.4381 46.3286C39.0115 47.0072 39.1278 47.996 38.3329 48.4613C37.4023 49.0236 36.588 49.8379 35.3859 49.8185Z" fill="#CA7F5D"/>
<path d="M45.2544 81.4018C45.3126 81.4018 45.3708 81.4018 45.4289 81.4212C45.9912 84.2519 46.379 87.1213 46.6116 89.9908C46.98 94.4888 47.5422 99.0063 46.8831 103.562C46.631 105.23 46.3208 106.917 46.2045 108.623C46.1657 109.204 45.7392 109.689 45.7973 110.29C44.9636 110.911 45.3902 111.899 45.1575 112.675C45.0412 112.656 44.9636 112.675 44.9248 112.636C44.6146 112.403 44.7697 111.744 44.3238 111.744C43.8585 111.744 43.9167 112.326 43.7809 112.656C43.4513 113.412 43.1024 113.082 42.7728 112.675C42.4432 112.927 42.5595 113.16 42.6758 113.392C42.9473 113.955 43.3544 114.497 42.385 114.846C42.1523 114.924 42.0554 115.331 42.2299 115.525C42.734 116.068 42.3268 116.378 42.0554 116.824C41.6095 117.619 41.6095 118.53 41.6289 119.422C41.6289 119.596 41.7258 119.829 41.9391 119.868C42.2493 119.926 42.2881 119.674 42.3656 119.461C42.5207 119.073 42.8115 118.763 42.7728 118.297C42.7534 118.142 42.8697 117.968 43.0636 117.968C43.2381 117.987 43.2962 118.162 43.335 118.317C43.5095 118.995 43.1217 119.655 42.8503 120.12C42.4626 120.76 42.4238 121.497 42.0748 122.136C41.8227 122.563 41.784 122.892 41.1635 122.776C40.6982 122.679 40.1747 122.834 39.6707 122.892C40.2911 121.923 40.3492 120.799 40.6401 119.732C41.2605 117.406 41.6676 115.04 41.9391 112.656C42.1523 110.775 42.3074 108.894 42.3656 106.994C42.4432 104.784 42.4432 102.574 42.3656 100.363C42.2493 96.9705 42.0942 93.5776 41.6482 90.204C41.3962 88.2652 41.1635 86.3264 40.8339 84.407C40.7176 83.709 41.1635 83.3988 41.7064 83.2049C42.734 82.8365 43.7616 82.4681 44.8085 82.1967C45.332 82.061 45.2351 81.7508 45.2544 81.4018Z" fill="#323031"/>
<path d="M30.345 22.5199C31.0624 22.6363 31.3726 23.2567 31.7797 23.722C32.0124 23.974 31.9736 24.4006 31.6246 24.5557C29.7634 25.3506 27.9021 26.0486 25.7694 25.719C24.8969 25.5833 25.0326 24.9047 24.7418 24.4587C25.0133 22.8689 26.1959 21.8219 27.8439 21.7444C28.2899 21.725 28.7358 21.7444 29.1817 21.7444C29.5501 22.0352 30.1899 21.9189 30.345 22.5199C30.0348 22.7526 29.7246 22.5587 29.4338 22.5005C27.999 22.1903 26.4868 22.8883 25.8469 24.1679C25.5173 24.8271 25.6531 25.2149 26.3704 25.2537C27.9409 25.3118 29.4338 24.8853 30.8685 24.2842C31.2562 24.1291 31.1399 23.8383 30.946 23.5669C30.7134 23.2373 30.2481 23.024 30.345 22.5199Z" fill="#B46A4F"/>
<path d="M49.8883 35.6845C50.0047 36.5958 50.3343 37.4682 50.2955 38.4182C50.2567 39.3101 51.0322 38.8448 51.4394 38.9805C51.1292 39.2907 50.7608 39.4846 50.3149 39.2519C49.869 39.0193 49.9077 38.5927 49.8883 38.1662C49.8496 37.3325 49.7526 36.5182 49.6945 35.6845C49.772 35.6845 49.8302 35.6845 49.8883 35.6845Z" fill="#C78062"/>
<path d="M40.0778 38.9417C41.0085 38.5346 41.5707 37.5458 42.6177 37.3325C42.8116 37.2937 43.0054 37.1968 43.1605 37.3131C43.432 37.5264 43.1606 37.7396 43.083 37.8948C40.9891 41.2101 37.2859 43.3622 33.2338 42.0244C30.694 41.1907 29.1429 39.3101 27.9796 36.7509C28.9878 37.0029 29.7052 37.2937 30.248 37.9723C30.7521 38.5927 31.2368 39.2132 32.0317 39.504C32.2644 39.407 32.4777 39.5234 32.6716 39.6203C34.8818 40.706 37.0145 40.4734 39.089 39.2325C39.3992 39.058 39.6707 38.806 40.0778 38.9417Z" fill="#191317"/>
<path d="M36.0452 35.2967C35.037 35.3355 34.2033 35.161 33.4472 34.6957C32.3808 34.0559 32.439 32.8344 33.5247 32.2528C34.9013 31.516 37.1309 31.613 38.0809 32.4661C39.0697 33.3385 38.9146 34.463 37.7126 34.9865C37.1503 35.258 36.5493 35.3743 36.0452 35.2967Z" fill="#DB967B"/>
<path d="M40.0778 38.9417C38.8951 39.7172 37.6736 40.4152 36.2195 40.5703C34.6879 40.7254 33.2919 40.3958 32.0317 39.5233C31.7021 38.9029 30.9847 38.5927 30.6357 37.856C32.3031 38.3407 33.9317 38.6315 35.5991 38.5927C37.2277 38.5539 38.8369 38.3794 40.4268 38.0886C40.6206 38.5733 39.9227 38.5539 40.0778 38.9417Z" fill="#F1ECE8"/>
<path d="M42.7341 31.4191C41.9974 32.0589 41.2606 31.962 40.6402 31.167C39.9034 30.217 39.8453 28.8599 40.4851 27.8323C41.0473 26.921 41.7065 26.669 42.6566 26.9986C43.2964 27.2119 44.0719 28.4139 43.8392 29.0925C43.626 29.7517 44.0525 30.663 43.1219 31.0507C42.8117 30.7017 43.0637 30.314 43.0831 29.9456C43.1025 29.267 42.9086 28.7435 42.23 28.4915C41.8423 28.3364 41.6096 28.4721 41.629 28.918C41.4739 29.1119 41.2218 29.2282 41.0667 29.4221C40.7177 30.0231 40.7371 30.5854 41.2994 31.0701C41.6872 31.516 42.2882 31.1477 42.7341 31.4191Z" fill="#B16649"/>
<path d="M27.8439 31.0314C27.4368 30.8569 27.4562 30.4885 27.4368 30.1395C27.4174 29.7517 27.4368 29.364 27.3592 28.9956C27.2235 28.1619 27.8827 27.018 28.6776 26.8047C29.5307 26.5721 30.6165 27.1731 30.9267 28.0262C31.2175 28.8987 31.1787 29.7323 30.5777 30.4691C30.2481 30.2171 30.345 29.8293 30.3062 29.4997C30.2675 28.9568 29.8991 28.6272 29.5113 28.3752C28.9685 28.0262 28.6195 28.2588 28.5031 28.8793C28.4062 29.0732 28.2511 29.2283 28.0572 29.3446C27.5531 29.8487 28.2123 30.5079 27.8439 31.0314Z" fill="#BA6748"/>
<path d="M28.4255 28.8405C28.1347 28.4915 28.3286 28.2394 28.6194 28.0649C28.9296 27.8711 29.298 27.8517 29.5888 28.0843C30.1317 28.5109 30.6939 28.9568 30.5582 29.7905C30.5195 30.0037 30.5582 30.2364 30.5582 30.4497C29.7827 32.0395 29.0266 32.1946 27.8245 31.0119C27.65 30.4691 27.5724 29.8874 27.6112 29.3252C27.6694 28.7823 27.8633 29.267 27.999 29.267C28.4061 29.3058 28.7939 29.3446 28.9878 28.8792C29.5307 29.1313 29.55 29.6354 29.4337 30.0813C29.298 30.6242 28.7357 30.3333 28.2898 30.4303C28.5225 31.0313 28.8521 31.264 29.3949 30.9732C29.9766 30.6629 30.2286 29.7517 29.8796 29.2088C29.6276 28.8211 29.3174 28.4527 28.8521 28.9956C28.697 29.0537 28.5225 29.0537 28.4255 28.8405Z" fill="#7D4F44"/>
<path d="M41.5513 28.8792C41.5126 28.7241 41.183 28.666 41.3768 28.4139C41.5707 28.1813 41.8422 28.0455 42.1524 28.1425C42.8697 28.3558 43.2575 28.8405 43.3351 29.5966C43.3932 30.1007 43.1218 30.5272 43.1218 31.0119C42.9861 31.1477 42.8697 31.264 42.734 31.3997C42.1911 31.5742 41.6289 31.7681 41.1636 31.2252C41.183 31.1864 41.2217 31.1477 41.2411 31.1089C42.7922 30.6823 43.0636 30.1976 42.3656 28.8986C42.2299 29.3639 42.5595 29.868 42.133 30.2364C42.036 30.2752 41.9585 30.2558 41.8809 30.1976C41.7258 29.7905 41.4544 29.3833 41.5513 28.8792Z" fill="#60413D"/>
<path d="M33.6603 69.1872C33.9706 69.8464 33.9318 70.6026 34.145 71.3005C34.3583 72.0567 34.6685 72.2118 35.3665 71.9791C35.7543 71.8434 36.1614 71.8046 36.5686 71.7271C36.4329 71.8628 36.3165 71.9791 36.1808 72.1148C35.8124 72.3475 35.9869 72.7934 35.793 73.0843C35.5022 73.3363 35.2114 73.6077 34.9012 73.821C33.195 74.9455 31.0042 74.2669 30.1123 72.3475C29.5113 71.0679 29.3949 69.7107 29.6276 68.3342C29.7052 67.9076 29.899 67.5199 30.3256 67.3454C30.8103 67.1321 31.0817 67.5199 31.3919 67.8107C32.1481 68.5086 32.8848 69.226 33.641 69.924C33.7379 69.7301 33.5828 69.4393 33.6603 69.1872Z" fill="#D6D6D6"/>
<path d="M33.2727 67.2484C33.5054 67.7525 33.6605 68.2566 33.6411 68.8189C32.9819 68.4117 33.3503 67.7719 33.2727 67.2484Z" fill="#D6D6D6"/>
<path d="M35.7736 73.0842C35.9675 72.7934 35.1726 72.0954 36.1614 72.1148C36.1614 72.4832 36.0839 72.8322 35.7736 73.0842Z" fill="#DCDCDC"/>
<path d="M34.0093 68.8383C33.7379 68.1015 33.7573 67.326 33.6797 66.5699C33.6022 65.8913 33.9899 65.6392 34.6491 65.8137C35.6185 66.0658 36.0839 66.8219 36.2584 67.675C36.4716 68.7413 36.491 69.8271 36.588 70.9128C36.6073 71.0873 36.5492 71.223 36.3941 71.32C35.6185 70.971 35.2308 70.2342 34.8042 69.575C34.494 69.0709 34.7849 68.6638 35.1726 68.3148C35.3277 68.1985 35.4634 68.024 35.3859 67.8107C35.2889 67.5393 35.0175 67.6168 34.9012 67.7332C34.7073 67.927 34.2614 67.5005 34.2614 68.0434C34.242 68.3342 34.2808 68.6444 34.0093 68.8383Z" fill="#2567A6"/>
<path d="M34.0094 68.8383C34.0094 68.1985 33.893 67.5393 34.8624 67.4617C35.1727 67.4423 35.4441 67.1709 35.6767 67.5393C35.8706 67.8495 35.7931 68.2178 35.5023 68.3923C34.3971 69.0128 34.9206 69.575 35.5023 70.1954C35.8318 70.5444 36.0839 70.9516 36.3747 71.3393C35.9676 71.6495 35.4635 71.572 34.9982 71.6883C34.4747 71.824 34.3971 71.3587 34.3971 70.9516C34.2614 70.3699 34.3971 69.7495 34.0481 69.226C34.0288 69.0903 34.0094 68.9546 34.0094 68.8383Z" fill="#1B558E"/>
<path d="M34.0481 69.2067C34.591 69.6914 34.3971 70.3312 34.3971 70.9322C34.2808 70.37 34.1644 69.7883 34.0481 69.2067Z" fill="#2567A6"/>
<path d="M38.2942 62.5953C38.6819 61.6646 39.6707 61.1993 40.0973 60.2687C40.1554 60.1524 40.2911 60.0748 40.4269 60.1524C40.7177 60.3269 40.582 60.5983 40.582 60.8503C39.9615 61.684 39.3799 62.5953 38.488 63.1963C37.6543 63.2545 38.236 62.8279 38.2942 62.5953Z" fill="#587632"/>
<path d="M30.3451 22.5199C30.4032 22.5975 30.442 22.6944 30.5002 22.7526C31.9931 24.1291 31.8961 24.3036 30.0155 24.8659C28.7358 25.2536 27.4562 25.6996 26.0603 25.4669C25.3623 25.3506 25.2266 25.021 25.4592 24.3812C26.2154 22.4618 27.9797 21.7832 30.3451 22.5199Z" fill="#362735"/>
<path d="M41.5514 28.8793C41.8616 29.267 41.9586 29.713 41.9392 30.1977C41.3188 30.2171 40.8922 30.0232 40.9698 29.3058C41.0086 28.9568 41.2412 28.8793 41.5514 28.8793Z" fill="#AFA2A1"/>
<path d="M40.9697 29.3058C41.0473 29.868 41.6095 29.9068 41.9391 30.1976C41.9585 30.217 41.9779 30.2558 41.9973 30.2752C41.7646 30.8375 41.4544 30.3721 41.1442 30.3721C41.1054 30.6436 41.435 30.8956 41.2218 31.1864L41.1636 31.2446C40.4269 30.5466 40.3687 29.9068 40.9697 29.3058Z" fill="#60413D"/>
<path d="M28.9685 28.9374C28.9297 29.2282 29.1817 29.6354 28.8327 29.7905C28.445 29.9456 28.3286 29.4221 28.0184 29.2864C28.0378 29.0344 28.1929 28.918 28.4062 28.8599C28.6001 28.8793 28.794 28.8986 28.9685 28.9374Z" fill="#AF9F9F"/>
<path d="M28.9684 28.918C28.8133 28.2976 29.1623 28.2006 29.5888 28.4527C30.0929 28.7629 30.4225 29.2282 30.3449 29.8874C30.2674 30.5078 30.0153 30.9925 29.4531 31.264C28.7939 31.5936 27.9408 30.9925 28.0184 30.2752C28.0377 30.0813 28.0765 29.8486 28.348 29.9456C28.6582 30.0619 29.0265 30.4884 29.2592 30.1007C29.4725 29.7711 29.2592 29.2864 28.9684 28.918C28.9684 28.9374 28.9684 28.918 28.9684 28.918Z" fill="#2D191B"/>
<path d="M41.2218 31.1864C41.183 30.7793 40.6402 30.5466 40.8534 30.0619C41.2994 29.7517 41.5126 30.6823 41.9779 30.2752C42.2882 29.9068 42.1524 29.4997 42.0361 29.1119C41.9779 28.918 41.6483 28.7435 41.9586 28.569C42.1912 28.4333 42.4626 28.5496 42.6371 28.7629C43.1412 29.3446 42.9667 30.0425 42.8504 30.6823C42.7341 31.2446 42.1912 31.3028 41.6871 31.2446C41.532 31.2252 41.3769 31.2058 41.2218 31.1864Z" fill="#261519"/>
</svg>
