<svg width="17" height="16" viewBox="0 0 17 16" fill="none" xmlns="http://www.w3.org/2000/svg">
<path d="M8.49316 15.9088C4.08972 15.9392 0.391661 12.3997 0.490206 7.92863C0.588752 3.65499 4.20901 0.221909 8.65395 0.313053C12.9744 0.404197 16.5117 3.88285 16.4546 8.25776C16.4028 12.4554 12.7773 15.9493 8.49316 15.9088ZM11.1798 10.03C11.1539 10.0756 11.1124 10.0857 11.0813 10.106C10.2203 10.6326 9.9143 11.6807 10.3707 12.5516C10.8271 13.4276 11.88 13.8023 12.824 13.4276C13.0366 13.3416 13.0366 13.3416 13.0418 13.5745C13.0418 13.6201 13.0211 13.6859 13.0678 13.7061C13.1144 13.7315 13.1507 13.6707 13.1871 13.6403C15.3499 11.7769 16.216 9.44769 15.6818 6.68299C15.1632 3.99425 13.13 1.89794 10.4174 1.17386C8.58652 0.682692 6.80751 0.859916 5.11667 1.71059C2.33146 3.098 0.759911 6.02473 1.16965 9.04261C1.4238 10.906 2.30552 12.4301 3.76296 13.6504C3.79408 13.6758 3.83039 13.7315 3.87188 13.7163C3.92375 13.696 3.903 13.6302 3.903 13.5846C3.91856 12.9922 3.9445 12.3997 4.06897 11.8174C4.22976 11.0427 4.66544 10.4807 5.41231 10.1617C5.94134 9.93379 6.5015 9.8072 7.06684 9.70593C7.12389 9.6958 7.1602 9.71099 7.19651 9.74644C7.39878 9.93379 7.63737 10.0553 7.90707 10.1161C8.58133 10.2629 9.20891 10.2022 9.75351 9.73631C9.795 9.6958 9.8365 9.6958 9.88836 9.71099C10.1218 9.76163 10.35 9.80214 10.5834 9.85277C10.7856 9.89835 10.9879 9.94898 11.1798 10.03Z" fill="#7782AD"/>
<path d="M10.8942 6.33374C10.9305 7.1591 10.7542 7.89837 10.2563 8.54144C9.87766 9.03261 9.38493 9.3668 8.74697 9.44782C7.94824 9.54909 7.3051 9.24528 6.79162 8.66297C6.28333 8.08572 6.06031 7.39708 6.04475 6.63755C6.03437 6.10081 6.06549 5.56408 6.24184 5.0476C6.45449 4.40453 6.88498 3.98425 7.55924 3.81715C8.20238 3.65512 8.85071 3.66018 9.48866 3.84754C10.1111 4.02982 10.5052 4.45516 10.7023 5.05772C10.8424 5.48306 10.8839 5.92359 10.8942 6.33374Z" fill="#7782AD"/>
<path d="M12.0873 10.177C12.9483 10.182 13.6433 10.8656 13.6433 11.7062C13.6433 12.5568 12.9275 13.2404 12.0458 13.2353C11.2056 13.2303 10.5054 12.5265 10.5157 11.696C10.5261 10.8403 11.2211 10.1719 12.0873 10.177ZM11.5271 11.7517C11.4182 11.7568 11.3663 11.7821 11.3352 11.8429C11.3093 11.8986 11.3197 11.9543 11.3612 11.9998C11.5219 12.1821 11.6879 12.3594 11.8487 12.5366C11.885 12.5771 11.9161 12.5872 11.9576 12.5366C12.2999 12.1264 12.6474 11.7163 12.9898 11.3011C13.0624 11.2099 13.0261 11.1036 12.9223 11.0682C12.829 11.0378 12.7615 11.0732 12.6993 11.1441C12.5126 11.372 12.3207 11.5948 12.134 11.8226C12.0614 11.9087 12.0043 12.0555 11.9058 12.0657C11.8072 12.0707 11.745 11.9188 11.6672 11.8429C11.6049 11.7973 11.5634 11.7517 11.5271 11.7517Z" fill="#7782AD"/>
</svg>
