<svg width="134" height="181" viewBox="0 0 134 181" fill="none" xmlns="http://www.w3.org/2000/svg">
<g clip-path="url(#clip0)">
<path d="M72.4933 6.64849L90.3474 19.6688C91.3946 20.4324 92.8672 20.2116 93.6398 19.1793L95.4705 16.729C96.2431 15.6941 96.0197 14.2388 94.9751 13.4753L77.1183 0.454907C76.0711 -0.308649 74.5985 -0.0878297 73.8259 0.944434L71.9952 3.39473C71.2253 4.42965 71.446 5.88493 72.4933 6.64849Z" fill="#F47C4D"/>
<path d="M77.4387 0.686376L82.0153 4.02527C81.0111 5.09212 80.1577 6.28667 79.4551 7.60627C78.7605 8.50019 78.1737 9.44465 77.6837 10.4343L72.8136 6.88262C71.5914 5.99136 71.3303 4.28866 72.2348 3.0808L73.5944 1.26104C74.4935 0.0531836 76.2165 -0.204882 77.4387 0.686376Z" fill="#F47C4D"/>
<path d="M78.9543 16.4629L82.516 19.0595C83.9536 20.1078 85.9754 19.8045 87.0361 18.3865L92.7568 10.7269C93.8175 9.30625 93.5106 7.30824 92.0757 6.26001L88.514 3.66339L78.9543 16.4629Z" fill="#11497E"/>
<path d="M75.3926 13.8664L78.9543 16.463L88.514 3.66078L84.9523 1.06416C83.5147 0.0159337 81.4929 0.319228 80.4322 1.73726L74.7115 9.39676C73.6508 10.8175 73.955 12.8181 75.3926 13.8664Z" fill="#F1624E"/>
<path d="M84.4274 0.681066L85.3481 1.35151L75.7911 14.1537L74.8704 13.4833C73.7235 12.6479 73.4786 11.0489 74.3266 9.91557L80.8173 1.22114C81.6653 0.0877797 83.2806 -0.154324 84.4274 0.681066Z" fill="#F78D1E"/>
<path d="M60.0988 6.64849L42.2447 19.6688C41.1975 20.4324 39.7249 20.2116 38.9523 19.1793L37.1216 16.729C36.349 15.6941 36.5724 14.2388 37.617 13.4753L55.4711 0.454907C56.5183 -0.308649 57.9909 -0.0878297 58.7635 0.944434L60.5942 3.39473C61.3668 4.42965 61.1434 5.88493 60.0988 6.64849Z" fill="#F47C4D"/>
<path d="M55.1534 0.686376L50.5768 4.02527C51.581 5.09212 52.4344 6.28667 53.137 7.60627C53.8316 8.50019 54.4185 9.44465 54.9085 10.4343L59.7785 6.88262C61.0007 5.99136 61.2618 4.28866 60.3573 3.0808L58.9978 1.26104C58.0986 0.0531836 56.3757 -0.204882 55.1534 0.686376Z" fill="#F47C4D"/>
<path d="M53.6377 16.4629L50.0761 19.0595C48.6385 20.1078 46.6167 19.8045 45.556 18.3865L39.8353 10.7269C38.7746 9.30625 39.0815 7.30824 40.5164 6.26001L44.0781 3.66339L53.6377 16.4629Z" fill="#11497E"/>
<path d="M57.1994 13.8664L53.6378 16.463L44.0781 3.66078L47.6397 1.06416C49.0773 0.0159337 51.0991 0.319228 52.1598 1.73726L57.8805 9.39942C58.9412 10.8175 58.6343 12.8181 57.1994 13.8664Z" fill="#F1624E"/>
<path d="M48.1647 0.681065L47.244 1.3515L56.8037 14.1564L57.7244 13.4859C58.8713 12.6505 59.1163 11.0516 58.2682 9.91823L51.7722 1.22114C50.9268 0.0877798 49.3116 -0.154323 48.1647 0.681065Z" fill="#F78D1E"/>
<path d="M101.108 54.8217L84.5109 38.8642C82.8768 37.2919 80.2627 37.3291 78.6717 38.944L78.5155 39.101C78.4967 39.1196 78.4752 39.1356 78.4563 39.1569L13.3152 105.318C11.7888 106.866 10.9327 108.813 10.7362 110.809L8.36981 132.715L29.9848 129.507C30.5125 129.475 31.0374 129.395 31.5516 129.275L31.5758 129.272V129.27C33.2207 128.879 34.7768 128.043 36.0448 126.756L101.189 60.595C102.78 58.9774 102.745 56.3941 101.108 54.8217Z" fill="#FBAD4C"/>
<path d="M96.7869 50.69L88.759 42.972L124.72 6.4889C126.422 4.76225 129.219 4.72235 130.966 6.40376L132.662 8.03464C134.409 9.71605 134.45 12.4803 132.748 14.2069L96.7869 50.69Z" fill="#F47C4D"/>
<path d="M131.467 6.88794L132.662 8.03726C134.409 9.71868 134.45 12.4829 132.748 14.2096L96.7868 50.69L92.5172 46.5849L131.467 6.88794Z" fill="#FEE750"/>
<path d="M92.5388 46.5796L8.38596 132.563L8.36981 132.715L29.9848 129.507C30.5125 129.475 31.0374 129.395 31.5516 129.275L31.5758 129.272V129.27C33.2207 128.879 34.7768 128.043 36.0448 126.756L101.189 60.595C102.78 58.9801 102.742 56.3967 101.108 54.8244L92.5388 46.5796Z" fill="#F47C4D"/>
<path opacity="0.44" d="M82.9064 54.7978C79.5466 51.9591 76.3646 48.9261 73.3602 45.7229C73.056 45.5686 72.7544 45.4116 72.4502 45.2573L36.777 81.4876C39.0007 83.8608 41.2836 86.1834 43.6015 88.4634C48.5927 93.3746 53.8289 98.0411 59.3343 102.383C59.4716 102.484 59.6088 102.583 59.7461 102.681L96.655 65.1949C91.855 62.0263 87.2757 58.4905 82.9064 54.7978Z" fill="#FBAD4C"/>
<path opacity="0.44" d="M83.7786 55.5294L47.7016 92.3903C51.4409 95.8728 55.3149 99.2144 59.3315 102.383C59.4688 102.484 59.6061 102.583 59.7434 102.681L96.6523 65.1949C92.1726 62.2365 87.8868 58.9561 83.7786 55.5294Z" fill="#F47C4D"/>
<path opacity="0.44" d="M75.0347 47.4682C74.472 46.8909 73.9121 46.3109 73.3602 45.7229C73.056 45.5686 72.7544 45.4116 72.4502 45.2573L48.8727 69.2016C49.4299 71.1916 50.0518 73.1683 50.5418 75.177C52.2755 82.2991 53.8316 89.4584 55.6299 96.5672C55.9314 97.7564 56.2383 98.943 56.5425 100.13C57.4659 100.888 58.3947 101.641 59.3316 102.383C59.4689 102.484 59.6061 102.583 59.7434 102.681L86.3308 75.6798C82.3276 66.3921 78.2356 57.0645 75.0347 47.4682Z" fill="#FBAD4C"/>
<path opacity="0.44" d="M79.6085 59.7915L53.2581 86.7155C54.0254 90.0065 54.8007 93.2922 55.6299 96.5699C55.9314 97.7591 56.2383 98.9483 56.5452 100.138C57.4686 100.896 58.3974 101.646 59.3342 102.386C59.4715 102.487 59.6088 102.585 59.7461 102.684L86.3334 75.6825C84.0586 70.4121 81.7595 65.1284 79.6085 59.7915Z" fill="#F47C4D"/>
<path d="M32.8896 54.8217L49.4865 38.8642C51.1206 37.2919 53.7347 37.3291 55.3257 38.944L55.4819 39.101C55.5007 39.1196 55.5222 39.1356 55.5411 39.1569L120.685 105.318C122.211 106.866 123.067 108.813 123.264 110.809L125.63 132.715L104.015 129.507C103.488 129.475 102.963 129.395 102.448 129.275L102.424 129.272V129.27C100.779 128.879 99.2234 128.043 97.9554 126.756L32.8089 60.5923C31.2205 58.9774 31.2555 56.3941 32.8896 54.8217Z" fill="#FBAD4C"/>
<path d="M37.2132 50.69L45.2411 42.972L9.27713 6.4889C7.57571 4.76225 4.7786 4.72235 3.03142 6.40376L1.33539 8.03464C-0.411791 9.71605 -0.452173 12.4803 1.24924 14.2069L37.2132 50.69Z" fill="#F47C4D"/>
<path d="M2.53338 6.88794L1.33808 8.03726C-0.409106 9.71868 -0.449488 12.4829 1.25193 14.2096L37.2132 50.69L41.4829 46.5849L2.53338 6.88794Z" fill="#FEE750"/>
<path d="M41.4614 46.5796L125.614 132.563L125.63 132.715L104.015 129.507C103.488 129.475 102.963 129.395 102.449 129.275L102.424 129.272V129.27C100.779 128.879 99.2234 128.043 97.9554 126.756L32.8089 60.5923C31.2179 58.9774 31.2556 56.3941 32.8897 54.8217L41.4614 46.5796Z" fill="#F47C4D"/>
<path d="M105.006 100.574C99.1453 112.615 66.2961 126.777 66.2961 126.777C66.2961 126.777 33.4443 112.615 27.5862 100.574C20.156 85.3028 24.0515 32.7956 24.0515 32.7956C24.0515 32.7956 55.5896 25.8092 66.2961 25.8092C77.0027 25.8092 108.541 32.7956 108.541 32.7956C108.541 32.7956 112.439 85.3054 105.006 100.574Z" fill="#6DC9C7"/>
<path d="M104.61 36.8449C104.61 36.8449 104.451 36.8103 104.153 36.7438C104.142 36.7412 104.131 36.7385 104.12 36.7358C104.083 36.7279 104.042 36.7199 104.002 36.7092C103.975 36.7039 103.948 36.6986 103.918 36.6906C103.87 36.68 103.819 36.6693 103.765 36.656C103.741 36.6507 103.717 36.6454 103.692 36.6401C103.657 36.6321 103.62 36.6241 103.582 36.6161C103.531 36.6055 103.477 36.5922 103.423 36.5815C103.383 36.5735 103.34 36.5629 103.297 36.5549C103.251 36.5443 103.202 36.5336 103.154 36.523C103.095 36.5097 103.035 36.4964 102.976 36.4831C102.933 36.4725 102.887 36.4645 102.842 36.4538C102.78 36.4405 102.718 36.4272 102.653 36.4139C102.615 36.4059 102.575 36.398 102.537 36.39C102.457 36.3714 102.37 36.3554 102.287 36.3368C102.247 36.3288 102.206 36.3208 102.166 36.3102C102.074 36.2915 101.98 36.2703 101.883 36.249C101.848 36.241 101.811 36.233 101.773 36.225C101.679 36.2037 101.582 36.1851 101.485 36.1638C101.436 36.1532 101.388 36.1426 101.339 36.1319C101.253 36.1133 101.164 36.0947 101.076 36.076C101.022 36.0654 100.965 36.0521 100.909 36.0415C100.82 36.0228 100.731 36.0042 100.642 35.9856C100.58 35.9723 100.516 35.959 100.451 35.9457C100.354 35.9244 100.254 35.9031 100.152 35.8818C100.104 35.8712 100.055 35.8605 100.007 35.8499C99.8911 35.826 99.7753 35.802 99.6568 35.7754C99.603 35.7648 99.5492 35.7541 99.4953 35.7408C99.3715 35.7142 99.2449 35.6876 99.1157 35.661C99.0646 35.6504 99.0134 35.6397 98.965 35.6291C98.8331 35.6025 98.6984 35.5732 98.5638 35.5466C98.5127 35.536 98.4615 35.5253 98.4104 35.5147C98.2704 35.4854 98.1304 35.4561 97.9877 35.4269C97.942 35.4162 97.8935 35.4083 97.8477 35.3976C97.7104 35.3684 97.5732 35.3417 97.4332 35.3125C97.3928 35.3045 97.3551 35.2965 97.3147 35.2885C97.1693 35.2593 97.0213 35.2273 96.8705 35.1981C96.8247 35.1901 96.7817 35.1795 96.7359 35.1715C96.5824 35.1396 96.4263 35.1076 96.2675 35.0757C96.2109 35.0651 96.1571 35.0544 96.1006 35.0411C95.9471 35.0092 95.7937 34.9799 95.6402 34.948C95.581 34.9347 95.5191 34.9241 95.4598 34.9108C95.3064 34.8788 95.1556 34.8496 94.9995 34.8176C94.9349 34.8043 94.873 34.791 94.8083 34.7804C94.6441 34.7485 94.4799 34.7139 94.3157 34.682C94.2672 34.6713 94.2161 34.6633 94.1676 34.6527C93.9899 34.6181 93.815 34.5809 93.6346 34.5463C93.5915 34.5383 93.5484 34.5303 93.5054 34.5197C93.3465 34.4877 93.185 34.4558 93.0235 34.4239C92.9669 34.4132 92.9104 34.4026 92.8512 34.3893C92.6789 34.3547 92.5093 34.3228 92.3343 34.2882C92.2858 34.2776 92.2374 34.2696 92.1889 34.2589C92.0059 34.2244 91.8201 34.1871 91.637 34.1499C91.5832 34.1392 91.5294 34.1286 91.4755 34.1179C91.2924 34.0833 91.1094 34.0461 90.9236 34.0115C90.8698 34.0009 90.8132 33.9902 90.7594 33.9796C90.5683 33.9423 90.3771 33.9051 90.186 33.8705C90.1375 33.8625 90.0918 33.8519 90.0433 33.8439C89.8468 33.8067 89.6476 33.7694 89.4483 33.7295C89.408 33.7215 89.3676 33.7135 89.3272 33.7056C89.1307 33.6683 88.9341 33.6311 88.7349 33.5938C88.6865 33.5858 88.6407 33.5752 88.5923 33.5672C88.4038 33.5326 88.2127 33.4954 88.0215 33.4608C87.9865 33.4555 87.9515 33.4475 87.9165 33.4422C87.7092 33.4023 87.5019 33.365 87.2947 33.3251C87.2516 33.3171 87.2085 33.3091 87.1627 33.3012C86.9608 33.2639 86.7616 33.2267 86.5597 33.1894C86.5059 33.1788 86.452 33.1708 86.3982 33.1602C86.199 33.1229 85.9997 33.0883 85.8005 33.0511C85.7494 33.0404 85.6982 33.0325 85.6471 33.0245C85.4425 32.9872 85.2406 32.95 85.036 32.9154C84.9902 32.9074 84.9471 32.8994 84.9014 32.8915C84.6914 32.8542 84.4841 32.817 84.2741 32.7797C84.2337 32.7717 84.1933 32.7664 84.153 32.7584C83.9403 32.7212 83.7276 32.6839 83.5149 32.6467C83.4907 32.6414 83.4692 32.6387 83.4449 32.6334C83.2296 32.5961 83.0169 32.5589 82.8015 32.5216C82.7719 32.5163 82.7423 32.511 82.7154 32.5057C82.5 32.4684 82.2846 32.4312 82.0719 32.3939C82.0316 32.386 81.9912 32.3806 81.9508 32.3727C81.7435 32.3381 81.5335 32.3008 81.3262 32.2662C81.2805 32.2583 81.2347 32.2503 81.1916 32.2423C80.987 32.2077 80.7824 32.1731 80.5778 32.1412C80.5321 32.1332 80.4863 32.1252 80.4405 32.1173C80.2332 32.0827 80.0286 32.0481 79.8213 32.0162C79.7837 32.0108 79.746 32.0029 79.7083 31.9975C79.4956 31.9629 79.2829 31.9284 79.0702 31.8938C79.0433 31.8885 79.0137 31.8858 78.9868 31.8805C78.7741 31.8459 78.5587 31.814 78.3488 31.7794C78.3353 31.7767 78.3218 31.7741 78.3084 31.7741C78.0903 31.7395 77.8749 31.7075 77.6596 31.673C77.63 31.6676 77.6004 31.665 77.5707 31.6597C77.3661 31.6277 77.1588 31.5985 76.9569 31.5665C76.9192 31.5612 76.8789 31.5559 76.8412 31.5506C76.642 31.5213 76.4427 31.492 76.2435 31.4628C76.2031 31.4575 76.1654 31.4521 76.1251 31.4468C75.9258 31.4175 75.7293 31.3883 75.5328 31.3617C75.4978 31.3564 75.4628 31.351 75.4278 31.3457C75.2286 31.3165 75.0321 31.2898 74.8355 31.2632C74.8032 31.2579 74.7736 31.2553 74.7413 31.2499C74.5394 31.2233 74.3375 31.1941 74.1383 31.1675C74.1248 31.1648 74.1114 31.1648 74.0952 31.1621C73.8933 31.1355 73.6914 31.1089 73.4922 31.0823C73.4787 31.0797 73.4653 31.0797 73.4518 31.077C73.2526 31.0504 73.0587 31.0265 72.8622 31.0025C72.8353 30.9999 72.8111 30.9972 72.7841 30.9919C72.5984 30.9679 72.4126 30.9466 72.2296 30.9254C72.1973 30.9227 72.165 30.9174 72.1327 30.9147C71.9523 30.8934 71.7746 30.8722 71.5969 30.8535C71.5646 30.8509 71.5323 30.8455 71.5 30.8429C71.3223 30.8243 71.1474 30.8056 70.9751 30.787C70.9481 30.7844 70.9185 30.7817 70.8916 30.779C70.7166 30.7604 70.5416 30.7444 70.3693 30.7258C70.3478 30.7232 70.3289 30.7232 70.3074 30.7205C70.1297 30.7045 69.952 30.6859 69.7771 30.6726C69.769 30.6726 69.7636 30.6726 69.7555 30.67C69.5832 30.654 69.4136 30.6407 69.244 30.6274C69.2306 30.6274 69.2144 30.6247 69.2009 30.6247C69.0367 30.6114 68.8752 30.6008 68.7164 30.5875C68.6948 30.5848 68.6733 30.5848 68.6518 30.5822C68.4983 30.5715 68.3449 30.5609 68.1968 30.5529C68.1726 30.5502 68.151 30.5502 68.1268 30.5476C67.9787 30.5396 67.836 30.5316 67.6934 30.5236C67.6691 30.5236 67.6449 30.521 67.6207 30.521C67.478 30.5156 67.3407 30.5077 67.2034 30.505C67.1846 30.505 67.163 30.505 67.1442 30.5023C67.0042 30.497 66.8696 30.4944 66.735 30.4917C66.7215 30.4917 66.7081 30.4917 66.6946 30.4917C66.5546 30.489 66.42 30.489 66.2881 30.489C64.7697 30.489 62.791 30.6434 60.5323 30.9041C60.3062 30.9307 60.0774 30.9573 59.8458 30.9866C58.5725 31.1409 57.2237 31.3271 55.8211 31.5346C55.5654 31.5719 55.3096 31.6118 55.0539 31.6517C54.4105 31.7501 53.7563 31.8539 53.0967 31.9603C52.8329 32.0029 52.5691 32.0454 52.3025 32.0907C52.1706 32.1119 52.036 32.1332 51.9041 32.1572C51.3711 32.245 50.8353 32.3354 50.2996 32.4285C48.5551 32.7265 46.7945 33.0431 45.0688 33.365C44.5385 33.4635 44.0108 33.5619 43.4886 33.663C43.3566 33.6869 43.2274 33.7135 43.0982 33.7375C34.9034 35.2965 27.9739 36.8316 27.9739 36.8316C27.9739 36.8316 27.0344 49.4928 27.0478 63.6572C27.0613 76.9622 27.9147 91.5948 31.1802 98.3018C31.2367 98.4189 31.2987 98.536 31.3606 98.653C31.374 98.6796 31.3902 98.7089 31.4037 98.7355C31.4656 98.8526 31.5329 98.967 31.6002 99.084C31.6056 99.092 31.6109 99.1 31.6163 99.1106C31.6809 99.2224 31.7509 99.3315 31.8209 99.4432C31.8371 99.4698 31.8532 99.4938 31.8694 99.5204C31.9448 99.6374 32.0228 99.7571 32.1036 99.8742C32.1117 99.8848 32.1198 99.8981 32.1278 99.9088C32.2032 100.021 32.2813 100.132 32.362 100.241C32.3782 100.263 32.3917 100.284 32.4078 100.305C32.4967 100.425 32.5855 100.547 32.6797 100.667C32.6878 100.678 32.6986 100.691 32.7066 100.702C32.7955 100.816 32.887 100.93 32.9785 101.047C32.992 101.063 33.0028 101.077 33.0162 101.093C33.1185 101.218 33.2208 101.343 33.3258 101.465C33.3339 101.476 33.342 101.486 33.3527 101.494C33.4577 101.617 33.5627 101.739 33.6731 101.862C33.6785 101.87 33.6839 101.875 33.692 101.883C33.8077 102.011 33.9235 102.141 34.0419 102.269C34.05 102.277 34.0554 102.285 34.0635 102.293C34.3058 102.553 34.5588 102.811 34.8199 103.072C34.8253 103.077 34.8307 103.083 34.8361 103.088C35.0999 103.351 35.3745 103.615 35.6572 103.876C35.6599 103.878 35.6626 103.881 35.6653 103.884C35.9506 104.15 36.2441 104.413 36.5456 104.679C46.8106 113.669 66.2962 122.068 66.2962 122.068C66.2962 122.068 96.0898 109.223 101.404 98.3045C108.145 84.4674 104.61 36.8449 104.61 36.8449Z" fill="#11497E"/>
<g opacity="0.31">
<path opacity="0.31" d="M53.3067 33.9849C65.7092 45.3292 77.926 56.8623 90.2748 68.2651C95.091 72.7134 99.9502 77.1218 104.877 81.4504C106.503 62.3429 104.61 36.8449 104.61 36.8449C104.61 36.8449 104.451 36.8103 104.153 36.7438C104.142 36.7412 104.131 36.7385 104.12 36.7358C104.083 36.7278 104.042 36.7199 104.002 36.7092C103.975 36.7039 103.948 36.6986 103.918 36.6906C103.87 36.68 103.819 36.6693 103.765 36.6587C103.741 36.6534 103.717 36.648 103.692 36.6427C103.657 36.6347 103.62 36.6267 103.582 36.6188C103.531 36.6081 103.477 36.5948 103.423 36.5842C103.383 36.5762 103.34 36.5656 103.297 36.5576C103.251 36.5469 103.202 36.5363 103.154 36.5257C103.095 36.5123 103.035 36.499 102.976 36.4884C102.933 36.4778 102.887 36.4698 102.842 36.4591C102.78 36.4458 102.718 36.4325 102.653 36.4192C102.615 36.4113 102.575 36.4033 102.537 36.3953C102.457 36.3767 102.37 36.3607 102.287 36.3421C102.247 36.3341 102.206 36.3261 102.166 36.3155C102.074 36.2969 101.98 36.2756 101.883 36.2543C101.848 36.2463 101.81 36.2383 101.773 36.2303C101.679 36.2091 101.582 36.1904 101.485 36.1691C101.436 36.1585 101.388 36.1479 101.339 36.1372C101.253 36.1186 101.164 36.1 101.076 36.0814C101.022 36.0707 100.965 36.0574 100.909 36.0468C100.82 36.0281 100.731 36.0095 100.642 35.9909C100.58 35.9776 100.516 35.9643 100.454 35.951C100.357 35.9297 100.257 35.9084 100.155 35.8871C100.106 35.8765 100.058 35.8659 100.009 35.8552C99.8937 35.8313 99.7779 35.8073 99.6595 35.7807C99.6056 35.7701 99.5518 35.7594 99.498 35.7461C99.3741 35.7195 99.2476 35.6929 99.1184 35.6663C99.0672 35.6557 99.0161 35.645 98.9676 35.6344C98.8357 35.6078 98.7011 35.5785 98.5665 35.5519C98.5153 35.5413 98.4642 35.5306 98.413 35.52C98.273 35.4907 98.1331 35.4615 97.9904 35.4322C97.9446 35.4216 97.8961 35.4136 97.8504 35.4029C97.7131 35.3737 97.5758 35.3471 97.4358 35.3178C97.3954 35.3098 97.3577 35.3018 97.3173 35.2939C97.172 35.2646 97.0239 35.2327 96.8731 35.2034C96.8274 35.1954 96.7843 35.1848 96.7385 35.1768C96.5851 35.1449 96.4289 35.1129 96.2701 35.081C96.2136 35.0704 96.1597 35.0597 96.1032 35.0464C95.9498 35.0145 95.7963 34.9852 95.6428 34.9533C95.5836 34.94 95.5217 34.9294 95.4625 34.9161C95.309 34.8841 95.1583 34.8549 95.0021 34.8229C94.9375 34.8096 94.8756 34.7963 94.811 34.7857C94.6468 34.7538 94.4826 34.7192 94.3183 34.6873C94.2699 34.6766 94.2187 34.6686 94.1703 34.658C93.9926 34.6234 93.8176 34.5862 93.6372 34.5516C93.5942 34.5436 93.5511 34.5356 93.508 34.525C93.3492 34.4931 93.1876 34.4611 93.0261 34.4292C92.9696 34.4186 92.9104 34.4079 92.8538 34.3946C92.6815 34.36 92.5119 34.3281 92.3369 34.2935C92.2885 34.2829 92.24 34.2749 92.1916 34.2642C92.0085 34.2297 91.8227 34.1924 91.6397 34.1552C91.5858 34.1445 91.532 34.1339 91.4781 34.1232C91.2951 34.0887 91.112 34.0514 90.9263 34.0168C90.8724 34.0062 90.8159 33.9955 90.7621 33.9849C90.5709 33.9477 90.3798 33.9104 90.1886 33.8758C90.1402 33.8678 90.0944 33.8572 90.0459 33.8492C89.8494 33.812 89.6502 33.7747 89.451 33.7348C89.4106 33.7268 89.3702 33.7189 89.3298 33.7109C89.1333 33.6736 88.9368 33.6364 88.7376 33.5991C88.6891 33.5912 88.6434 33.5805 88.5949 33.5725C88.4064 33.5379 88.2153 33.5007 88.0242 33.4661C87.9892 33.4608 87.9542 33.4528 87.9192 33.4475C87.7119 33.4076 87.5046 33.3703 87.2973 33.3304C87.2542 33.3224 87.2111 33.3145 87.1654 33.3065C86.9635 33.2692 86.7643 33.232 86.5623 33.1947C86.5085 33.1841 86.4547 33.1761 86.4008 33.1655C86.2016 33.1282 86.0024 33.0936 85.8032 33.0564C85.752 33.0458 85.7009 33.0378 85.6497 33.0271C85.4451 32.9899 85.2432 32.9526 85.0386 32.9181C84.9928 32.9101 84.9498 32.9021 84.904 32.8941C84.694 32.8569 84.4867 32.8196 84.2767 32.7824C84.2364 32.7744 84.196 32.7691 84.1556 32.7611C83.9429 32.7238 83.7302 32.6866 83.5176 32.6493C83.4933 32.644 83.4718 32.6414 83.4476 32.636C83.2322 32.5988 83.0195 32.5615 82.8042 32.5243C82.7745 32.519 82.7449 32.5137 82.718 32.5083C82.5026 32.4711 82.2873 32.4338 82.0746 32.3966C82.0342 32.3886 81.9938 32.3833 81.9535 32.3753C81.7462 32.3407 81.5362 32.3035 81.3289 32.2689C81.2831 32.2609 81.2373 32.2529 81.1916 32.2449C80.987 32.2104 80.7824 32.1758 80.5778 32.1439C80.532 32.1359 80.4862 32.1279 80.4405 32.1199C80.2332 32.0853 80.0286 32.0507 79.8213 32.0188C79.7836 32.0135 79.7459 32.0055 79.7082 32.0002C79.4955 31.9656 79.2829 31.931 79.0702 31.8964C79.0433 31.8911 79.0137 31.8884 78.9867 31.8831C78.7741 31.8485 78.5587 31.8166 78.3487 31.782C78.3352 31.7794 78.3218 31.7767 78.3083 31.7767C78.0903 31.7421 77.8749 31.7102 77.6595 31.6756C77.6299 31.6703 77.6003 31.6676 77.5707 31.6623C77.3661 31.6304 77.1588 31.6011 76.9569 31.5692C76.9192 31.5639 76.8788 31.5585 76.8411 31.5532C76.6419 31.524 76.4427 31.4947 76.2435 31.4654C76.2031 31.4601 76.1654 31.4548 76.125 31.4495C75.9258 31.4202 75.7293 31.3909 75.5328 31.3643C75.4978 31.359 75.4628 31.3537 75.4278 31.3484C75.2285 31.3191 75.032 31.2925 74.8355 31.2659C74.8032 31.2606 74.7736 31.2579 74.7413 31.2526C74.5394 31.226 74.3375 31.1967 74.1382 31.1701C74.1248 31.1675 74.1086 31.1675 74.0952 31.1648C73.8933 31.1382 73.6913 31.1116 73.4921 31.085C73.4787 31.0823 73.4652 31.0823 73.4517 31.0797C73.2525 31.0531 73.0587 31.0291 72.8622 31.0052C72.8353 31.0025 72.811 30.9998 72.7841 30.9945C72.5983 30.9706 72.4126 30.9493 72.2295 30.928C72.1972 30.9254 72.1649 30.92 72.1326 30.9174C71.9522 30.8961 71.7746 30.8775 71.5969 30.8562C71.5646 30.8535 71.5323 30.8482 71.5 30.8455C71.3223 30.8269 71.1473 30.8083 70.975 30.7897C70.9481 30.787 70.9185 30.7844 70.8915 30.7817C70.7166 30.7631 70.5416 30.7471 70.3693 30.7285C70.3477 30.7258 70.3289 30.7258 70.3074 30.7232C70.1297 30.7072 69.952 30.6886 69.777 30.6753C69.7689 30.6753 69.7635 30.6753 69.7555 30.6726C69.5832 30.6566 69.4136 30.6433 69.244 30.63C69.2305 30.63 69.2144 30.6274 69.2009 30.6274C69.0367 30.6141 68.8752 30.6034 68.7163 30.5901C68.6948 30.5875 68.6732 30.5875 68.6517 30.5848C68.4983 30.5742 68.3448 30.5635 68.1967 30.5556C68.1725 30.5529 68.151 30.5529 68.1267 30.5502C67.9787 30.5422 67.836 30.5343 67.6933 30.5263C67.6691 30.5263 67.6449 30.5236 67.6206 30.5236C67.4779 30.5183 67.3406 30.5103 67.2034 30.5077C67.1845 30.5077 67.163 30.5077 67.1441 30.505C67.0041 30.4997 66.8695 30.497 66.7349 30.4944C66.7215 30.4944 66.708 30.4944 66.6945 30.4944C66.5546 30.4917 66.4199 30.4917 66.288 30.4917C64.7697 30.4917 62.791 30.646 60.5323 30.9067C60.3062 30.9333 60.0773 30.9599 59.8458 30.9892C58.5724 31.1435 57.2237 31.3297 55.8211 31.5373C55.5653 31.5745 55.3096 31.6144 55.0538 31.6543C54.4104 31.7528 53.7562 31.8565 53.0967 31.9629C52.8328 32.0055 52.569 32.0481 52.3025 32.0933C52.1706 32.1146 52.036 32.1359 51.9041 32.1598C51.7372 32.1864 51.5675 32.2157 51.4006 32.2449C52.0414 32.8329 52.674 33.4076 53.3067 33.9849Z" fill="#11497E"/>
</g>
<g opacity="0.31">
<path opacity="0.31" d="M51.5245 78.045C44.7969 71.7343 38.0128 65.4902 31.2017 59.2674C29.8503 58.0329 28.4989 56.7958 27.142 55.5613C27.0855 58.15 27.0505 60.8796 27.0532 63.6704C27.0666 76.9755 27.92 91.6081 31.1856 98.3152C31.2421 98.4322 31.304 98.5493 31.366 98.6663C31.3794 98.6929 31.3956 98.7222 31.409 98.7488C31.4709 98.8659 31.5382 98.9803 31.6056 99.0973C31.6109 99.1053 31.6163 99.1133 31.6217 99.1239C31.6863 99.2357 31.7563 99.3447 31.8263 99.4565C31.8425 99.4831 31.8586 99.507 31.8748 99.5336C31.9501 99.6507 32.0282 99.7704 32.109 99.8875C32.1171 99.8981 32.1251 99.9114 32.1332 99.9221C32.2086 100.034 32.2867 100.146 32.3674 100.255C32.3836 100.276 32.397 100.297 32.4132 100.318C32.502 100.438 32.5909 100.561 32.6851 100.68C32.6932 100.691 32.7039 100.704 32.712 100.715C32.8008 100.829 32.8924 100.944 32.9839 101.061C32.9974 101.077 33.0081 101.09 33.0216 101.106C33.1239 101.231 33.2262 101.356 33.3312 101.478C33.3393 101.489 33.3473 101.5 33.3581 101.508C33.4631 101.63 33.5681 101.752 33.6785 101.875C33.6839 101.883 33.6892 101.888 33.6973 101.896C33.8131 102.024 33.9288 102.154 34.0473 102.282C34.0554 102.29 34.0608 102.298 34.0688 102.306C34.3111 102.567 34.5642 102.827 34.8253 103.085C34.8307 103.091 34.8361 103.096 34.8415 103.101C35.1053 103.365 35.3799 103.628 35.6626 103.889C35.6653 103.892 35.6679 103.894 35.6706 103.897C35.956 104.163 36.2494 104.426 36.551 104.692C46.816 113.682 66.3015 122.081 66.3015 122.081C66.3015 122.081 77.6811 117.175 87.6311 110.849C75.234 100.308 63.3806 89.1658 51.5245 78.045Z" fill="#11497E"/>
</g>
<path d="M66.1077 39.4788L64.9205 42.0195C64.627 42.6447 64.2609 43.2327 63.8248 43.7648C62.8018 44.8103 61.5499 45.8187 59.4474 46.2337L55.8911 46.9361V60.007H61.2888V102.684H78.2357V39.4788H66.1077Z" fill="#0D3F65"/>
<path d="M62.756 36.1691L61.5688 38.7099C61.2753 39.3351 60.9092 39.9231 60.4731 40.4552C59.4501 41.5007 58.1983 42.509 56.0957 42.9241L52.5394 43.6264V56.6973H57.9371V99.374H74.884V36.1691H62.756Z" fill="#F89924"/>
<path d="M65.4966 42.7325C67.7337 40.5562 69.9547 38.3667 72.1676 36.1691H62.756L61.5688 38.7099C61.2753 39.3351 60.9092 39.9231 60.4731 40.4552C59.4501 41.5007 58.1983 42.509 56.0957 42.9241L52.5394 43.6264V54.9255C56.9114 50.9161 61.2457 46.8669 65.4966 42.7325Z" fill="#F47C4D"/>
<path d="M61.6226 77.622C60.395 78.7314 59.1674 79.8381 57.9398 80.9476V99.3767H74.8866V65.3811C70.5092 69.5022 66.0888 73.5834 61.6226 77.622Z" fill="#F47C4D"/>
<path d="M66.4145 143.533C75.7814 143.533 83.3748 136.028 83.3748 126.772C83.3748 117.515 75.7814 110.011 66.4145 110.011C57.0476 110.011 49.4542 117.515 49.4542 126.772C49.4542 136.028 57.0476 143.533 66.4145 143.533Z" fill="#FBAD4C"/>
<path d="M77.6352 139.334C77.9206 139.084 78.2005 138.829 78.4725 138.557C85.0574 131.975 84.9981 121.363 78.3378 114.855C71.6802 108.348 60.9468 108.406 54.3619 114.98L77.6352 139.334Z" fill="#F47C4D"/>
<path opacity="0.53" d="M62.8076 116.257L55.8505 123.208L57.3569 124.681L64.314 117.729L62.8076 116.257Z" fill="#CD644A"/>
<path opacity="0.53" d="M69.2121 122.519L62.255 129.471L63.7614 130.943L70.7185 123.991L69.2121 122.519Z" fill="#CD644A"/>
<path opacity="0.53" d="M75.6185 128.779L68.6614 135.731L70.1678 137.203L77.1249 130.252L75.6185 128.779Z" fill="#CD644A"/>
<path d="M62.8076 116.257L55.8505 123.208L57.3569 124.681L64.314 117.729L62.8076 116.257Z" fill="#F47C4D"/>
<path d="M69.2121 122.519L62.255 129.471L63.7614 130.943L70.7185 123.991L69.2121 122.519Z" fill="#F47C4D"/>
<path d="M75.6185 128.779L68.6614 135.731L70.1678 137.203L77.1249 130.252L75.6185 128.779Z" fill="#F47C4D"/>
<path d="M74.5473 141.473C75.9876 140.704 77.339 139.717 78.5478 138.507C79.7592 137.296 80.7419 135.95 81.5037 134.521L77.1263 130.243L70.1699 137.195L74.5473 141.473Z" fill="#FEE750"/>
<path d="M70.7204 123.993L63.7633 130.944L68.6615 135.732L75.6186 128.78L70.7204 123.993Z" fill="#FEE750"/>
<path d="M64.3121 117.73L57.355 124.682L62.2532 129.469L69.2103 122.518L64.3121 117.73Z" fill="#FEE750"/>
<path d="M55.8506 123.201L62.807 116.249L58.4296 111.971C56.9893 112.74 55.6379 113.727 54.4291 114.938C53.2177 116.148 52.2351 117.494 51.4732 118.923L55.8506 123.201Z" fill="#FEE750"/>
<path d="M12.7607 161.994V159.277H10.0147V174.21H12.7607V171.494H19.6283V175.567C19.6283 179.188 17.7976 180.997 14.1337 180.997H8.63908C4.97511 180.997 3.14447 179.188 3.14447 175.567V157.92C3.14447 154.299 4.97511 152.49 8.63908 152.49H14.1337C17.7976 152.49 19.6283 154.299 19.6283 157.92V161.994H12.7607Z" fill="#11497E"/>
<path d="M33.1992 152.493C36.8632 152.493 38.6938 154.302 38.6938 157.923V163.353C38.6938 166.974 37.7785 168.783 35.9479 168.783L38.6938 181H31.8263L29.0803 170.14V181H22.21V155.207L19.4614 152.493H33.1992ZM31.8263 163.35V159.277H29.0803V163.35H31.8263Z" fill="#11497E"/>
<path d="M48.1459 152.493V181H41.2783V155.207L38.5297 152.493H48.1459Z" fill="#11497E"/>
<path d="M61.3722 161.994V159.277H58.6263V174.21H61.3722V171.494H68.2398V175.567C68.2398 179.188 66.4092 180.997 62.7452 180.997H57.2506C53.5866 180.997 51.756 179.188 51.756 175.567V157.92C51.756 154.299 53.5866 152.49 57.2506 152.49H62.7452C66.4092 152.49 68.2398 154.299 68.2398 157.92V161.994H61.3722Z" fill="#11497E"/>
<path d="M76.2919 175.203C76.9595 175.863 77.2934 176.663 77.2934 177.605C77.2934 178.547 76.9595 179.348 76.2919 180.008C75.6243 180.667 74.8139 180.997 73.8609 180.997C72.9079 180.997 72.0976 180.667 71.4299 180.008C70.7623 179.348 70.4285 178.547 70.4285 177.605C70.4285 176.663 70.7623 175.863 71.4299 175.203C72.0976 174.543 72.9079 174.213 73.8609 174.213C74.8112 174.21 75.6243 174.543 76.2919 175.203Z" fill="#11497E"/>
<path d="M79.4794 175.57V157.923C79.4794 154.302 81.31 152.493 84.974 152.493H90.4686C94.1325 152.493 95.9632 154.302 95.9632 157.923V175.57C95.9632 179.191 94.1325 181 90.4686 181H84.974C81.31 181 79.4794 179.188 79.4794 175.57ZM86.3469 159.28V174.213H89.0929V159.28H86.3469Z" fill="#11497E"/>
<path d="M104.04 152.493L108.161 163.353V152.493H115.029V181H109.534L105.412 170.14V181H98.5449V155.207L95.7963 152.493H104.04Z" fill="#11497E"/>
<path d="M131.416 152.493V159.28H124.548V163.353H131.416L124.548 170.14V174.213H131.416V181H117.68V155.207L114.932 152.493H131.416Z" fill="#11497E"/>
<g opacity="0.31">
<g opacity="0.31">
<g opacity="0.31">
<path opacity="0.31" d="M12.7607 161.994V159.277H10.0147V174.21H12.7607V171.494H19.6283V175.567C19.6283 179.188 17.7976 180.997 14.1337 180.997H8.63908C4.97511 180.997 3.14447 179.188 3.14447 175.567V157.92C3.14447 154.299 4.97511 152.49 8.63908 152.49H14.1337C17.7976 152.49 19.6283 154.299 19.6283 157.92V161.994H12.7607Z" fill="#11497E"/>
</g>
<g opacity="0.31">
<path opacity="0.31" d="M38.6858 163.787C34.8549 161.118 31.0456 158.418 27.2712 155.68C25.8229 154.629 24.3718 153.57 22.9262 152.493H19.4641L22.2128 155.207V181H29.0803V170.14L31.8263 181H38.6939L35.9479 168.783C37.7032 168.783 38.6158 167.112 38.6858 163.787ZM31.8263 163.35H29.0803V159.277H31.8263V163.35Z" fill="#11497E"/>
</g>
<g opacity="0.31">
<path opacity="0.31" d="M46.9371 169.467C45.0445 168.182 43.1601 166.886 41.2756 165.585V180.997H48.1432V170.276C47.7447 170.007 47.3382 169.738 46.9371 169.467Z" fill="#11497E"/>
</g>
<g opacity="0.31">
<path opacity="0.31" d="M51.7586 172.705V175.57C51.7586 179.191 53.5892 181 57.2532 181H62.7478C63.3293 181 63.8597 180.949 64.3496 180.859C60.1176 178.191 55.9206 175.474 51.7586 172.705Z" fill="#11497E"/>
</g>
<g opacity="0.31">
<path opacity="0.31" d="M87.8088 159.28H89.0929V160.065C91.3731 161.445 93.6641 162.808 95.9605 164.159V157.92C95.9605 154.299 94.1298 152.49 90.4659 152.49H84.9713C82.6857 152.49 81.1135 153.195 80.2547 154.605C82.7611 156.183 85.2809 157.739 87.8088 159.28Z" fill="#11497E"/>
</g>
<g opacity="0.31">
<path opacity="0.31" d="M98.545 165.676C103.988 168.842 109.486 171.917 115.029 174.913V152.493H108.161V163.353L104.04 152.493H95.799L98.5477 155.207V165.676H98.545Z" fill="#11497E"/>
</g>
<g opacity="0.31">
<path opacity="0.31" d="M117.68 176.344C120.634 177.922 123.603 179.47 126.583 181H131.416V174.213H124.548V170.14L131.416 163.353H124.548V159.28H131.416V152.493H114.932L117.68 155.207V176.344Z" fill="#11497E"/>
</g>
</g>
</g>
</g>
<defs>
<clipPath id="clip0">
<rect width="134" height="181" fill="white"/>
</clipPath>
</defs>
</svg>
