<svg width="68" height="91" viewBox="0 0 68 91" fill="none" xmlns="http://www.w3.org/2000/svg">
<g clip-path="url(#clip0)">
<path d="M36.7876 3.34258L45.8479 9.88872C46.3794 10.2726 47.1266 10.1616 47.5187 9.64261L48.4477 8.41069C48.8398 7.89037 48.7264 7.15871 48.1963 6.77482L39.1347 0.228679C38.6032 -0.155208 37.856 -0.0441882 37.4639 0.474795L36.5349 1.70671C36.1442 2.22703 36.2562 2.95869 36.7876 3.34258Z" fill="#F47C4D"/>
<path d="M39.2974 0.345142L41.6198 2.02381C41.1102 2.56018 40.6772 3.16076 40.3206 3.8242C39.9682 4.27363 39.6703 4.74847 39.4217 5.24606L36.9503 3.46038C36.3301 3.01229 36.1976 2.15623 36.6566 1.54897L37.3465 0.634061C37.8028 0.0267967 38.6771 -0.102949 39.2974 0.345142Z" fill="#F47C4D"/>
<path d="M40.0664 8.27692L41.8738 9.58241C42.6033 10.1094 43.6293 9.95693 44.1676 9.244L47.0706 5.39309C47.6089 4.67882 47.4532 3.67429 46.725 3.14728L44.9176 1.8418L40.0664 8.27692Z" fill="#11497E"/>
<path d="M38.2589 6.97153L40.0663 8.27702L44.9175 1.84056L43.1101 0.535071C42.3806 0.00806229 41.3546 0.160547 40.8163 0.87348L37.9133 4.72439C37.375 5.43866 37.5294 6.44453 38.2589 6.97153Z" fill="#F1624E"/>
<path d="M42.8438 0.342501L43.3111 0.679573L38.4612 7.11604L37.994 6.77897C37.412 6.35897 37.2877 5.55508 37.7181 4.98526L41.0118 0.614031C41.4422 0.0442195 42.2619 -0.0775009 42.8438 0.342501Z" fill="#F78D1E"/>
<path d="M30.4979 3.34258L21.4376 9.88872C20.9062 10.2726 20.1589 10.1616 19.7668 9.64261L18.8378 8.41069C18.4457 7.89037 18.5591 7.15871 19.0892 6.77482L28.1495 0.228679C28.6809 -0.155208 29.4282 -0.0441882 29.8203 0.474795L30.7492 1.70671C31.1413 2.22703 31.0279 2.95869 30.4979 3.34258Z" fill="#F47C4D"/>
<path d="M27.9882 0.345142L25.6658 2.02381C26.1753 2.56018 26.6084 3.16076 26.965 3.8242C27.3174 4.27363 27.6153 4.74847 27.8639 5.24606L30.3353 3.46038C30.9555 3.01229 31.088 2.15623 30.629 1.54897L29.9391 0.634061C29.4828 0.0267967 28.6084 -0.102949 27.9882 0.345142Z" fill="#F47C4D"/>
<path d="M27.2191 8.27692L25.4117 9.58241C24.6822 10.1094 23.6562 9.95693 23.1179 9.244L20.2149 5.39309C19.6766 4.67882 19.8323 3.67429 20.5605 3.14728L22.3679 1.8418L27.2191 8.27692Z" fill="#11497E"/>
<path d="M29.0265 6.97153L27.2191 8.27702L22.3679 1.84056L24.1753 0.535071C24.9049 0.00806229 25.9308 0.160547 26.4691 0.87348L29.3722 4.72573C29.9104 5.43866 29.7547 6.44453 29.0265 6.97153Z" fill="#F1624E"/>
<path d="M24.4418 0.342501L23.9746 0.679573L28.8258 7.11737L29.293 6.7803C29.875 6.3603 29.9993 5.55641 29.569 4.9866L26.2725 0.614031C25.8435 0.0442195 25.0238 -0.0775008 24.4418 0.342501Z" fill="#F78D1E"/>
<path d="M51.3084 27.5621L42.8861 19.5393C42.0568 18.7488 40.7303 18.7675 39.9229 19.5794L39.8437 19.6583C39.8341 19.6677 39.8232 19.6757 39.8136 19.6864L6.75693 52.9495C5.98232 53.728 5.54789 54.7071 5.44816 55.7103L4.24731 66.724L15.2161 65.1109C15.4839 65.0948 15.7503 65.0547 16.0112 64.9945L16.0235 64.9932V64.9918C16.8582 64.7952 17.6479 64.3752 18.2913 63.7278L51.3494 30.4647C52.1568 29.6515 52.139 28.3527 51.3084 27.5621Z" fill="#FBAD4C"/>
<path d="M49.1156 25.485L45.0417 21.6046L63.2908 3.26231C64.1542 2.39421 65.5736 2.37415 66.4602 3.2195L67.3209 4.03944C68.2075 4.8848 68.228 6.27455 67.3646 7.14264L49.1156 25.485Z" fill="#F47C4D"/>
<path d="M66.7142 3.46289L67.3207 4.04073C68.2074 4.88608 68.2279 6.27583 67.3645 7.14393L49.1154 25.4849L46.9487 23.421L66.7142 3.46289Z" fill="#FEE750"/>
<path d="M46.9599 23.4185L4.25551 66.6479L4.24731 66.7242L15.2161 65.111C15.4839 65.095 15.7503 65.0548 16.0112 64.9947L16.0235 64.9933V64.992C16.8582 64.7954 17.6479 64.3753 18.2913 63.728L51.3494 30.4649C52.1567 29.6529 52.1376 28.3542 51.3084 27.5636L46.9599 23.4185Z" fill="#F47C4D"/>
<path opacity="0.44" d="M42.0718 27.5502C40.3668 26.123 38.752 24.5982 37.2274 22.9877C37.073 22.9102 36.92 22.8312 36.7657 22.7537L18.6628 40.9689C19.7913 42.162 20.9498 43.3297 22.126 44.476C24.6589 46.9452 27.316 49.2913 30.1098 51.4743C30.1795 51.5251 30.2491 51.5746 30.3188 51.6241L49.0487 32.7775C46.6128 31.1845 44.289 29.4068 42.0718 27.5502Z" fill="#FBAD4C"/>
<path opacity="0.44" d="M42.5145 27.918L24.2068 46.4502C26.1044 48.2011 28.0703 49.8811 30.1085 51.4742C30.1782 51.525 30.2479 51.5745 30.3176 51.624L49.0474 32.7774C46.7742 31.29 44.5993 29.6408 42.5145 27.918Z" fill="#F47C4D"/>
<path opacity="0.44" d="M38.0773 23.8652C37.7917 23.5749 37.5076 23.2833 37.2275 22.9877C37.0731 22.9102 36.9201 22.8312 36.7658 22.7537L24.801 34.7919C25.0838 35.7924 25.3994 36.7863 25.648 37.7961C26.5278 41.3769 27.3175 44.9763 28.2301 48.5503C28.3831 49.1482 28.5388 49.7448 28.6932 50.3414C29.1618 50.7226 29.6331 51.1011 30.1085 51.4743C30.1782 51.5251 30.2479 51.5746 30.3175 51.6241L43.8096 38.0489C41.7782 33.3794 39.7016 28.6899 38.0773 23.8652Z" fill="#FBAD4C"/>
<path opacity="0.44" d="M40.3982 30.0608L27.0264 43.5972C27.4157 45.2517 27.8092 46.9037 28.2299 48.5516C28.383 49.1495 28.5387 49.7474 28.6944 50.3453C29.163 50.7265 29.6343 51.1037 30.1098 51.4755C30.1794 51.5264 30.2491 51.5758 30.3188 51.6253L43.8109 38.0502C42.6565 35.4004 41.4898 32.744 40.3982 30.0608Z" fill="#F47C4D"/>
<path d="M16.6903 27.5621L25.1126 19.5393C25.9419 18.7488 27.2684 18.7675 28.0758 19.5794L28.155 19.6583C28.1646 19.6677 28.1755 19.6757 28.1851 19.6864L61.2431 52.9495C62.0177 53.728 62.4522 54.7071 62.5519 55.7103L63.7527 66.724L52.7839 65.1109C52.5162 65.0948 52.2498 65.0547 51.9888 64.9945L51.9765 64.9932V64.9918C51.1418 64.7952 50.3522 64.3752 49.7087 63.7278L16.6493 30.4634C15.8433 29.6515 15.8611 28.3527 16.6903 27.5621Z" fill="#FBAD4C"/>
<path d="M18.8843 25.485L22.9581 21.6046L4.70775 3.26231C3.84434 2.39421 2.42491 2.37415 1.53828 3.2195L0.67761 4.03944C-0.20902 4.8848 -0.229512 6.27455 0.633893 7.14264L18.8843 25.485Z" fill="#F47C4D"/>
<path d="M1.28564 3.46289L0.679075 4.04073C-0.207555 4.88608 -0.228047 6.27583 0.635358 7.14393L18.8844 25.4849L21.0511 23.421L1.28564 3.46289Z" fill="#FEE750"/>
<path d="M21.0402 23.4185L63.7446 66.6479L63.7528 66.7242L52.784 65.111C52.5162 65.095 52.2498 65.0548 51.9889 64.9947L51.9766 64.9933V64.992C51.1419 64.7954 50.3522 64.3753 49.7088 63.728L16.6494 30.4635C15.842 29.6516 15.8611 28.3528 16.6903 27.5623L21.0402 23.4185Z" fill="#F47C4D"/>
<path d="M53.2866 50.5647C50.3125 56.6186 33.6428 63.7386 33.6428 63.7386C33.6428 63.7386 16.9717 56.6186 13.9989 50.5647C10.2283 42.8869 12.2052 16.4883 12.2052 16.4883C12.2052 16.4883 28.2096 12.9758 33.6428 12.9758C39.0759 12.9758 55.0803 16.4883 55.0803 16.4883C55.0803 16.4883 57.0585 42.8883 53.2866 50.5647Z" fill="#6DC9C7"/>
<path d="M53.0857 18.5241C53.0857 18.5241 53.0051 18.5067 52.8535 18.4733C52.848 18.4719 52.8426 18.4706 52.8371 18.4693C52.818 18.4653 52.7975 18.4612 52.777 18.4559C52.7633 18.4532 52.7497 18.4505 52.7346 18.4465C52.7101 18.4412 52.6841 18.4358 52.6568 18.4291C52.6445 18.4265 52.6322 18.4238 52.6199 18.4211C52.6021 18.4171 52.583 18.4131 52.5639 18.4091C52.5379 18.4037 52.5106 18.397 52.4833 18.3917C52.4628 18.3877 52.4409 18.3823 52.4191 18.3783C52.3958 18.373 52.3713 18.3676 52.3467 18.3623C52.3166 18.3556 52.2866 18.3489 52.2565 18.3422C52.2346 18.3368 52.2114 18.3328 52.1882 18.3275C52.1568 18.3208 52.1253 18.3141 52.0926 18.3074C52.0734 18.3034 52.0529 18.2994 52.0338 18.2954C51.9928 18.286 51.9491 18.278 51.9068 18.2686C51.8863 18.2646 51.8658 18.2606 51.8453 18.2553C51.7988 18.2459 51.751 18.2352 51.7018 18.2245C51.6841 18.2205 51.665 18.2165 51.6458 18.2125C51.598 18.2017 51.5488 18.1924 51.4996 18.1817C51.4751 18.1763 51.4505 18.171 51.4259 18.1656C51.3822 18.1563 51.3371 18.1469 51.292 18.1375C51.2647 18.1322 51.236 18.1255 51.2073 18.1202C51.1622 18.1108 51.1171 18.1014 51.072 18.0921C51.0406 18.0854 51.0078 18.0787 50.975 18.072C50.9259 18.0613 50.8753 18.0506 50.8234 18.0399C50.7988 18.0346 50.7742 18.0292 50.7496 18.0239C50.6909 18.0118 50.6321 17.9998 50.572 17.9864C50.5447 17.981 50.5174 17.9757 50.4901 17.969C50.4272 17.9556 50.363 17.9423 50.2974 17.9289C50.2715 17.9235 50.2455 17.9182 50.2209 17.9128C50.154 17.8995 50.0857 17.8847 50.0174 17.8714C49.9914 17.866 49.9655 17.8607 49.9395 17.8553C49.8685 17.8406 49.7974 17.8259 49.725 17.8112C49.7018 17.8058 49.6772 17.8018 49.654 17.7965C49.5843 17.7817 49.5146 17.7684 49.4436 17.7537C49.4231 17.7496 49.404 17.7456 49.3835 17.7416C49.3097 17.7269 49.2346 17.7109 49.1581 17.6961C49.1348 17.6921 49.113 17.6868 49.0898 17.6828C49.0119 17.6667 48.9327 17.6507 48.8521 17.6346C48.8234 17.6293 48.796 17.6239 48.7674 17.6172C48.6895 17.6012 48.6116 17.5865 48.5337 17.5704C48.5037 17.5637 48.4723 17.5584 48.4422 17.5517C48.3643 17.5356 48.2878 17.5209 48.2086 17.5049C48.1758 17.4982 48.1444 17.4915 48.1116 17.4861C48.0283 17.4701 47.9449 17.4527 47.8616 17.4366C47.837 17.4313 47.8111 17.4273 47.7865 17.4219C47.6963 17.4045 47.6075 17.3858 47.516 17.3684C47.4941 17.3644 47.4722 17.3604 47.4504 17.3551C47.3698 17.339 47.2878 17.323 47.2058 17.3069C47.1772 17.3016 47.1485 17.2962 47.1184 17.2895C47.031 17.2721 46.9449 17.2561 46.8561 17.2387C46.8315 17.2333 46.8069 17.2293 46.7823 17.224C46.6894 17.2066 46.5952 17.1879 46.5023 17.1691C46.475 17.1638 46.4476 17.1584 46.4203 17.1531C46.3274 17.1357 46.2345 17.117 46.1403 17.0996C46.1129 17.0942 46.0842 17.0889 46.0569 17.0835C45.9599 17.0648 45.8629 17.0461 45.7659 17.0287C45.7413 17.0247 45.7181 17.0193 45.6935 17.0153C45.5938 16.9966 45.4927 16.9779 45.3916 16.9578C45.3711 16.9538 45.3506 16.9498 45.3301 16.9458C45.2304 16.927 45.1307 16.9083 45.0296 16.8896C45.005 16.8856 44.9818 16.8802 44.9572 16.8762C44.8615 16.8588 44.7645 16.8401 44.6675 16.8227C44.6498 16.82 44.632 16.816 44.6143 16.8133C44.5091 16.7933 44.4039 16.7745 44.2987 16.7545C44.2768 16.7505 44.255 16.7465 44.2317 16.7424C44.1293 16.7237 44.0282 16.705 43.9257 16.6863C43.8984 16.6809 43.8711 16.6769 43.8438 16.6716C43.7427 16.6528 43.6416 16.6354 43.5405 16.6167C43.5145 16.6114 43.4886 16.6073 43.4626 16.6033C43.3588 16.5846 43.2563 16.5659 43.1525 16.5485C43.1293 16.5445 43.1074 16.5405 43.0842 16.5365C42.9776 16.5177 42.8724 16.499 42.7659 16.4803C42.7454 16.4763 42.7249 16.4736 42.7044 16.4696C42.5965 16.4508 42.4885 16.4321 42.3806 16.4134C42.3683 16.4107 42.3574 16.4094 42.3451 16.4067C42.2358 16.388 42.1279 16.3693 42.0186 16.3505C42.0036 16.3479 41.9885 16.3452 41.9749 16.3425C41.8656 16.3238 41.7563 16.3051 41.6484 16.2863C41.6279 16.2823 41.6074 16.2796 41.5869 16.2756C41.4817 16.2582 41.3751 16.2395 41.2699 16.2221C41.2467 16.2181 41.2235 16.2141 41.2016 16.2101C41.0978 16.1927 40.994 16.1753 40.8901 16.1593C40.8669 16.1552 40.8437 16.1512 40.8205 16.1472C40.7153 16.1298 40.6115 16.1124 40.5063 16.0964C40.4871 16.0937 40.468 16.0897 40.4489 16.087C40.341 16.0696 40.233 16.0522 40.1251 16.0349C40.1114 16.0322 40.0964 16.0308 40.0828 16.0282C39.9748 16.0108 39.8655 15.9947 39.759 15.9773C39.7521 15.976 39.7453 15.9747 39.7385 15.9747C39.6278 15.9573 39.5185 15.9412 39.4092 15.9238C39.3942 15.9212 39.3792 15.9198 39.3642 15.9172C39.2603 15.9011 39.1551 15.8864 39.0527 15.8703C39.0335 15.8677 39.0131 15.865 38.9939 15.8623C38.8928 15.8476 38.7917 15.8329 38.6906 15.8182C38.6702 15.8155 38.651 15.8128 38.6305 15.8101C38.5294 15.7954 38.4297 15.7807 38.33 15.7673C38.3122 15.7647 38.2945 15.762 38.2767 15.7593C38.1756 15.7446 38.0759 15.7312 37.9762 15.7179C37.9598 15.7152 37.9447 15.7138 37.9283 15.7112C37.8259 15.6978 37.7234 15.6831 37.6223 15.6697C37.6155 15.6684 37.6087 15.6684 37.6005 15.667C37.498 15.6536 37.3955 15.6403 37.2944 15.6269C37.2876 15.6256 37.2808 15.6256 37.274 15.6242C37.1729 15.6108 37.0745 15.5988 36.9748 15.5868C36.9611 15.5854 36.9488 15.5841 36.9351 15.5814C36.8409 15.5694 36.7466 15.5587 36.6537 15.548C36.6373 15.5466 36.6209 15.544 36.6045 15.5426C36.513 15.5319 36.4228 15.5212 36.3327 15.5119C36.3163 15.5105 36.2999 15.5079 36.2835 15.5065C36.1933 15.4971 36.1045 15.4878 36.0171 15.4784C36.0034 15.4771 35.9884 15.4757 35.9747 15.4744C35.8859 15.465 35.7971 15.457 35.7097 15.4477C35.6988 15.4463 35.6892 15.4463 35.6783 15.445C35.5881 15.437 35.498 15.4276 35.4092 15.4209C35.4051 15.4209 35.4023 15.4209 35.3982 15.4196C35.3108 15.4115 35.2247 15.4049 35.1387 15.3982C35.1318 15.3982 35.1236 15.3968 35.1168 15.3968C35.0335 15.3901 34.9515 15.3848 34.8709 15.3781C34.86 15.3768 34.849 15.3768 34.8381 15.3754C34.7602 15.3701 34.6824 15.3647 34.6072 15.3607C34.5949 15.3594 34.584 15.3594 34.5717 15.358C34.4966 15.354 34.4242 15.35 34.3518 15.346C34.3395 15.346 34.3272 15.3447 34.3149 15.3447C34.2425 15.342 34.1728 15.338 34.1031 15.3366C34.0936 15.3366 34.0826 15.3366 34.0731 15.3353C34.002 15.3326 33.9337 15.3313 33.8654 15.33C33.8586 15.33 33.8518 15.33 33.8449 15.33C33.7739 15.3286 33.7056 15.3286 33.6386 15.3286C32.8681 15.3286 31.864 15.4062 30.7178 15.5373C30.6031 15.5507 30.4869 15.564 30.3694 15.5787C29.7233 15.6563 29.0388 15.75 28.327 15.8543C28.1973 15.873 28.0675 15.8931 27.9377 15.9131C27.6112 15.9626 27.2792 16.0148 26.9445 16.0683C26.8106 16.0897 26.6767 16.1111 26.5415 16.1338C26.4746 16.1445 26.4062 16.1552 26.3393 16.1673C26.0688 16.2114 25.7969 16.2569 25.5251 16.3037C24.6398 16.4535 23.7464 16.6127 22.8707 16.7745C22.6015 16.824 22.3338 16.8735 22.0687 16.9244C22.0018 16.9364 21.9362 16.9498 21.8706 16.9618C17.7121 17.7456 14.1956 18.5174 14.1956 18.5174C14.1956 18.5174 13.7188 24.883 13.7257 32.0043C13.7325 38.6936 14.1656 46.0503 15.8227 49.4224C15.8514 49.4812 15.8828 49.5401 15.9142 49.5989C15.9211 49.6123 15.9293 49.627 15.9361 49.6404C15.9675 49.6992 16.0017 49.7568 16.0358 49.8156C16.0385 49.8196 16.0413 49.8236 16.044 49.829C16.0768 49.8852 16.1123 49.94 16.1478 49.9962C16.156 50.0096 16.1642 50.0216 16.1724 50.035C16.2107 50.0938 16.2503 50.154 16.2913 50.2129C16.2954 50.2182 16.2995 50.2249 16.3036 50.2303C16.3418 50.2864 16.3814 50.3426 16.4224 50.3975C16.4306 50.4082 16.4375 50.4189 16.4457 50.4296C16.4907 50.4897 16.5358 50.5513 16.5836 50.6115C16.5877 50.6168 16.5932 50.6235 16.5973 50.6289C16.6424 50.6864 16.6888 50.7439 16.7353 50.8027C16.7421 50.8108 16.7476 50.8175 16.7544 50.8255C16.8063 50.8884 16.8582 50.9512 16.9115 51.0127C16.9156 51.0181 16.9197 51.0234 16.9252 51.0275C16.9785 51.089 17.0317 51.1505 17.0877 51.212C17.0905 51.2161 17.0932 51.2187 17.0973 51.2227C17.1561 51.287 17.2148 51.3525 17.2749 51.4167C17.279 51.4207 17.2817 51.4247 17.2858 51.4287C17.4088 51.5598 17.5372 51.6896 17.6697 51.8206C17.6725 51.8233 17.6752 51.826 17.6779 51.8287C17.8118 51.9611 17.9512 52.0935 18.0946 52.2246C18.096 52.2259 18.0973 52.2273 18.0987 52.2286C18.2435 52.3624 18.3924 52.4948 18.5454 52.6285C23.7546 57.1483 33.6427 61.371 33.6427 61.371C33.6427 61.371 48.7619 54.9131 51.4587 49.4237C54.8795 42.4669 53.0857 18.5241 53.0857 18.5241Z" fill="#11497E"/>
<g opacity="0.31">
<path opacity="0.31" d="M27.051 17.0863C33.3448 22.7898 39.5444 28.5882 45.8109 34.3211C48.2549 36.5576 50.7208 38.7739 53.2209 40.9502C54.0461 31.3437 53.0856 18.5242 53.0856 18.5242C53.0856 18.5242 53.005 18.5068 52.8534 18.4734C52.8479 18.4721 52.8425 18.4707 52.837 18.4694C52.8179 18.4654 52.7974 18.4614 52.7769 18.456C52.7632 18.4533 52.7496 18.4507 52.7345 18.4467C52.71 18.4413 52.684 18.436 52.6567 18.4306C52.6444 18.4279 52.6321 18.4253 52.6198 18.4226C52.602 18.4186 52.5829 18.4146 52.5638 18.4105C52.5378 18.4052 52.5105 18.3985 52.4832 18.3931C52.4627 18.3891 52.4408 18.3838 52.419 18.3798C52.3957 18.3744 52.3712 18.3691 52.3466 18.3637C52.3165 18.357 52.2865 18.3503 52.2564 18.345C52.2345 18.3396 52.2113 18.3356 52.1881 18.3303C52.1567 18.3236 52.1252 18.3169 52.0925 18.3102C52.0733 18.3062 52.0528 18.3022 52.0337 18.2982C51.9927 18.2888 51.949 18.2808 51.9067 18.2714C51.8862 18.2674 51.8657 18.2634 51.8452 18.2581C51.7987 18.2487 51.7509 18.238 51.7017 18.2273C51.684 18.2233 51.6649 18.2193 51.6457 18.2153C51.5979 18.2045 51.5487 18.1952 51.4995 18.1845C51.475 18.1791 51.4504 18.1738 51.4258 18.1684C51.3821 18.1591 51.337 18.1497 51.2919 18.1403C51.2646 18.135 51.2359 18.1283 51.2072 18.123C51.1621 18.1136 51.117 18.1042 51.0719 18.0949C51.0405 18.0882 51.0077 18.0815 50.9763 18.0748C50.9271 18.0641 50.8766 18.0534 50.8247 18.0427C50.8001 18.0374 50.7755 18.032 50.7509 18.0267C50.6922 18.0146 50.6334 18.0026 50.5733 17.9892C50.546 17.9838 50.5187 17.9785 50.4913 17.9718C50.4285 17.9584 50.3643 17.9451 50.2987 17.9317C50.2727 17.9263 50.2468 17.921 50.2222 17.9156C50.1553 17.9023 50.087 17.8875 50.0186 17.8742C49.9927 17.8688 49.9667 17.8635 49.9408 17.8581C49.8697 17.8434 49.7987 17.8287 49.7263 17.814C49.7031 17.8086 49.6785 17.8046 49.6553 17.7993C49.5856 17.7845 49.5159 17.7712 49.4449 17.7565C49.4244 17.7524 49.4052 17.7484 49.3848 17.7444C49.311 17.7297 49.2358 17.7137 49.1593 17.6989C49.1361 17.6949 49.1143 17.6896 49.091 17.6856C49.0132 17.6695 48.9339 17.6535 48.8533 17.6374C48.8246 17.6321 48.7973 17.6267 48.7686 17.62C48.6908 17.604 48.6129 17.5893 48.535 17.5732C48.505 17.5665 48.4735 17.5612 48.4435 17.5545C48.3656 17.5384 48.2891 17.5237 48.2099 17.5077C48.1771 17.501 48.1457 17.4943 48.1129 17.4889C48.0295 17.4729 47.9462 17.4555 47.8629 17.4395C47.8383 17.4341 47.8123 17.4301 47.7877 17.4247C47.6976 17.4073 47.6088 17.3886 47.5172 17.3712C47.4954 17.3672 47.4735 17.3632 47.4517 17.3579C47.3711 17.3418 47.2891 17.3258 47.2071 17.3097C47.1784 17.3044 47.1484 17.299 47.1197 17.2923C47.0322 17.2749 46.9462 17.2589 46.8574 17.2415C46.8328 17.2361 46.8082 17.2321 46.7836 17.2268C46.6907 17.2094 46.5964 17.1907 46.5035 17.1719C46.4762 17.1666 46.4489 17.1612 46.4216 17.1559C46.3287 17.1385 46.2358 17.1198 46.1415 17.1024C46.1142 17.097 46.0855 17.0917 46.0582 17.0863C45.9612 17.0676 45.8642 17.0489 45.7672 17.0315C45.7426 17.0275 45.7194 17.0221 45.6948 17.0181C45.5951 16.9994 45.494 16.9807 45.3929 16.9606C45.3724 16.9566 45.3519 16.9526 45.3314 16.9486C45.2317 16.9298 45.1319 16.9111 45.0308 16.8924C45.0063 16.8884 44.983 16.883 44.9584 16.879C44.8628 16.8616 44.7658 16.8429 44.6688 16.8255C44.6511 16.8228 44.6333 16.8188 44.6155 16.8161C44.5103 16.7961 44.4051 16.7773 44.3 16.7573C44.2781 16.7533 44.2562 16.7493 44.233 16.7452C44.1306 16.7265 44.0295 16.7078 43.927 16.6891C43.8997 16.6837 43.8723 16.6797 43.845 16.6744C43.7439 16.6556 43.6428 16.6382 43.5417 16.6195C43.5158 16.6142 43.4898 16.6101 43.4639 16.6048C43.36 16.5861 43.2576 16.5673 43.1538 16.55C43.1305 16.5459 43.1087 16.5419 43.0854 16.5379C42.9789 16.5192 42.8737 16.5005 42.7671 16.4817C42.7466 16.4777 42.7262 16.4751 42.7057 16.471C42.5977 16.4523 42.4898 16.4336 42.3819 16.4149C42.3696 16.4122 42.3587 16.4108 42.3464 16.4082C42.2371 16.3894 42.1291 16.3707 42.0199 16.352C42.0048 16.3493 41.9898 16.3466 41.9761 16.344C41.8668 16.3252 41.7576 16.3065 41.6496 16.2878C41.6291 16.2838 41.6086 16.2811 41.5882 16.2771C41.483 16.2597 41.3764 16.241 41.2712 16.2236C41.248 16.2196 41.2248 16.2156 41.2015 16.2115C41.0977 16.1942 40.9939 16.1768 40.89 16.1607C40.8668 16.1567 40.8436 16.1527 40.8204 16.1487C40.7152 16.1313 40.6114 16.1139 40.5062 16.0979C40.487 16.0952 40.4679 16.0912 40.4488 16.0885C40.3409 16.0711 40.2329 16.0537 40.125 16.0363C40.1113 16.0336 40.0963 16.0323 40.0827 16.0296C39.9747 16.0122 39.8654 15.9962 39.7589 15.9788C39.752 15.9775 39.7452 15.9761 39.7384 15.9761C39.6277 15.9587 39.5184 15.9427 39.4091 15.9253C39.3941 15.9226 39.3791 15.9213 39.3641 15.9186C39.2602 15.9026 39.155 15.8879 39.0526 15.8718C39.0335 15.8691 39.013 15.8664 38.9938 15.8638C38.8927 15.8491 38.7916 15.8343 38.6905 15.8196C38.6701 15.817 38.6509 15.8143 38.6304 15.8116C38.5293 15.7969 38.4296 15.7822 38.3299 15.7688C38.3121 15.7661 38.2944 15.7635 38.2766 15.7608C38.1755 15.7461 38.0758 15.7327 37.9761 15.7193C37.9597 15.7166 37.9446 15.7153 37.9282 15.7126C37.8258 15.6993 37.7233 15.6845 37.6222 15.6712C37.6154 15.6698 37.6072 15.6698 37.6004 15.6685C37.4979 15.6551 37.3954 15.6417 37.2943 15.6284C37.2875 15.627 37.2807 15.627 37.2739 15.6257C37.1728 15.6123 37.0744 15.6003 36.9747 15.5882C36.961 15.5869 36.9487 15.5856 36.935 15.5829C36.8408 15.5708 36.7465 15.5601 36.6536 15.5494C36.6372 15.5481 36.6208 15.5454 36.6044 15.5441C36.5129 15.5334 36.4227 15.524 36.3326 15.5133C36.3162 15.512 36.2998 15.5093 36.2834 15.508C36.1932 15.4986 36.1044 15.4893 36.017 15.4799C36.0033 15.4786 35.9883 15.4772 35.9746 15.4759C35.8858 15.4665 35.7971 15.4585 35.7096 15.4491C35.6987 15.4478 35.6891 15.4478 35.6782 15.4464C35.588 15.4384 35.4979 15.4291 35.4091 15.4224C35.405 15.4224 35.4022 15.4224 35.3981 15.421C35.3107 15.413 35.2246 15.4063 35.1386 15.3996C35.1317 15.3996 35.1235 15.3983 35.1167 15.3983C35.0334 15.3916 34.9514 15.3863 34.8708 15.3796C34.8599 15.3782 34.8489 15.3782 34.838 15.3769C34.7601 15.3715 34.6823 15.3662 34.6071 15.3622C34.5948 15.3608 34.5839 15.3608 34.5716 15.3595C34.4965 15.3555 34.4241 15.3515 34.3517 15.3475C34.3394 15.3475 34.3271 15.3461 34.3148 15.3461C34.2424 15.3435 34.1727 15.3394 34.103 15.3381C34.0935 15.3381 34.0825 15.3381 34.073 15.3368C34.0019 15.3341 33.9336 15.3328 33.8653 15.3314C33.8585 15.3314 33.8517 15.3314 33.8448 15.3314C33.7738 15.3301 33.7055 15.3301 33.6385 15.3301C32.868 15.3301 31.8639 15.4077 30.7177 15.5387C30.603 15.5521 30.4868 15.5655 30.3693 15.5802C29.7232 15.6578 29.0387 15.7514 28.327 15.8557C28.1972 15.8745 28.0674 15.8945 27.9376 15.9146C27.6111 15.9641 27.2791 16.0163 26.9444 16.0698C26.8105 16.0912 26.6766 16.1126 26.5414 16.1353C26.4745 16.146 26.4062 16.1567 26.3392 16.1687C26.2545 16.1821 26.1684 16.1968 26.0837 16.2115C26.4089 16.5072 26.7299 16.7961 27.051 17.0863Z" fill="#11497E"/>
</g>
<g opacity="0.31">
<path opacity="0.31" d="M26.1466 39.238C22.7326 36.0653 19.2899 32.926 15.8336 29.7973C15.1478 29.1767 14.462 28.5547 13.7734 27.9341C13.7447 29.2356 13.727 30.6079 13.7283 32.011C13.7352 38.7003 14.1682 46.057 15.8254 49.4291C15.8541 49.488 15.8855 49.5468 15.9169 49.6057C15.9237 49.619 15.9319 49.6338 15.9388 49.6471C15.9702 49.706 16.0043 49.7635 16.0385 49.8224C16.0412 49.8264 16.044 49.8304 16.0467 49.8357C16.0795 49.8919 16.115 49.9467 16.1505 50.0029C16.1587 50.0163 16.1669 50.0283 16.1751 50.0417C16.2134 50.1006 16.253 50.1608 16.294 50.2196C16.2981 50.225 16.3022 50.2317 16.3063 50.237C16.3445 50.2932 16.3841 50.3494 16.4251 50.4042C16.4333 50.4149 16.4401 50.4256 16.4483 50.4363C16.4934 50.4965 16.5385 50.558 16.5863 50.6182C16.5904 50.6236 16.5959 50.6303 16.6 50.6356C16.6451 50.6931 16.6915 50.7506 16.738 50.8095C16.7448 50.8175 16.7503 50.8242 16.7571 50.8322C16.809 50.8951 16.8609 50.958 16.9142 51.0195C16.9183 51.0248 16.9224 51.0302 16.9279 51.0342C16.9811 51.0957 17.0344 51.1573 17.0904 51.2188C17.0932 51.2228 17.0959 51.2255 17.1 51.2295C17.1587 51.2937 17.2175 51.3592 17.2776 51.4234C17.2817 51.4275 17.2844 51.4315 17.2885 51.4355C17.4115 51.5666 17.5399 51.6977 17.6724 51.8274C17.6751 51.8301 17.6779 51.8327 17.6806 51.8354C17.8145 51.9678 17.9538 52.1003 18.0973 52.2313C18.0987 52.2327 18.1 52.234 18.1014 52.2354C18.2462 52.3691 18.3951 52.5015 18.5481 52.6353C23.7572 57.155 33.6454 61.3778 33.6454 61.3778C33.6454 61.3778 39.4201 58.9113 44.4694 55.7305C38.1783 50.431 32.1631 44.8291 26.1466 39.238Z" fill="#11497E"/>
</g>
<path d="M33.5473 19.8484L32.9449 21.1258C32.7959 21.4401 32.6101 21.7357 32.3888 22.0032C31.8697 22.5289 31.2344 23.0359 30.1675 23.2445L28.3628 23.5976V30.1692H31.1019V51.6254H39.7018V19.8484H33.5473Z" fill="#0D3F65"/>
<path d="M31.8464 18.1843L31.2439 19.4617C31.095 19.7761 30.9092 20.0717 30.6879 20.3392C30.1688 20.8648 29.5335 21.3718 28.4665 21.5805L26.6619 21.9336V28.5051H29.401V49.9613H38.0009V18.1843H31.8464Z" fill="#F89924"/>
<path d="M33.2371 21.4842C34.3724 20.39 35.4995 19.2892 36.6224 18.1843H31.8464L31.2439 19.4617C31.095 19.7761 30.9092 20.0717 30.6879 20.3392C30.1688 20.8648 29.5335 21.3718 28.4665 21.5805L26.6619 21.9336V27.6143C28.8805 25.5986 31.08 23.5628 33.2371 21.4842Z" fill="#F47C4D"/>
<path d="M31.2712 39.0253C30.6483 39.5831 30.0253 40.1395 29.4023 40.6973V49.9628H38.0022V32.8711C35.7809 34.943 33.5377 36.9949 31.2712 39.0253Z" fill="#F47C4D"/>
<path d="M33.7029 72.1627C38.4563 72.1627 42.3097 68.3899 42.3097 63.7359C42.3097 59.0819 38.4563 55.3091 33.7029 55.3091C28.9496 55.3091 25.0962 59.0819 25.0962 63.7359C25.0962 68.3899 28.9496 72.1627 33.7029 72.1627Z" fill="#FBAD4C"/>
<path d="M39.397 70.052C39.5418 69.9263 39.6839 69.7979 39.8219 69.6614C43.1635 66.3522 43.1334 61.0166 39.7536 57.7448C36.3751 54.4731 30.9283 54.5025 27.5867 57.8077L39.397 70.052Z" fill="#F47C4D"/>
<path opacity="0.53" d="M31.8725 58.4496L28.342 61.9446L29.1065 62.6848L32.637 59.1898L31.8725 58.4496Z" fill="#CD644A"/>
<path opacity="0.53" d="M35.1228 61.598L31.5923 65.093L32.3567 65.8333L35.8872 62.3383L35.1228 61.598Z" fill="#CD644A"/>
<path opacity="0.53" d="M38.3737 64.7455L34.8433 68.2405L35.6077 68.9807L39.1382 65.4857L38.3737 64.7455Z" fill="#CD644A"/>
<path d="M31.8725 58.4496L28.342 61.9446L29.1065 62.6848L32.637 59.1898L31.8725 58.4496Z" fill="#F47C4D"/>
<path d="M35.1228 61.598L31.5923 65.093L32.3567 65.8333L35.8872 62.3383L35.1228 61.598Z" fill="#F47C4D"/>
<path d="M38.3737 64.7455L34.8433 68.2405L35.6077 68.9807L39.1382 65.4857L38.3737 64.7455Z" fill="#F47C4D"/>
<path d="M37.83 71.1274C38.5609 70.7408 39.2467 70.2446 39.8601 69.636C40.4749 69.0274 40.9735 68.3506 41.3601 67.6323L39.1388 65.4814L35.6086 68.9766L37.83 71.1274Z" fill="#FEE750"/>
<path d="M35.8881 62.3387L32.3577 65.8337L34.8433 68.2407L38.3738 64.7457L35.8881 62.3387Z" fill="#FEE750"/>
<path d="M32.6362 59.1903L29.1057 62.6853L31.5914 65.0923L35.1218 61.5973L32.6362 59.1903Z" fill="#FEE750"/>
<path d="M28.3422 61.9408L31.8723 58.4458L29.651 56.2949C28.9201 56.6815 28.2343 57.1777 27.6209 57.7863C27.0061 58.3949 26.5075 59.0717 26.1208 59.79L28.3422 61.9408Z" fill="#FEE750"/>
<path d="M6.47558 81.4444V80.0787H5.08211V87.5866H6.47558V86.2209H9.96062V88.2687C9.96062 90.0892 9.03164 90.9987 7.17232 90.9987H4.38401C2.52468 90.9987 1.5957 90.0892 1.5957 88.2687V79.3965C1.5957 77.5761 2.52468 76.6665 4.38401 76.6665H7.17232C9.03164 76.6665 9.96062 77.5761 9.96062 79.3965V81.4444H6.47558Z" fill="white"/>
<path d="M16.8474 76.6677C18.7068 76.6677 19.6357 77.5773 19.6357 79.3977V82.1278C19.6357 83.9482 19.1712 84.8578 18.2423 84.8578L19.6357 91H16.1507L14.7572 85.5399V91H11.2708V78.0321L9.87598 76.6677H16.8474ZM16.1507 82.1264V80.0786H14.7572V82.1264H16.1507Z" fill="white"/>
<path d="M24.4321 76.6677V91H20.9471V78.0321L19.5522 76.6677H24.4321Z" fill="white"/>
<path d="M31.144 81.4444V80.0787H29.7506V87.5866H31.144V86.2209H34.6291V88.2687C34.6291 90.0892 33.7001 90.9987 31.8408 90.9987H29.0525C27.1931 90.9987 26.2642 90.0892 26.2642 88.2687V79.3965C26.2642 77.5761 27.1931 76.6665 29.0525 76.6665H31.8408C33.7001 76.6665 34.6291 77.5761 34.6291 79.3965V81.4444H31.144Z" fill="white"/>
<path d="M38.7152 88.0855C39.054 88.4172 39.2234 88.8198 39.2234 89.2933C39.2234 89.7668 39.054 90.1694 38.7152 90.5012C38.3764 90.8329 37.9652 90.9987 37.4816 90.9987C36.998 90.9987 36.5868 90.8329 36.248 90.5012C35.9091 90.1694 35.7397 89.7668 35.7397 89.2933C35.7397 88.8198 35.9091 88.4172 36.248 88.0855C36.5868 87.7538 36.998 87.5879 37.4816 87.5879C37.9638 87.5866 38.3764 87.7538 38.7152 88.0855Z" fill="white"/>
<path d="M40.3328 88.2699V79.3977C40.3328 77.5773 41.2617 76.6677 43.1211 76.6677H45.9094C47.7687 76.6677 48.6977 77.5773 48.6977 79.3977V88.2699C48.6977 90.0904 47.7687 91 45.9094 91H43.1211C41.2617 91 40.3328 90.0891 40.3328 88.2699ZM43.8178 80.0799V87.5878H45.2113V80.0799H43.8178Z" fill="white"/>
<path d="M52.7962 76.6677L54.8877 82.1278V76.6677H58.3728V91H55.5845L53.4929 85.5399V91H50.0079V78.0321L48.613 76.6677H52.7962Z" fill="white"/>
<path d="M66.6886 76.6677V80.0799H63.2036V82.1278H66.6886L63.2036 85.5399V87.5878H66.6886V91H59.7186V78.0321L58.3237 76.6677H66.6886Z" fill="white"/>
<g opacity="0.31">
<g opacity="0.31">
<g opacity="0.31">
<path opacity="0.31" d="M6.47558 81.4444V80.0787H5.08211V87.5866H6.47558V86.2209H9.96062V88.2687C9.96062 90.0892 9.03164 90.9987 7.17232 90.9987H4.38401C2.52468 90.9987 1.5957 90.0892 1.5957 88.2687V79.3965C1.5957 77.5761 2.52468 76.6665 4.38401 76.6665H7.17232C9.03164 76.6665 9.96062 77.5761 9.96062 79.3965V81.4444H6.47558Z" fill="white"/>
</g>
<g opacity="0.31">
<path opacity="0.31" d="M19.6315 82.3458C17.6875 81.0042 15.7544 79.6465 13.839 78.2702C13.104 77.7418 12.3677 77.2094 11.6341 76.6677H9.8772L11.272 78.0321V91H14.7571V85.5399L16.1505 91H19.6356L18.2421 84.8578C19.1328 84.8578 19.596 84.0178 19.6315 82.3458ZM16.1505 82.1264H14.7571V80.0786H16.1505V82.1264Z" fill="white"/>
</g>
<g opacity="0.31">
<path opacity="0.31" d="M23.8188 85.2015C22.8584 84.5555 21.9021 83.9041 20.9458 83.25V90.9986H24.4308V85.6082C24.2287 85.4731 24.0224 85.338 23.8188 85.2015Z" fill="white"/>
</g>
<g opacity="0.31">
<path opacity="0.31" d="M26.2656 86.8296V88.2702C26.2656 90.0906 27.1946 91.0002 29.0539 91.0002H31.8422C32.1373 91.0002 32.4065 90.9748 32.6551 90.9293C30.5075 89.5877 28.3777 88.222 26.2656 86.8296Z" fill="white"/>
</g>
<g opacity="0.31">
<path opacity="0.31" d="M44.5597 80.08H45.2114V80.4746C46.3685 81.1688 47.5311 81.8537 48.6964 82.5332V79.3965C48.6964 77.5761 47.7674 76.6665 45.9081 76.6665H43.1198C41.96 76.6665 41.1621 77.021 40.7263 77.7299C41.9982 78.5231 43.2769 79.3056 44.5597 80.08Z" fill="white"/>
</g>
<g opacity="0.31">
<path opacity="0.31" d="M50.008 83.2955C52.7703 84.8872 55.56 86.4334 58.3729 87.9396V76.6677H54.8878V82.1278L52.7963 76.6677H48.6145L50.0093 78.0321V83.2955H50.008Z" fill="white"/>
</g>
<g opacity="0.31">
<path opacity="0.31" d="M59.7186 88.6592C61.2172 89.4524 62.7241 90.2309 64.2364 91H66.6886V87.5878H63.2036V85.5399L66.6886 82.1278H63.2036V80.0799H66.6886V76.6677H58.3237L59.7186 78.0321V88.6592Z" fill="white"/>
</g>
</g>
</g>
</g>
<defs>
<clipPath id="clip0">
<rect width="68" height="91" fill="white"/>
</clipPath>
</defs>
</svg>
