<svg width="15" height="19" viewBox="0 0 15 19" fill="none" xmlns="http://www.w3.org/2000/svg">
<path d="M0.751326 8.04073C0.751326 6.07149 0.784945 4.10224 0.737879 2.13299C0.710984 0.905489 1.63213 0.157175 2.74155 0.163739C5.90169 0.189996 9.06184 0.17031 12.222 0.17031C13.4524 0.17031 14.1988 0.892364 14.2055 2.08704C14.2055 6.06492 14.2055 10.0494 14.2055 14.0272C14.2055 15.2154 13.4726 15.9243 12.2623 15.9309C11.2336 15.9374 10.1981 15.9374 9.16942 15.9243C8.9072 15.9243 8.81979 16.0031 8.82651 16.2591C8.84668 16.9024 8.83323 17.5522 8.83323 18.1955C8.83323 18.55 8.81979 18.5565 8.47688 18.4252C6.47993 17.6244 4.48299 16.8236 2.47932 16.0228C2.35829 15.9702 2.23054 15.9309 2.10279 15.8915C1.23543 15.6158 0.764774 15.0053 0.75805 14.106C0.751326 12.5831 0.75805 11.0668 0.751326 9.54394C0.751326 9.04506 0.751326 8.54618 0.751326 8.04073ZM4.28128 2.00828C4.39558 2.05422 4.49644 2.0936 4.59057 2.13299C5.86135 2.59904 7.11869 3.07167 8.39619 3.51803C8.71893 3.62962 8.83323 3.77403 8.83323 4.12193C8.81979 7.35806 8.82651 10.5942 8.81979 13.8369C8.81979 14.0929 8.86685 14.1979 9.1627 14.1914C10.1242 14.1717 11.0924 14.1717 12.0539 14.1914C12.3497 14.1979 12.3968 14.0929 12.3968 13.8369C12.3901 9.98373 12.3901 6.13713 12.3968 2.28397C12.3968 2.01484 12.3296 1.93606 12.0404 1.93606C9.56612 1.94919 7.08507 1.94263 4.61074 1.94263C4.51661 1.94263 4.39558 1.90981 4.28128 2.00828ZM7.01111 9.39296C7.01111 9.21573 7.02455 9.04506 7.01111 8.86783C6.97077 8.39521 6.58751 8.05387 6.11685 8.06043C5.65292 8.06699 5.26294 8.42803 5.23605 8.88752C5.2226 9.21573 5.21587 9.54394 5.23605 9.87215C5.26294 10.3382 5.65964 10.673 6.13702 10.673C6.60768 10.6664 6.96404 10.3448 7.00438 9.88527C7.02455 9.72117 7.01111 9.55706 7.01111 9.39296Z" fill="#7782AD"/>
</svg>
