<svg width="16" height="17" viewBox="0 0 16 17" fill="none" xmlns="http://www.w3.org/2000/svg">
<path d="M10.6587 10.7727C10.6587 8.99633 10.6533 7.21993 10.6641 5.44354C10.6641 5.20704 10.5941 5.13871 10.3626 5.15973C10.1688 5.18076 9.96962 5.15974 9.77043 5.16499C9.4905 5.17025 9.28055 5.06513 9.16212 4.81812C9.04368 4.57111 9.11905 4.36088 9.28593 4.16642C10.1365 3.18363 11.0032 2.21134 11.8323 1.21277C12.3168 0.629399 12.699 0.529543 13.2535 1.21277C14.061 2.20608 14.9223 3.15735 15.7621 4.12438C15.9451 4.3346 16.0474 4.55008 15.9182 4.81812C15.789 5.09141 15.5468 5.1755 15.2561 5.16499C15.0569 5.15448 14.8631 5.1755 14.6639 5.15973C14.4809 5.14397 14.4163 5.20178 14.4216 5.39098C14.4324 6.15304 14.427 6.91511 14.427 7.67717C14.427 10.4626 14.427 13.2429 14.427 16.0283C14.427 16.5539 14.2548 16.7273 13.7272 16.7273C12.9358 16.7273 12.1499 16.7273 11.3585 16.7273C10.8417 16.7273 10.6587 16.5486 10.6587 16.0546C10.6587 14.294 10.6587 12.5334 10.6587 10.7727Z" fill="#7782AD"/>
<path d="M5.81445 11.2089C5.81445 9.59547 5.81445 7.98726 5.81445 6.37379C5.81445 5.85348 5.9921 5.6853 6.53044 5.6853C7.32717 5.6853 8.12929 5.6853 8.92603 5.6853C9.389 5.6853 9.58818 5.86925 9.58818 6.31598C9.58818 9.57445 9.58818 12.8329 9.58818 16.0862C9.58818 16.5329 9.39438 16.7168 8.93141 16.7221C8.11314 16.7221 7.30026 16.7221 6.48199 16.7221C6.00287 16.7221 5.81445 16.5381 5.81445 16.0651C5.81445 14.4464 5.81445 12.8277 5.81445 11.2089Z" fill="#7782AD"/>
<path d="M4.7371 12.7909C4.7371 13.8841 4.7371 14.9772 4.7371 16.0757C4.7371 16.5434 4.54868 16.7221 4.06418 16.7273C3.24591 16.7273 2.43302 16.7273 1.61475 16.7273C1.16255 16.7221 0.96875 16.5381 0.96875 16.0809C0.96875 13.8841 0.96875 11.6872 0.96875 9.49038C0.96875 9.02263 1.15717 8.84394 1.64167 8.83868C2.45994 8.83868 3.27282 8.83868 4.09109 8.83868C4.54868 8.83868 4.74248 9.02789 4.74248 9.47987C4.7371 10.5888 4.7371 11.6872 4.7371 12.7909Z" fill="#7782AD"/>
</svg>
