<svg width="14" height="11" viewBox="0 0 14 11" fill="none" xmlns="http://www.w3.org/2000/svg">
<path d="M4.9996 5.09375C4.9996 5.55788 5.18398 6.003 5.51217 6.33119C5.84035 6.65938 6.28547 6.84375 6.7496 6.84375C7.21373 6.84375 7.65885 6.65938 7.98704 6.33119C8.31523 6.003 8.4996 5.55788 8.4996 5.09375C8.4996 4.62962 8.31523 4.1845 7.98704 3.85631C7.65885 3.52812 7.21373 3.34375 6.7496 3.34375C6.28547 3.34375 5.84035 3.52812 5.51217 3.85631C5.18398 4.1845 4.9996 4.62962 4.9996 5.09375ZM13.534 4.69063C12.0527 1.57031 9.81366 0 6.8121 0C3.80898 0 1.57148 1.57031 0.090227 4.69219C0.0308135 4.818 0 4.9554 0 5.09453C0 5.23366 0.0308135 5.37107 0.090227 5.49687C1.57148 8.61719 3.81054 10.1875 6.8121 10.1875C9.81523 10.1875 12.0527 8.61719 13.534 5.49531C13.6543 5.24219 13.6543 4.94844 13.534 4.69063ZM6.7496 7.84375C5.23085 7.84375 3.9996 6.6125 3.9996 5.09375C3.9996 3.575 5.23085 2.34375 6.7496 2.34375C8.26835 2.34375 9.4996 3.575 9.4996 5.09375C9.4996 6.6125 8.26835 7.84375 6.7496 7.84375Z" fill="#FF7D4A"/>
</svg>
