<svg width="14" height="14" viewBox="0 0 14 14" fill="none" xmlns="http://www.w3.org/2000/svg">
<path d="M3.77 5.74479H3.335C2.74138 5.72333 2.14968 5.82411 1.59663 6.04086C1.04357 6.2576 0.540969 6.5857 0.12 7.00479L0 7.14479V11.2848H2.04V8.93479L2.315 8.62479L2.44 8.47979C3.09096 7.81104 3.90139 7.31893 4.795 7.04979C4.3476 6.70935 3.99474 6.26011 3.77 5.74479Z" fill="#7782AD"/>
<path d="M13.44 6.98977C13.019 6.57069 12.5164 6.24259 11.9633 6.02584C11.4103 5.80909 10.8186 5.70832 10.225 5.72977C10.0429 5.73029 9.86098 5.7403 9.67996 5.75977C9.45101 6.24322 9.10779 6.66367 8.67996 6.98477C9.63395 7.2487 10.4982 7.76722 11.18 8.48477L11.305 8.62477L11.575 8.93477V11.2898H13.545V7.12977L13.44 6.98977Z" fill="#7782AD"/>
<path d="M3.31999 4.76978H3.47499C3.40297 4.1514 3.51147 3.5254 3.7874 2.96733C4.06333 2.40926 4.49489 1.94298 5.02999 1.62478C4.83602 1.32846 4.56842 1.08759 4.25339 0.925757C3.93836 0.763926 3.5867 0.686685 3.23285 0.701597C2.879 0.716509 2.53509 0.823062 2.2348 1.01082C1.9345 1.19858 1.68811 1.46111 1.51976 1.77271C1.35141 2.0843 1.26687 2.43428 1.27442 2.78836C1.28197 3.14244 1.38134 3.4885 1.56281 3.79263C1.74429 4.09677 2.00164 4.34857 2.30966 4.52336C2.61768 4.69816 2.96582 4.78996 3.31999 4.78978V4.76978Z" fill="#7782AD"/>
<path d="M9.98497 4.39479C9.99105 4.50971 9.99105 4.62487 9.98497 4.73979C10.0809 4.755 10.1778 4.76335 10.275 4.76479H10.37C10.7226 4.74599 11.0643 4.6362 11.3619 4.44613C11.6595 4.25605 11.9028 3.99216 12.0681 3.68015C12.2334 3.36813 12.3151 3.01862 12.3053 2.66565C12.2954 2.31268 12.1944 1.96828 12.0119 1.66597C11.8294 1.36365 11.5718 1.11374 11.2641 0.940552C10.9564 0.767364 10.609 0.676807 10.2559 0.677695C9.90284 0.678583 9.55598 0.770887 9.24913 0.945621C8.94229 1.12035 8.68591 1.37156 8.50497 1.67479C8.95752 1.97026 9.32963 2.37344 9.58794 2.84817C9.84625 3.3229 9.98268 3.85433 9.98497 4.39479Z" fill="#7782AD"/>
<path d="M6.705 6.63475C7.93936 6.63475 8.94 5.63411 8.94 4.39975C8.94 3.16539 7.93936 2.16475 6.705 2.16475C5.47065 2.16475 4.47 3.16539 4.47 4.39975C4.47 5.63411 5.47065 6.63475 6.705 6.63475Z" fill="#7782AD"/>
<path d="M6.82499 7.82475C6.17201 7.79838 5.52045 7.90439 4.90951 8.1364C4.29857 8.3684 3.74087 8.7216 3.26999 9.17475L3.14499 9.31475V12.4797C3.14694 12.5828 3.16918 12.6845 3.21045 12.779C3.25171 12.8735 3.31118 12.959 3.38548 13.0305C3.45977 13.102 3.54742 13.1581 3.64342 13.1958C3.73942 13.2334 3.8419 13.2517 3.94499 13.2497H9.68999C9.79308 13.2517 9.89556 13.2334 9.99156 13.1958C10.0876 13.1581 10.1752 13.102 10.2495 13.0305C10.3238 12.959 10.3833 12.8735 10.4245 12.779C10.4658 12.6845 10.488 12.5828 10.49 12.4797V9.32475L10.37 9.17475C9.90215 8.72021 9.3464 8.36601 8.73682 8.13387C8.12724 7.90173 7.47667 7.79654 6.82499 7.82475Z" fill="#7782AD"/>
</svg>
