<svg width="16" height="16" viewBox="0 0 16 16" fill="none" xmlns="http://www.w3.org/2000/svg">
<path d="M8.29881 15.995C4.30674 15.9738 1.0559 13.316 0.409965 9.60454C-0.0771307 6.81432 0.754109 4.41061 2.81368 2.45164C2.87721 2.3934 2.94604 2.20809 3.07311 2.37751C3.16312 2.49929 3.31666 2.65283 3.04134 2.76931C2.96193 2.80108 2.87192 2.86461 2.93545 2.9705C2.99369 3.0711 3.09429 3.03933 3.16841 2.98638C3.32725 2.8699 3.41725 2.92285 3.49138 3.08168C3.53373 3.17699 3.58668 3.27229 3.65021 3.357C3.7614 3.51054 3.79317 3.63232 3.57609 3.72232C3.50197 3.75409 3.43843 3.81762 3.48079 3.91293C3.53373 4.02411 3.63433 3.99234 3.70316 3.9394C3.87258 3.81762 3.96789 3.87057 4.0473 4.04529C4.08436 4.13529 4.13731 4.22001 4.19026 4.29942C4.30144 4.45297 4.33321 4.58003 4.11613 4.66475C4.02083 4.70181 3.97318 4.78123 4.03671 4.87653C4.09495 4.96653 4.17967 4.93477 4.2432 4.88182C4.40733 4.75475 4.50793 4.8077 4.58205 4.98242C4.6297 5.08831 4.68794 5.18361 4.75147 5.27891C4.84678 5.41657 4.84678 5.51717 4.67735 5.59129C4.59264 5.62835 4.50793 5.69188 4.56087 5.79248C4.62441 5.91425 4.7303 5.86131 4.80971 5.80836C4.96326 5.69718 5.04267 5.76071 5.1115 5.90896C5.15386 5.99897 5.20151 6.08368 5.25445 6.1631C5.37093 6.32723 5.43447 6.47018 5.18033 6.56548C5.1115 6.59195 5.06385 6.65549 5.10091 6.73491C5.14327 6.83021 5.23857 6.83021 5.3021 6.78256C5.53506 6.60254 5.61978 6.76138 5.70978 6.94139C5.74684 7.02081 5.7945 7.10023 5.84215 7.16906C5.93215 7.29613 5.94804 7.39672 5.77861 7.47614C5.6939 7.5132 5.58272 7.57144 5.66213 7.69321C5.73626 7.80969 5.84215 7.74616 5.91627 7.69321C6.06452 7.59262 6.13864 7.65615 6.20217 7.78852C6.24453 7.87323 6.29218 7.95794 6.34513 8.04265C6.45102 8.20149 6.53573 8.34974 6.2763 8.45033C6.19688 8.4821 6.15982 8.56681 6.20747 8.64623C6.26041 8.73624 6.35042 8.70976 6.41396 8.66211C6.59926 8.51916 6.68927 8.60917 6.76869 8.77859C6.81104 8.8686 6.8587 8.94802 6.91693 9.02743C7.01753 9.17568 7.044 9.29216 6.84281 9.37687C6.7581 9.41393 6.68398 9.48276 6.7528 9.58336C6.81634 9.67866 6.91693 9.6416 6.98576 9.58865C7.14989 9.46159 7.22931 9.541 7.30344 9.69454C7.34579 9.78455 7.39344 9.86926 7.45168 9.94339C7.56287 10.1022 7.61052 10.2346 7.37756 10.3299C7.30343 10.3617 7.23461 10.4252 7.28755 10.5205C7.3352 10.6052 7.4305 10.6052 7.49404 10.5523C7.71111 10.3881 7.80112 10.5258 7.88054 10.7005C7.9176 10.7799 7.95996 10.8593 8.0129 10.9282C8.1135 11.0658 8.12938 11.1717 7.94407 11.2564C7.86465 11.2882 7.76935 11.3464 7.82759 11.4576C7.89113 11.5847 7.99172 11.537 8.07114 11.4788C8.21409 11.3729 8.3041 11.41 8.37293 11.5635C8.40999 11.6535 8.46294 11.7382 8.52118 11.8176C8.63236 11.9818 8.69589 12.1247 8.44705 12.2253C8.36763 12.2571 8.32528 12.3418 8.38352 12.4212C8.43117 12.4901 8.51588 12.4848 8.57412 12.4424C8.7859 12.273 8.87591 12.4 8.96062 12.5801C9.00298 12.6648 9.05063 12.7548 9.10357 12.8342C9.19887 12.9666 9.19887 13.0724 9.02945 13.1466C8.95003 13.1836 8.86002 13.2419 8.91297 13.3478C8.9765 13.4695 9.08239 13.4272 9.16181 13.3689C9.31006 13.2578 9.39477 13.3107 9.4636 13.459C9.50596 13.549 9.5589 13.6284 9.61185 13.7131C9.71774 13.8719 9.79716 14.0202 9.54302 14.1208C9.46889 14.1472 9.40536 14.2214 9.46889 14.3114C9.52713 14.3908 9.61185 14.3855 9.68068 14.3325C9.88187 14.179 9.97187 14.2902 10.0513 14.4649C10.0831 14.539 10.1254 14.6079 10.1678 14.6714C10.279 14.8302 10.3266 14.9679 10.0936 15.0579C10.0142 15.0897 9.96658 15.1638 10.0195 15.2538C10.0725 15.3438 10.1519 15.3279 10.226 15.2803C10.3584 15.1956 10.4643 15.1479 10.5596 15.3385C10.6443 15.4973 10.6337 15.5556 10.4484 15.6138C9.69127 15.8627 8.90238 15.9844 8.29881 15.995Z" fill="#7782AD"/>
<path d="M8.12448 0.397339C12.5983 0.434401 16.1351 4.19351 15.8598 8.66209C15.738 10.7005 14.9174 12.4424 13.4349 13.856C13.3713 13.9196 13.2972 14.0943 13.1755 13.909C13.096 13.7872 13.006 13.6654 13.2125 13.5701C13.3078 13.5278 13.4243 13.4589 13.3396 13.3319C13.2655 13.2154 13.1596 13.2948 13.0854 13.3477C12.9478 13.4483 12.8684 13.406 12.7995 13.263C12.7519 13.1571 12.6884 13.0618 12.6248 12.9665C12.5189 12.813 12.4925 12.6859 12.7095 12.6012C12.7942 12.5694 12.8684 12.49 12.8048 12.3947C12.7466 12.3047 12.6407 12.3312 12.5719 12.3894C12.4025 12.5218 12.3071 12.453 12.233 12.2835C12.196 12.2041 12.1483 12.13 12.1007 12.0559C11.9948 11.8917 11.9206 11.7488 12.1801 11.6535C12.2542 11.627 12.323 11.5582 12.2701 11.4682C12.2118 11.3676 12.1113 11.3888 12.0371 11.4417C11.8571 11.5794 11.7565 11.5052 11.6824 11.3252C11.6453 11.2458 11.603 11.1664 11.55 11.0976C11.4283 10.9334 11.4071 10.8064 11.6295 10.7111C11.7036 10.6793 11.7724 10.6158 11.7195 10.5205C11.6612 10.4146 11.5659 10.4358 11.4918 10.494C11.3118 10.6317 11.2112 10.5522 11.1318 10.3775C11.0894 10.2875 11.0418 10.2081 10.9835 10.1287C10.8829 9.98043 10.8565 9.86395 11.0576 9.77923C11.1424 9.74217 11.2165 9.67334 11.1635 9.57275C11.1053 9.46686 11.0047 9.49862 10.9359 9.55686C10.7453 9.7104 10.6606 9.59922 10.5811 9.43509C10.5441 9.35567 10.5017 9.27625 10.4488 9.20743C10.3323 9.04329 10.3058 8.91093 10.5335 8.82093C10.6076 8.78916 10.6764 8.72562 10.6235 8.63562C10.5653 8.53502 10.4647 8.5562 10.3958 8.60914C10.2158 8.7521 10.1205 8.67268 10.0411 8.49796C9.99874 8.40266 9.94579 8.30736 9.88226 8.22264C9.78166 8.07969 9.77637 7.9738 9.95638 7.89438C10.0411 7.85732 10.147 7.79379 10.0676 7.67201C10.004 7.57142 9.90344 7.61377 9.83461 7.66672C9.65989 7.80438 9.56988 7.71437 9.49576 7.55553C9.4534 7.46553 9.40575 7.38081 9.34751 7.30669C9.23103 7.15315 9.21515 7.02608 9.42693 6.94137C9.51164 6.90431 9.58576 6.83548 9.51694 6.73488C9.4534 6.62899 9.3581 6.67135 9.28927 6.72959C9.11985 6.86195 9.02454 6.78783 8.95042 6.6237C8.91336 6.54428 8.871 6.46486 8.81806 6.39603C8.69628 6.2319 8.64863 6.08895 8.89748 5.98836C8.9716 5.95659 9.02984 5.88246 8.9716 5.79246C8.91866 5.70775 8.82335 5.71833 8.75982 5.77128C8.54274 5.95129 8.45803 5.80305 8.37332 5.63362C8.33096 5.54891 8.28331 5.4589 8.23037 5.37949C8.12977 5.24183 8.14036 5.14653 8.30449 5.0724C8.3945 5.03005 8.49509 4.97181 8.42626 4.85003C8.35744 4.73355 8.24625 4.79179 8.17742 4.85003C8.02918 4.96651 7.94446 4.90827 7.87563 4.76003C7.83857 4.68061 7.79622 4.60119 7.74327 4.53236C7.62679 4.36294 7.53149 4.19881 7.81739 4.09292C7.88093 4.06644 7.93387 4.00291 7.89152 3.9182C7.84387 3.82819 7.75915 3.8176 7.69033 3.87584C7.46796 4.05056 7.36736 3.9182 7.27735 3.72759C7.235 3.64288 7.18735 3.55287 7.1344 3.47346C7.0391 3.34109 7.05498 3.25109 7.20852 3.18226C7.29853 3.1399 7.40442 3.08166 7.34089 2.96518C7.26676 2.81694 7.15558 2.90694 7.07087 2.95989C6.92791 3.06048 6.8485 3.00754 6.78496 2.86988C6.7479 2.79046 6.70554 2.71105 6.6526 2.64222C6.53082 2.4675 6.43552 2.30866 6.72143 2.19748C6.79026 2.171 6.83261 2.10218 6.79555 2.02276C6.7479 1.92746 6.65789 1.93275 6.59436 1.9857C6.37199 2.16571 6.27669 2.02805 6.19198 1.84274C6.14962 1.75274 6.10197 1.66802 6.04373 1.5939C5.95372 1.46683 5.95372 1.37153 6.11256 1.3027C6.19727 1.26035 6.30845 1.20211 6.25022 1.08563C6.17609 0.942675 6.05961 1.02739 5.98019 1.08033C5.78959 1.2127 5.73665 1.06445 5.67311 0.93738C5.57252 0.730894 5.77371 0.767955 5.84783 0.741483C6.59436 0.49264 7.35148 0.407928 8.12448 0.397339Z" fill="#7782AD"/>
<path d="M5.28067 0.921509C5.4395 0.932098 5.4448 1.08564 5.51363 1.17565C5.58775 1.27624 5.51892 1.32919 5.43421 1.38213C5.3495 1.43508 5.21713 1.48802 5.30185 1.62039C5.37597 1.73687 5.47657 1.66274 5.55598 1.6098C5.67246 1.53038 5.74659 1.56215 5.81012 1.67863C5.86307 1.77922 5.92131 1.87982 5.98484 1.97512C6.08544 2.12866 6.16485 2.26632 5.91601 2.36691C5.84189 2.39868 5.78894 2.4781 5.84718 2.56281C5.90542 2.64752 5.99013 2.63164 6.05367 2.57869C6.22309 2.44633 6.31839 2.51516 6.39252 2.68459C6.42958 2.764 6.47723 2.83813 6.52488 2.91225C6.63077 3.07108 6.71548 3.21933 6.45605 3.31993C6.39252 3.34111 6.33957 3.40993 6.38722 3.49465C6.44017 3.58465 6.52488 3.57936 6.59371 3.53171C6.77902 3.38876 6.86902 3.47876 6.94844 3.64819C6.9908 3.73819 7.03845 3.82291 7.09139 3.90232C7.19199 4.04528 7.23964 4.16176 7.02786 4.24647C6.94315 4.28353 6.87961 4.35765 6.94315 4.45825C7.00139 4.54826 7.09139 4.51649 7.15493 4.46884C7.33494 4.33648 7.41965 4.43707 7.49378 4.59061C7.53613 4.67533 7.58379 4.76533 7.64202 4.83946C7.74792 4.98241 7.77968 5.10418 7.57849 5.18889C7.48848 5.22596 7.43024 5.30008 7.49378 5.40068C7.55202 5.49068 7.63673 5.45891 7.70026 5.41126C7.87498 5.2789 7.96499 5.36361 8.03911 5.52245C8.07618 5.60187 8.12383 5.67599 8.17148 5.75011C8.27207 5.90365 8.35149 6.04131 8.10794 6.14191C8.03382 6.17368 7.97558 6.2478 8.03382 6.33781C8.08677 6.41722 8.18207 6.40663 8.2456 6.35898C8.4415 6.20544 8.52092 6.33781 8.59504 6.49135C8.6321 6.56018 8.66916 6.6343 8.71152 6.69783C8.8227 6.85667 8.89683 7.00492 8.6374 7.10022C8.57386 7.12669 8.52092 7.19552 8.56857 7.27494C8.62151 7.36494 8.71152 7.35965 8.77505 7.312C8.98683 7.15316 9.06625 7.28553 9.14567 7.45495C9.18273 7.53437 9.22509 7.61379 9.27803 7.68261C9.38392 7.82557 9.4104 7.94205 9.2092 8.02676C9.13508 8.05853 9.07155 8.12206 9.1139 8.21736C9.16685 8.32855 9.26215 8.29678 9.33627 8.24383C9.49511 8.13265 9.59041 8.1856 9.65924 8.34443C9.70159 8.43973 9.75983 8.52974 9.81807 8.61975C9.91867 8.7627 9.95044 8.88447 9.74925 8.96918C9.65924 9.00625 9.60629 9.09096 9.66983 9.18096C9.72277 9.26568 9.81278 9.2392 9.88161 9.18626C10.0563 9.0539 10.1463 9.13861 10.2152 9.30274C10.2522 9.39275 10.3052 9.47746 10.3634 9.55158C10.4746 9.70512 10.4958 9.83219 10.284 9.9222C10.2099 9.95397 10.1463 10.0228 10.2046 10.1128C10.2575 10.1975 10.3528 10.1922 10.4164 10.1393C10.607 9.98573 10.6917 10.0969 10.7658 10.261C10.8082 10.3511 10.8558 10.4305 10.914 10.5152C11.0093 10.6581 11.057 10.7746 10.8452 10.8646C10.7764 10.8911 10.697 10.9546 10.7446 11.0499C10.7976 11.1558 10.8982 11.1399 10.9723 11.087C11.1523 10.9546 11.237 11.0499 11.3111 11.2088C11.3482 11.2882 11.3958 11.3676 11.4435 11.4364C11.5547 11.59 11.6076 11.7276 11.3747 11.8229C11.2952 11.8547 11.2529 11.9288 11.3058 12.0188C11.3641 12.1088 11.4488 12.0877 11.5123 12.0347C11.687 11.9024 11.777 11.9818 11.8459 12.1459C11.8829 12.2253 11.9306 12.2994 11.9782 12.3736C12.0788 12.5218 12.1635 12.6648 11.9147 12.7654C11.8353 12.7971 11.7876 12.8765 11.8406 12.9613C11.8935 13.0407 11.9835 13.0301 12.0524 12.9771C12.2218 12.8448 12.3118 12.9189 12.3912 13.083C12.4389 13.1889 12.4971 13.2895 12.5606 13.3795C12.6559 13.5172 12.6506 13.6125 12.4865 13.6919C12.4071 13.729 12.3171 13.7872 12.3806 13.8931C12.4389 13.9884 12.5395 13.9725 12.6136 13.9143C12.7777 13.7872 12.8465 13.8772 12.9365 14.0149C13.0371 14.1737 12.9948 14.2531 12.8571 14.3537C12.46 14.6449 12.4653 14.6502 12.2165 14.2214C9.77042 9.98573 7.32435 5.75011 4.87299 1.5145C4.67709 1.17035 4.67709 1.17035 5.053 1.01681C5.13242 0.979749 5.20654 0.953276 5.28067 0.921509Z" fill="#7782AD"/>
<path d="M11.5494 15.0791C11.5653 15.1585 11.5177 15.185 11.47 15.2114C11.3747 15.2591 11.2741 15.2909 11.1841 15.3438C10.9988 15.4603 10.8929 15.4073 10.7923 15.222C10.7129 15.0738 10.7076 14.9891 10.8717 14.9149C10.9459 14.8779 11.0465 14.8249 10.9935 14.719C10.9353 14.592 10.8294 14.6396 10.7447 14.6926C10.5964 14.7932 10.5064 14.7614 10.4376 14.6026C10.4005 14.5126 10.3476 14.4278 10.2946 14.3484C10.1782 14.1843 10.1252 14.0414 10.3688 13.9408C10.4535 13.909 10.4852 13.8243 10.4323 13.7449C10.3741 13.6549 10.2841 13.6866 10.2258 13.7343C10.0352 13.8772 9.94521 13.7766 9.87108 13.6072C9.83932 13.5331 9.79696 13.4642 9.74931 13.4007C9.62754 13.2366 9.58518 13.0936 9.82873 12.993C9.90815 12.9613 9.9505 12.8818 9.89756 12.7971C9.83932 12.7124 9.7546 12.7283 9.69107 12.7813C9.51106 12.9242 9.41046 12.8501 9.33634 12.6701C9.29928 12.5801 9.24633 12.4953 9.18809 12.4212C9.07691 12.2624 9.06102 12.1406 9.2728 12.0559C9.34693 12.0294 9.42105 11.9606 9.3681 11.8706C9.30987 11.7753 9.20927 11.7912 9.13515 11.8441C8.96572 11.9712 8.87042 11.9077 8.7963 11.7382C8.75923 11.6588 8.71158 11.5847 8.66393 11.5106C8.55275 11.3464 8.48921 11.2035 8.73806 11.1029C8.80689 11.0764 8.85454 11.0129 8.81747 10.9335C8.77512 10.8382 8.67982 10.8329 8.61628 10.8858C8.38332 11.0711 8.29861 10.9017 8.2086 10.727C8.17154 10.6476 8.12389 10.5681 8.07624 10.4993C7.98094 10.3617 7.98094 10.2664 8.15036 10.1869C8.22978 10.1499 8.31979 10.0916 8.26684 9.98575C8.20331 9.85868 8.09742 9.91162 8.018 9.96986C7.86446 10.0758 7.78504 10.0175 7.71621 9.86927C7.67386 9.77396 7.61562 9.68396 7.55738 9.59395C7.45149 9.44041 7.41443 9.31334 7.6368 9.22333C7.71621 9.19157 7.77445 9.12274 7.7268 9.03273C7.67386 8.92684 7.57326 8.94802 7.49914 9.00626C7.32971 9.13333 7.23441 9.08038 7.16029 8.90566C7.11793 8.81036 7.06499 8.71506 7.00145 8.63035C6.89556 8.4821 6.87438 8.37092 7.07558 8.28091C7.1497 8.24914 7.245 8.18561 7.17617 8.07972C7.11264 7.98442 7.01734 8.01089 6.94321 8.06913C6.78438 8.1909 6.69437 8.13796 6.62554 7.97383C6.58319 7.87853 6.53024 7.78322 6.46671 7.69851C6.35552 7.54497 6.32905 7.4179 6.54612 7.33319C6.62025 7.30142 6.68378 7.23259 6.63084 7.14259C6.5726 7.0367 6.472 7.06846 6.40317 7.12141C6.22316 7.25907 6.13845 7.16376 6.06432 7.00493C6.02197 6.91492 5.97432 6.83021 5.91608 6.75609C5.7996 6.59725 5.78901 6.47548 5.99549 6.39076C6.07491 6.359 6.12786 6.29017 6.08021 6.20016C6.02197 6.08898 5.93196 6.11545 5.85784 6.17369C5.68841 6.30605 5.59311 6.24252 5.51899 6.07309C5.48193 5.99368 5.43957 5.91426 5.38662 5.84543C5.27014 5.6813 5.2119 5.53835 5.46075 5.43775C5.53487 5.40598 5.58252 5.32657 5.52428 5.24185C5.47663 5.17302 5.39192 5.17302 5.33368 5.22067C5.09542 5.41657 5.0213 5.23656 4.93129 5.06713C4.88894 4.98772 4.85188 4.9083 4.79893 4.83947C4.70363 4.70711 4.69304 4.60651 4.86247 4.52709C4.94718 4.48474 5.04777 4.4212 4.97365 4.30472C4.91012 4.20942 4.80952 4.25178 4.74069 4.29943C4.59245 4.41061 4.50244 4.35767 4.43361 4.20942C4.39125 4.12471 4.3436 4.0347 4.29066 3.95528C4.18477 3.79645 4.10005 3.6535 4.35949 3.5529C4.43361 3.52643 4.49185 3.4523 4.43361 3.3623C4.38066 3.27229 4.29595 3.28817 4.22712 3.34112C4.02593 3.49466 3.93063 3.37818 3.85121 3.20346C3.81415 3.12404 3.77179 3.04463 3.71885 2.9758C3.61296 2.83285 3.58119 2.71107 3.78768 2.62636C3.87768 2.5893 3.93592 2.51517 3.88298 2.41458C3.82474 2.30339 3.73473 2.35634 3.66061 2.40399C3.52825 2.494 3.43824 2.49929 3.34823 2.33516C3.26881 2.18162 3.21057 2.08102 3.40118 1.94866C3.80886 1.66276 3.79827 1.64687 4.04711 2.08102C6.49847 6.32723 8.94984 10.5681 11.4012 14.8144C11.4541 14.9097 11.5018 14.9997 11.5494 15.0791Z" fill="#7782AD"/>
<path d="M12.1847 14.6978C12.1635 14.8461 12.0629 14.8937 11.957 14.9467C11.8246 15.0102 11.7664 14.9255 11.7081 14.8302C11.2952 14.1101 10.8769 13.3954 10.4639 12.6806C8.3726 9.05916 6.28656 5.4377 4.19522 1.82154C4.12639 1.69977 3.98873 1.578 4.18993 1.44034C4.38053 1.30797 4.49171 1.36092 4.60819 1.55682C5.51356 3.13988 6.42951 4.71765 7.34017 6.30071C8.91264 9.02739 10.4904 11.7488 12.0629 14.4755C12.1052 14.5496 12.1476 14.629 12.1847 14.6978Z" fill="#7782AD"/>
</svg>
