<svg width="15" height="17" viewBox="0 0 15 17" fill="none" xmlns="http://www.w3.org/2000/svg">
<path d="M0.354462 9.97957C0.354462 8.46059 0.359315 6.93676 0.349609 5.41778C0.349609 5.2091 0.407845 5.04895 0.553434 4.89851C1.76182 3.64644 2.96051 2.38952 4.15434 1.12775C4.31934 0.953044 4.48919 0.880249 4.73184 0.880249C6.56627 0.889955 8.40069 0.885102 10.24 0.885102C11.3173 0.885102 11.9579 1.52569 11.9579 2.60305C11.9579 4.03468 11.9628 5.46631 11.9531 6.89793C11.9531 7.12117 11.9967 7.20852 12.2394 7.26191C13.6516 7.56279 14.6222 8.78574 14.5931 10.1882C14.5591 11.6393 13.5837 12.7894 12.1472 13.0612C12.0064 13.0855 11.9579 13.1437 11.9579 13.2844C11.9628 13.6872 11.9628 14.0949 11.9579 14.4977C11.9482 15.4537 11.2979 16.1186 10.3419 16.1234C7.55142 16.1283 4.76096 16.1283 1.9705 16.1234C1.00476 16.1234 0.354462 15.4537 0.354462 14.4734C0.349609 12.969 0.354462 11.4743 0.354462 9.97957ZM11.6231 7.81515C10.337 7.82 9.29364 8.86824 9.29849 10.1494C9.30334 11.4355 10.3467 12.4789 11.6328 12.4789C12.9237 12.4789 13.9719 11.4209 13.967 10.1252C13.967 8.84883 12.914 7.81029 11.6231 7.81515ZM6.1392 7.34441C7.18259 7.34441 8.22598 7.34441 9.26937 7.34441C9.49746 7.34441 9.63334 7.22308 9.62364 7.03382C9.61393 6.82514 9.4829 6.73779 9.28393 6.73293C9.2354 6.73293 9.18687 6.73293 9.13834 6.73293C7.13406 6.73293 5.12979 6.73293 3.12066 6.73293C3.06242 6.73293 3.00904 6.73293 2.9508 6.73779C2.78095 6.76205 2.68874 6.85911 2.67904 7.02896C2.67418 7.19882 2.77124 7.30073 2.93139 7.3347C3.00904 7.34926 3.09154 7.34441 3.17404 7.34441C4.16405 7.34441 5.15405 7.34441 6.1392 7.34441ZM1.45609 4.86939C1.46579 4.8888 1.4755 4.90822 1.48035 4.92763C2.053 4.92763 2.62565 4.93248 3.1983 4.92763C3.8486 4.92277 4.21257 4.5588 4.21257 3.8988C4.21743 3.35526 4.21257 2.81658 4.21257 2.27305C4.21257 2.20511 4.23684 2.12746 4.14949 2.04496C3.25169 2.98644 2.35389 3.92792 1.45609 4.86939ZM5.52773 9.44089C5.52773 9.44089 5.52773 9.43604 5.52773 9.44089C6.36244 9.44089 7.1923 9.44089 8.02701 9.43604C8.2551 9.43604 8.39584 9.30016 8.38128 9.12545C8.36672 8.91677 8.22598 8.83912 8.03672 8.82456C7.98819 8.81971 7.93966 8.81971 7.89113 8.81971C6.32362 8.81971 4.75611 8.81971 3.18374 8.81971C3.10124 8.81971 3.01874 8.81971 2.9411 8.83427C2.78095 8.86824 2.67904 8.9653 2.68389 9.14001C2.68874 9.30986 2.79065 9.40692 2.95566 9.42633C3.0333 9.43604 3.1158 9.43604 3.1983 9.43604C3.97478 9.44089 4.75125 9.44089 5.52773 9.44089ZM5.14435 11.5325C5.76553 11.5325 6.39156 11.5325 7.01274 11.5325C7.10009 11.5325 7.1923 11.5325 7.27965 11.5277C7.46407 11.5131 7.59024 11.4209 7.59024 11.2219C7.58539 11.0327 7.47377 10.9308 7.27965 10.921C7.23112 10.921 7.18259 10.921 7.13406 10.921C5.8092 10.921 4.48434 10.921 3.15948 10.921C3.08669 10.921 3.01389 10.9162 2.9411 10.9308C2.79065 10.9599 2.69845 11.0569 2.68874 11.2122C2.67904 11.3724 2.77124 11.4743 2.91683 11.5131C2.99933 11.5374 3.09154 11.5325 3.18374 11.5325C3.83404 11.5325 4.48919 11.5325 5.14435 11.5325Z" fill="#7782AD"/>
<path d="M11.3218 11.2948C11.2102 11.2996 11.118 11.2462 11.0452 11.1686C10.7298 10.8434 10.4143 10.5231 10.0989 10.198C9.95815 10.0524 9.90476 9.8971 10.0601 9.72724C10.1862 9.58651 10.3804 9.60592 10.5502 9.77092C10.754 9.96989 10.953 10.1689 11.1423 10.3775C11.2636 10.5134 11.3461 10.5328 11.4868 10.3872C11.8799 9.96989 12.2973 9.57195 12.7001 9.16915C12.7826 9.08665 12.8651 9.009 12.9864 9.00415C13.1223 8.9993 13.2193 9.06724 13.2776 9.18371C13.3407 9.31474 13.3067 9.44092 13.2048 9.53798C12.9621 9.78548 12.7146 10.033 12.472 10.2756C12.1857 10.562 11.8993 10.8483 11.6179 11.1346C11.5305 11.2123 11.4432 11.285 11.3218 11.2948Z" fill="#7782AD"/>
</svg>
