<svg width="17" height="15" viewBox="0 0 17 15" fill="none" xmlns="http://www.w3.org/2000/svg">
<path d="M7.50001 11.1849C7.06969 10.7911 6.67299 10.4104 6.25612 10.0493C6.0813 9.89837 6.06786 9.79335 6.26284 9.64894C6.53179 9.45201 6.80074 9.25508 7.07641 9.07129C7.25795 8.95313 7.37898 8.97282 7.54035 9.11724C8.50857 10.0165 9.6516 10.3513 10.9694 10.1347C11.7427 10.0034 12.4083 9.66206 12.9664 9.13036C13.1345 8.96626 13.2555 8.96626 13.4505 9.08441C15.0171 10.0362 15.9047 11.4081 16.1131 13.2001C16.1467 13.5021 16.1736 13.8106 16.1803 14.1126C16.187 14.3554 16.0996 14.4342 15.8509 14.4342C14.6271 14.4277 13.4102 14.4342 12.1864 14.4342C10.7207 14.4342 9.2549 14.4277 7.7824 14.4342C7.52018 14.4342 7.31174 14.3554 7.10331 14.2176C6.35698 13.7187 5.7115 13.1542 5.41566 12.2812C5.07947 11.29 5.07275 11.2965 6.1082 11.29C6.51162 11.29 6.91504 11.2834 7.31847 11.2768C7.35209 11.2768 7.37898 11.2506 7.50001 11.1849Z" fill="#7782AD"/>
<path d="M10.2832 2.49398C12.2331 2.50711 13.7862 4.04312 13.7795 5.9533C13.7728 7.85034 12.1793 9.39293 10.2361 9.37323C8.27279 9.35354 6.71289 7.82409 6.71289 5.92704C6.71961 4.01687 8.31314 2.48085 10.2832 2.49398Z" fill="#7782AD"/>
<path d="M5.40227 0.419678C6.63271 0.426242 7.68833 1.18112 8.05813 2.27077C8.11192 2.43488 8.1052 2.52021 7.93711 2.60554C6.74029 3.18975 6.1486 4.18751 5.99395 5.44126C5.95361 5.75634 5.83258 5.83512 5.53002 5.84168C4.09114 5.85481 2.84053 4.86362 2.67916 3.56391C2.49089 2.07385 3.34481 0.833222 4.80385 0.478757C5.00557 0.426244 5.22072 0.426242 5.40227 0.419678Z" fill="#7782AD"/>
<path d="M6.05376 14.3751C4.46696 13.9878 3.27687 13.2658 2.67846 11.8019C2.61122 11.6378 2.55743 11.4737 2.51036 11.3031C2.37589 10.8173 2.37589 10.8173 1.85144 10.8173C1.61611 10.8173 1.3875 10.8173 1.16562 10.8173C1.12528 10.6926 1.21269 10.6532 1.25975 10.6007C1.93212 9.97054 2.6045 9.34694 3.27687 8.72334C3.35083 8.6577 3.41134 8.53298 3.54582 8.6577C4.28542 9.3535 5.03176 10.0427 5.75119 10.8173C5.42173 10.8173 5.09899 10.8304 4.76953 10.8108C4.49386 10.7911 4.43335 10.9027 4.44679 11.1587C4.50731 12.373 4.92418 13.4167 5.90584 14.211C5.94618 14.2373 5.96635 14.2766 6.05376 14.3751Z" fill="#7782AD"/>
<path d="M1.44852 9.03185C0.675297 9.02529 0.682021 9.02529 0.863561 8.382C1.17285 7.27922 1.77799 6.37337 2.73948 5.71038C2.97481 5.54628 3.12273 5.52658 3.36478 5.73664C4.07077 6.35367 4.90451 6.60968 5.85256 6.46526C6.10134 6.42588 6.19547 6.49808 6.23581 6.72783C6.28288 6.97727 6.42408 7.22671 6.39046 7.45645C6.35011 7.70589 6.0072 7.74528 5.81894 7.90282C5.60378 8.09318 5.36845 8.27041 5.18691 8.48703C5.05244 8.65113 4.95158 8.64457 4.81038 8.50016C4.49437 8.17851 4.15818 7.87 3.84217 7.54179C3.70097 7.39737 3.60684 7.39081 3.45892 7.53522C3.04877 7.95533 2.59828 8.33605 2.2083 8.76929C1.96625 9.05155 1.67713 9.04498 1.44852 9.03185Z" fill="#7782AD"/>
</svg>
