<svg width="58" height="59" viewBox="0 0 58 59" fill="none" xmlns="http://www.w3.org/2000/svg">
<g opacity="0.3">
<g filter="url(#filter0_d)">
<rect x="8.67188" y="0.136475" width="40.6268" height="42.5077" rx="8" fill="#6764F1"/>
<rect x="8.92188" y="0.386475" width="40.1268" height="42.0077" rx="7.75" stroke="#7782AD" stroke-opacity="0.3" stroke-width="0.5"/>
</g>
<g filter="url(#filter1_d)">
<mask id="mask0" mask-type="alpha" maskUnits="userSpaceOnUse" x="8" y="0" width="42" height="43">
<rect x="8.67188" y="0.136475" width="40.6268" height="42.5077" rx="16" fill="#6764F1"/>
<rect x="8.92188" y="0.386475" width="40.1268" height="42.0077" rx="15.75" stroke="#7782AD" stroke-opacity="0.3" stroke-width="0.5"/>
</mask>
<g mask="url(#mask0)">
<path d="M21.7553 15.9359C21.6896 15.666 21.6532 15.3962 21.5219 15.1409C21.3614 14.9878 21.1208 15.1118 20.9457 14.9878C19.8517 14.8054 18.7723 14.5575 17.7221 14.2074C17.0657 13.9959 16.4238 13.7406 15.8696 13.3249C15.0162 12.6904 14.8047 11.9392 15.782 11.1734C16.3801 10.7066 17.0875 10.4367 17.8169 10.196C18.59 9.94078 19.3704 9.76574 20.1507 9.56882C20.4935 9.4813 20.8436 9.46671 21.1864 9.40107C22.047 9.23333 22.9076 9.05099 23.7901 8.96347C25.7958 8.75926 27.8087 8.84678 29.8217 8.83219C31.3606 8.81761 32.9068 8.9343 34.4092 9.23333C35.4303 9.43754 36.4732 9.59799 37.4797 9.9189C37.538 9.94078 37.5964 9.96266 37.6401 9.99913C37.735 10.1085 37.7131 10.196 37.5745 10.2471C37.4724 10.2836 37.363 10.2836 37.2536 10.2836C36.0064 10.2544 34.7593 10.2982 33.5121 10.2909C32.6661 10.2909 31.8201 10.4076 30.9813 10.4586C29.6467 10.5388 28.3411 10.8087 27.0356 11.0275C26.4376 11.1296 25.8614 11.3046 25.2561 11.538C25.3801 11.5526 25.4676 11.5599 25.5332 11.6182C25.5405 11.8443 25.3509 11.786 25.2342 11.8152C24.5413 11.9537 23.8339 11.9902 23.1483 12.1507C22.222 12.5226 21.8209 13.2665 21.7334 14.2074C21.6969 14.5575 21.7917 14.9002 21.8574 15.243C21.9011 15.4691 21.9376 15.6952 21.9741 15.9213C21.9741 16.0161 21.9741 16.1182 21.8647 16.162C21.7334 16.1328 21.8282 15.9942 21.7553 15.9359Z" fill="#AFAFAF"/>
<path d="M22.0391 9.23336C22.2579 8.95621 22.1995 8.59884 22.2433 8.28523C22.2943 7.86951 22.3162 7.44649 22.3454 7.02348C22.4183 5.95865 22.7903 5.02511 23.7822 4.46352C24.2708 4.18637 24.8105 4.03321 25.3575 4.00404C26.7943 3.91652 28.2384 3.85817 29.6752 3.93111C30.492 3.96757 31.3089 4.04051 32.1184 4.20825C33.103 4.40517 34.0074 5.35331 34.2043 6.3452C34.3648 7.14747 34.3867 7.97161 34.5617 8.77388C34.6055 8.96351 34.6565 9.14584 34.7878 9.299C34.6201 9.36464 34.4888 9.28441 34.4304 9.14584C34.3283 8.88328 34.1168 8.82493 33.8834 8.79576C33.0447 8.70094 32.1987 8.61343 31.3526 8.51861C29.6314 8.32899 27.8883 8.35087 26.2181 7.80387C25.9045 7.70176 25.5909 7.59236 25.3502 7.36627C24.9418 6.97972 24.7668 6.50565 24.9053 5.94407C25.0512 5.35331 25.2627 4.79172 25.569 4.25201C24.176 4.20825 23.0164 4.923 22.71 6.19204C22.5277 6.94325 22.4475 7.74552 22.4402 8.5332C22.4402 8.67907 22.4548 8.82493 22.3964 8.96351C22.3308 9.13125 22.2797 9.31358 22.0391 9.23336Z" fill="#E4E4E4"/>
<path d="M22.0398 9.23426C22.3096 9.18321 22.3388 8.9717 22.3315 8.76749C22.2951 7.91417 22.4482 7.07544 22.5795 6.25129C22.7181 5.40527 23.3234 4.81451 24.1038 4.42796C24.5633 4.20187 25.0811 4.26751 25.5406 4.07788C25.6062 4.04871 25.6937 4.04871 25.7302 4.12893C25.774 4.21645 25.7229 4.30397 25.6719 4.36232C25.3364 4.75616 25.227 5.24481 25.0738 5.71159C24.7602 6.69619 25.1905 7.41093 26.1751 7.70266C27.4369 8.07463 28.7205 8.2059 30.026 8.28613C30.8647 8.33718 31.7034 8.46846 32.5349 8.55598C33.0235 8.60704 33.5195 8.6508 34.0081 8.71644C34.2415 8.74561 34.4968 8.7602 34.5041 9.11757C34.5041 9.25614 34.6572 9.28532 34.7812 9.2999C35.547 9.43848 36.3128 9.55517 37.0713 9.7448C37.735 9.91254 38.3768 10.1168 39.0114 10.3574C39.7042 10.6127 40.4263 11.0357 40.8201 11.4514C40.893 11.342 40.966 11.2326 41.0316 11.1232C41.0827 11.1597 41.1046 11.2108 41.1118 11.2691C41.1118 11.3275 41.1046 11.3858 41.0827 11.4369C40.8493 11.7286 40.7764 11.7578 40.543 11.5171C39.9449 10.8971 39.1499 10.6565 38.3841 10.3574C38.1216 10.2553 37.859 10.1678 37.611 10.0365C37.0203 9.87608 36.4295 9.71562 35.8242 9.61352C34.8979 9.46036 33.9863 9.25614 33.0527 9.14674C30.5657 8.84772 28.0714 8.92794 25.5771 8.95712C24.3882 8.9717 23.1994 9.10298 22.0179 9.31449C20.9968 9.49682 19.9685 9.6354 18.9693 9.89796C17.9191 10.1824 16.8396 10.4741 15.9353 11.1378C15.2935 11.6046 15.1111 11.8015 15.2789 12.5163C15.381 12.9539 15.7383 13.2237 16.1103 13.4352C17.3939 14.1573 18.7943 14.5219 20.231 14.7845C20.4717 14.8282 20.7124 14.9231 20.9531 14.996C20.355 15.0325 19.8007 14.821 19.2246 14.6897C18.7067 14.5803 18.2108 14.4271 17.7148 14.2667C16.8834 13.9895 16.0665 13.6686 15.4393 13.0122C14.9361 12.4944 14.9434 11.9766 15.4539 11.4369C16.0884 10.7586 16.9272 10.445 17.7878 10.1678C18.4004 9.9636 19.0203 9.78856 19.6476 9.64998C20.4353 9.46036 21.2302 9.2999 22.0398 9.23426Z" fill="#D9D9D9"/>
<path d="M34.1319 25.6288C34.0663 25.6726 34.0007 25.7455 33.9204 25.7674C33.3661 25.8987 33.2713 26.3581 33.2713 26.803C33.2713 27.3646 33.2422 27.9554 33.0744 28.444C32.8046 29.2098 33.0307 30.0121 32.7535 30.756C32.5639 31.2738 32.4253 31.8136 32.4034 32.3751C32.3888 32.7033 32.3451 33.017 32.4691 33.3379C32.6076 33.6879 32.5566 34.0453 32.3815 34.3808C31.9148 34.3298 31.4991 34.5413 31.076 34.6798C30.4634 34.7674 29.8508 34.8768 29.2308 34.8476C28.7859 34.8476 28.3337 34.8476 27.8889 34.8476C27.6044 34.833 27.32 34.8768 27.0428 34.8111C26.8532 34.6652 26.6271 34.7017 26.4156 34.6944C26.0509 34.7528 25.73 34.5704 25.3872 34.5267C25.1028 34.3443 25.0007 34.6507 24.8184 34.7455C24.8184 34.5194 24.8184 34.2933 24.6579 34.0964C24.4829 33.8849 24.6287 33.6369 24.6798 33.44C24.8111 32.9586 24.6506 32.5064 24.6652 32.0396C24.7017 32.0105 24.7308 32.0178 24.76 32.0396C24.7819 32.0688 24.7965 32.098 24.8111 32.1345C24.8402 32.3095 24.8986 32.4845 24.9496 32.6523C25.0445 32.9586 24.8038 33.2212 24.8402 33.5275C24.8402 33.5785 24.8402 33.6369 24.8475 33.6879C24.8767 33.7536 24.8913 33.8557 24.9569 33.8557C25.555 33.8849 26.102 34.1912 26.7 34.2058C26.7584 34.2131 26.8094 34.2204 26.8678 34.2349C27.4002 34.3735 27.9326 34.534 28.4942 34.4537C28.5671 34.4319 28.6474 34.4246 28.7203 34.4246C28.7568 34.4246 28.7932 34.4246 28.8297 34.4319C29.3475 34.4319 29.8653 34.3954 30.3759 34.2787C30.8062 34.1839 31.2365 34.0599 31.6741 33.9797C32.0169 33.9213 32.1992 33.7317 32.243 33.3889C32.2357 33.3524 32.2284 33.3233 32.2138 33.2868C32.0461 33.0097 32.0242 32.7252 32.1919 32.4335C32.17 32.2803 32.0679 32.2803 31.9512 32.3022C31.8127 32.3241 31.6668 32.3387 31.5282 32.346C31.3751 32.346 31.2219 32.3533 31.0687 32.3168C30.2227 32.0834 30.0404 31.8719 30.0987 30.9894C30.1425 30.3841 30.1863 29.7787 30.0987 29.1734C30.0769 29.0056 30.0914 28.8306 30.1935 28.6847C30.2811 28.5607 30.3832 28.4586 30.5509 28.4805C30.7333 28.5097 30.8062 28.6482 30.8427 28.8087C30.8791 28.9619 30.8718 29.1223 30.8645 29.2828C30.8499 29.7933 30.8281 30.2965 30.8135 30.8071C30.7989 31.3832 30.8791 31.6239 31.2219 31.6896C31.6522 31.7698 32.2794 31.4416 32.367 31.0405C32.4764 30.5299 32.6076 30.0267 32.6879 29.5089C32.717 29.2974 32.6587 29.1296 32.4837 28.9983C32.1846 28.7649 31.8783 28.5461 31.4772 28.5534C31.3313 28.5534 31.1854 28.5316 31.1198 28.3638C31.1125 28.269 31.1709 28.2252 31.2365 28.1815C31.6085 27.846 32.0169 27.7876 32.4618 28.021C32.5566 28.0721 32.6806 28.0721 32.7535 27.9627C32.8119 27.8679 32.8046 27.773 32.7243 27.7001C32.4253 27.4011 32.3086 26.9781 31.9658 26.7009C31.7762 26.5478 31.6157 26.3946 31.3605 26.3436C31.0906 26.2852 30.7989 26.2196 30.8208 25.833C30.8281 25.6361 30.9448 25.4756 30.9958 25.2933C31.2438 24.4692 31.3094 23.6231 31.3167 22.7698C31.3167 22.624 31.2803 22.4781 31.1781 22.3687C30.9812 22.1572 30.9156 21.88 30.8499 21.6175C30.7624 21.2674 30.9448 21.0996 31.3313 21.158C31.4042 21.2674 31.2948 21.333 31.2584 21.4133C31.1781 21.6102 31.2 21.7925 31.324 21.9603C31.4407 22.1134 31.6012 22.0405 31.7543 22.0259C32.6149 21.9384 33.461 21.7123 34.3143 21.5956C34.4966 21.5737 34.6644 21.5081 34.8394 21.4716C35.0217 21.4351 35.2114 21.3403 35.401 21.4497C35.4375 21.4935 35.4375 21.5518 35.3937 21.5737C34.8759 21.8654 35.0801 22.303 35.1749 22.7115C35.2332 22.9522 35.3572 23.1928 35.2332 23.4481C35.1311 23.5721 34.9853 23.5867 34.8467 23.6231C34.606 23.6742 34.3872 23.7617 34.1757 23.8857C33.9131 24.0316 33.76 24.2358 33.7235 24.5348C33.6943 24.7755 33.6433 25.0089 33.5995 25.2496C33.5558 25.4902 33.5849 25.6361 33.884 25.585C33.9788 25.5632 34.0663 25.5632 34.1319 25.6288Z" fill="#E4E4E4"/>
<path d="M41.4763 9.8899C41.5711 9.62005 41.6441 9.26268 42.0087 9.32103C42.3515 9.37208 42.3005 9.72945 42.3005 9.97742C42.3005 10.787 42.0671 11.5528 41.8921 12.3332C41.8629 12.479 41.8264 12.6103 41.8629 12.7635C41.9139 12.7416 41.9504 12.7343 41.9723 12.7124C42.4026 12.3478 42.7235 12.4353 42.9131 12.9969C42.9715 13.1646 42.9933 13.2448 43.1976 13.1792C43.4237 13.1063 43.5476 13.2959 43.657 13.4563C43.7737 13.6168 43.8102 13.7991 43.6789 13.9596C43.5112 14.1565 43.5331 14.3024 43.6935 14.492C43.905 14.74 43.7883 14.9661 43.5914 15.163C43.4237 15.3307 43.1976 15.4255 42.9788 15.4693C42.7089 15.5204 42.5922 15.6516 42.5047 15.8996C42.3807 16.2643 42.2203 16.5998 41.7389 16.5998C41.5784 16.5998 41.5274 16.7602 41.469 16.9061C40.8199 18.6857 40.2292 20.4871 39.4342 22.2083C39.3102 22.4782 39.1498 22.7408 39.0404 23.0179C38.8434 23.5138 38.3548 23.6305 37.9682 23.8785C37.8151 23.9733 37.64 24.0317 37.4723 24.1046C37.2097 24.2942 36.8815 24.3234 36.5971 24.4693H36.5898C36.3272 24.6443 36.0136 24.6735 35.7292 24.7902C35.6271 24.8339 35.4958 24.8631 35.3937 24.7537C35.3062 24.513 35.2551 24.2651 35.2624 24.0098C35.2843 23.3607 35.1822 22.7189 35.0509 22.0844C34.9999 21.8437 35.0509 21.7051 35.3135 21.6249C35.5542 21.5519 35.773 21.3915 36.0355 21.5009C36.1887 21.7051 35.9772 21.7124 35.8824 21.7489C35.3426 21.9604 35.3062 21.9604 35.401 22.5584C35.4885 23.1419 35.6198 23.7254 35.6052 24.3234C35.5979 24.5714 35.773 24.4766 35.8824 24.4401C36.4439 24.2796 36.9836 24.0608 37.5088 23.8129C37.8297 23.6597 38.1506 23.5284 38.4496 23.3388C38.6465 23.2148 38.7851 23.0617 38.7049 22.7991C38.4788 22.0479 38.6173 21.3258 38.982 20.6549C39.4634 19.7724 39.9447 18.8826 40.572 18.0876C40.9585 17.599 41.1408 17.0228 41.4034 16.4831C41.8337 16.3153 42.1765 16.0674 42.3369 15.5933C42.4099 15.3818 42.6797 15.3016 42.9058 15.2505C42.935 15.2359 42.9642 15.2213 43.0006 15.2067C43.0444 15.1849 43.0882 15.163 43.1319 15.1411C43.5768 14.8931 43.5987 14.791 43.3215 14.3534C43.307 14.3242 43.2997 14.2878 43.2924 14.2586C43.2778 14.1419 43.3361 14.0544 43.3872 13.9596C43.5476 13.6678 43.4528 13.4418 43.1319 13.4272C42.8037 13.4126 42.6287 13.274 42.5339 12.9677C42.4609 12.7343 42.3078 12.6614 42.1036 12.8583C42.0087 12.9458 41.9212 13.0479 41.8118 13.1208C41.6805 13.2157 41.5711 13.2084 41.4836 13.0552C41.4253 12.8218 41.418 12.5957 41.5347 12.3696C41.6003 12.2675 41.6951 12.1727 41.6514 12.0414C41.6003 11.8664 41.7097 11.7424 41.7899 11.6111C41.8264 11.4507 41.8045 11.2902 41.8118 11.1298C41.7681 10.8672 41.9504 10.6703 42.0233 10.4369C42.0306 10.291 42.0306 10.1525 42.0306 10.0066C42.016 9.83885 42.089 9.66381 41.9504 9.52524C41.8556 9.51794 41.8191 9.59088 41.7681 9.64922C41.7024 9.73674 41.666 9.85344 41.5566 9.90449C41.5274 9.91178 41.4982 9.91178 41.4763 9.8899Z" fill="#CB8261"/>
<path d="M26.1762 25.7382C25.8845 24.4911 25.7167 23.2366 25.9209 21.953C25.9647 21.6977 26.1033 21.4789 26.096 21.2164C26.0595 21.1361 26.0085 21.0851 25.9501 21.0559C25.9209 21.1143 25.8845 21.1653 25.848 21.2164C25.848 21.2164 25.8553 21.2164 25.8553 21.2237C25.7167 21.7634 25.7678 22.3979 25.0968 22.6386C24.9947 22.7042 24.9145 22.7917 24.7978 22.8501C23.9153 23.3023 23.4266 24.0826 23.0911 24.9724C22.9453 25.3517 23.0255 25.483 23.4266 25.5851C23.536 25.6142 23.6381 25.6288 23.7475 25.6142C24.382 25.5413 25.0311 25.6142 25.6657 25.4975C25.8407 25.4975 25.7969 25.6653 25.8626 25.7455C25.9355 25.8257 25.9793 26.0664 26.1543 25.8403C26.1762 25.8112 26.1835 25.7747 26.1762 25.7382Z" fill="#D9D9D9"/>
<path d="M25.1032 22.6385C24.9646 22.8865 24.6948 22.9668 24.4906 23.1272C23.7977 23.6377 23.3893 24.3379 23.1048 25.1329C23.0246 25.359 23.3893 25.5705 23.7539 25.5413C24.4249 25.4902 25.0959 25.4538 25.7669 25.41C25.8544 25.6653 25.6575 25.709 25.497 25.709C25.1397 25.709 24.7896 25.833 24.4249 25.7528C24.3447 25.7382 24.2426 25.709 24.1988 25.8039C24.1624 25.8768 24.2353 25.9351 24.2791 25.9862C24.3957 26.1102 24.4687 26.2633 24.5124 26.4311C24.527 26.504 24.527 26.5769 24.4833 26.6426C24.1624 26.6863 24.1332 26.38 23.98 26.2196C23.8925 26.1321 23.8852 25.9716 23.7321 25.9133C23.5497 26.5551 23.2653 27.1531 23.0246 27.7658C22.9079 28.0575 22.9371 28.0867 23.3455 28.1669C23.2872 28.4149 23.2872 28.4222 22.959 28.4149C22.711 28.4076 22.4849 28.4222 22.5068 28.7649C22.4849 28.7941 22.463 28.8087 22.4266 28.816C22.2515 28.7722 22.0838 28.6847 21.9014 28.7795C21.8796 28.0648 22.2078 27.4376 22.4266 26.7812C22.6381 26.1321 22.9225 25.5121 23.0684 24.8411C23.1996 24.6005 23.3528 24.3671 23.4622 24.1191C23.7758 23.3606 24.4103 22.9667 25.1032 22.6385Z" fill="#E0E0E0"/>
<path d="M35.4392 24.7537C35.7674 24.8048 36.03 24.6079 36.329 24.5276C36.4165 24.5057 36.504 24.4474 36.6062 24.462C36.4822 24.761 36.1686 24.6881 35.9498 24.7683C35.3225 25.0017 34.7828 25.4247 34.141 25.6289C33.4773 25.731 33.4773 25.731 33.5575 25.0746C33.594 24.7902 33.6232 24.4985 33.7107 24.2213C33.8128 23.8931 34.141 23.7837 34.4254 23.6597C34.6807 23.5503 34.9579 23.5066 35.2277 23.4409C35.3517 23.8639 35.2788 24.3307 35.4392 24.7537Z" fill="#DADADA"/>
<path d="M41.0531 11.2756C41.0458 11.2245 41.0385 11.1735 41.0312 11.1297C41.0969 10.7505 41.1698 10.3712 41.4032 10.0503C41.5345 10.1889 41.4251 10.3347 41.4251 10.4806C41.3667 10.7505 41.3084 11.0276 41.1552 11.2683C41.1261 11.2902 41.0896 11.2975 41.0531 11.2756Z" fill="#C0C0C0"/>
<path d="M36.6055 24.4618C36.8607 24.2576 37.1816 24.2066 37.4807 24.0972C37.2546 24.3889 36.9191 24.4035 36.6055 24.4618Z" fill="#DADADA"/>
<path d="M20.9531 14.9878C21.1428 15.0534 21.4053 14.8273 21.5293 15.1409C21.3251 15.1264 21.1063 15.1774 20.9531 14.9878Z" fill="#D9D9D9"/>
<path d="M41.3379 10.4734C41.3598 10.3275 41.3817 10.1889 41.4035 10.0431C41.4254 9.992 41.4473 9.94095 41.4765 9.88989C41.5056 9.88989 41.5275 9.88989 41.5567 9.88989C41.5713 10.116 41.688 10.3858 41.3379 10.4734Z" fill="#CA805F"/>
<path d="M37.6265 10.0356C38.1589 10.0794 38.6184 10.3638 39.107 10.5316C39.7197 10.7431 40.2594 11.064 40.7042 11.5381C40.8939 11.7423 40.9158 11.4287 41.0324 11.4141C41.1564 11.9538 41.244 12.4935 40.8355 12.9749C40.748 13.077 40.7115 13.2082 40.6605 13.3322C40.6021 13.4562 40.5219 13.5875 40.3833 13.5948C39.8582 13.624 39.7926 13.9959 39.7561 14.3971C39.603 14.7325 39.8072 15.0389 39.8218 15.3598C39.7926 15.3817 39.7561 15.3962 39.7124 15.3962C39.3769 15.2431 39.3331 14.9586 39.355 14.6377C39.3623 14.5137 39.4206 14.4043 39.4425 14.2877C39.5008 14.0251 39.4352 13.9595 39.1872 14.0543C38.4068 14.3606 37.6119 14.6013 36.795 14.7909C36.321 14.9003 35.8469 15.0024 35.3728 15.0607C35.03 15.1045 35.0009 15.3525 34.9133 15.5932C34.8331 15.8338 35.0154 15.8995 35.1759 15.9943C35.6135 16.2714 35.7667 17.1466 35.4458 17.5624C35.4093 17.6134 35.3509 17.6353 35.2853 17.628C35.1759 17.4821 35.2853 17.3217 35.2561 17.1758C35.3072 16.7017 35.2415 16.3006 34.6945 16.1402C34.5414 16.0964 34.5341 15.9432 34.5341 15.8047C34.5633 15.3744 34.7529 14.9732 34.7456 14.5283C34.731 13.3687 34.3663 12.8071 33.3015 12.3695C32.0179 12.0559 30.727 11.786 29.4069 11.7058C28.3712 11.6402 27.3283 11.5454 26.2926 11.7204C26.0374 11.7642 25.7602 11.8225 25.5195 11.6475C25.3299 11.6475 25.133 11.6475 24.9434 11.6475C25.3007 11.3703 25.7165 11.2536 26.1249 11.1369C27.3793 10.7869 28.6775 10.6775 29.9539 10.4295C30.3331 10.3566 30.7197 10.393 31.1062 10.3493C32.6232 10.1888 34.1475 10.1669 35.6646 10.1888C36.248 10.1961 36.8315 10.1961 37.4222 10.1888C37.5171 10.1742 37.6994 10.2544 37.6265 10.0356Z" fill="#C0C0C0"/>
<path d="M25.5326 11.6402C26.1598 11.6547 26.7797 11.5235 27.407 11.5016C28.3259 11.4797 29.2376 11.5672 30.1492 11.6474C31.2505 11.7496 32.3227 11.9975 33.3875 12.2747C33.2562 12.4278 33.2708 12.5956 33.3073 12.7852C33.5406 13.923 33.723 15.0753 33.9126 16.2277C33.9345 16.3589 33.9345 16.4902 33.9126 16.6288C33.8615 16.833 34.0001 17.0664 33.8397 17.256C33.5479 17.1977 33.5042 16.957 33.5333 16.7309C33.6209 16.1183 33.4312 15.5348 33.351 14.9367C33.2781 14.4189 33.1541 13.9157 33.0885 13.3978C33.0009 12.7414 32.9061 12.6466 32.1914 12.5883C32.2278 12.7779 32.3227 12.9457 32.3445 13.1353C32.381 13.5072 32.2862 13.6531 31.9142 13.7042C31.5204 13.7625 31.1484 13.6385 30.7838 13.5145C30.5868 13.4489 30.3389 13.4562 30.2514 13.2009C30.3462 13.0332 30.4774 13.1134 30.6014 13.1499C30.9223 13.252 31.2432 13.3541 31.5787 13.4051C31.7319 13.427 31.9069 13.4489 32.009 13.2957C32.1111 13.1426 32.009 12.9894 31.9361 12.8581C31.5131 12.1215 30.6744 11.9465 30.1055 12.4716C29.8648 12.6977 29.8648 12.756 30.1201 12.9675C30.1857 13.0186 30.368 13.0478 30.2149 13.2009C29.9304 13.2593 29.6679 13.1572 29.5804 12.9019C29.4418 12.5226 29.8283 12.3768 30.0253 12.1215C29.6752 12.0996 29.3251 12.0194 28.975 12.0194C28.1509 12.034 27.3267 11.9538 26.5099 12.1361C26.4296 12.158 26.3421 12.1507 26.2546 12.1288C25.6128 11.9319 24.9564 11.9756 24.3219 12.1142C23.8478 12.2163 23.5925 12.6248 23.5998 13.1061C23.6071 13.7844 23.5998 14.4554 23.3956 15.1191C23.2643 15.5348 23.2862 15.9797 23.3373 16.4173C23.3519 16.5267 23.3737 16.6653 23.2643 16.7163C23.1258 16.7819 23.0601 16.6434 22.9799 16.5486C22.8559 16.3516 22.8559 16.1328 22.8851 15.914C23.0018 14.8784 23.0747 13.8354 23.2789 12.8144C23.3373 12.5299 23.3519 12.2601 23.0747 12.0632C23.7895 11.8662 24.5334 11.8517 25.2554 11.7058C25.3575 11.6912 25.4596 11.7277 25.5326 11.6402Z" fill="#B46A4F"/>
<path d="M23.0836 12.0632C23.3826 12.0195 23.4628 12.1581 23.4264 12.4425C23.3097 13.2666 23.1784 14.0835 23.1055 14.9149C23.0617 15.4473 22.8721 15.9798 23.0617 16.5195C22.9377 16.7237 22.7992 16.6216 22.6825 16.5195C22.4928 16.3517 22.274 16.235 22.0406 16.1548C21.9385 16.1256 21.9458 16.0162 21.8875 15.9579C21.7781 15.3088 21.5593 14.6815 21.6541 14.0033C21.7854 13.0843 22.2376 12.4279 23.0836 12.0632Z" fill="#2D2436"/>
<path d="M21.8938 15.9506C21.9448 16.0016 21.9959 16.0454 22.0469 16.0964C22.1709 16.1548 22.2803 16.2204 22.3241 16.3663C22.397 16.607 22.3022 16.7601 22.0542 16.8039C21.7771 16.8549 21.7114 16.9716 21.8646 17.2123C22.0396 17.4749 22.2293 17.7228 22.4262 17.9781C22.5721 18.175 22.6231 18.3647 22.4116 18.5543C21.7114 18.0365 21.3468 17.1248 21.5802 16.4903C21.6312 16.3517 21.6969 16.2277 21.8281 16.1475C21.9157 16.1037 21.8865 16.0235 21.8938 15.9506Z" fill="#C68061"/>
<path d="M39.6606 14.4044C39.6095 14.1491 39.7627 13.9376 39.8429 13.7115C39.894 13.573 40.018 13.5073 40.1638 13.5292C40.4337 13.5584 40.565 13.4271 40.616 13.1718C40.6379 13.0551 40.7254 12.9603 40.7911 12.8582C40.9953 12.5738 41.1265 12.2675 40.988 11.9101C40.9223 11.7278 41.0244 11.5819 41.0244 11.4141C41.0317 11.3631 41.039 11.312 41.0463 11.2683C41.0682 11.2683 41.0901 11.2683 41.1047 11.261C41.2651 11.7934 41.3016 12.3258 41.0463 12.8363C40.8713 13.1937 40.8567 13.201 41.2651 13.2083C41.3599 13.2083 41.462 13.2083 41.5569 13.2156C41.9653 13.2667 42.1549 13.5584 42.0163 13.9376C41.9507 14.1346 41.8632 14.3242 41.7538 14.4919C41.5496 14.8128 41.2651 15.0243 40.8786 14.9587C40.4774 14.8931 40.2295 14.6086 40.1055 14.2221C40.0763 14.12 40.0836 14.0033 40.0544 13.8793C39.8575 14.0252 39.9377 14.3607 39.6606 14.4044Z" fill="#CA7E5D"/>
<path d="M24.8852 32.6231C24.7612 32.4772 24.732 32.3022 24.7393 32.1126C24.8779 31.7041 24.8998 31.2884 24.7977 30.8727C24.7685 29.9319 24.7758 28.9983 24.7977 28.0575C24.8123 27.9627 24.8487 27.8678 24.8925 27.7876C25.0383 27.5178 25.228 27.4813 25.4395 27.7074C25.6072 27.8824 25.7604 28.0721 25.9063 28.2617C26.1396 28.5607 26.2053 28.8597 26.0375 29.239C25.8187 29.7349 25.775 30.2746 25.9354 30.7998C26.1834 31.6312 26.6939 32.1636 27.6129 32.2001C28.0797 32.273 28.4662 32.5356 28.8892 32.7033C29.0205 32.7544 29.1955 32.8054 29.2028 32.9732C29.2101 33.1701 28.984 33.119 28.8528 33.2284C29.1153 33.4108 29.4071 33.4618 29.7061 33.4691C30.2385 33.4764 30.7709 33.491 31.3033 33.4108C31.4784 33.3816 31.7628 33.3233 31.7993 33.5494C31.8357 33.739 31.5659 33.79 31.3981 33.8484C30.6834 34.0964 29.9541 34.2422 29.1955 34.1182C29.108 34.1036 29.0278 34.1182 28.9476 34.1474C28.4881 34.3224 28.0213 34.2933 27.5545 34.1766C27.2628 34.1036 26.9638 34.0599 26.6575 34.038C26.1032 34.0088 25.6145 33.7536 25.0967 33.6077C24.9071 33.5494 24.8633 33.3816 24.8925 33.192C24.9144 33.0024 24.9654 32.8127 24.8852 32.6231Z" fill="#D6D6D6"/>
<path d="M31.1416 28.3274C31.2072 28.4805 31.3458 28.4805 31.4771 28.4732C32.0022 28.4368 32.3523 28.7723 32.7096 29.0713C32.8555 29.188 32.8263 29.363 32.8044 29.5162C32.7242 30.0413 32.5783 30.5445 32.4835 31.0697C32.396 31.5948 31.5427 31.9886 31.054 31.7844C30.7331 31.6531 30.6602 31.3322 30.704 30.8071C30.7623 30.1653 30.755 29.5235 30.7623 28.8744C30.7623 28.7358 30.6967 28.5608 30.5143 28.568C30.3466 28.5753 30.1861 28.7285 30.208 28.8744C30.3101 29.7787 30.1643 30.6831 30.2299 31.5802C30.2518 31.8938 30.4268 32.1491 30.8061 32.1782C30.8936 32.1855 31.003 32.171 31.0686 32.2731C30.7404 32.4043 30.4049 32.3606 30.2445 32.0761C29.9819 31.6167 29.5881 31.4343 29.1067 31.3468C29.1505 31.0259 29.1651 30.6977 29.2672 30.3987C29.362 30.1361 29.2599 29.9027 29.2234 29.662C29.2015 29.5162 29.0484 29.6402 28.9973 29.5599C28.9171 29.4287 28.9317 29.2828 28.939 29.1369C28.939 28.8962 28.9025 28.6774 28.6983 28.5243C28.5816 28.4368 28.5451 28.342 28.6691 28.2326C28.9098 28.0575 29.1213 27.846 29.4203 27.7731C29.5297 27.7804 29.5808 27.8533 29.6391 27.9335C29.9017 28.3274 30.2664 28.4586 30.7258 28.342C30.8644 28.2982 31.003 28.2253 31.1416 28.3274Z" fill="#DCDCDC"/>
<path d="M24.8836 32.6231C25.0295 32.82 24.942 33.0461 24.9493 33.2576C24.9566 33.4108 25.0076 33.5129 25.1535 33.5566C25.7953 33.739 26.4298 33.9578 27.1081 34.0088C27.5967 34.0453 28.0927 34.286 28.5668 34.1401C28.9387 34.0234 29.2742 34.0745 29.6389 34.0745C30.288 34.0745 30.9298 33.9432 31.5351 33.7025C31.6081 33.6733 31.7029 33.6587 31.7466 33.5129C30.6818 33.4691 29.5732 33.863 28.5595 33.2211C28.7126 33.0169 28.9606 33.0972 29.245 33.0023C28.6324 32.7179 28.1219 32.4481 27.5749 32.2657C27.8958 32.1782 28.1729 31.9521 28.5303 31.9594C28.5376 32.2001 28.6689 32.3022 28.9022 32.3022C29.442 32.3168 29.9817 32.4043 30.5214 32.4408C30.886 32.4626 31.2653 32.5064 31.5862 32.2584C31.7175 32.2511 31.8415 32.2657 31.9727 32.2147C32.2061 32.1271 32.3447 32.2001 32.3155 32.4772C32.0967 32.7325 31.8342 32.944 31.5789 33.1701C31.6956 33.1993 31.8269 33.1847 31.9654 33.1628C32.104 33.1336 32.2353 33.1336 32.3155 33.2795C32.3155 33.3014 32.3155 33.3305 32.3155 33.3524C32.3739 33.5785 32.2134 33.6733 32.0603 33.7681C31.7175 33.9724 31.3382 34.0963 30.9517 34.1912C30.2515 34.3589 29.5441 34.4756 28.822 34.5194C28.8001 34.5194 28.771 34.5194 28.7491 34.5194C28.7126 34.4902 28.6689 34.461 28.6178 34.461C27.8228 34.5194 27.0643 34.286 26.2985 34.162C26.1381 34.1401 25.9995 34.0818 25.8536 34.0234C25.8172 34.0161 25.7807 34.0088 25.7442 33.9942C25.5108 33.9359 25.292 33.8557 25.0587 33.7973C24.9274 33.7681 24.818 33.6952 24.7523 33.5712C24.6867 33.243 24.9638 32.9586 24.8836 32.6231Z" fill="#DCDCDC"/>
<path d="M31.7177 21.0414C31.6302 21.1727 31.4989 21.18 31.3676 21.1946C30.9446 21.2237 30.9082 21.2821 30.9957 21.6759C31.0613 21.9531 31.127 22.2083 31.3604 22.398C31.4406 22.4636 31.4333 22.5657 31.4406 22.6678C31.5208 23.4117 31.2801 24.1265 31.2728 24.8631C31.2728 25.0236 31.1416 25.1913 31.0759 25.3518C30.9592 25.2424 30.9665 25.0892 31.0322 24.9871C31.1707 24.7537 31.1343 24.4984 31.1416 24.2942C31.1707 24.6006 31.1051 24.9288 30.8863 25.2205C30.7112 24.8558 30.3028 24.6735 30.1497 24.2942C30.1497 24.2578 30.157 24.2213 30.1715 24.1921C30.3466 24.1046 30.4122 24.3161 30.5873 24.338C30.5581 24.09 30.4487 23.8931 30.2882 23.7108C30.0476 23.4336 29.7266 23.2659 29.4422 23.0398C29.1213 22.7845 29.114 22.697 29.362 22.3615C29.5808 22.1427 29.8215 21.9531 29.8433 21.5957C29.8506 21.4061 30.033 21.3477 30.2007 21.2967C30.4049 21.2383 30.6383 21.2894 30.8206 21.1435C30.9373 21.0779 31.0686 21.0414 31.2072 21.0341C31.3822 21.0414 31.5573 20.9101 31.7177 21.0414Z" fill="#C0C0C0"/>
<path d="M31.5788 32.2657C31.6153 32.3459 31.8414 32.4334 31.5497 32.4845C30.8641 32.6158 30.1858 32.5209 29.5075 32.4334C29.2304 32.397 28.9532 32.4042 28.6834 32.3678C28.4208 32.3313 28.3041 32.2073 28.5229 31.9666C28.6834 31.7187 28.7417 31.3759 29.1064 31.3103C29.5513 31.2519 29.9524 31.3978 30.1566 31.7843C30.3754 32.1854 30.6745 32.2876 31.0756 32.2584C31.2433 32.2584 31.4111 32.2657 31.5788 32.2657Z" fill="#D6D6D6"/>
<path d="M30.9242 25.8403C30.9023 26.2342 31.2232 26.2342 31.4639 26.2706C31.6462 26.2998 31.7994 26.3436 31.8942 26.4894C32.113 26.8103 32.536 26.9708 32.5944 27.4157C32.6017 27.4959 32.6746 27.5616 32.7621 27.5907C33.032 27.6855 32.9153 27.8971 32.8642 28.0429C32.8132 28.2253 32.6381 28.1888 32.4923 28.1523C32.4266 28.1377 32.361 28.094 32.2954 28.0648C31.989 27.9408 31.69 27.8752 31.4493 28.1888C31.4202 28.2253 31.3399 28.2253 31.2816 28.2471C31.2524 28.1669 31.2889 28.1086 31.3326 28.0502C31.7119 27.423 31.639 26.8906 31.1065 26.4749C31.0409 26.4238 30.968 26.38 30.895 26.3436C30.5814 26.1612 30.5887 26.0373 30.9242 25.8403Z" fill="#DCDCDC"/>
<path d="M35.4375 21.4789C35.8678 21.53 36.2617 21.3477 36.6701 21.2528C36.94 21.1945 37.0275 20.9028 37.1515 20.7058C37.7276 19.8233 38.2746 18.9263 38.8216 18.0292C39.2301 17.3582 39.5583 16.6362 39.8865 15.9214C39.9959 15.6734 39.7041 15.5713 39.7187 15.3598C39.7479 15.3598 39.7771 15.3525 39.799 15.3525C40.1053 15.564 40.149 15.7245 40.025 16.0892C39.7552 16.8623 39.3614 17.5697 38.9529 18.2699C38.3913 19.218 37.8443 20.1734 37.2025 21.0705C36.9254 21.4571 36.5753 21.654 36.0866 21.5519C35.9991 21.5519 35.9189 21.5446 35.8314 21.5519C35.0875 21.6321 35.0802 21.6831 35.1823 22.4125C35.299 23.1856 35.35 23.9733 35.423 24.7536C35.1896 24.3452 35.2187 23.893 35.2042 23.4408C35.2771 23.0689 35.0583 22.748 35.0072 22.3979C34.9635 21.9895 34.9562 21.6321 35.4375 21.4789Z" fill="#EACCBE"/>
<path d="M31.3547 28.1085C31.3328 28.1596 31.3036 28.2033 31.2817 28.2544C31.238 28.2763 31.1869 28.3055 31.1432 28.3273C30.6107 28.4878 30.0856 28.6118 29.6407 28.1085C29.5605 28.0137 29.5751 27.8387 29.4 27.8168C29.3855 27.7001 29.473 27.7074 29.5459 27.7074C29.6991 27.7585 29.7282 27.9262 29.8376 28.0137C29.9252 28.0939 30.0127 28.2106 30.144 28.1596C30.268 28.1085 30.2388 27.9773 30.2461 27.8751C30.2534 27.6855 30.2607 27.4886 30.2169 27.299C30.1804 27.1312 30.1877 26.9635 30.268 26.803C30.3336 26.6717 30.3628 26.5186 30.4649 26.4019C30.5889 26.3071 30.6837 26.3435 30.7566 26.4675C30.8441 26.8468 30.7931 27.2406 30.8004 27.6272C30.815 28.0721 30.8077 28.0721 31.2526 28.0721C31.2963 28.0648 31.3255 28.0867 31.3547 28.1085Z" fill="#ADD67A"/>
<path d="M30.7048 26.4311C30.6318 26.3801 30.5662 26.3801 30.4933 26.4311C30.2599 26.3509 30.0557 26.628 29.8223 26.4968C29.8223 26.2925 29.9973 26.2634 30.1286 26.1977C30.2453 26.1467 30.3911 26.1248 30.4057 25.957C30.5662 25.7091 30.5516 25.3517 30.8579 25.184C31.0767 24.7901 31.0913 24.3525 31.1424 23.9149C31.2372 24.2358 31.2809 24.5713 31.1642 24.8776C31.1059 25.0308 31.0694 25.1694 31.0767 25.3298C31.1059 25.5194 30.8871 25.6361 30.9236 25.8258C30.7266 26.03 30.6683 26.1977 31.0257 26.2852C31.0767 26.2998 31.1059 26.3655 31.1497 26.4019C31.0038 26.5405 30.8506 26.4384 30.7048 26.4311Z" fill="#9E9D9D"/>
<path d="M28.8164 34.5193C29.3342 34.3297 29.8958 34.3735 30.4209 34.2276C30.9606 34.0818 31.5149 33.9651 32.0109 33.6806C32.1495 33.6004 32.2953 33.5348 32.3026 33.3524C32.3901 33.7025 32.1276 34.0745 31.7556 34.1109C31.2451 34.1547 30.7637 34.3224 30.2678 34.4172C29.7864 34.5048 29.3051 34.5631 28.8164 34.5193Z" fill="#E2E2E2"/>
<path d="M31.1418 34.5851C31.2148 34.5924 31.295 34.5997 31.3679 34.607C31.1564 34.906 30.8063 34.8623 30.5219 34.8987C29.2237 35.0373 27.9109 35.0227 26.6127 34.9133C26.372 34.8914 26.1459 34.7893 25.9052 34.7748C25.8615 34.7748 25.825 34.7602 25.7885 34.7529C25.6281 34.6727 25.3874 34.7164 25.3145 34.483C25.3217 34.4757 25.329 34.4611 25.3436 34.4539C25.7083 34.4393 26.0365 34.6945 26.4157 34.6143C26.6054 34.6872 26.8242 34.6289 27.0065 34.7456C27.2982 34.7529 27.5827 34.7529 27.8744 34.7602C28.3412 34.8185 28.808 34.8185 29.2674 34.7602C29.8947 34.7821 30.5146 34.6362 31.1418 34.5851Z" fill="#B6B5B5"/>
<path d="M32.3099 33.2796C32.0838 33.1264 31.865 33.3379 31.6389 33.2796C31.5587 33.2577 31.4493 33.2869 31.4201 33.192C31.3836 33.0753 31.5222 33.0899 31.5805 33.0462C31.8139 32.8493 32.0254 32.6159 32.3099 32.4773C32.0838 32.7471 32.1494 33.017 32.3099 33.2796Z" fill="#E2E2E2"/>
<path d="M25.7598 33.9359C26.4308 34.1182 27.109 34.2495 27.7946 34.3443C27.9988 34.3735 28.203 34.3662 28.4072 34.3735C28.5458 34.3808 28.6771 34.3662 28.7427 34.5194C28.6698 34.5194 28.5969 34.5194 28.5239 34.5194C28.1739 34.6288 27.8457 34.4756 27.5102 34.4392C27.2914 34.4173 27.0726 34.3516 26.8538 34.3006C26.8027 34.3006 26.759 34.3006 26.7079 34.3006C26.5037 34.2349 26.2849 34.2131 26.0807 34.1693C25.9567 34.1474 25.7889 34.1182 25.7598 33.9359Z" fill="#E0E0E0"/>
<path d="M25.7599 33.936C26.0078 34.2423 26.4309 34.0672 26.708 34.3006C26.2412 34.3152 25.8255 34.0964 25.3806 34.0235C25.2566 34.0016 25.1545 33.9214 25.0014 33.9797C24.768 34.0599 24.8336 33.8047 24.7461 33.7172C25.0962 33.6953 25.4098 33.9068 25.7599 33.936Z" fill="#E2E2E2"/>
<path d="M26.8457 34.3005C27.4146 34.3151 27.947 34.5485 28.5232 34.5193C28.2023 34.7236 27.8741 34.512 27.5532 34.4975C27.3198 34.4902 27.0645 34.4391 26.8457 34.3005Z" fill="#E2E2E2"/>
<path d="M24.8841 30.953C25.0154 31.3614 25.0154 31.7626 24.7383 32.1199C24.7383 32.0981 24.7383 32.0689 24.7383 32.047C24.7383 31.9741 24.7383 31.9011 24.7383 31.8282C24.8112 31.7261 24.7602 31.6094 24.7747 31.5073C24.8039 31.3177 24.731 31.1135 24.8841 30.953Z" fill="#E0E0E0"/>
<path d="M29.2602 34.7455C28.7934 34.8476 28.3267 34.8403 27.8672 34.7455C28.3267 34.7455 28.7934 34.7455 29.2602 34.7455Z" fill="#DCDCDC"/>
<path d="M25.7593 33.936C25.3947 33.9651 25.0884 33.7682 24.7383 33.7172C24.7383 33.6661 24.7383 33.6223 24.7383 33.5713C25.0519 33.7682 25.4384 33.7609 25.7593 33.936Z" fill="#E0E0E0"/>
<path d="M26.9912 34.7309C26.7796 34.7455 26.59 34.6944 26.4004 34.5996C26.5973 34.6507 26.8453 34.461 26.9912 34.7309Z" fill="#E2E2E2"/>
<path d="M21.9005 28.7649C22.0683 28.4294 22.2433 28.6336 22.4184 28.7649C22.9945 28.8378 23.527 29.0639 24.0885 29.1806C24.2709 29.2244 24.4313 29.3265 24.4386 29.538C24.4459 29.7422 24.4094 29.9537 24.1542 30.0194C24.0885 29.9683 24.074 29.8881 24.0594 29.8151C24.0448 29.713 24.0594 29.5745 23.9354 29.538C23.4905 29.4213 23.0821 29.166 22.6007 29.1806C22.3308 29.3411 22.2506 29.6109 22.2214 29.8808C22.185 30.2236 22.1923 30.5736 22.3381 30.9164C22.4913 31.2884 22.7174 31.5291 23.1185 31.5874C23.2863 31.6166 23.4467 31.6676 23.5707 31.7916C23.5926 32.0104 23.4248 31.9594 23.3082 31.974C23.1769 31.9886 23.0602 31.8792 22.9289 31.8864C22.8341 31.9667 23.0018 32.0688 22.8997 32.1417C22.7247 32.2219 22.608 32.1052 22.4767 32.0323C22.1558 31.7625 21.9005 31.4416 21.7693 31.0258C21.5359 32.1125 21.3462 33.1992 21.2368 34.2932C21.0837 35.8832 21.2368 37.4658 21.7766 38.9902C21.8057 39.0704 21.8495 39.1433 21.8422 39.2308C21.8203 39.2746 21.7911 39.2892 21.7474 39.26C21.4046 38.9537 21.3681 38.5088 21.2879 38.1004C21.0983 37.1522 20.9743 36.1895 20.9597 35.2195C20.9451 34.2203 21.1566 33.2503 21.3025 32.273C21.3754 31.7843 21.4629 31.2957 21.5432 30.807C21.638 30.1288 21.7911 29.4505 21.9005 28.7649Z" fill="#BA6346"/>
<path d="M24.8116 31.5364C24.8044 31.6385 24.8481 31.7479 24.7387 31.8281C24.7314 31.4343 24.5637 31.0915 24.4105 30.7414C24.3595 30.6247 24.2865 30.508 24.3011 30.3695C24.3303 30.3476 24.3595 30.3403 24.3886 30.3476C24.5491 30.3841 24.5564 30.2674 24.571 30.158C24.5856 30.0121 24.5637 29.8808 24.5199 29.7422C24.498 29.6328 24.498 29.5234 24.4907 29.414C24.4762 29.1588 24.5199 28.9035 24.4616 28.6482C24.4105 28.5534 24.3084 28.5024 24.2428 28.4221C24.1698 28.3273 24.1407 28.2252 24.199 28.1158C24.2574 28.0429 24.3449 28.0064 24.3813 27.9189C24.4543 27.598 24.4178 27.2771 24.3959 26.9562C24.3886 26.8468 24.3522 26.7447 24.4397 26.6499C24.4397 26.5769 24.4397 26.504 24.4397 26.4311C24.3813 26.2633 24.3522 26.0956 24.5199 25.9716C24.6585 25.8695 24.8189 25.8841 24.9648 25.9643C25.1398 26.0664 25.1471 26.2196 25.1326 26.4092C25.1107 26.7082 25.1253 27.0145 25.0304 27.3063C24.9502 27.5105 24.8992 27.722 24.8481 27.9408C24.8335 29.0056 24.8116 30.0704 24.8335 31.1353C24.8481 31.2738 24.8773 31.4051 24.8116 31.5364Z" fill="#E4E4E4"/>
<path d="M24.1552 30.0048C24.498 29.5088 24.4469 29.3484 23.8708 29.2171C23.3748 29.1004 22.8716 28.991 22.4121 28.7649C22.434 28.7649 22.4559 28.7649 22.4777 28.7576C22.558 28.6774 22.6601 28.6847 22.7622 28.6993C22.9008 28.7503 23.0102 28.7065 23.1269 28.619C23.3748 28.4367 23.6666 28.3711 23.9729 28.3783C24.25 28.3856 24.4542 28.4877 24.5491 28.7649C24.5636 28.8597 24.5636 28.9618 24.5491 29.0566C24.5053 29.2244 24.5126 29.3921 24.5272 29.5599C24.5491 29.8589 24.4615 30.0996 24.2354 30.2892C24.1552 30.5591 24.0166 30.8216 24.0166 31.1133C24.0166 31.23 23.9948 31.3321 23.8708 31.3832C23.7395 31.2155 23.8781 31.0404 23.8489 30.8727C23.8999 30.5663 23.951 30.26 24.1552 30.0048Z" fill="#D0CDCB"/>
<path d="M23.9373 30.88C23.9811 31.055 23.8498 31.2082 23.8644 31.3832C23.507 32.6012 23.1423 33.8119 22.7923 35.0299C22.6902 35.38 22.5224 35.7374 22.712 36.1166C22.6974 36.1239 22.6829 36.1385 22.6683 36.1458C22.5662 36.1458 22.4859 36.1093 22.4349 36.0218C22.3984 35.9343 22.3911 35.8395 22.3911 35.7447C22.3838 35.4894 22.4568 35.2633 22.5516 35.0299C22.6172 34.8257 22.7047 34.6215 22.7485 34.41C22.9235 33.8484 23.0184 33.2576 23.2517 32.7179C23.4122 32.3387 23.084 32.2876 22.9235 32.1126C22.8652 32.0105 22.6391 31.974 22.7412 31.8208C22.836 31.6823 22.9892 31.7552 23.1205 31.8281C23.2663 31.9157 23.4268 31.9521 23.5799 31.8208C23.5945 31.4708 23.5726 31.0988 23.9373 30.88Z" fill="#D9A48C"/>
<path d="M21.748 39.2601C21.7699 39.2601 21.7991 39.2601 21.821 39.2601C22.0398 39.3257 22.1492 39.5299 22.3169 39.6612C22.368 39.7123 22.4117 39.7706 22.4701 39.8144C22.543 39.8727 22.6014 39.9967 22.7035 39.9457C22.8056 39.8946 22.7399 39.7706 22.7545 39.6831C22.7545 39.6102 22.7545 39.5445 22.7545 39.4716C22.7618 39.3622 22.7837 39.2528 22.8348 39.1507C22.8639 39.0851 22.9004 39.0194 22.9296 38.9465C22.966 38.2901 23.1484 37.6264 22.9369 36.97C22.8858 36.8095 22.8275 36.6491 22.7399 36.5032C22.6743 36.3865 22.5941 36.2698 22.6816 36.1313L22.7108 36.1094C23.2578 36.6928 23.3599 37.4076 23.2578 38.1588C23.1994 38.5818 23.1775 39.0121 22.9806 39.4205C22.9077 39.5664 23.0025 39.7925 22.9952 39.9821C22.9879 40.2666 22.8712 40.3322 22.6451 40.1718C22.2878 39.9311 21.9523 39.6612 21.748 39.2601Z" fill="#D9A48C"/>
<path d="M24.2285 30.2892C24.4765 29.9099 24.4108 29.4577 24.5202 29.0493C24.6078 29.1587 24.5057 29.3046 24.5932 29.414C24.5932 29.538 24.5932 29.6547 24.5932 29.7786C24.6588 29.9172 24.6442 30.0631 24.6078 30.1944C24.5859 30.3038 24.5494 30.4423 24.3744 30.3621C24.3525 30.3621 24.3233 30.3621 24.3014 30.3621C24.2796 30.3402 24.2504 30.3184 24.2285 30.2892Z" fill="#E0E0E0"/>
<path d="M36.0939 21.5518C36.9472 21.5445 37.2535 20.8735 37.6255 20.2901C38.3767 19.1013 39.1206 17.9051 39.726 16.6361C39.8354 16.4027 39.9229 16.1547 40.0104 15.9068C40.0979 15.6734 39.9229 15.5202 39.8062 15.3598C39.6093 15.068 39.529 14.7544 39.6603 14.4116C39.7624 14.2512 39.85 14.0761 39.8791 13.8865C39.901 13.7625 39.9594 13.675 40.0979 13.6969C40.2365 13.7261 40.1854 13.8355 40.1782 13.9303C40.1563 14.3752 40.397 14.7253 40.8127 14.8784C41.0898 14.9805 41.4107 14.8492 41.6514 14.4846C41.7827 14.2877 41.8921 14.0616 41.965 13.8355C42.0525 13.5802 41.8556 13.3395 41.5639 13.3249C41.3597 13.3103 41.1555 13.3249 40.944 13.3249C40.7543 13.3249 40.6741 13.1791 40.7835 13.0697C41.3086 12.5373 41.0534 11.8809 41.1044 11.2755C41.1773 11.0129 41.2503 10.7431 41.3232 10.4805C41.5785 10.3565 41.4034 10.0648 41.542 9.89707C41.5931 9.80225 41.6441 9.70744 41.6952 9.61263C41.8264 9.58345 41.8629 9.66368 41.8848 9.76579C41.8848 9.80225 41.8848 9.84601 41.8702 9.88248C41.6514 10.6556 41.3524 11.4141 41.3451 12.2382C41.3378 12.5445 41.3961 12.8363 41.542 13.1061C41.8192 13.2009 41.8556 12.8727 42.0525 12.8144C42.264 12.8436 42.1911 13.0259 42.2276 13.1499C42.3078 13.4635 42.3953 13.5219 42.7016 13.4052C42.811 13.3614 42.9132 13.3687 43.0226 13.3614C43.2559 13.3468 43.2705 13.4343 43.1611 13.6094C42.8913 14.047 42.9059 14.0761 43.3653 14.2731C43.3653 14.2949 43.3653 14.3168 43.3653 14.3387C43.4674 14.4773 43.4091 14.6159 43.2851 14.6669C43.0007 14.7982 42.9861 15.0243 43.0007 15.2795C42.6506 15.3744 42.3078 15.4692 41.9213 15.3598C41.5858 15.265 41.367 15.6005 41.4545 16.0089C41.491 16.1766 41.6076 16.3444 41.4618 16.5194C41.2284 17.2196 40.8491 17.8249 40.4334 18.4303C39.8062 19.3419 39.1717 20.2682 38.7997 21.333C38.6393 21.7998 38.6247 22.2666 38.7851 22.7187C38.9018 23.0542 38.7851 23.2657 38.5444 23.3897C37.8005 23.7763 37.0566 24.1555 36.247 24.4108C36.0064 24.4837 35.7657 24.5348 35.5177 24.6442C35.4594 24.2139 35.5031 23.8055 35.4375 23.397C35.3646 22.9448 35.2552 22.4999 35.2479 22.0405C35.2406 21.8581 35.2479 21.7998 35.4302 21.7487C35.6636 21.6904 35.9116 21.7196 36.0939 21.5518Z" fill="#BA6444"/>
<path d="M41.5581 13.0989C41.3393 12.9384 41.2663 12.7196 41.2591 12.4498C41.2372 11.5235 41.507 10.6629 41.8425 9.82416C41.9665 9.81687 42.054 9.88251 42.1343 9.97003C42.1343 10.1378 42.1343 10.3128 42.1343 10.4806C41.93 10.6556 41.7988 10.8525 41.9155 11.137C41.9155 11.3339 41.9155 11.5235 41.9082 11.7204C41.7258 11.7642 41.5508 11.8079 41.6675 12.0705C41.7112 12.1726 41.6894 12.282 41.6237 12.3768C41.4997 12.5956 41.58 12.8509 41.5581 13.0989Z" fill="#C9805D"/>
<path d="M41.4768 16.5194C41.4987 16.3809 41.4549 16.2569 41.4039 16.1329C41.2872 15.8703 41.3018 15.6078 41.4987 15.389C41.6883 15.1702 41.929 15.1848 42.1624 15.3015C42.4541 15.4473 42.7313 15.2431 43.0157 15.2796C42.6292 15.4109 42.3083 15.5932 42.228 16.06C42.1916 16.2715 42.0384 16.4392 41.7686 16.3809C41.6446 16.359 41.5789 16.483 41.4768 16.5194Z" fill="#CA805F"/>
<path d="M43.3719 14.2658C43.175 14.346 43.0218 14.3023 42.9124 14.1199C42.7228 13.7917 43.0437 13.6532 43.1969 13.4125C43.0218 13.3833 42.8906 13.3687 42.752 13.4635C42.4311 13.675 42.1977 13.5656 42.1393 13.1791C42.1175 13.0551 42.1904 12.9092 42.0664 12.8071C42.1393 12.6904 42.2123 12.5519 42.3654 12.6102C42.5113 12.6613 42.628 12.778 42.6499 12.953C42.6863 13.2302 42.8395 13.3541 43.1166 13.3177C43.3282 13.2885 43.474 13.3906 43.5542 13.5656C43.6345 13.7334 43.6272 13.9157 43.4376 14.0397C43.3573 14.0835 43.3792 14.1856 43.3719 14.2658Z" fill="#CA805F"/>
<path d="M43.0083 15.2796C42.8114 14.9951 42.8478 14.7763 43.1906 14.6451C43.3365 14.594 43.3875 14.4846 43.373 14.3387C43.7012 14.6305 43.6866 14.9441 43.3219 15.1264C43.2198 15.1775 43.1396 15.2942 43.0083 15.2796Z" fill="#CA805F"/>
<path d="M41.6307 12.3696C41.6234 12.2894 41.638 12.1946 41.6088 12.1216C41.4849 11.808 41.5797 11.6695 41.9152 11.7132C41.8058 11.7934 41.6745 11.8445 41.762 12.0341C41.8131 12.1508 41.7766 12.2967 41.6307 12.3696Z" fill="#CA805F"/>
<path d="M42.1335 9.96265C42.0168 9.94806 41.9147 9.91159 41.8418 9.81678C41.8418 9.7949 41.8418 9.76573 41.8418 9.74385C41.8929 9.62715 41.8856 9.48129 41.9877 9.38647C42.1919 9.53963 42.1262 9.75843 42.1335 9.96265Z" fill="#CA805F"/>
<path d="M41.9215 11.1297C41.8121 10.8525 41.7538 10.59 42.1403 10.4733C42.082 10.6994 41.834 10.8598 41.9215 11.1297Z" fill="#CA805F"/>
<path d="M41.9954 9.38647C41.9954 9.52505 42.0173 9.67091 41.8495 9.74385C41.8203 9.67821 41.7766 9.62715 41.7109 9.60527C41.7912 9.51775 41.8495 9.39377 41.9954 9.38647Z" fill="#C9805D"/>
<path d="M26.1173 25.9206C25.811 24.9724 25.7454 23.9878 25.7089 23.0032C25.687 22.3906 25.7527 21.7561 26.059 21.1872C26.6352 21.1507 26.8321 21.2747 27.0144 21.7852C27.1311 22.0989 27.4301 22.2301 27.6708 22.4198C27.8605 22.5656 28.1595 22.5729 28.2397 22.8647C28.2105 22.8938 28.1814 22.9084 28.1449 22.9157C27.8969 22.923 27.6781 22.799 27.452 22.7261C27.029 22.5948 26.8102 22.675 26.6352 23.0762C26.4164 23.5867 26.2632 24.1191 26.2924 24.688C26.2486 25.0745 26.3434 25.4465 26.4674 25.8039C26.5039 26.1102 26.7737 26.3509 26.7373 26.6791C26.7227 26.7374 26.5695 26.7082 26.6498 26.8395C26.7227 26.9562 26.8102 27.0875 26.7008 27.2334C26.5331 27.248 26.4966 27.1021 26.4091 27.0146C26.2267 26.8031 26.1392 26.5478 26.059 26.2852C26.0371 26.1612 26.0079 26.03 26.1173 25.9206Z" fill="#A1A0A0"/>
<path d="M26.1169 25.9206C26.1169 26.3218 26.3211 26.6573 26.4889 27.0073C26.3503 27.1313 26.3503 27.1313 26.2044 27.0365C26.0221 26.9125 25.9127 26.7229 25.7595 26.5697C25.6574 26.4749 25.5845 26.3072 25.4094 26.3728C25.2636 26.4312 25.2344 26.5916 25.2125 26.7375C25.1833 26.9052 25.2052 27.073 25.1323 27.2334C25.0958 27.3064 25.0739 27.4012 24.9573 27.3793C25.001 27.0438 25.0083 26.7083 25.0521 26.3801C25.0812 26.1467 25.0302 26.0373 24.8114 26.0009C24.5853 25.9644 24.4686 26.0665 24.454 26.2926C24.4467 26.3436 24.454 26.3874 24.454 26.4385C24.3519 26.2853 24.2936 26.0957 24.1331 25.9717C24.0675 25.9279 23.9435 25.8185 24.0164 25.7018C24.0821 25.5924 24.2206 25.6143 24.3154 25.6435C24.702 25.7675 25.0739 25.5997 25.4532 25.6362C25.6137 25.6508 25.7449 25.6143 25.7595 25.4174C25.8616 25.3736 25.9054 25.3955 25.9054 25.5122C25.9054 25.6799 25.9637 25.8258 26.1169 25.9206Z" fill="#E2E2E2"/>
<path d="M28.2312 22.8574C27.9103 22.6094 27.5092 22.4781 27.2029 22.1937C27.0351 22.0333 26.8965 21.8947 26.8747 21.6686C26.8455 21.4352 26.7215 21.3112 26.4954 21.3404C26.3204 21.3623 26.2183 21.2018 26.0578 21.1945C25.9119 21.1435 25.7661 21.0924 25.6129 21.0414C25.3941 20.9465 25.1753 20.8517 24.9492 20.7496C25.0732 20.6256 25.2118 20.6767 25.3576 20.7205C25.7515 20.8299 26.138 20.9684 26.5392 21.0559C26.882 21.1289 27.1445 21.2966 27.1737 21.6905C27.181 21.8145 27.2612 21.9093 27.356 21.9895C27.6623 22.2448 28.0197 22.4052 28.3844 22.5584C28.9606 22.3687 29.5586 22.2156 29.7264 21.5008C29.7482 21.3987 29.8139 21.3039 29.9014 21.231C30.215 21.1581 30.5286 20.983 30.8568 21.1945C30.7693 21.3477 30.6161 21.3258 30.4703 21.3331C30.1567 21.355 29.8868 21.406 29.8868 21.8436C29.8868 22.1208 29.5805 22.2521 29.3909 22.4271C29.2085 22.5219 29.121 22.7261 28.9314 22.8209C28.7053 22.9303 28.4792 23.0397 28.2312 22.8574Z" fill="#B08472"/>
<path d="M26.2924 50.0322C26.1757 49.5144 25.884 49.0476 25.8184 48.5152C26.0736 48.5006 26.0955 48.7121 26.1393 48.8799C26.2195 49.1716 26.3143 49.4633 26.4602 49.7259C26.5112 49.8207 26.5623 49.9228 26.6717 49.9593C26.7884 50.003 26.9124 50.0249 27.0218 49.9447C27.1166 49.8718 27.0655 49.7624 27.0436 49.6748C26.854 48.8726 26.6498 48.0703 26.5258 47.2535C26.307 45.875 26.132 44.4893 26.0882 43.0963C26.0663 42.5274 26.0153 41.9585 26.0226 41.3896C26.0299 39.7049 26.132 38.0201 26.4383 36.3572C26.5112 35.9415 26.606 35.8467 27.0145 35.7665C27.4594 35.6862 27.9043 35.7081 28.3564 35.6644C28.6773 35.6352 28.794 35.7665 28.8086 36.0874C28.8159 36.2843 28.8597 36.4666 28.9326 36.649C28.9983 36.8094 29.042 36.9699 29.0566 37.1449C29.1222 38.0639 29.2098 38.9755 29.3046 39.8872C29.5307 42.0825 29.4067 44.2778 29.4431 46.4658C29.4577 47.3774 29.3265 48.2818 29.2608 49.1862C29.2608 49.2081 29.2535 49.2372 29.2535 49.2591C29.166 49.9666 29.1879 49.9957 29.8953 49.9957C29.9464 49.9957 29.9901 50.003 30.0412 49.9957C30.7997 49.952 30.7268 50.0468 30.9675 49.3466C31.0623 49.0768 31.1863 48.8142 31.2665 48.5371C31.2154 48.6465 31.1644 48.7559 31.0987 48.8653C31.0404 48.9601 30.982 49.0622 30.8508 49.033C30.7268 49.0039 30.6903 48.8945 30.6611 48.7851C30.6028 48.5517 30.6903 48.3256 30.7195 48.0995C30.7632 47.7859 31.0404 47.5233 30.8945 47.1732C31.2081 46.9544 31.1206 46.67 31.0404 46.371C31.0185 46.2762 31.0987 46.1668 31.2154 46.2105C31.4051 46.2907 31.4634 46.1886 31.5436 46.0428C31.6895 45.7656 31.7405 45.7656 32.0104 46.0282C32.0323 45.875 32.0031 45.7219 32.0687 45.5979C32.1271 45.4885 32.1563 45.3061 32.3605 45.3791C32.3605 45.4739 32.3897 45.5614 32.3313 45.6489C32.1198 46.5971 31.8427 47.5233 31.5436 48.4423C31.3978 48.8872 31.23 49.3321 31.0841 49.7769C30.982 50.0979 30.8216 50.2875 30.435 50.251C30.0777 50.2145 29.7057 50.2437 29.341 50.2583C29.0785 50.2656 28.9764 50.1854 28.9983 49.9009C29.2535 46.3345 29.2973 42.7681 29.0274 39.2016C28.9764 38.516 28.9326 37.8232 28.7722 37.1449C28.743 37.0282 28.7065 36.9188 28.6773 36.8021C28.5315 36.8167 28.5534 36.9188 28.5388 36.9917C28.3637 38.1076 28.2543 39.2308 28.196 40.354C28.0574 43.0452 28.1012 45.7437 28.196 48.435C28.2106 48.9309 28.2762 49.4269 28.32 49.9228C28.3419 50.1562 28.247 50.251 28.0137 50.2437C27.5906 50.2364 27.1676 50.2437 26.7373 50.2583C26.5185 50.2948 26.3727 50.2218 26.2924 50.0322Z" fill="#323031"/>
<path d="M32.3092 45.6781C32.3019 45.5833 32.3019 45.4812 32.2946 45.3864C32.1998 45.277 32.229 45.1603 32.2581 45.0436C32.6155 43.4026 32.8051 41.7397 32.6884 40.0696C32.5863 38.6328 32.5061 37.196 32.229 35.7738C32.156 35.4091 32.1633 35.0299 32.0612 34.6652C32.0539 34.585 32.0102 34.5193 31.9883 34.4391C32.1998 34.3224 32.2727 34.4391 32.3019 34.6287C32.7176 37.2762 33.0166 39.931 32.8635 42.6149C32.8416 43.0015 32.776 43.3807 32.7249 43.7673C32.579 44.3945 32.5426 45.0582 32.3092 45.6781Z" fill="#646263"/>
<path d="M24.4466 26.6499C24.5195 27.1094 24.5997 27.5762 24.4466 28.0357C24.3663 27.9627 24.3445 27.8606 24.359 27.7731C24.4611 27.1605 24.0819 26.7302 23.7902 26.2488C23.761 26.7666 23.5568 27.2188 23.3307 27.6637C23.2359 27.846 23.3088 27.9336 23.5057 27.9408C23.6151 27.9408 23.7245 27.9335 23.8266 27.9554C23.9433 27.9773 24.0819 27.9992 24.0235 28.1815C23.7975 28.2399 23.5787 28.2326 23.3526 28.1815C23.1921 28.1596 23.0098 28.3274 22.8858 28.1378C22.7691 27.9554 22.915 27.795 22.9733 27.6272C23.1702 27.0583 23.513 26.5405 23.5859 25.9279C23.5932 25.855 23.6224 25.7456 23.7245 25.7383C23.812 25.731 23.8412 25.8112 23.8777 25.8695C24.0381 26.154 24.1913 26.4384 24.4466 26.6499Z" fill="#D9D9D9"/>
<path d="M23.3524 28.1815C23.5712 28.0721 23.79 28.0794 24.0088 28.1815C24.0598 28.1012 24.1182 28.0283 24.2276 28.1085C24.213 28.2106 24.2494 28.3055 24.3005 28.4003C24.0015 28.4367 23.7097 28.4367 23.4107 28.4732C23.1554 28.5024 23.0387 28.7941 22.7689 28.7722C22.6741 28.7722 22.572 28.7649 22.4772 28.7649C22.3313 28.4513 22.4772 28.2909 22.8783 28.32C23.0533 28.32 23.243 28.393 23.3524 28.1815Z" fill="#E2E2E2"/>
<path d="M29.9753 50.1126C29.8149 50.1126 29.6471 50.0761 29.5013 50.1199C29.0928 50.2293 29.071 50.0178 29.1001 49.7114C29.3919 47.0785 29.3189 44.4384 29.3116 41.7982C29.3044 40.6604 29.1439 39.5372 29.0564 38.3995C29.0199 37.9108 29.0345 37.393 28.8813 36.9044C28.7865 36.5907 28.5677 36.3063 28.6917 35.9343C28.7282 35.8249 28.575 35.7301 28.4364 35.752C27.904 35.8468 27.3497 35.7812 26.8173 35.8979C26.635 35.9416 26.5694 36.051 26.5402 36.2334C26.3506 37.5243 26.2266 38.8152 26.1536 40.1207C26.0807 41.3022 26.1609 42.4692 26.212 43.6361C26.2703 44.9051 26.4235 46.1742 26.6715 47.4359C26.8319 48.2528 26.9924 49.0623 27.2258 49.8646C27.2549 49.9594 27.2622 50.0251 27.1747 50.0834C26.9559 50.222 26.511 50.0615 26.3943 49.8281C26.2266 49.4926 26.0588 49.1644 26.0224 48.7852C26.0078 48.6685 25.9421 48.5518 25.8181 48.508C25.4243 47.5161 25.1763 46.4805 24.9356 45.4521C24.5053 43.6142 24.3522 41.7544 24.4543 39.8654C24.4835 39.3695 24.5053 38.8735 24.5272 38.3776C24.6439 37.4805 24.7679 36.5834 24.8773 35.6864C24.9284 35.2925 24.9721 34.8987 25.0961 34.5194C25.3295 34.4903 25.5191 34.6726 25.7525 34.658C26.1026 34.7455 26.4454 34.8403 26.8173 34.8476C27.4227 34.8622 28.0207 34.9862 28.6261 34.957C29.7638 34.906 30.8943 34.8695 31.981 34.4903C32.0175 34.4757 32.0539 34.4976 32.0831 34.5048C32.1779 34.7455 32.0758 34.8549 31.8497 34.9352C31.5361 35.0373 31.2371 35.154 30.9162 35.2488C30.6317 35.3363 30.5078 35.504 30.5588 35.8176C30.7557 37.0429 30.9016 38.2682 30.9964 39.5081C31.0402 40.0259 31.062 40.551 31.0839 41.0688C31.1714 43.2568 31.1058 45.4375 30.7338 47.5964C30.6026 48.3476 30.4056 49.0915 30.2233 49.8354C30.1941 49.9886 30.1139 50.0688 29.9753 50.1126Z" fill="#211F20"/>
<path d="M32.0889 34.5194C31.3304 34.8257 30.5209 34.8476 29.7259 34.9643C28.5006 35.132 27.2899 34.9424 26.0792 34.8111C25.9553 34.7965 25.8386 34.7673 25.7656 34.6579C26.3783 34.7236 26.9836 34.8184 27.5963 34.8549C28.8288 34.9205 30.0614 34.8986 31.2794 34.6434C31.3158 34.6361 31.345 34.6142 31.3742 34.5923C31.5857 34.5413 31.7899 34.4829 32.0014 34.4246C32.0671 34.4391 32.1327 34.4464 32.1619 34.5194C32.1327 34.5558 32.1108 34.5558 32.0889 34.5194Z" fill="#575556"/>
<path d="M30.8646 21.1945C30.5364 21.1581 30.2228 21.2383 29.9092 21.3258C29.7706 21.4571 29.6029 21.5009 29.4133 21.5009C29.0559 21.4936 28.6912 21.5009 28.3338 21.5009C28.1953 21.5009 28.0275 21.4498 27.9473 21.6103C27.8598 21.7853 27.9108 21.9603 28.0056 22.1281C28.115 22.3104 28.3338 22.4198 28.3849 22.6459C28.3557 22.6605 28.3047 22.7043 28.2974 22.697C28.0859 22.5 27.7868 22.4417 27.5607 22.2812C27.3128 22.1062 27.0137 21.953 27.0502 21.53C27.0721 21.2821 26.7804 21.2164 26.5689 21.1727C26.1167 21.0633 25.6718 20.9466 25.2415 20.7788C25.1539 20.7423 25.0518 20.7642 24.957 20.7642C24.0891 20.4214 23.44 19.8671 23.1337 18.9555C23.0826 18.8023 22.9805 18.7148 22.8128 18.7221C22.6596 18.7294 22.5356 18.6492 22.4117 18.5762C22.5065 18.3428 22.4773 18.1532 22.2804 17.9636C22.0835 17.774 21.9376 17.5333 21.7771 17.3072C21.6677 17.154 21.6313 16.9644 21.7188 16.7894C21.8063 16.6216 21.9449 16.731 22.0689 16.7529C22.2512 16.7748 22.2512 16.6581 22.2658 16.5268C22.2877 16.3372 22.1272 16.2569 22.0543 16.1257C22.3168 16.1403 22.5283 16.2642 22.7034 16.4466C22.8055 16.5487 22.9003 16.6654 23.0681 16.5487C23.1191 16.607 23.1775 16.6654 23.2941 16.7894C23.1847 16.184 23.1337 15.6443 23.2941 15.1484C23.5494 14.3826 23.4984 13.6022 23.4984 12.8218C23.4984 12.5665 23.6953 12.4863 23.8484 12.3404C24.5267 11.6913 25.3363 12.0487 26.0875 11.9904C26.1458 11.9831 26.2042 12.0633 26.2698 12.0998C26.2188 12.1654 26.1458 12.1873 26.0656 12.1946C25.8176 12.2164 25.5624 12.18 25.3144 12.2456C24.8403 12.3769 24.5413 12.654 24.4684 13.1573C24.235 13.9523 24.0891 14.7618 23.9724 15.5787C23.8484 16.4247 23.8339 17.2561 24.0599 18.0657C24.3517 19.1013 25.0737 19.8161 26.0219 20.2829C27.1086 20.8153 28.2536 21.0122 29.4789 20.932C30.6531 20.859 31.7398 20.5308 32.7609 19.962C32.8922 19.889 33.0235 19.8234 33.162 19.9328C33.2641 20.0932 33.111 20.1516 33.0307 20.2172C32.564 20.6038 32.0753 20.9611 31.4554 21.0633C31.3752 21.0778 31.2876 21.0851 31.2147 21.1362C31.098 21.1362 30.9813 21.1654 30.8646 21.1945Z" fill="#BA6345"/>
<path d="M25.758 34.6653C25.5173 34.7309 25.3131 34.6069 25.1016 34.5267C25.1453 34.4246 25.2328 34.4683 25.3058 34.4756C25.4516 34.534 25.6048 34.5996 25.758 34.6653Z" fill="#575556"/>
<path d="M33.8043 16.6871C33.8772 16.41 33.8116 16.1255 33.7605 15.8557C33.549 14.7544 33.4251 13.6312 33.1333 12.5445C33.0604 12.2892 33.25 12.3038 33.3959 12.2747C34.0742 12.5445 34.6066 12.9748 34.7962 13.7114C34.9129 14.1709 34.9275 14.6377 34.7962 15.1045C34.7306 15.3379 34.6941 15.5712 34.643 15.8119C34.5847 15.8557 34.6066 15.9286 34.5774 15.987C34.5045 16.337 34.22 16.5121 33.9793 16.7163C33.921 16.7674 33.8408 16.7819 33.8043 16.6871Z" fill="#2F2537"/>
<path d="M31.2148 21.107C31.4409 20.8955 31.7618 20.8955 32.0317 20.7715C32.4693 20.5673 32.834 20.2755 33.1767 19.9473C33.2132 19.7212 33.4685 19.5535 33.3883 19.3128C33.308 19.0648 33.0163 19.1378 32.8267 19.0503C32.5276 18.9044 32.3818 18.62 32.4328 18.2334C32.4985 17.6791 33.2351 17.1686 33.7602 17.3072C33.8988 17.6208 33.8988 17.9636 33.928 18.299C33.9498 18.5981 34.0155 18.6272 34.3291 18.5324C34.3729 18.5033 34.4093 18.4668 34.4531 18.4376C34.7813 18.1459 35.0584 17.8177 35.1459 17.3728C35.1678 17.2707 35.2116 17.1613 35.3575 17.1905C35.3356 17.3363 35.3137 17.4822 35.2918 17.6281C35.1387 18.0584 34.898 18.423 34.5041 18.671C34.4604 18.7002 34.4239 18.7512 34.3874 18.7512C33.855 18.6856 33.8259 19.1159 33.6654 19.4514C33.2643 20.2755 32.5641 20.7642 31.7108 21.0486C31.543 21.0268 31.3972 21.1507 31.2148 21.107Z" fill="#CC7F5E"/>
<path d="M35.3659 17.1759C35.1034 17.3217 35.2346 17.6426 35.0596 17.8614C34.8773 18.0802 34.7168 18.3063 34.498 18.4887C34.2573 18.4011 34.323 18.2407 34.4178 18.0875C34.5855 17.7958 34.8189 17.5478 34.9794 17.2488C35.1617 16.9206 35.1544 16.8987 34.8043 16.7966C34.6876 16.7601 34.5928 16.7091 34.5855 16.5851C34.5782 16.3736 34.4688 16.1621 34.5564 15.9506C34.5637 15.8922 34.5709 15.8339 34.6366 15.812C34.6585 15.8995 34.6001 16.0454 34.7241 16.06C35.4024 16.1694 35.4097 16.658 35.3659 17.1759Z" fill="#C78062"/>
<path d="M33.7598 17.3217C33.0596 17.329 32.5053 17.8395 32.5199 18.4448C32.5272 18.7584 32.7023 18.9116 32.9794 18.9991C33.169 19.0575 33.4754 18.9772 33.5191 19.2471C33.5629 19.5242 33.417 19.7795 33.1763 19.9473C33.0232 19.867 32.8992 19.9618 32.7825 20.0348C31.477 20.8079 30.0475 21.1069 28.5597 21.0267C27.1083 20.9464 25.7444 20.5088 24.7234 19.4221C24.2493 18.9189 23.9503 18.2844 23.8555 17.5478C23.6804 16.1547 23.9357 14.8128 24.2858 13.4781C24.3222 13.3468 24.3441 13.2228 24.3733 13.0915C24.4316 13.0696 24.4754 13.0988 24.49 13.1426C24.5556 13.4927 24.8546 13.5437 25.0953 13.5218C25.6423 13.4781 26.1893 13.3906 26.6999 13.1499C27.0281 12.9967 27.0353 12.9311 26.7728 12.6612C26.6999 12.581 26.6196 12.5081 26.5248 12.4497C26.4956 12.4351 26.4665 12.4132 26.4446 12.3914C26.3644 12.2309 26.0872 12.2966 26.0507 12.0705C26.1237 12.0705 26.1966 12.0705 26.2695 12.0632C27.2104 11.8735 28.1658 11.91 29.1139 11.9246C29.4786 11.9319 29.8506 11.9975 30.2079 12.034C30.0621 12.2017 29.9454 12.3476 29.8141 12.4862C29.5224 12.7925 29.5443 12.8581 29.9016 13.0624C30.0256 13.1353 30.135 13.1718 30.2736 13.1572C30.3976 13.4489 30.7185 13.3614 30.93 13.4635C31.1707 13.5802 31.4624 13.6239 31.7323 13.6385C32.2501 13.6604 32.3959 13.376 32.1917 12.8508C32.1407 12.7123 31.8854 12.6175 32.0094 12.4716C32.1261 12.333 32.3303 12.4789 32.4908 12.5154C33.0669 12.6393 33.118 12.7487 33.1909 13.3614C33.2566 13.9303 33.4462 14.4918 33.4899 15.0607C33.5337 15.6077 33.7963 16.1328 33.6285 16.7017C33.5629 16.9205 33.6869 17.0956 33.84 17.2487C33.8619 17.2779 33.8619 17.3071 33.8473 17.3362C33.8109 17.3508 33.7817 17.3508 33.7598 17.3217Z" fill="#CC7F5E"/>
<path d="M30.2744 13.1646C30.2671 13.1573 30.2598 13.1427 30.2525 13.1354C30.0848 13.026 29.8076 13.0114 29.7858 12.7853C29.7712 12.5373 30.0264 12.3988 30.2088 12.2821C31.0621 11.7351 31.93 12.3769 32.1488 13.1062C32.2436 13.4198 32.054 13.5219 31.7768 13.5219C31.3465 13.5147 30.9527 13.3688 30.5516 13.2375C30.4567 13.2083 30.3765 13.15 30.2744 13.1646Z" fill="#3A2A38"/>
<path d="M33.8333 17.3216C33.8333 17.2997 33.8333 17.2706 33.8333 17.2487C33.8188 17.0591 33.8115 16.8694 33.7969 16.6871C34.1615 16.5631 34.373 16.2714 34.5481 15.9578C34.5262 16.1839 34.7377 16.3589 34.6575 16.6069C34.6283 16.6944 34.7596 16.7309 34.8763 16.7309C35.2045 16.7236 35.2993 16.884 35.1243 17.1685C34.92 17.4967 34.7085 17.8176 34.4824 18.1312C34.3803 18.2698 34.373 18.3792 34.4897 18.5031C34.4606 18.525 34.4387 18.5469 34.4095 18.5761C33.9719 18.6928 33.8844 18.649 33.9063 18.226C33.9354 17.9051 33.7458 17.6279 33.8333 17.3216Z" fill="#B96444"/>
<path d="M24.9569 27.3792C25.0955 27.2114 25.1028 27.0072 25.1028 26.803C25.1028 26.5769 25.1684 26.3435 25.3654 26.2487C25.5696 26.1539 25.6936 26.3654 25.8175 26.5113C25.9707 26.6936 26.1457 26.8541 26.3135 27.0218C26.3718 27.0802 26.4375 27.0875 26.4885 27.0145C26.5615 27.0948 26.6271 27.1677 26.7 27.2479C26.8167 27.2698 26.8751 27.3719 26.9334 27.4594C27.1522 27.8022 27.4585 28.0429 27.7867 28.2617C27.8816 28.3784 27.8889 28.5097 27.8013 28.6191C27.6628 28.7941 27.6773 28.991 27.6773 29.1952C27.6773 29.3922 27.6482 29.5964 27.7722 29.7714C27.794 29.8225 27.8086 29.8735 27.8086 29.9319C27.8159 29.9902 27.8159 30.0558 27.8086 30.1142C27.7722 30.3257 27.6846 30.3695 27.5315 30.209C27.2835 29.961 27.0501 29.6985 26.7876 29.4651C26.5761 29.2755 26.3791 29.3192 26.3281 29.5818C26.1968 30.2309 26.226 30.8654 26.7146 31.3759C27.2325 31.9229 27.6846 31.9521 28.2681 31.4853C28.3265 31.4416 28.3775 31.3905 28.4359 31.3468C28.5525 31.2665 28.5817 31.128 28.6401 31.0113C28.6838 30.931 28.7422 30.8654 28.8005 30.7925C28.9318 30.5956 28.8224 30.3986 28.8224 30.1944C28.8224 29.9683 28.6765 29.6766 29.0339 29.5672C29.1287 29.538 29.1287 29.3703 29.2454 29.4067C29.3548 29.4432 29.2965 29.5891 29.3402 29.6547C29.6101 30.1069 29.1798 30.5518 29.3183 31.004C29.3621 31.1353 29.1068 31.1644 29.1141 31.3176C28.837 31.4635 28.8078 31.8281 28.5307 31.974C28.2243 32.098 27.9545 32.3387 27.5825 32.2657C26.4448 32.3314 25.9051 31.3905 25.7738 30.5226C25.7009 30.0631 25.7446 29.5745 25.9707 29.1442C26.1166 28.8743 26.0655 28.6555 25.8978 28.4148C25.7811 28.2471 25.6279 28.1085 25.5039 27.9408C25.1757 27.5032 25.1393 27.5032 24.8913 27.9627C24.8402 27.9262 24.8694 27.8533 24.8184 27.8168C24.8767 27.6782 24.7819 27.4813 24.9569 27.3792Z" fill="#D6D6D6"/>
<path d="M24.8105 27.8168C24.8689 27.8459 24.8835 27.9043 24.8835 27.9626C24.8835 28.9618 24.8835 29.9537 24.8835 30.9529C24.8543 31.1498 24.9564 31.354 24.8105 31.5364C24.8105 30.2965 24.8105 29.0566 24.8105 27.8168Z" fill="#E2E2E2"/>
<path d="M27.7302 29.9245C27.7302 29.8808 27.723 29.8297 27.723 29.786C27.599 29.6036 27.6573 29.3848 27.5844 29.1952C27.5917 28.9618 27.5406 28.7138 27.7594 28.5242C27.8469 28.4513 27.7594 28.3419 27.7302 28.2544C27.6938 28.1595 27.7521 28.1012 27.8178 28.0574C27.9709 27.9991 28.1314 27.9991 28.2845 28.0574C28.4085 28.1741 28.6054 28.1304 28.7294 28.2544C28.7076 28.2908 28.6857 28.3346 28.6565 28.371C29.1524 28.6044 29.0212 29.0566 29.0285 29.4578C29.0285 29.4942 29.0212 29.5307 29.0212 29.5672C28.7513 29.7787 28.8972 30.0485 28.9118 30.2965C28.9264 30.5007 29.0503 30.7195 28.8097 30.88C28.7659 30.9018 28.7221 30.9237 28.6784 30.9456C28.0657 31.2519 27.8032 31.1425 27.7375 30.3111C27.7375 30.1871 27.7886 30.0485 27.7302 29.9245Z" fill="#73A7CE"/>
<path d="M28.7291 28.2544C28.5833 28.2106 28.3718 28.3857 28.2988 28.1158C28.627 27.846 28.9844 27.6199 29.3564 27.4156C29.3855 27.4156 29.422 27.4157 29.4512 27.4302C29.5241 27.4886 29.4658 27.6053 29.5533 27.6636C29.5679 27.6928 29.5679 27.722 29.546 27.7438C29.4876 27.7511 29.4366 27.7584 29.4074 27.8168C29.1813 27.9554 28.9552 28.1012 28.7291 28.2544Z" fill="#6E6F71"/>
<path d="M26.6991 26.7228C26.6772 26.4092 26.422 26.1758 26.4001 25.8549C26.3199 25.2933 26.3199 25.2933 26.845 25.1839C27.2096 25.111 27.5816 25.0672 27.939 24.9286C28.1359 24.8484 28.3255 24.8922 28.4349 25.2058C28.4349 24.8703 28.5881 24.7244 28.7996 24.6223C29.1424 24.4619 29.4852 24.3233 29.8061 24.1337C29.9665 24.0388 30.1051 24.0534 30.1926 24.2431C30.3895 24.4254 30.4771 24.7025 30.7761 24.7901C30.9219 24.8338 30.8198 25.0526 30.849 25.1839C30.725 25.4538 30.601 25.7163 30.4843 25.9862C30.3385 26.2196 30.1707 26.0956 30.0249 25.9935C29.879 25.8986 29.7331 25.7819 29.8936 25.5777C29.7915 25.6871 29.6237 25.6798 29.5143 25.7674C29.8571 26.1685 29.7477 26.5186 29.2299 26.6572C29.1132 26.6863 29.0038 26.7447 28.8871 26.7738C28.6829 26.8176 28.5954 26.927 28.6318 27.1385C28.661 27.3063 28.6245 27.4521 28.4568 27.5396C28.2891 27.6199 28.1942 27.4959 28.0775 27.4084C27.8806 27.2625 27.6618 27.0583 27.4576 27.4084C27.4066 27.5032 27.3117 27.4886 27.2388 27.4302C27.1513 27.3646 27.0711 27.2917 26.969 27.2479C26.8158 27.1166 26.6335 26.9854 26.6991 26.7228Z" fill="#E3E3E3"/>
<path d="M30.1927 24.2431C30.0687 24.1337 29.952 24.1191 29.8061 24.2212C29.5509 24.4035 29.2664 24.5348 28.9674 24.6369C28.6684 24.739 28.4569 24.9141 28.5152 25.2787C28.5225 25.3298 28.4933 25.3881 28.4861 25.4392C28.4423 25.4246 28.4058 25.4173 28.3985 25.41C28.2016 24.936 28.2016 24.9432 27.7057 25.1037C27.4577 25.1839 27.1878 25.2277 26.9326 25.2569C26.5606 25.2933 26.3199 25.4173 26.4075 25.8549C26.2251 25.483 26.1522 25.0891 26.1959 24.6807C26.6554 23.9076 27.3629 23.4117 28.1287 22.9813C28.2745 22.9011 28.435 22.9303 28.5882 22.9522C29.1716 23.171 29.6311 23.5794 30.1052 23.9587C30.1708 24.0097 30.2365 24.068 30.2 24.1702C30.1927 24.1993 30.1927 24.2212 30.1927 24.2431Z" fill="#D9D9D8"/>
<path d="M30.2009 24.1702C29.7122 23.7107 29.1798 23.3242 28.5963 23.0106C28.4796 22.8793 28.2462 23.0908 28.166 22.8647C28.1879 22.8647 28.2171 22.8647 28.2389 22.8574C28.5963 22.923 28.8953 22.7845 29.1579 22.5584C29.2308 22.4927 29.2892 22.4198 29.4059 22.4344C29.209 22.6459 29.2527 22.7845 29.4934 22.9522C29.7997 23.1637 30.1279 23.346 30.3759 23.6451C30.4124 23.6888 30.478 23.7253 30.4999 23.7764C30.5874 24.0024 30.8573 24.2723 30.6749 24.4619C30.5145 24.6078 30.3905 24.2285 30.2009 24.1702Z" fill="#A4A6A4"/>
<path d="M30.7051 26.431C30.8509 26.2487 31.0041 26.4456 31.15 26.4165C31.7553 26.7738 31.8574 27.6126 31.3542 28.1012C30.7051 28.3054 30.7051 28.3054 30.7051 27.6271C30.7051 27.2333 30.7051 26.8322 30.7051 26.431Z" fill="#90BD51"/>
<path d="M32.0102 27.5105C31.8789 27.5105 31.8789 27.423 31.8789 27.3355C31.8789 27.2042 31.9227 27.0802 32.0612 27.0656C32.1561 27.0583 32.1633 27.175 32.1633 27.2626C32.1633 27.3865 32.1342 27.4814 32.0102 27.5105Z" fill="#E4E4E4"/>
<path d="M29.5449 27.7366C29.5449 27.7147 29.5449 27.6928 29.5449 27.6709C29.7637 27.3427 30.019 27.051 30.3034 26.7811C30.318 26.7884 30.3326 26.7957 30.3472 26.803C30.1867 27.1385 30.4055 27.4813 30.3399 27.8241C30.3034 27.9918 30.4347 28.2252 30.2013 28.2981C29.9971 28.3638 29.8512 28.1742 29.7273 28.0356C29.6543 27.9481 29.6033 27.8387 29.5449 27.7366Z" fill="#8CBA4B"/>
<path d="M29.4711 27.4449C29.4492 27.4449 29.42 27.4449 29.3981 27.4522C29.3179 27 29.493 26.6135 29.843 26.4968C29.9962 26.4457 30.1494 26.402 30.3025 26.3363C30.4119 26.2926 30.4848 26.2999 30.4994 26.4311C30.4484 26.5551 30.4046 26.6791 30.3536 26.7958L30.3317 26.7812C30.2515 26.6791 30.2004 26.7156 30.1129 26.7885C29.8722 26.9927 29.7555 27.3063 29.4711 27.4449Z" fill="#8EA565"/>
<path d="M29.8362 26.4967C29.5007 26.7301 29.4788 27.1021 29.3913 27.4522C29.0339 27.6783 28.7203 27.9919 28.2973 28.1159C28.1368 28.1159 27.9691 28.1159 27.8086 28.1086C27.4732 27.8825 27.1231 27.6637 27.0137 27.2334C27.2033 27.1531 27.2179 27.4011 27.3565 27.4157C27.5023 27.051 27.8451 27.0219 28.1514 27.3428C28.2244 27.423 28.2608 27.5835 28.4286 27.4886C28.5672 27.4084 28.5672 27.3063 28.538 27.1531C28.465 26.7885 28.5744 26.6645 29.1652 26.5989C29.4496 26.5697 29.5007 26.3655 29.6393 26.2342C29.7487 26.1321 29.6612 26.0227 29.5153 25.9789C29.4278 25.9497 29.3184 25.9206 29.333 25.7893C29.3548 25.6507 29.4715 25.6507 29.5809 25.6288C29.7195 25.607 29.8581 25.5632 29.9966 25.5267C30.0331 25.658 29.7487 25.6872 29.9164 25.8185C30.0769 25.9425 30.2227 26.1613 30.478 25.9935C30.5145 26.1758 30.3832 26.2123 30.2519 26.2561C30.106 26.3071 29.931 26.329 29.8362 26.4967Z" fill="#E0E0E0"/>
<path d="M22.2584 39.6976C22.0834 39.5809 21.9448 39.4278 21.8208 39.26C21.427 38.6838 21.3613 37.9983 21.2665 37.3419C21.179 36.7365 21.0915 36.1312 21.0842 35.5039C21.0769 34.4537 21.2738 33.4399 21.427 32.4189C21.5145 31.8573 21.6604 31.3103 21.7187 30.7268C21.9302 31.1936 22.1344 31.6531 22.5501 31.974C22.6814 32.1563 22.5574 32.324 22.4991 32.4845C22.2292 33.2284 22.0615 33.9869 22.2219 34.7892C22.2876 35.1174 22.4626 35.4164 22.4699 35.7592C22.4699 35.854 22.4772 35.9561 22.4772 36.0509C22.6814 36.1895 22.6522 36.4083 22.6522 36.6125C22.645 37.2325 22.7252 37.8305 22.9804 38.4067C23.068 38.6036 23.0461 38.8297 22.995 39.0412C22.9659 39.085 22.944 39.136 22.9148 39.1798C22.7398 39.2819 22.6814 39.1287 22.6158 39.0266C22.4918 38.837 22.4334 38.6109 22.3386 38.3119C22.1928 38.6765 22.3095 38.9391 22.3605 39.2162C22.3897 39.384 22.5356 39.5882 22.2584 39.6976Z" fill="#BA6346"/>
<path d="M22.5488 29.0567C23.0156 29.0275 23.4021 29.3412 23.847 29.3922C24.1242 29.4287 24.1898 29.5454 24.1533 29.7861C24.1242 30.0049 24.0221 30.1726 23.8689 30.3403C23.5772 30.6467 23.3219 30.9822 23.0885 31.3395C22.9062 31.6167 22.8187 31.6094 22.5853 31.376C22.1112 30.8946 21.9726 29.9027 22.454 29.2099C22.4759 29.1515 22.5196 29.1078 22.5488 29.0567Z" fill="#B56041"/>
<path d="M22.4766 35.7592C22.2068 35.2414 22.039 34.6871 22.0536 34.1037C22.0682 33.4837 22.2214 32.8857 22.462 32.3168C22.5058 32.2074 22.5714 32.098 22.5569 31.974C22.6735 32.0323 22.7684 32.149 22.9215 32.1199C23.5487 32.2511 23.4904 32.2511 23.2862 32.893C23.206 33.1482 23.1257 33.4108 23.0528 33.6661C22.9799 33.9286 22.9142 34.1912 22.8413 34.4537C22.6808 34.6142 22.6808 34.833 22.6298 35.0372C22.5714 35.2779 22.4547 35.504 22.4766 35.7592Z" fill="#C87F5F"/>
<path d="M22.5502 29.0568C22.3824 29.4725 22.1126 29.8663 22.1928 30.3404C22.2584 30.7269 22.3386 31.1208 22.6668 31.3979C22.7617 31.4781 22.8419 31.5365 22.9294 31.4052C23.2576 30.902 23.6077 30.4133 24.0599 30.0122C24.1109 29.9611 24.0672 29.8444 24.1547 29.7861C24.1547 29.859 24.1547 29.932 24.162 30.0049C24.089 30.2966 24.0161 30.5884 23.9432 30.8728C23.6952 31.1354 23.7681 31.5292 23.5785 31.8136C23.3597 31.7553 23.1409 31.6897 22.9221 31.6313C22.4626 31.5073 22.3022 31.1281 22.1855 30.7342C22.0396 30.2529 22.0396 29.4433 22.5502 29.0568Z" fill="#B56041"/>
<path d="M24.2274 28.1085C24.1545 28.1304 24.0816 28.1523 24.0086 28.1815C23.8919 27.9116 23.6513 28.0575 23.4762 28.0429C23.1043 28.0137 23.0605 27.9772 23.2283 27.6345C23.4471 27.1896 23.6877 26.752 23.6513 26.2341C23.644 26.1612 23.6586 26.0737 23.7388 26.0518C23.8409 26.0226 23.8847 26.1174 23.9284 26.1904C24.2566 26.7593 24.6067 27.3281 24.4535 28.0429C24.3952 28.1231 24.3077 28.1012 24.2274 28.1085Z" fill="#D1D1D1"/>
<path d="M22.7695 28.7649C23.1998 28.2981 23.7468 28.3492 24.3011 28.4002C24.3741 28.4513 24.447 28.495 24.5199 28.5461C24.571 28.619 24.571 28.692 24.5199 28.7649C24.2209 28.3929 23.6229 28.3638 23.178 28.6993C23.0467 28.7941 22.9373 28.9181 22.7695 28.7649Z" fill="#E0E0E0"/>
<path d="M24.375 30.3695C24.6886 30.2674 24.5646 29.9975 24.5938 29.786C24.7251 29.9756 24.6886 30.1799 24.623 30.3695C24.5573 30.5226 24.4552 30.6029 24.375 30.3695Z" fill="#E2E2E2"/>
<path d="M24.5194 28.7649C24.5194 28.692 24.5194 28.6191 24.5194 28.5461C24.6726 28.8306 24.5559 29.1296 24.5923 29.4213C24.4683 29.3192 24.5413 29.1807 24.5194 29.0567C24.5194 28.9546 24.5194 28.8598 24.5194 28.7649Z" fill="#E2E2E2"/>
<path d="M22.9969 39.0412C23.0114 38.7348 22.9093 38.4796 22.7854 38.2024C22.6249 37.8451 22.5593 37.4293 22.552 37.0136C22.5447 36.6927 22.6249 36.3645 22.4863 36.0509C22.552 36.0801 22.6176 36.1093 22.6905 36.1384C22.7051 36.3718 22.9093 36.5104 22.9823 36.7073C23.2594 37.4804 23.1208 38.2608 22.9969 39.0412Z" fill="#CB8062"/>
<path d="M22.6251 35.0299C22.6251 34.8111 22.574 34.5704 22.8366 34.4464C22.771 34.6433 22.698 34.8403 22.6251 35.0299Z" fill="#CB8062"/>
<path d="M22.2586 39.6977C22.4191 39.5227 22.2878 39.3549 22.2513 39.1872C22.2148 38.9976 22.12 38.8079 22.1419 38.6256C22.1565 38.4797 22.1054 38.2172 22.2951 38.1953C22.492 38.1661 22.4409 38.4214 22.5066 38.5527C22.616 38.7788 22.6087 39.0778 22.915 39.1799C22.8931 39.2747 22.864 39.3768 22.8421 39.4716C22.6743 39.5446 22.74 39.6175 22.8421 39.6904C22.8421 39.7634 22.8421 39.8363 22.8494 39.9092C22.864 40.1645 22.7181 40.128 22.5868 40.0259C22.4628 39.9384 22.368 39.8071 22.2586 39.6977Z" fill="#C67B5F"/>
<path d="M22.8418 39.6977C22.7324 39.6831 22.5574 39.7488 22.5647 39.5592C22.572 39.3404 22.7543 39.5373 22.8345 39.4789C22.8345 39.5519 22.8418 39.6248 22.8418 39.6977Z" fill="#CB8062"/>
<path d="M28.1579 22.8647C28.2673 23.0106 28.4861 22.8574 28.5882 23.0106C28.0121 22.9741 27.662 23.3898 27.239 23.667C26.8232 23.9368 26.568 24.3744 26.1887 24.6807C26.1596 24.0827 26.3346 23.5211 26.568 22.9814C26.7576 22.5438 27.0275 22.4563 27.4724 22.624C27.6984 22.7115 27.9318 22.7845 28.1579 22.8647Z" fill="#C0C0BF"/>
<path d="M27.0126 27.2334C27.2241 27.5689 27.5596 27.8023 27.8075 28.1086C27.7784 28.1597 27.7492 28.2034 27.7273 28.2545C27.2314 28.0721 26.9615 27.6564 26.699 27.2407C26.7354 27.0948 26.6187 27 26.575 26.8833C26.5458 26.8031 26.4875 26.6353 26.699 26.7229C26.7573 26.9198 26.8959 27.0729 27.0126 27.2334Z" fill="#7C7C7C"/>
<path d="M28.3783 22.6386C28.0939 22.3979 27.773 22.1937 27.7876 21.7488C27.8022 21.479 27.8751 21.3769 28.1741 21.3842C28.7503 21.406 29.3265 21.4717 29.9027 21.3258C29.7422 21.5811 29.786 21.953 29.4869 22.1281C29.1369 22.3396 28.8305 22.6459 28.3783 22.6386Z" fill="#CA7F5D"/>
<path d="M32.0907 34.5194C32.1126 34.5194 32.1345 34.5194 32.1564 34.5267C32.3679 35.5915 32.5137 36.6709 32.6012 37.7504C32.7398 39.4424 32.9513 41.1418 32.7034 42.8557C32.6085 43.4829 32.4918 44.1174 32.4481 44.7592C32.4335 44.978 32.273 45.1604 32.2949 45.3865C31.9813 45.6199 32.1418 45.9918 32.0542 46.2836C32.0105 46.2763 31.9813 46.2836 31.9667 46.269C31.85 46.1814 31.9084 45.9335 31.7406 45.9335C31.5656 45.9335 31.5875 46.1523 31.5364 46.2763C31.4124 46.5607 31.2812 46.4367 31.1572 46.2836C31.0332 46.3784 31.0769 46.4659 31.1207 46.5534C31.2228 46.7649 31.376 46.9691 31.0113 47.1004C30.9238 47.1296 30.8873 47.2827 30.953 47.3557C31.1426 47.5599 30.9894 47.6766 30.8873 47.8443C30.7196 48.1434 30.7196 48.4861 30.7269 48.8216C30.7269 48.8873 30.7633 48.9748 30.8436 48.9894C30.9602 49.0113 30.9748 48.9164 31.004 48.8362C31.0624 48.6904 31.1718 48.5737 31.1572 48.3986C31.1499 48.3403 31.1936 48.2746 31.2666 48.2746C31.3322 48.2819 31.3541 48.3476 31.3687 48.4059C31.4343 48.6612 31.2884 48.9092 31.1863 49.0842C31.0405 49.3249 31.0259 49.602 30.8946 49.8427C30.7998 50.0032 30.7852 50.1271 30.5518 50.0834C30.3768 50.0469 30.1799 50.1053 29.9902 50.1271C30.2236 49.7625 30.2455 49.3395 30.3549 48.9383C30.5883 48.0631 30.7414 47.1733 30.8436 46.2763C30.9238 45.5688 30.9821 44.8614 31.004 44.1466C31.0332 43.3152 31.0332 42.4837 31.004 41.6523C30.9602 40.376 30.9019 39.0996 30.7342 37.8306C30.6393 37.1012 30.5518 36.3719 30.4278 35.6499C30.3841 35.3873 30.5518 35.2706 30.756 35.1977C31.1426 35.0591 31.5291 34.9205 31.923 34.8184C32.1199 34.7674 32.0834 34.6507 32.0907 34.5194Z" fill="#323031"/>
<path d="M26.4828 12.3696C26.7526 12.4133 26.8693 12.6467 27.0225 12.8217C27.11 12.9166 27.0954 13.077 26.9641 13.1354C26.264 13.4344 25.5638 13.6969 24.7615 13.573C24.4333 13.5219 24.4844 13.2666 24.375 13.0989C24.4771 12.5008 24.922 12.107 25.5419 12.0778C25.7097 12.0705 25.8774 12.0778 26.0452 12.0778C26.1837 12.1872 26.4244 12.1435 26.4828 12.3696C26.3661 12.4571 26.2494 12.3841 26.14 12.3623C25.6003 12.2456 25.0314 12.5081 24.7907 12.9895C24.6667 13.2375 24.7178 13.3833 24.9876 13.3979C25.5784 13.4198 26.14 13.2593 26.6797 13.0333C26.8256 12.9749 26.7818 12.8655 26.7089 12.7634C26.6213 12.6394 26.4463 12.5592 26.4828 12.3696Z" fill="#B46A4F"/>
<path d="M33.8347 17.3218C33.8784 17.6646 34.0024 17.9928 33.9878 18.3501C33.9732 18.6856 34.265 18.5106 34.4181 18.5616C34.3014 18.6783 34.1629 18.7513 33.9951 18.6637C33.8274 18.5762 33.8419 18.4158 33.8347 18.2553C33.8201 17.9417 33.7836 17.6354 33.7617 17.3218C33.7909 17.3218 33.8128 17.3218 33.8347 17.3218Z" fill="#C78062"/>
<path d="M30.1428 18.5469C30.4929 18.3938 30.7044 18.0218 31.0983 17.9416C31.1712 17.927 31.2441 17.8905 31.3025 17.9343C31.4046 18.0145 31.3025 18.0947 31.2733 18.1531C30.4856 19.4002 29.0926 20.2098 27.5683 19.7066C26.6129 19.393 26.0294 18.6855 25.5918 17.7228C25.9711 17.8176 26.2409 17.927 26.4451 18.1823C26.6347 18.4156 26.8171 18.649 27.1161 18.7584C27.2036 18.722 27.2839 18.7657 27.3568 18.8022C28.1882 19.2106 28.9905 19.1231 29.7709 18.6563C29.8876 18.5907 29.9897 18.4959 30.1428 18.5469Z" fill="#191317"/>
<path d="M28.626 17.1758C28.2467 17.1904 27.9331 17.1248 27.6487 16.9497C27.2475 16.7091 27.2694 16.2496 27.6778 16.0308C28.1957 15.7536 29.0344 15.7901 29.3918 16.111C29.7637 16.4392 29.7054 16.8622 29.2532 17.0591C29.0417 17.1612 28.8156 17.205 28.626 17.1758Z" fill="#DB967B"/>
<path d="M30.1417 18.547C29.6968 18.8387 29.2373 19.1013 28.6903 19.1596C28.1141 19.218 27.589 19.094 27.115 18.7658C26.991 18.5324 26.7211 18.4157 26.5898 18.1385C27.2171 18.3209 27.8297 18.4303 28.4569 18.4157C29.0696 18.4011 29.6749 18.3355 30.273 18.2261C30.3459 18.4084 30.0833 18.4011 30.1417 18.547Z" fill="#F1ECE8"/>
<path d="M31.1411 15.7171C30.864 15.9578 30.5868 15.9213 30.3534 15.6223C30.0763 15.2649 30.0544 14.7544 30.2951 14.3679C30.5066 14.0251 30.7546 13.9303 31.1119 14.0542C31.3526 14.1345 31.6443 14.5867 31.5568 14.8419C31.4766 15.0899 31.6371 15.4327 31.287 15.5786C31.1703 15.4473 31.2651 15.3014 31.2724 15.1628C31.2797 14.9076 31.2067 14.7106 30.9515 14.6158C30.8056 14.5575 30.7181 14.6085 30.7254 14.7763C30.667 14.8492 30.5722 14.893 30.5139 14.9659C30.3826 15.192 30.3899 15.4035 30.6014 15.5858C30.7473 15.7536 30.9734 15.615 31.1411 15.7171Z" fill="#B16649"/>
<path d="M25.5406 15.5713C25.3874 15.5057 25.3947 15.3671 25.3874 15.2358C25.3801 15.0899 25.3874 14.9441 25.3583 14.8055C25.3072 14.4919 25.5552 14.0616 25.8542 13.9814C26.1751 13.8938 26.5835 14.1199 26.7002 14.4408C26.8096 14.769 26.795 15.0827 26.569 15.3598C26.445 15.265 26.4814 15.1191 26.4668 14.9951C26.4523 14.7909 26.3137 14.6669 26.1678 14.5721C25.9636 14.4408 25.8323 14.5284 25.7886 14.7617C25.7521 14.8347 25.6938 14.893 25.6208 14.9368C25.4312 15.1264 25.6792 15.3744 25.5406 15.5713Z" fill="#BA6748"/>
<path d="M25.7592 14.7472C25.6498 14.6159 25.7228 14.5211 25.8322 14.4554C25.9488 14.3825 26.0874 14.3752 26.1968 14.4627C26.401 14.6232 26.6125 14.7909 26.5615 15.1046C26.5469 15.1848 26.5615 15.2723 26.5615 15.3525C26.2698 15.9506 25.9853 16.0089 25.5331 15.564C25.4675 15.3598 25.4383 15.141 25.4529 14.9295C25.4748 14.7253 25.5477 14.9076 25.5988 14.9076C25.7519 14.9222 25.8978 14.9368 25.9707 14.7618C26.1749 14.8566 26.1822 15.0462 26.1385 15.214C26.0874 15.4182 25.8759 15.3088 25.7082 15.3452C25.7957 15.5713 25.9197 15.6588 26.1239 15.5494C26.3427 15.4328 26.4375 15.09 26.3062 14.8858C26.2114 14.7399 26.0947 14.6013 25.9197 14.8055C25.8613 14.8274 25.7957 14.8274 25.7592 14.7472Z" fill="#7D4F44"/>
<path d="M30.6986 14.7617C30.684 14.7034 30.56 14.6815 30.633 14.5867C30.7059 14.4991 30.808 14.4481 30.9247 14.4846C31.1945 14.5648 31.3404 14.7471 31.3696 15.0316C31.3915 15.2212 31.2894 15.3816 31.2894 15.564C31.2383 15.615 31.1945 15.6588 31.1435 15.7098C30.9393 15.7755 30.7278 15.8484 30.5527 15.6442C30.56 15.6296 30.5746 15.615 30.5819 15.6004C31.1654 15.44 31.2675 15.2577 31.0049 14.769C30.9539 14.944 31.0779 15.1337 30.9174 15.2722C30.8809 15.2868 30.8518 15.2795 30.8226 15.2577C30.7642 15.1045 30.6621 14.9513 30.6986 14.7617Z" fill="#60413D"/>
<path d="M27.729 29.9246C27.8457 30.1726 27.8311 30.457 27.9113 30.7196C27.9915 31.004 28.1082 31.0623 28.3708 30.9748C28.5166 30.9238 28.6698 30.9092 28.823 30.88C28.7719 30.9311 28.7282 30.9748 28.6771 31.0259C28.5385 31.1134 28.6042 31.2812 28.5312 31.3906C28.4218 31.4854 28.3124 31.5875 28.1957 31.6677C27.5539 32.0907 26.7298 31.8354 26.3943 31.1134C26.1682 30.632 26.1244 30.1215 26.212 29.6037C26.2411 29.4432 26.3141 29.2974 26.4745 29.2317C26.6568 29.1515 26.759 29.2974 26.8756 29.4068C27.1601 29.6693 27.4372 29.9392 27.7217 30.2017C27.7581 30.1288 27.6998 30.0194 27.729 29.9246Z" fill="#D6D6D6"/>
<path d="M27.5831 29.1953C27.6706 29.3849 27.7289 29.5746 27.7216 29.7861C27.4737 29.6329 27.6122 29.3922 27.5831 29.1953Z" fill="#D6D6D6"/>
<path d="M28.5237 31.3906C28.5966 31.2812 28.2976 31.0186 28.6696 31.0259C28.6696 31.1645 28.6404 31.2958 28.5237 31.3906Z" fill="#DCDCDC"/>
<path d="M27.8601 29.7933C27.758 29.5161 27.7653 29.2244 27.7361 28.94C27.7069 28.6847 27.8528 28.5899 28.1008 28.6555C28.4654 28.7503 28.6405 29.0348 28.7061 29.3557C28.7864 29.7568 28.7936 30.1652 28.8301 30.5737C28.8374 30.6393 28.8155 30.6904 28.7572 30.7268C28.4654 30.5955 28.3196 30.3184 28.1591 30.0704C28.0424 29.8808 28.1518 29.7276 28.2977 29.5964C28.356 29.5526 28.4071 29.487 28.3779 29.4067C28.3415 29.3046 28.2394 29.3338 28.1956 29.3776C28.1227 29.4505 27.9549 29.29 27.9549 29.4942C27.9476 29.6036 27.9622 29.7203 27.8601 29.7933Z" fill="#2567A6"/>
<path d="M27.8591 29.7933C27.8591 29.5526 27.8153 29.3047 28.18 29.2755C28.2967 29.2682 28.3988 29.1661 28.4863 29.3047C28.5592 29.4213 28.53 29.5599 28.4206 29.6256C28.0049 29.8589 28.2018 30.0705 28.4206 30.3038C28.5446 30.4351 28.6394 30.5883 28.7488 30.7341C28.5957 30.8508 28.4061 30.8217 28.231 30.8654C28.0341 30.9165 28.0049 30.7414 28.0049 30.5883C27.9539 30.3695 28.0049 30.1361 27.8736 29.9392C27.8664 29.8881 27.8591 29.8371 27.8591 29.7933Z" fill="#1B558E"/>
<path d="M27.875 29.9319C28.0792 30.1142 28.0063 30.3549 28.0063 30.581C27.9625 30.3695 27.9188 30.1507 27.875 29.9319Z" fill="#2567A6"/>
<path d="M29.4715 27.4449C29.6174 27.0948 29.9894 26.9197 30.1498 26.5697C30.1717 26.5259 30.2227 26.4967 30.2738 26.5259C30.3832 26.5915 30.3321 26.6937 30.3321 26.7885C30.0988 27.1021 29.88 27.4449 29.5445 27.671C29.2309 27.6928 29.4497 27.5324 29.4715 27.4449Z" fill="#587632"/>
<path d="M26.4808 12.3695C26.5027 12.3987 26.5173 12.4352 26.5392 12.457C27.1008 12.9749 27.0643 13.0405 26.3569 13.252C25.8755 13.3979 25.3941 13.5656 24.869 13.4781C24.6065 13.4343 24.5554 13.3104 24.6429 13.0697C24.9274 12.3476 25.5911 12.0924 26.4808 12.3695Z" fill="#362735"/>
<path d="M30.6968 14.7618C30.8135 14.9077 30.85 15.0755 30.8427 15.2578C30.6093 15.2651 30.4489 15.1921 30.478 14.9223C30.4926 14.791 30.5801 14.7618 30.6968 14.7618Z" fill="#AFA2A1"/>
<path d="M30.4781 14.9221C30.5073 15.1336 30.7188 15.1482 30.8428 15.2576C30.8501 15.2649 30.8574 15.2795 30.8647 15.2868C30.7772 15.4983 30.6605 15.3233 30.5438 15.3233C30.5292 15.4254 30.6532 15.5202 30.573 15.6296L30.5511 15.6515C30.2739 15.3889 30.252 15.1482 30.4781 14.9221Z" fill="#60413D"/>
<path d="M25.9648 14.7837C25.9502 14.8931 26.045 15.0463 25.9137 15.1046C25.7679 15.1629 25.7241 14.966 25.6074 14.915C25.6147 14.8202 25.6731 14.7764 25.7533 14.7545C25.8262 14.7618 25.8992 14.7691 25.9648 14.7837Z" fill="#AF9F9F"/>
<path d="M25.9627 14.7764C25.9044 14.543 26.0357 14.5065 26.1961 14.6014C26.3858 14.718 26.5097 14.8931 26.4806 15.1411C26.4514 15.3744 26.3566 15.5568 26.1451 15.6589C25.8971 15.7829 25.5762 15.5568 25.6054 15.2869C25.6127 15.214 25.6273 15.1265 25.7294 15.1629C25.8461 15.2067 25.9846 15.3672 26.0721 15.2213C26.1524 15.0973 26.0721 14.915 25.9627 14.7764C25.9627 14.7837 25.9627 14.7764 25.9627 14.7764Z" fill="#2D191B"/>
<path d="M30.5732 15.6297C30.5586 15.4765 30.3544 15.389 30.4346 15.2067C30.6024 15.09 30.6826 15.4401 30.8576 15.2869C30.9743 15.1483 30.9233 14.9952 30.8795 14.8493C30.8576 14.7764 30.7337 14.7107 30.8503 14.6451C30.9379 14.594 31.04 14.6378 31.1056 14.718C31.2952 14.9368 31.2296 15.1994 31.1858 15.4401C31.1421 15.6516 30.9379 15.6735 30.7482 15.6516C30.6899 15.6443 30.6315 15.637 30.5732 15.6297Z" fill="#261519"/>
</g>
</g>
</g>
<defs>
<filter id="filter0_d" x="0.671875" y="0.136475" width="56.6268" height="58.5077" filterUnits="userSpaceOnUse" color-interpolation-filters="sRGB">
<feFlood flood-opacity="0" result="BackgroundImageFix"/>
<feColorMatrix in="SourceAlpha" type="matrix" values="0 0 0 0 0 0 0 0 0 0 0 0 0 0 0 0 0 0 127 0"/>
<feOffset dy="8"/>
<feGaussianBlur stdDeviation="4"/>
<feColorMatrix type="matrix" values="0 0 0 0 0 0 0 0 0 0 0 0 0 0 0 0 0 0 0.02 0"/>
<feBlend mode="normal" in2="BackgroundImageFix" result="effect1_dropShadow"/>
<feBlend mode="normal" in="SourceGraphic" in2="effect1_dropShadow" result="shape"/>
</filter>
<filter id="filter1_d" x="7.06641" y="1.89807" width="44.7397" height="54.7461" filterUnits="userSpaceOnUse" color-interpolation-filters="sRGB">
<feFlood flood-opacity="0" result="BackgroundImageFix"/>
<feColorMatrix in="SourceAlpha" type="matrix" values="0 0 0 0 0 0 0 0 0 0 0 0 0 0 0 0 0 0 127 0"/>
<feOffset dy="6"/>
<feGaussianBlur stdDeviation="4"/>
<feColorMatrix type="matrix" values="0 0 0 0 0.281659 0 0 0 0 0.253576 0 0 0 0 0.454167 0 0 0 0.15 0"/>
<feBlend mode="normal" in2="BackgroundImageFix" result="effect1_dropShadow"/>
<feBlend mode="normal" in="SourceGraphic" in2="effect1_dropShadow" result="shape"/>
</filter>
</defs>
</svg>
