<svg width="57" height="61" viewBox="0 0 57 61" fill="none" xmlns="http://www.w3.org/2000/svg">
<g opacity="0.3" filter="url(#filter0_d)">
<mask id="mask0" mask-type="alpha" maskUnits="userSpaceOnUse" x="8" y="2" width="41" height="43">
<rect x="8.67188" y="2.16211" width="40.2507" height="42.5077" rx="8" fill="#24FFD8"/>
<rect x="8.92188" y="2.41211" width="39.7507" height="42.0077" rx="7.75" stroke="#7782AD" stroke-opacity="0.3" stroke-width="0.5"/>
</mask>
<g mask="url(#mask0)">
<g filter="url(#filter1_d)">
<rect x="8.67188" y="2.16211" width="40.2507" height="42.5077" rx="8" fill="#64F1D8"/>
<rect x="8.92188" y="2.41211" width="39.7507" height="42.0077" rx="7.75" stroke="#7782AD" stroke-opacity="0.3" stroke-width="0.5"/>
</g>
<path d="M44.7438 19.3626C44.8573 20.3163 44.8573 21.2701 44.7438 22.2238C44.7324 22.3827 44.7324 22.553 44.7211 22.7234C44.7324 23.3138 44.7551 23.9155 44.6189 24.4946C44.6189 24.5513 44.6075 24.5967 44.6075 24.6535C44.5053 27.2195 44.0398 29.74 43.5176 32.2492C43.2905 33.3505 43.0066 34.4519 42.7455 35.5418C42.5979 35.5305 42.4617 35.5191 42.3141 35.5078C42.0416 35.258 41.7691 35.0309 41.3717 35.0196C40.9856 34.8266 40.5656 34.7925 40.1455 34.8833C39.8276 34.8606 39.5097 34.8606 39.2258 35.0536C39.169 35.0423 39.1009 35.0309 39.0441 35.0196C38.9533 34.9401 38.8852 34.8493 38.9192 34.7244C39.1463 33.8274 39.1577 32.9078 39.2485 31.9881C39.3166 31.3069 39.2826 30.5802 40.066 30.1942C39.5778 30.3077 39.1577 30.5007 38.7262 30.6143C38.3289 30.7165 38.5332 30.83 38.6695 30.9776C38.5786 31.6248 38.4651 32.2719 38.397 32.9191C38.3061 33.8388 38.0337 34.7244 37.9996 35.6554C37.0232 36.734 36.6598 38.1532 35.9218 39.3567C35.5812 39.7428 35.2406 40.1288 34.8092 40.4126C34.6502 40.3899 34.4913 40.4126 34.3664 40.5148C33.8441 40.5375 33.3218 40.5035 32.8109 40.3786C32.7655 40.2991 32.686 40.2764 32.6065 40.2878C32.3 40.0493 32.0048 39.8222 31.6982 39.5838C31.6869 39.5384 31.6641 39.5157 31.6301 39.5157C31.403 39.2545 31.1873 38.9821 30.9602 38.7209C30.9489 38.6528 30.9148 38.6074 30.8353 38.6074C30.5288 38.1986 31.1532 38.1419 31.1192 37.8353C31.5506 37.4947 31.8345 37.0178 32.2091 36.6205C32.4476 36.3593 32.2886 36.1436 32.1637 35.9052C31.2554 34.0658 30.7218 32.113 30.3925 30.092C31.3349 30.1488 32.2773 30.0579 33.2196 29.9444C35.7175 29.6265 38.1585 29.0588 40.5769 28.3662C41.4852 28.1051 42.4276 27.8894 43.3586 27.4238C43.2224 27.4125 43.1542 27.3898 43.1088 27.4011C41.1219 27.8666 39.1123 28.1846 37.0799 28.3549C36.0808 28.4343 35.0817 28.5252 34.0825 28.4911C32.7314 28.4457 31.3803 28.2867 30.0178 28.1732C29.9838 28.1391 29.9497 28.1051 29.9157 28.071C29.9157 27.8894 29.9043 27.7077 29.9043 27.526C31.5052 25.9592 33.265 24.5627 35.0362 23.2002C36.8415 21.815 38.7035 20.498 40.7132 19.408C41.9734 18.7268 43.2224 18.0229 44.6416 17.7163C44.7324 18.1818 44.7211 18.6473 44.7097 19.1015C44.7324 19.181 44.7324 19.2718 44.7438 19.3626Z" fill="#10B3B7"/>
<path d="M35.3641 7.52056C37.0786 6.72579 38.8498 6.08997 40.7686 6.53277C42.4489 6.9188 43.6979 8.03148 44.7992 9.31446C44.8787 9.41665 44.8673 9.53019 44.8673 9.63237C44.2315 10.0638 43.5843 10.4953 42.9599 10.9494C42.1424 11.5285 42.1651 11.3127 42.6079 12.2097C42.8123 12.6184 42.7896 12.8455 42.3468 13.0953C40.8367 13.9241 39.3607 14.7984 37.8733 15.6613C37.4419 15.4455 37.0899 15.0141 36.5336 15.1163C36.3292 14.9233 36.4428 14.4237 35.9205 14.5486C34.4672 14.8665 33.0025 15.173 31.5947 15.6613C31.3676 15.7407 31.1178 15.8316 31.1405 16.1495C31.1292 16.3084 31.1178 16.4674 31.0951 16.6263C30.9361 17.2962 31.0043 17.9661 30.9589 18.6473C30.9475 18.7609 31.0383 19.0561 30.7318 18.8176V18.7836L30.7091 18.7722C30.3344 17.4665 30.3003 17.4325 29.0173 17.7617C27.9501 18.0342 26.8942 18.3521 25.8383 18.6473C25.7247 17.6936 25.4749 16.7512 25.5317 15.7748C25.5544 15.4115 25.5998 15.0595 25.8269 14.753C26.599 13.7198 27.5073 12.8228 28.5405 12.0507C28.9833 12.2324 29.4261 12.1643 29.8802 12.1189C30.9816 12.0167 32.0148 11.6647 33.048 11.29C33.2977 11.1992 33.5362 11.1424 33.82 11.1992C35.103 11.4263 36.0908 10.3704 35.8751 9.07603C35.7956 8.50834 35.4323 8.07689 35.3641 7.52056Z" fill="#11B3B7"/>
<path d="M24.3746 25.9139C24.4087 26.2204 24.2838 26.3794 23.9886 26.5156C18.5387 28.9908 13.1002 31.5 7.65038 33.9751C6.5377 34.486 5.44773 35.0651 4.27829 35.4511C4.23287 35.3035 4.21016 35.1559 4.15339 35.0197C3.71059 34.0432 3.27915 33.0554 2.79093 32.1017C2.37084 31.2729 2.38219 31.1934 3.25644 30.8187C3.80142 30.5803 4.34641 30.3305 4.90275 30.0807C6.62853 29.32 8.3089 28.4799 10.0574 27.7646C11.6015 27.1174 13.0889 26.3567 14.5989 25.6527C16.5177 24.7785 18.4252 23.8929 20.3667 23.0641C21.082 22.7575 21.7519 22.3034 22.5466 22.1785C22.6034 22.2807 22.6602 22.3715 22.7169 22.4737C23.2619 23.5977 23.8183 24.7558 24.3746 25.9139ZM6.06084 33.5777C6.25385 33.521 6.43552 33.4869 6.59447 33.4074C8.27484 32.6581 9.96656 31.9087 11.6469 31.148C14.2356 29.9672 16.8129 28.7864 19.3903 27.6056C20.1737 27.2423 20.9684 26.879 21.7519 26.5156C21.8767 26.4589 22.0925 26.4021 21.9903 26.2091C21.9222 26.0728 21.7632 26.1523 21.6383 26.2091C20.2645 26.8335 18.8907 27.4467 17.5169 28.0711C13.8155 29.7628 10.1142 31.4546 6.41281 33.1463C6.25385 33.2371 6.04949 33.2712 6.06084 33.5777Z" fill="#F5DCCD"/>
<path d="M37.875 15.6613C39.3624 14.7984 40.8384 13.9242 42.3484 13.0954C42.8026 12.8456 42.8139 12.6185 42.6096 12.2098C42.1668 11.3242 42.144 11.5399 42.9615 10.9495C43.586 10.5067 44.2332 10.0752 44.869 9.63245C45.5502 9.89358 45.8113 10.5635 46.1292 11.0971C46.6061 11.8805 47.0148 12.7207 47.276 13.6176C47.4122 14.0832 47.4009 14.5487 47.4009 15.0255C47.4009 15.3321 47.2079 15.5137 46.9581 15.6273C46.2996 15.9111 45.641 16.195 44.9825 16.4675C44.8349 16.5242 44.6987 16.5696 44.6305 16.7286C44.3126 16.4675 44.0628 16.7627 43.8017 16.8421C42.2576 17.3417 40.7475 17.9321 39.1807 18.3408C38.9536 17.7618 38.7379 17.1714 38.454 16.6037C38.2837 16.2631 37.9091 16.0587 37.875 15.6613Z" fill="#F9BBB1"/>
<path d="M7.8678 25.6753C7.2774 25.6753 6.95949 25.312 7.01626 24.6875C7.33417 21.3382 8.09488 18.091 9.33245 14.9459C10.6381 11.642 12.4548 8.70133 14.9185 6.12401C16.3605 4.61395 17.9841 3.34232 19.7099 2.17287C19.7666 2.12746 19.8461 2.09339 19.9142 2.07069C20.1413 2.00256 20.4138 1.84361 20.5728 2.12746C20.7431 2.43401 20.5046 2.60432 20.2776 2.76327C19.6304 3.21742 18.9719 3.64887 18.3701 4.15979C16.667 5.59038 15.191 7.21398 13.908 9.01924C12.1028 11.5511 10.8993 14.3783 10.0364 17.3416C9.44598 19.3853 9.12808 21.4971 8.86694 23.6089C8.82152 23.9836 8.85558 24.3696 8.84423 24.7443C8.79882 25.3688 8.48091 25.6753 7.8678 25.6753Z" fill="#11B3B7"/>
<path d="M27.5422 25.6867C27.1675 25.0736 26.8042 24.4491 26.4295 23.836C26.2706 23.1207 25.8505 22.5076 25.6348 21.8264C26.0094 21.6561 26.3955 21.3382 26.7588 21.3609C27.2243 21.3836 27.2357 21.9967 27.4854 22.326C27.6444 22.5303 27.7352 22.9959 28.0191 22.8255C28.2348 22.7007 27.8715 22.3941 27.7352 22.1897C27.1108 21.3041 27.1335 21.1906 28.0645 20.691C28.7798 20.305 28.9501 20.3618 29.3475 21.0998C29.5405 21.4631 29.7676 21.8037 30.1309 22.1784C30.1649 21.7923 29.9833 21.6107 29.847 21.4063C29.1204 20.2823 29.268 19.9644 30.6305 19.7827C30.6645 19.7827 30.7099 19.7827 30.744 19.7714C31.13 20.6456 31.4933 21.5426 31.8226 22.4509C32.3676 23.995 32.606 23.8247 30.9257 24.5627C29.8243 25.0395 28.7571 25.5732 27.5422 25.6867Z" fill="#F1EEDF"/>
<path d="M27.543 25.6867C28.7578 25.5732 29.8251 25.0396 30.9037 24.5513C32.5841 23.8133 32.357 23.9836 31.8007 22.4395C31.4828 21.5312 31.1194 20.6456 30.722 19.76C30.7788 19.374 30.9832 19.3399 31.2784 19.5329C31.3011 20.8159 31.5168 21.0203 32.7544 21.0089C32.7884 21.0089 32.8339 21.0089 32.8679 21.0089C32.9133 21.0544 32.9474 21.0884 32.9928 21.1338C32.8225 21.1338 32.6522 21.1111 32.4819 21.1338C32.2548 21.1679 31.8688 20.9862 31.8801 21.4177C31.8915 21.781 32.1186 22.0421 32.55 22.0421C33.288 22.0535 33.0836 21.5312 33.0836 21.1225C33.1291 21.1225 33.1745 21.1225 33.2199 21.1111C33.2085 21.3609 33.1972 21.6107 33.447 21.7583C33.8671 22.0081 34.8208 21.5085 34.923 20.9976C34.8889 20.884 34.8435 20.7705 34.8094 20.6683C34.8889 20.6343 34.957 20.5888 35.0365 20.5548C35.15 20.5548 35.2636 20.5548 35.3771 20.5548C35.3771 20.5888 35.3771 20.6229 35.3771 20.6683C35.1273 20.7137 35.0365 20.8613 35.0479 21.0998C35.0592 21.202 35.1046 21.2701 35.2068 21.2928C35.5134 21.3382 36.0811 20.9295 36.1832 20.5661C36.2741 20.3504 36.399 20.1347 36.2854 19.8736C36.2854 19.6124 36.2854 19.3399 36.2854 19.0788C36.2854 18.9993 36.2854 18.9312 36.2741 18.8517C36.3081 17.6709 36.2854 16.4901 36.0697 15.3207C36.0129 15.0255 35.8994 14.8779 35.6042 14.8779C36.0129 14.5145 36.1832 15.1731 36.5352 15.0936C37.0915 14.9914 37.4435 15.4228 37.875 15.6499C37.909 16.0587 38.2837 16.2517 38.4427 16.5923C38.7265 17.16 38.9422 17.739 39.1693 18.3294C39.1466 18.4997 39.1012 18.67 39.1125 18.829C39.1466 19.4648 38.8855 19.8281 38.2496 19.9303C37.875 19.9871 37.5116 20.1233 37.1483 20.1801C36.7736 20.2369 36.5693 20.4185 36.5352 20.7819C36.4784 21.2814 36.1832 21.588 35.7518 21.8037C34.7186 22.326 33.6968 22.871 32.4024 22.6325C32.5046 22.9277 32.5727 23.1321 32.6408 23.3365C32.9701 24.381 32.902 24.5854 31.9256 25.0963C31.1762 25.4937 30.4041 25.857 29.6434 26.2317C29.4958 26.2658 29.3482 26.2771 29.212 26.3452C28.2015 26.8448 28.0312 26.561 27.543 25.6867Z" fill="#D3CCB5"/>
<path d="M14.4985 18.3635C14.737 17.2395 15.0208 15.9451 15.4636 14.7075C15.8837 13.5381 16.2697 12.3573 16.8601 11.256C18.1772 8.74678 19.7667 6.46465 21.9466 4.62533C22.3894 4.25066 22.8663 3.91004 23.3091 3.52401C23.5702 3.30829 23.8087 3.22881 24.0357 3.53536C24.2515 3.81921 24.0585 4.00087 23.8314 4.18253C22.3327 5.37469 20.9475 6.68038 19.8575 8.25856C18.8584 9.72321 17.9955 11.2673 17.337 12.9136C16.5876 14.787 16.1221 16.7399 15.7361 18.7155C15.6566 19.1015 15.4977 19.408 15.0549 19.3967C14.6802 19.3626 14.4872 19.0447 14.4985 18.3635Z" fill="#11B3B7"/>
<path d="M22.547 22.1557C21.7522 22.2919 21.0823 22.7347 20.367 23.0413C18.4255 23.8701 16.5181 24.7557 14.5993 25.63C13.0779 26.3225 11.5905 27.0946 10.0578 27.7418C8.32061 28.4684 6.62889 29.3086 4.90311 30.0579C4.35812 30.2964 3.81314 30.5575 3.2568 30.7959C2.38255 31.1706 2.3712 31.2501 2.79129 32.0789C3.26815 33.044 3.6996 34.0204 4.15375 34.9969C4.21052 35.1331 4.24458 35.2807 4.27865 35.4283C3.80178 35.7576 3.59742 35.7349 3.39305 35.2807C2.80265 34.0091 2.23495 32.7375 1.6332 31.4772C1.44019 31.0684 1.4856 30.8754 1.93975 30.6711C6.6516 28.5365 11.3407 26.368 16.0412 24.2221C17.96 23.3478 19.8902 22.4849 21.809 21.5993C22.0928 21.4744 22.3085 21.4631 22.5129 21.7129C22.5243 21.8718 22.5356 22.0081 22.547 22.1557Z" fill="#FAEBE2"/>
<path d="M16.8809 32.6013C17.5053 31.8519 18.8678 31.5454 19.9464 31.9314C19.9691 31.9768 19.9918 32.0336 20.0259 32.079C21.1613 33.8048 20.8661 35.4965 19.7307 37.0066C19.5149 37.2904 19.2425 37.6083 18.8678 37.5743C18.3001 37.5175 17.6983 37.5061 17.2101 37.0974C16.9036 36.8476 16.5516 36.6659 16.2223 36.4502C15.5979 35.3716 15.5752 34.3157 16.3245 33.2711C16.3245 33.8161 16.018 34.3157 16.0861 34.8834C16.1201 35.1899 16.1769 35.4851 16.4721 35.576C16.8241 35.6782 16.8922 35.3262 16.9944 35.0991C17.2101 34.6336 17.3577 34.1454 17.5848 33.6912C17.7551 33.3506 18.2206 33.0781 17.9481 32.658C17.6643 32.2607 17.2328 32.6126 16.8809 32.6013Z" fill="#E93C30"/>
<path d="M29.6543 26.2431C30.415 25.8684 31.1871 25.5051 31.9364 25.1077C32.9128 24.5968 32.981 24.3924 32.6517 23.3479C32.5836 23.1435 32.5155 22.9278 32.4133 22.644C33.7076 22.8824 34.7295 22.3374 35.7627 21.8151C36.1941 21.5994 36.5007 21.2929 36.5461 20.7933C36.5801 20.4186 36.7845 20.2369 37.1592 20.1915C37.5339 20.1461 37.8972 20.0099 38.2605 19.9417C38.8963 19.8396 39.1688 19.4649 39.1234 18.8404C39.112 18.6701 39.1575 18.4998 39.1802 18.3409C40.747 17.9321 42.2571 17.3417 43.8012 16.8421C44.0623 16.7627 44.3121 16.4675 44.63 16.7286C44.5619 17.0579 44.7776 17.3871 44.6641 17.7164C43.2448 18.0229 41.9846 18.7269 40.7356 19.4081C38.726 20.4981 36.864 21.8151 35.0587 23.2003C33.2762 24.5628 31.5277 25.9593 29.9268 27.5261C29.8927 27.5261 29.8587 27.5148 29.836 27.5034C29.8246 27.3558 29.8019 27.1968 29.7905 27.0492C29.7678 26.9698 29.7451 26.9016 29.7224 26.8222C29.6884 26.6178 29.677 26.4248 29.6543 26.2431Z" fill="#128A8B"/>
<path d="M19.7201 51.8005C19.2546 51.6189 18.9707 51.2328 18.6983 50.8581C18.4825 50.5743 18.5393 50.2223 18.8118 49.9271C20.0494 48.5874 21.2756 47.2363 22.5131 45.8852C23.2511 45.079 23.9891 44.2843 24.7271 43.4781C25.2494 43.6371 25.4197 44.1594 25.7603 44.5C25.1926 45.2039 24.6477 45.9192 24.0573 46.5891C22.5586 48.3035 21.1393 50.052 19.7201 51.8005Z" fill="#F1EEDF"/>
<path d="M30.0293 28.1619C31.3804 28.2754 32.7315 28.4344 34.094 28.4798C35.0931 28.5138 36.0923 28.423 37.0914 28.3435C39.1237 28.1732 41.1334 27.8553 43.1203 27.3898C43.1657 27.3785 43.2338 27.4012 43.3701 27.4125C42.439 27.878 41.4967 28.0938 40.5884 28.3549C38.17 29.0475 35.7289 29.6265 33.2311 29.9331C32.3001 30.0466 31.3577 30.1374 30.404 30.0807C30.1996 29.4676 30.0747 28.8204 30.0293 28.1619Z" fill="#128A8B"/>
<path d="M34.8214 40.424C35.2529 40.1402 35.5935 39.7428 35.9341 39.3681C36.0022 39.5611 35.7865 39.7882 36.0022 39.9472C36.3088 40.1629 37.1603 39.9245 37.2966 39.5611C37.6599 38.6074 37.9892 37.6537 38.3411 36.7C38.4433 36.4161 38.4547 36.0528 38.7953 35.9052C38.7726 36.0528 38.7726 36.2117 38.7272 36.348C38.3411 37.4266 37.9665 38.5052 37.5464 39.5725C37.4101 39.9245 37.4896 40.0721 37.8416 40.1061C38.239 40.1515 38.625 40.1856 39.0224 40.2197C39.17 40.3445 39.2154 40.2424 39.2494 40.1061C39.2835 40.1061 39.3176 40.1061 39.363 40.1061C39.4425 40.1061 39.5106 40.1061 39.5901 40.1061C40.1123 40.4921 40.9752 40.4354 41.0774 39.9812C41.225 39.2886 41.4407 38.6188 41.6451 37.9489C41.6792 37.8694 41.7132 37.8013 41.7586 37.7218C41.9517 36.9838 42.1447 36.2572 42.349 35.5192C42.4966 35.5305 42.6329 35.5419 42.7805 35.5532C42.7805 35.6213 42.7918 35.7008 42.7918 35.7689C42.4172 35.9393 42.4399 36.3253 42.349 36.6318C42.0538 37.5515 41.8154 38.4825 41.5202 39.3908C41.1569 40.4921 40.9979 40.3218 42.2696 40.6511C42.2923 40.6511 42.3036 40.6511 42.3263 40.6511C42.4058 40.9463 42.701 41.2188 42.4512 41.5594C41.9971 41.7638 41.5316 41.7978 41.0206 41.707C40.1691 41.5594 39.3062 41.5026 38.432 41.4459C37.3079 41.3777 36.1726 41.4118 35.0826 41.0939C34.8782 40.9122 34.7874 40.6852 34.8214 40.424Z" fill="#E5DBC2"/>
<path d="M33.2303 21.1338C33.1849 21.1338 33.1395 21.1338 33.0941 21.1452C33.06 21.1452 33.0373 21.1452 33.0032 21.1452C32.9578 21.0998 32.9238 21.0657 32.8783 21.0203C32.8783 20.6002 32.867 20.1915 32.8897 19.7714C32.9011 19.4194 32.7307 19.2831 32.4015 19.3286C32.0268 19.3853 31.6635 19.4762 31.2888 19.5443C30.9936 19.3513 30.7892 19.374 30.7325 19.7714C30.6984 19.7714 30.653 19.7714 30.6189 19.7827C29.2565 19.9644 29.1089 20.2709 29.8355 21.4063C29.9604 21.5993 30.1421 21.781 30.1194 22.1784C29.7674 21.8037 29.529 21.4744 29.3359 21.0998C28.9499 20.3618 28.7683 20.305 28.053 20.691C27.1219 21.1906 27.1106 21.3041 27.7237 22.1897C27.8599 22.3941 28.2233 22.7007 28.0075 22.8255C27.7237 22.9959 27.6329 22.5303 27.4739 22.326C27.2241 21.9967 27.2241 21.3836 26.7473 21.3609C26.3839 21.3382 25.9979 21.6561 25.6232 21.8264C25.5778 21.7129 25.5438 21.588 25.4983 21.4744C25.9071 21.5085 26.2363 21.2928 26.5315 21.0998C26.9403 20.8386 26.6337 20.4526 26.5883 20.1233C26.5656 19.953 26.4634 19.8054 26.2363 19.8622C25.8163 19.9644 25.3848 20.0325 25.1464 20.4639C24.9874 20.2596 25.0555 20.0098 25.0215 19.7827C25.3848 19.8054 25.7254 19.6919 26.0774 19.6238C26.2591 19.5897 26.3726 19.4762 26.3158 19.2604C26.2704 19.0788 26.2477 18.8858 25.9866 18.8744C25.8276 18.8744 25.6573 19.0107 25.4983 18.8858C25.6119 18.8063 25.7254 18.7268 25.839 18.636C26.8949 18.3408 27.9508 18.0229 29.018 17.7504C30.2897 17.4211 30.3237 17.4665 30.7098 18.7609C30.3805 18.6246 30.4259 18.2499 30.2329 18.0229C30.0399 17.8071 29.8582 17.5347 29.5971 17.9434C29.4381 17.9888 29.2792 18.0342 29.1089 18.0796C28.8477 18.1591 28.4844 18.1705 28.5979 18.5792C28.7115 18.9993 29.0635 18.8858 29.3473 18.7949C29.6539 18.7041 29.9377 18.5451 30.2556 18.5111C30.2556 18.5906 30.267 18.6587 30.267 18.7382C29.8923 18.8517 29.5176 18.9766 29.1429 19.0788C28.9386 19.1355 28.7455 19.2264 28.8477 19.4421C28.9386 19.6238 28.9386 20.0211 29.2905 19.8849C29.7333 19.7259 30.2443 19.6692 30.5962 19.2945C30.7325 19.1469 30.7098 18.9539 30.7211 18.7836C31.0163 19.022 30.9368 18.7268 30.9482 18.6133C30.9936 17.9434 30.9255 17.2622 31.0844 16.5923C31.1526 17.2849 31.232 17.9661 31.2661 18.6587C31.2888 19.022 31.3342 19.215 31.7884 19.1242C32.6513 18.9539 32.6513 18.9766 32.7535 18.091C32.7535 18.0569 32.7535 18.0115 32.7648 17.9775C32.7762 17.9093 32.7875 17.8185 32.8783 17.8071C33.0032 17.7958 33.0487 17.8866 33.06 17.9775C33.0827 18.091 33.0941 18.2045 33.0827 18.3181C33.0146 18.7949 33.1849 18.9879 33.6731 18.8517C33.7639 18.829 33.8661 18.8403 33.957 18.8517C34.4792 18.9085 34.7404 18.7155 34.6836 18.1591C34.6723 18.0115 34.6041 17.8185 34.8539 17.6823C34.9107 17.9207 34.9902 18.1251 35.0015 18.3408C35.0242 18.6246 35.1378 18.7382 35.4216 18.7495C35.7055 18.7609 35.9779 18.8176 36.2618 18.8517C36.2618 18.9312 36.2618 18.9993 36.2731 19.0788C36.0688 19.0788 35.8644 19.0788 35.66 19.0788C35.0242 19.0788 34.9334 19.181 35.0583 19.7941C35.1151 20.0552 35.1491 20.305 35.0129 20.5548C34.9334 20.5888 34.8653 20.6343 34.7858 20.6683C34.7858 20.2709 34.7744 19.8735 34.7744 19.4762C34.7744 19.2718 34.729 19.1242 34.4792 19.0674C33.3779 18.829 32.9124 19.2945 33.1508 20.3731C33.1622 20.4072 33.1735 20.4412 33.1735 20.4867C33.1849 20.7705 33.2984 20.8727 33.6163 20.8046C34.0024 20.7251 34.3998 20.7024 34.7858 20.657C34.8199 20.7705 34.8653 20.884 34.8993 20.9862C34.3657 21.0543 33.798 21.0884 33.2303 21.1338ZM26.8722 20.0439C26.8835 20.7024 27.0538 20.8273 27.6442 20.5661C27.9054 20.4526 28.1551 20.3277 28.4049 20.2142C28.5979 20.1347 28.825 20.0666 28.6774 19.7827C28.5639 19.5556 28.5412 19.2377 28.1551 19.3513C27.8145 19.4421 27.4626 19.4648 27.1333 19.6351C26.9403 19.7373 26.8608 19.8508 26.8722 20.0439ZM28.3368 18.6927C28.3255 18.4203 28.1779 18.2159 27.8827 18.3408C27.5534 18.477 27.2241 18.5906 26.8835 18.6927C26.6678 18.7609 26.611 18.9425 26.6678 19.1469C26.7246 19.3853 26.8949 19.4194 27.0992 19.3513C27.4399 19.2491 27.7805 19.1469 28.1211 19.0561C28.3027 19.022 28.3368 18.8858 28.3368 18.6927Z" fill="#E6E2CF"/>
<path d="M25.5209 21.4745C25.5663 21.588 25.6003 21.7129 25.6457 21.8265C25.8615 22.519 26.2816 23.1321 26.4405 23.8361C25.3619 24.1313 25.0894 25.244 24.3855 25.9138C23.8291 24.7557 23.2728 23.609 22.7165 22.4509C22.671 22.3487 22.6029 22.2579 22.5461 22.1557C22.5348 22.0081 22.5348 21.8719 22.5234 21.7243C23.1365 21.7129 23.761 21.6562 24.3741 21.781C24.7829 21.8719 25.0553 21.4972 25.43 21.4631C25.4527 21.4631 25.4868 21.4631 25.5209 21.4745Z" fill="#EEC2A8"/>
<path d="M41.7366 42.4791C41.7479 42.7856 41.8955 43.0695 41.8501 43.376C41.4981 43.4441 41.1916 43.6372 40.8055 43.5804C39.1138 43.3193 37.4107 43.1489 35.6963 43.1603C35.174 43.1717 34.7312 43.0581 34.3566 42.6948C34.2317 42.1612 34.8448 42.0022 34.9356 41.5708C35.2876 41.5026 35.4352 41.9114 35.7985 41.9227C37.002 41.9568 38.2055 42.0363 39.3977 42.1498C40.1811 42.2179 40.9531 42.3655 41.7366 42.4791Z" fill="#E5DBC2"/>
<path d="M41.0662 44.2956C41.0889 44.6022 41.4068 44.8633 41.1684 45.1926C40.6575 45.3743 40.1125 45.3629 39.6015 45.2948C38.1255 45.0791 36.6496 44.9655 35.1622 44.9655C34.6059 44.9655 34.0836 44.8406 33.6862 44.3978C33.6635 43.9096 34.2425 43.7393 34.2539 43.2738C34.6513 43.3873 34.9238 43.7393 35.4233 43.7507C36.695 43.762 37.978 43.8415 39.2496 43.9777C39.8513 44.0459 40.4758 44.0799 41.0662 44.2956Z" fill="#E5DBC2"/>
<path d="M35.365 7.52051C35.4332 8.06549 35.7965 8.50829 35.8873 9.06463C36.103 10.359 35.1153 11.4262 33.8323 11.1878C33.5484 11.1424 33.31 11.1878 33.0602 11.2786C32.027 11.6533 30.9938 12.0053 29.8925 12.1075C29.4383 12.1529 28.9955 12.2096 28.5527 12.0393C29.461 11.0856 30.5283 10.3249 31.5842 9.55285C31.9021 9.77992 32.22 10.007 32.5379 10.2341C32.5833 10.2681 32.6288 10.3022 32.6742 10.3363C32.8558 10.4612 33.0261 10.6088 33.2192 10.7109C33.7982 11.0175 34.3432 10.938 34.6952 10.5066C34.7973 10.5633 34.8314 10.4498 34.9109 10.4384C35.5694 10.3249 35.717 9.89346 35.3878 9.08734C35.4105 8.89432 35.3878 8.71266 35.2742 8.55371C35.2061 8.39475 35.1947 8.20174 35.0471 8.07685C35.0244 8.04278 35.0017 8.02008 34.979 7.99737C34.9904 7.97466 35.0017 7.9406 35.0017 7.90654C35.0585 7.78165 35.1039 7.6454 35.1607 7.52051C35.2288 7.53186 35.2969 7.52051 35.365 7.52051Z" fill="#128A8B"/>
<path d="M25.3954 42.3655C25.543 42.093 25.8723 42.1725 26.0767 42.0135C26.4286 42.1725 26.4514 42.5926 26.7125 42.8424C27.4618 43.5577 28.2566 44.2389 29.1422 44.7498C29.8348 45.1586 30.5274 45.6922 31.413 45.6468C31.413 45.9079 31.413 46.1691 31.4016 46.4415C30.9134 46.7481 30.3911 46.7254 29.8802 46.5097C28.2793 45.8284 26.9509 44.7385 25.7134 43.535C25.3954 43.2171 25.2024 42.831 25.3954 42.3655Z" fill="#E5DBC2"/>
<path d="M32.6081 40.2992C32.699 40.2878 32.7671 40.3105 32.8125 40.39C32.506 40.8442 32.1994 41.287 31.8928 41.7411C31.609 42.1612 31.7907 42.4451 32.1994 42.5586C32.5514 42.6494 32.7444 42.8652 32.8806 43.1717C32.8466 43.3193 32.8012 43.4669 32.7671 43.6145C32.4719 43.7167 32.1994 43.7053 31.8928 43.5918C30.3601 43.0468 29.1112 42.1045 27.9985 40.9464C27.7487 40.6966 27.6238 40.4354 27.6579 40.0948C27.7373 39.8223 27.9985 39.8337 28.2028 39.7429C28.3618 39.8677 28.5548 39.9586 28.6911 40.1062C29.0657 40.5263 29.3382 40.3333 29.6334 39.9926C29.8492 39.7315 29.974 39.3568 30.3828 39.2887C30.2125 39.7201 29.8832 40.0381 29.588 40.356C29.3609 40.5944 29.395 40.7647 29.6221 40.9577C29.9513 41.2416 30.2011 41.2756 30.485 40.8555C30.8142 40.3787 31.064 39.7996 31.6204 39.5044C31.6658 39.5158 31.6885 39.5385 31.6885 39.5725C31.3365 40.0835 31.0072 40.6057 30.6212 41.094C30.3828 41.3892 30.3828 41.5708 30.7234 41.7411C31.0072 41.8774 31.223 42.1953 31.5636 41.7411C31.9383 41.2756 32.1086 40.6625 32.6081 40.2992Z" fill="#E5DBC2"/>
<path d="M26.6336 41.3437C26.7358 41.0598 26.997 40.9463 27.2013 40.7646C27.735 41.6616 28.5524 42.2861 29.3699 42.8538C30.2555 43.4669 31.1638 44.1027 32.3106 44.1708C32.2424 44.4319 32.1743 44.6931 32.1857 44.9656C31.6407 45.1359 31.1298 45.1132 30.5961 44.8747C29.2564 44.273 28.1324 43.376 27.0764 42.3769C26.8153 42.1158 26.5542 41.7865 26.6336 41.3437Z" fill="#E5DBC2"/>
<path d="M16.2109 36.4503C16.5402 36.666 16.8922 36.8477 17.1987 37.0975C17.6869 37.4948 18.2887 37.5175 18.8564 37.5743C19.2311 37.6084 19.5036 37.2905 19.7193 37.0066C20.8547 35.4966 21.1499 33.8048 20.0145 32.0791C19.9804 32.0336 19.9577 31.9769 19.935 31.9315C20.1167 31.9315 20.321 31.886 20.3892 32.1358C20.4119 32.2039 20.4119 32.2948 20.4459 32.3515C21.1953 33.714 21.025 35.0538 20.4346 36.4162C20.2983 36.7341 19.9577 36.9158 19.8669 37.3018C21.2293 36.9385 22.0128 35.6442 21.99 34.1795C22.3988 34.645 22.2625 35.2241 22.1376 35.6782C21.4337 38.1307 18.7315 38.9935 16.7446 37.2905C16.4948 37.0634 16.2791 36.8022 16.2109 36.4503Z" fill="#B93D34"/>
<path d="M42.2902 40.6511C42.2675 40.6511 42.2561 40.6511 42.2334 40.6511C40.9618 40.3218 41.1207 40.4921 41.484 39.3908C41.7906 38.4825 42.029 37.5401 42.3129 36.6318C42.4151 36.3253 42.3923 35.9392 42.7557 35.7689C43.3574 36.1322 43.5731 36.6886 43.3461 37.4039C43.0168 38.4825 42.6535 39.5611 42.2902 40.6511Z" fill="#F0ECDD"/>
<path d="M32.5374 10.2455C32.2195 10.0184 31.9016 9.79134 31.5837 9.56426C31.2204 8.92845 31.0387 8.23586 30.8911 7.54328C30.7435 6.88476 31.0387 6.283 31.6291 5.90833C31.4929 6.20353 31.3453 6.48737 31.2431 6.78257C31.1182 7.12319 31.1977 7.49786 31.4248 7.73629C31.6745 8.00879 31.9357 7.73629 32.1855 7.6114C32.3331 7.53193 32.5034 7.49786 32.651 7.41839C33.2073 7.10048 33.7977 6.81663 33.9113 6.07863C34.4108 6.03322 34.7174 6.15811 34.7401 6.75986C34.7514 7.03236 34.9331 7.3162 35.1488 7.53192C35.0921 7.65682 35.0466 7.79306 34.9899 7.91796C34.9558 7.84983 34.9104 7.78171 34.865 7.71359C34.6947 6.97559 34.6038 6.94152 34.0589 7.37297C33.3549 7.92931 32.6396 8.45159 31.6973 8.57648C31.7994 8.81491 31.9243 8.97386 32.0833 9.11011C32.2082 9.33719 32.3217 9.56426 32.4466 9.79134C32.3104 9.973 32.492 10.0865 32.5488 10.2228L32.5374 10.2455Z" fill="#137576"/>
<path d="M25.3961 42.3655C25.2031 42.8423 25.4074 43.217 25.7253 43.5349C26.9629 44.7384 28.28 45.8284 29.8922 46.5096C30.4031 46.7254 30.914 46.7481 31.4136 46.4415C31.3796 47.0092 31.073 47.3158 30.5053 47.3498C29.756 47.1341 29.0634 46.7594 28.3481 46.4415C28.0869 46.2826 27.8258 46.1236 27.5647 45.976C27.4852 45.7489 27.2922 45.7603 27.1105 45.7603C26.9175 45.3402 26.5088 45.1472 26.1908 44.852C26.0887 44.6817 25.9524 44.5454 25.748 44.5114C25.4074 44.1594 25.2371 43.6485 24.7148 43.4895C24.8738 43.0694 24.7943 42.5131 25.3961 42.3655Z" fill="#D3CCB5"/>
<path d="M40.4747 45.9987C40.1341 45.9987 39.8048 45.9874 39.4642 45.9874C39.3393 45.8511 39.1803 45.783 38.9987 45.7944C38.7716 45.783 38.5445 45.783 38.3288 45.7716C38.045 45.5673 37.7157 45.6808 37.4091 45.6695C36.7279 45.6354 36.058 45.59 35.3768 45.5559C35.2633 45.5559 35.1384 45.5559 35.0248 45.5559C34.4458 45.6581 34.0143 45.3515 33.5488 45.0904C33.5942 44.8633 33.6283 44.6363 33.6737 44.4092C34.0711 44.852 34.5934 44.9769 35.1497 44.9769C36.6371 44.9769 38.1131 45.0791 39.5891 45.3061C40.1 45.3856 40.645 45.3856 41.1559 45.2039C41.1445 45.6467 40.8607 45.8625 40.4747 45.9987Z" fill="#D3CCB5"/>
<path d="M41.0653 44.2957C40.4749 44.0913 39.8504 44.0459 39.2486 43.9778C37.977 43.8416 36.694 43.7507 35.4224 43.7507C34.9228 43.7507 34.6617 43.3874 34.253 43.2739C34.2643 43.0809 34.2075 42.8651 34.3665 42.7062C34.7412 43.0695 35.184 43.1717 35.7062 43.1717C37.4207 43.149 39.1237 43.3306 40.8155 43.5918C41.2015 43.6485 41.5081 43.4555 41.86 43.3874C41.7578 43.8302 41.4967 44.1368 41.0653 44.2957Z" fill="#D3CCB5"/>
<path d="M41.734 42.479C40.9506 42.3655 40.1785 42.2179 39.3951 42.1498C38.1916 42.0476 36.9995 41.9681 35.7959 41.9227C35.4326 41.9113 35.285 41.514 34.9331 41.5707C34.9331 41.4004 34.9104 41.2415 35.0466 41.1052C36.1479 41.4118 37.272 41.3891 38.396 41.4572C39.2589 41.514 40.1331 41.5707 40.9847 41.7183C41.4956 41.8092 41.9497 41.7637 42.4152 41.5707C42.4947 42.093 42.0633 42.2406 41.734 42.479Z" fill="#D3CCB5"/>
<path d="M22.0138 34.1681C22.0365 35.6441 21.2531 36.9384 19.8906 37.2904C19.9815 36.9044 20.3221 36.7227 20.4583 36.4048C21.0487 35.0423 21.219 33.6912 20.4697 32.3401C20.4356 32.272 20.4356 32.1925 20.4129 32.1244C21.3893 32.4537 21.8662 33.1803 22.0138 34.1681Z" fill="#E93C30"/>
<path d="M33.9127 6.0787C33.7991 6.8167 33.2087 7.10054 32.6524 7.41845C32.5048 7.49793 32.3345 7.53199 32.1869 7.61147C31.9371 7.73636 31.676 8.00885 31.4262 7.73636C31.1991 7.48657 31.1196 7.12325 31.2445 6.78264C31.3467 6.48744 31.5057 6.20359 31.6306 5.90839L31.6192 5.91974C31.6646 5.88568 31.71 5.85162 31.7441 5.81756C32.4934 5.30664 33.2542 5.39747 33.9127 6.0787Z" fill="#128A8B"/>
<path d="M26.6341 41.3438C26.5546 41.7865 26.8044 42.1272 27.0883 42.3883C28.1442 43.3874 29.2682 44.2844 30.6079 44.8862C31.1416 45.1246 31.6525 45.1473 32.1975 44.977C32.1634 45.4765 31.8796 45.6696 31.4027 45.6582C30.5171 45.6923 29.8245 45.1586 29.1319 44.7613C28.2463 44.2503 27.4516 43.5691 26.7022 42.8538C26.4411 42.604 26.4184 42.1839 26.0664 42.025C26.1459 41.6957 26.3957 41.5141 26.6341 41.3438Z" fill="#D3CCB5"/>
<path d="M30.3928 39.3C29.9841 39.3681 29.8592 39.7428 29.6435 40.0039C29.3596 40.3445 29.0758 40.5262 28.7011 40.1174C28.5649 39.9698 28.3718 39.8677 28.2129 39.7541C28.6443 39.0161 29.2574 38.4371 29.8819 37.8694C30.2566 37.5288 30.7107 37.8921 31.1308 37.858C31.1649 38.1646 30.5404 38.2327 30.847 38.6301C30.847 38.6642 30.847 38.7096 30.847 38.7436C30.5177 38.789 30.3928 38.9934 30.3928 39.3Z" fill="#F0ECDD"/>
<path d="M16.8824 32.6011C17.2344 32.6125 17.6658 32.2605 17.9383 32.6579C18.2108 33.078 17.7453 33.3505 17.575 33.6911C17.3479 34.1452 17.2003 34.6335 16.9846 35.099C16.8824 35.3147 16.8143 35.678 16.4623 35.5758C16.1671 35.485 16.1103 35.1898 16.0763 34.8832C16.0082 34.3156 16.3147 33.816 16.3147 33.271C16.4623 33.2483 16.5304 33.1575 16.5304 33.0099C16.5759 32.8168 16.7121 32.6919 16.8824 32.6011Z" fill="#FE9F9F"/>
<path d="M32.3221 44.1708C31.1754 44.1026 30.2671 43.4668 29.3815 42.8537C28.5526 42.2747 27.7465 41.6502 27.2129 40.7646C27.3264 40.5148 27.3718 40.2196 27.667 40.0947C27.633 40.4353 27.7579 40.6965 28.0077 40.9463C29.1317 42.093 30.3693 43.0467 31.902 43.5917C32.2086 43.7053 32.4811 43.7052 32.7763 43.6144C32.799 43.9437 32.5719 44.0686 32.3221 44.1708Z" fill="#D3CCB5"/>
<path d="M25.7496 44.5115C25.954 44.5569 26.0902 44.6818 26.1924 44.8521C25.4544 44.9543 25.2387 45.6582 24.8413 46.1124C23.1836 48.0198 21.56 49.9613 19.9251 51.9028C19.8569 51.8688 19.7888 51.8347 19.7207 51.7893C21.1399 50.0408 22.5592 48.2923 24.0465 46.6006C24.6256 45.9194 25.1819 45.2041 25.7496 44.5115Z" fill="#E6E2CF"/>
<path d="M25.5223 21.4745C25.4882 21.4745 25.4541 21.4745 25.4314 21.4631C25.4655 21.0998 25.2498 20.7932 25.1816 20.4526C25.4201 20.0212 25.8515 19.9531 26.2716 19.8509C26.4987 19.7941 26.6009 19.9417 26.6236 20.112C26.669 20.4413 26.9755 20.8387 26.5668 21.0884C26.2489 21.2815 25.9196 21.5085 25.5223 21.4745Z" fill="#F1EEDF"/>
<path d="M25.5101 18.8857C25.6804 19.0106 25.8393 18.8744 25.9983 18.8744C26.2594 18.8857 26.2821 19.0674 26.3275 19.2604C26.3843 19.4761 26.2821 19.5897 26.0891 19.6237C25.7371 19.6805 25.3965 19.8054 25.0332 19.7827C25.0446 19.3967 24.9537 18.9652 25.5101 18.8857Z" fill="#F0ECDD"/>
<path d="M44.7207 22.7234C44.7321 22.5531 44.7321 22.3942 44.7434 22.2239C44.8683 22.3942 44.8229 22.5645 44.7207 22.7234Z" fill="#128A8B"/>
<path d="M29.8249 27.4919C29.8589 27.5033 29.8816 27.5147 29.9157 27.5147C29.9157 27.6963 29.9271 27.878 29.9271 28.0596C29.6092 27.9234 29.6773 27.7077 29.8249 27.4919Z" fill="#D3CCB5"/>
<path d="M44.7438 19.3627C44.7438 19.2719 44.7324 19.181 44.7324 19.0902C44.7892 19.181 44.8573 19.2719 44.7438 19.3627Z" fill="#128A8B"/>
<path d="M29.7108 26.8108C29.7335 26.8903 29.7563 26.9584 29.779 27.0379C29.6427 26.9925 29.5973 26.9243 29.7108 26.8108Z" fill="#D3CCB5"/>
<path d="M44.6074 24.6544C44.6074 24.5973 44.6188 24.5516 44.6188 24.4945C44.7216 24.5516 44.6645 24.6087 44.6074 24.6544Z" fill="#128A8B"/>
<path d="M16.5185 33.0212C16.5185 33.1688 16.4503 33.2597 16.3027 33.2824C16.3254 33.1461 16.4049 33.0667 16.5185 33.0212Z" fill="#F1EEDF"/>
<path d="M31.7455 5.8175C31.6995 5.85195 31.6536 5.88641 31.6191 5.92086C31.6651 5.88641 31.711 5.85195 31.7455 5.8175Z" fill="#137576"/>
<path d="M32.3216 44.1708C32.5714 44.0573 32.7985 43.9324 32.7644 43.6031C32.7985 43.4555 32.8439 43.3079 32.878 43.1603C33.1845 43.0241 33.2299 42.6948 33.3662 42.445C33.7181 41.8206 34.2177 41.2529 34.354 40.5262C34.4902 40.4354 34.6378 40.4013 34.7968 40.424C34.7627 40.6852 34.8649 40.9123 35.0238 41.1053C34.8876 41.2302 34.9103 41.4005 34.9103 41.5708C34.8308 42.0022 34.2177 42.1612 34.3312 42.6948C34.1723 42.8651 34.2291 43.0695 34.2177 43.2625C34.2064 43.728 33.6273 43.9097 33.65 44.3865C33.6046 44.6136 33.5705 44.8407 33.5251 45.0678C32.367 48.0538 31.1862 51.0285 30.0849 54.026C29.8805 54.5709 29.96 54.957 30.346 55.3316C30.2098 55.4338 30.0622 55.4225 29.9146 55.4225C27.9731 55.3657 26.0316 55.5474 24.0901 55.502C23.4429 55.4906 22.8071 55.5474 22.1599 55.502C22.0577 55.3089 22.2508 55.2862 22.3416 55.2181C22.8979 54.8094 23.2385 54.2644 23.3861 53.5945C23.67 53.5377 23.9311 53.6399 24.2036 53.6513C24.8962 53.7875 25.5888 53.7648 26.2814 53.6967C26.622 53.6626 26.8491 53.5377 27.0194 53.2539C28.2002 51.301 29.3469 49.3255 30.4369 47.3272C31.0046 47.2818 31.3111 46.9866 31.3452 46.4189C31.3452 46.1577 31.3452 45.8966 31.3565 45.6241C31.822 45.6355 32.1172 45.4311 32.1513 44.9429C32.1854 44.6931 32.2535 44.432 32.3216 44.1708Z" fill="#C7C1B5"/>
<path d="M39.0115 40.2083C38.6141 40.1743 38.2281 40.1289 37.8307 40.0948C37.4787 40.0607 37.3993 39.9131 37.5355 39.5612C37.9556 38.4939 38.3303 37.4153 38.7163 36.3367C38.7617 36.2004 38.7617 36.0415 38.7844 35.8939C39.091 35.7009 39.2045 35.4057 39.2386 35.065C39.5224 34.872 39.829 34.8607 40.1582 34.8947C40.6578 34.9742 40.7714 35.2467 40.6124 35.7236C40.3058 36.6092 40.022 37.5061 39.7609 38.4031C39.5906 38.9594 39.3521 39.5044 39.3521 40.0948C39.3181 40.0948 39.284 40.0948 39.2386 40.0948C39.1705 40.1289 39.091 40.1629 39.0115 40.2083Z" fill="#F1EEDF"/>
<path d="M42.3254 35.5079C42.1324 36.2459 41.9394 36.9725 41.735 37.7105C41.6101 37.7446 41.4966 37.7786 41.6215 37.9376C41.4171 38.6075 41.19 39.2773 41.0538 39.9699C40.9629 40.4241 40.0887 40.4695 39.5664 40.0948C40.0546 38.5393 40.5428 36.9839 41.0197 35.417C41.0878 35.2127 41.2014 35.0991 41.3717 35.0197C41.7691 35.031 42.0529 35.2581 42.3254 35.5079Z" fill="#F1EEDF"/>
<path d="M39.2482 35.0649C39.2141 35.4056 39.1119 35.7008 38.794 35.8938C38.4534 36.0527 38.442 36.4047 38.3399 36.6885C37.9879 37.6423 37.6586 38.6073 37.2953 39.5497C37.1591 39.913 36.3075 40.1628 36.001 39.9357C35.7852 39.7768 36.001 39.5497 35.9328 39.3567C36.6822 38.1532 37.0342 36.734 38.0106 35.6553C38.2263 35.5077 38.442 35.3601 38.6691 35.2012C38.8281 35.1898 38.9643 35.1444 39.0665 35.0082C39.1233 35.0422 39.18 35.0536 39.2482 35.0649Z" fill="#F0ECDD"/>
<path d="M34.365 40.5261C34.2174 41.2641 33.7291 41.8205 33.3772 42.4449C33.2409 42.6947 33.1955 43.024 32.889 43.1602C32.7641 42.8537 32.5711 42.6493 32.2077 42.5471C31.799 42.4336 31.6173 42.1497 31.9012 41.7296C32.2077 41.2755 32.5143 40.8327 32.8208 40.3785C33.3204 40.5148 33.8427 40.5488 34.365 40.5261Z" fill="#F0ECDD"/>
<path d="M32.6065 40.2992C32.107 40.6738 31.9367 41.2869 31.5847 41.7638C31.2441 42.2293 31.017 41.9 30.7445 41.7638C30.3925 41.5935 30.4039 41.4118 30.6423 41.1166C31.0284 40.6284 31.3576 40.1061 31.7096 39.5952C32.0048 39.8223 32.3 40.0607 32.6065 40.2992Z" fill="#F0ECDD"/>
<path d="M38.6702 35.2125C38.4545 35.3601 38.2388 35.5077 38.0117 35.6667C38.0344 34.7357 38.3183 33.8501 38.4091 32.9304C38.4772 32.2832 38.5908 31.6361 38.6816 30.9889C39.1244 30.7959 39.1585 31.0343 39.113 31.3863C38.9541 32.6579 38.8178 33.9409 38.6702 35.2125Z" fill="#B6B0A4"/>
<path d="M31.6299 39.5157C31.0622 39.8109 30.8238 40.3786 30.4945 40.8668C30.2107 41.2869 29.9609 41.2529 29.6317 40.969C29.4046 40.776 29.3705 40.6057 29.5976 40.3673C29.9041 40.038 30.2334 39.7314 30.3924 39.3C30.5967 39.1524 30.8125 39.0161 30.8465 38.7323C30.8919 38.7323 30.926 38.7323 30.9714 38.7323C31.1871 38.9934 31.4029 39.2546 31.6299 39.5157Z" fill="#F0ECDD"/>
<path d="M41.3843 35.031C41.214 35.1104 41.1004 35.2126 41.0323 35.4283C40.5554 36.9952 40.0672 38.5506 39.579 40.1061C39.4995 40.1061 39.4314 40.1061 39.3519 40.1061C39.3406 39.5044 39.5904 38.9707 39.7493 38.4144C40.0218 37.5175 40.2943 36.6205 40.6009 35.7349C40.7598 35.258 40.6463 34.9969 40.1467 34.9061C40.5782 34.8039 40.9869 34.8379 41.3843 35.031Z" fill="#E6E2CF"/>
<path d="M38.6699 35.2126C38.8175 33.941 38.9537 32.658 39.1127 31.3864C39.1581 31.0344 39.1354 30.796 38.6812 30.989C38.545 30.8414 38.3406 30.7165 38.738 30.6257C39.1808 30.5121 39.6009 30.3191 40.0777 30.2056C39.2943 30.5916 39.3284 31.3182 39.2603 31.9995C39.1694 32.9078 39.1581 33.8388 38.931 34.7358C38.8969 34.8606 38.9651 34.9515 39.0559 35.031C38.9651 35.1558 38.8288 35.2013 38.6699 35.2126Z" fill="#128A8B"/>
<path d="M30.9623 38.7223C30.9163 38.7223 30.8819 38.7223 30.8359 38.7223C30.8359 38.6878 30.8359 38.6419 30.8359 38.6074C30.9163 38.6074 30.9508 38.6648 30.9623 38.7223Z" fill="#E5DBC2"/>
<path d="M36.2848 18.8631C36.0009 18.829 35.7284 18.7723 35.4446 18.7609C35.1607 18.7495 35.0472 18.636 35.0245 18.3522C35.0131 18.1364 34.9337 17.9207 34.8769 17.6936C34.6271 17.8299 34.6839 18.0229 34.7066 18.1705C34.7634 18.7268 34.5022 18.9312 33.9799 18.8631C33.8891 18.8517 33.7869 18.8404 33.6961 18.8631C33.2079 18.988 33.0376 18.795 33.1057 18.3295C33.1171 18.2159 33.1057 18.1024 33.083 17.9888C33.0603 17.898 33.0149 17.8072 32.9013 17.8185C32.7991 17.8299 32.7991 17.9207 32.7878 17.9888C32.7764 18.0229 32.7878 18.0683 32.7764 18.1024C32.6743 18.9993 32.6743 18.9653 31.8114 19.1356C31.3572 19.2264 31.3118 19.0334 31.2891 18.6701C31.255 17.9775 31.1642 17.2963 31.1074 16.6037C31.1188 16.4447 31.1301 16.2858 31.1528 16.1268C32.2087 15.7521 33.2647 15.3547 34.3887 15.2185C34.8088 15.1617 35.2402 15.0823 35.6263 14.8779C35.9328 14.8665 36.0463 15.0255 36.0918 15.3207C36.2961 16.5015 36.3302 17.6823 36.2848 18.8631Z" fill="#F1EEDF"/>
<path d="M35.6155 14.8893C35.2295 15.0937 34.798 15.1732 34.3779 15.2299C33.2539 15.3775 32.198 15.7749 31.1421 16.1382C31.1194 15.8203 31.3691 15.7295 31.5962 15.65C33.0041 15.1618 34.4687 14.8553 35.922 14.5374C36.4443 14.4238 36.3308 14.9234 36.5351 15.105C36.1945 15.1845 36.0242 14.526 35.6155 14.8893Z" fill="#E6E2CF"/>
<path d="M30.2793 18.7495C30.2793 18.6701 30.2679 18.6019 30.2679 18.5225C30.0976 18.2727 30.0635 17.8753 29.6094 17.9434C29.8819 17.5347 30.0635 17.8072 30.2452 18.0229C30.4382 18.25 30.4041 18.6133 30.7221 18.7609L30.7448 18.7722V18.8063C30.722 18.988 30.7561 19.1696 30.6199 19.3172C30.5063 19.1242 30.3928 18.9312 30.2793 18.7495Z" fill="#D3CCB5"/>
<path d="M6.061 33.5777C6.04965 33.2711 6.25402 33.2257 6.41297 33.1576C10.1143 31.4658 13.8157 29.7741 17.517 28.0824C18.8908 27.4579 20.2647 26.8335 21.6385 26.2204C21.7634 26.1636 21.9223 26.0841 21.9904 26.2204C22.0926 26.4134 21.8656 26.4702 21.752 26.5269C20.9686 26.9016 20.1852 27.2536 19.3904 27.6169C16.8131 28.7977 14.2358 29.9898 11.6471 31.1593C9.96672 31.92 8.28635 32.6694 6.59463 33.4187C6.43568 33.4868 6.25402 33.5209 6.061 33.5777Z" fill="#EEC2A8"/>
<path d="M31.2891 19.5444C31.6637 19.4649 32.0271 19.3854 32.4017 19.3286C32.7196 19.2832 32.9013 19.4195 32.89 19.7714C32.8786 20.1915 32.89 20.6003 32.8786 21.0204C32.8445 21.0204 32.7991 21.0204 32.7651 21.0204C31.5275 21.0317 31.3231 20.8273 31.2891 19.5444Z" fill="#F1EEDF"/>
<path d="M35.0378 20.5662C35.1741 20.3164 35.1287 20.078 35.0833 19.8055C34.9584 19.1924 35.0492 19.0902 35.685 19.0902C35.8894 19.0902 36.0938 19.0902 36.2981 19.0902C36.2981 19.3513 36.2981 19.6238 36.2981 19.885C36.0711 20.2142 35.7077 20.3618 35.3785 20.5662C35.2649 20.5662 35.1514 20.5662 35.0378 20.5662Z" fill="#F1EEDF"/>
<path d="M33.2314 21.1338C33.7991 21.0997 34.3668 21.0657 34.9231 21.0203C34.8209 21.5198 33.8672 22.0194 33.4471 21.781C33.2087 21.6334 33.2201 21.3722 33.2314 21.1338Z" fill="#F0ECDD"/>
<path d="M33.0023 21.1339C33.0364 21.1339 33.0591 21.1339 33.0931 21.1339C33.0818 21.5426 33.2975 22.0649 32.5595 22.0535C32.1281 22.0422 31.9123 21.781 31.8896 21.4291C31.8669 20.9976 32.253 21.1793 32.4914 21.1452C32.6617 21.1112 32.832 21.1339 33.0023 21.1339Z" fill="#F0ECDD"/>
<path d="M36.1932 20.5775C36.0796 20.9408 35.5233 21.3496 35.2167 21.3042C35.1032 21.2815 35.0578 21.2133 35.0578 21.1111C35.0351 20.8727 35.1372 20.7138 35.387 20.6797C35.6368 20.6116 35.898 20.4299 36.1932 20.5775Z" fill="#F0ECDD"/>
<path d="M36.1944 20.5775C35.8992 20.4299 35.6494 20.6115 35.377 20.6797C35.377 20.6456 35.377 20.6115 35.377 20.5661C35.6949 20.3617 36.0582 20.2141 36.2966 19.8849C36.4102 20.1347 36.2853 20.3504 36.1944 20.5775Z" fill="#E6E2CF"/>
<path d="M41.6209 37.9375C41.496 37.7786 41.5982 37.7445 41.7345 37.7104C41.7004 37.7786 41.6663 37.858 41.6209 37.9375Z" fill="#F0ECDD"/>
<path d="M39.0117 40.2083C39.0912 40.1742 39.1593 40.1401 39.2388 40.0947C39.2161 40.2196 39.1707 40.3332 39.0117 40.2083Z" fill="#E6E2CF"/>
<path d="M34.8209 20.6911C34.4348 20.7365 34.0374 20.7592 33.6514 20.8387C33.3449 20.9068 33.2313 20.8046 33.2086 20.5208C33.2086 20.4867 33.1973 20.4526 33.1859 20.4072C32.9475 19.3173 33.413 18.8631 34.5143 19.1015C34.7527 19.1583 34.8095 19.2945 34.8095 19.5103C34.8095 19.8963 34.8209 20.2937 34.8209 20.6911C34.8209 20.6797 34.8209 20.6911 34.8209 20.6911Z" fill="#F1EEDF"/>
<path d="M26.8725 20.044C26.8498 19.8509 26.9407 19.7374 27.145 19.6352C27.4743 19.4649 27.8263 19.4536 28.1669 19.3514C28.5529 19.2492 28.587 19.5671 28.6892 19.7828C28.8254 20.0667 28.6097 20.1348 28.4167 20.2143C28.1555 20.3278 27.9057 20.4527 27.656 20.5662C27.0542 20.8274 26.8839 20.7025 26.8725 20.044Z" fill="#F1EEDF"/>
<path d="M30.2783 18.7495C30.3918 18.9425 30.5054 19.1242 30.6189 19.3172C30.2556 19.6919 29.756 19.7487 29.3132 19.9076C28.9612 20.0325 28.9612 19.6465 28.8704 19.4648C28.7569 19.2377 28.9612 19.1583 29.1656 19.1015C29.5289 18.9879 29.9036 18.8631 30.2783 18.7495Z" fill="#F0ECDD"/>
<path d="M28.3361 18.6927C28.3361 18.8857 28.3021 19.022 28.1204 19.0674C27.7798 19.1582 27.4392 19.2604 27.0986 19.3626C26.8828 19.4194 26.7239 19.3853 26.6671 19.1582C26.6103 18.9539 26.6671 18.7722 26.8828 18.7041C27.2235 18.5905 27.5527 18.477 27.882 18.3521C28.1772 18.2272 28.3248 18.4316 28.3361 18.6927Z" fill="#F0ECDD"/>
<path d="M29.5967 17.9434C30.0508 17.864 30.0963 18.2613 30.2552 18.5225C29.9259 18.5452 29.6421 18.7041 29.3469 18.8063C29.0631 18.8971 28.7111 18.9993 28.5975 18.5906C28.484 18.1819 28.8473 18.1592 29.1085 18.091C29.2788 18.0343 29.4377 17.9888 29.5967 17.9434Z" fill="#F0ECDD"/>
<path d="M32.4493 9.79136C32.3244 9.56428 32.2108 9.3372 32.0859 9.11013C33.0283 8.8944 33.8231 8.38348 34.6292 7.88391C34.6633 7.92933 34.7087 7.97474 34.7427 8.0088C34.6633 8.1337 34.4362 8.19047 34.5724 8.40619C34.6178 8.48567 34.6973 8.55379 34.7882 8.51973C34.9812 8.44025 35.0266 8.26994 35.0379 8.07693C35.1855 8.20182 35.1855 8.39483 35.265 8.55379C34.9925 8.5992 34.8676 8.7468 34.9471 9.0193C35.0379 9.30314 35.2196 9.1896 35.3786 9.08742C35.7078 9.9049 35.5602 10.3363 34.9017 10.4385C34.9471 10.1433 35.1969 9.73459 34.5724 9.76865C34.6519 9.59834 34.9585 9.55293 34.7995 9.23502C34.6406 8.91711 34.4248 9.13283 34.2432 9.08742C34.1523 8.88305 34.5724 8.79222 34.3567 8.55379C34.2091 8.39483 34.0729 8.50837 33.9593 8.56514C33.8344 8.63326 33.6528 8.69003 33.6868 8.88305C33.755 9.24637 34.0842 8.96253 34.2432 9.09877C34.175 9.26908 33.9253 9.37126 34.0842 9.6324C34.2205 9.84813 34.3908 9.79136 34.5724 9.78C34.5043 10.0411 34.493 10.3023 34.686 10.518C34.334 10.9381 33.789 11.0289 33.21 10.7224C33.017 10.6202 32.8466 10.4726 32.665 10.3477C32.6536 10.3136 32.6423 10.2796 32.6423 10.2455C32.7672 10.1887 32.9942 10.2909 33.0056 10.0866C33.017 9.91625 32.858 9.80271 32.665 9.79136C32.5969 9.79136 32.5287 9.79136 32.4493 9.79136ZM33.9253 9.87083C33.8571 9.67782 33.7436 9.53022 33.5165 9.56428C33.3803 9.58699 33.1759 9.59834 33.1986 9.79136C33.2213 9.98437 33.3689 10.132 33.596 10.0979C33.7322 10.0752 33.9026 10.0752 33.9253 9.87083ZM33.0964 9.41668C33.21 9.35991 33.4143 9.37126 33.4257 9.17825C33.437 9.042 33.3122 8.98523 33.1873 9.00794C33.051 9.042 32.858 9.05336 32.8466 9.24637C32.8466 9.37126 32.9602 9.42803 33.0964 9.41668ZM34.2886 10.4385C34.334 10.3136 34.2432 10.2569 34.1523 10.2455C34.0047 10.2342 33.8344 10.2114 33.7663 10.3818C33.7322 10.4839 33.8004 10.6088 33.9253 10.6315C34.1069 10.6883 34.1978 10.5521 34.2886 10.4385Z" fill="#939087"/>
<path d="M34.5832 9.78C35.2077 9.74594 34.9579 10.1433 34.9125 10.4499C34.833 10.4612 34.7989 10.5748 34.6967 10.518C34.5037 10.3023 34.5037 10.0411 34.5832 9.78Z" fill="#C7C1B5"/>
<path d="M35.3878 9.08746C35.2289 9.18965 35.0472 9.30319 34.9564 9.01934C34.8769 8.74685 34.9905 8.59925 35.2743 8.55383C35.3878 8.71279 35.4105 8.89445 35.3878 9.08746Z" fill="#C7C1B5"/>
<path d="M35.0355 8.08827C35.0355 8.28128 34.9787 8.45159 34.7857 8.53107C34.6835 8.57648 34.6154 8.49701 34.57 8.41753C34.4337 8.20181 34.6608 8.14504 34.7403 8.02014C34.8197 8.00879 34.8879 8.00879 34.9673 7.99744C35.0014 8.0315 35.0241 8.05421 35.0355 8.08827Z" fill="#EEC2A8"/>
<path d="M34.9695 8.00882C34.89 8.00882 34.8219 8.02018 34.7424 8.03153C34.7084 7.98611 34.663 7.9407 34.6289 7.90664C34.7084 7.84987 34.7879 7.7931 34.8787 7.72498C34.9241 7.7931 34.9582 7.86122 35.0036 7.92934C34.9922 7.95205 34.9922 7.97476 34.9695 8.00882Z" fill="#939087"/>
<path d="M32.6539 10.2457C32.6654 10.2802 32.6654 10.3146 32.6769 10.3491C32.6309 10.3146 32.585 10.2802 32.5391 10.2457L32.5505 10.2342C32.585 10.2228 32.6194 10.2342 32.6539 10.2457Z" fill="#137576"/>
<path d="M34.8783 7.7136C34.7988 7.77037 34.7193 7.82714 34.6285 7.89526C33.8224 8.38347 33.0276 8.90575 32.0852 9.12147C31.9263 8.98523 31.8128 8.82627 31.6992 8.58784C32.6416 8.46295 33.3569 7.94068 34.0608 7.38434C34.6172 6.94154 34.6966 6.9756 34.8783 7.7136Z" fill="#EEC2A8"/>
<path d="M32.6524 10.2455C32.6183 10.2342 32.5843 10.2342 32.5502 10.2342C32.4934 10.0979 32.3118 9.9844 32.448 9.80273C32.5275 9.80273 32.5956 9.80273 32.6751 9.80273C32.8681 9.81409 33.0271 9.91627 33.0157 10.0979C33.0044 10.2909 32.7773 10.1888 32.6524 10.2455Z" fill="#EEC2A8"/>
<path d="M30.837 38.7323C30.8029 39.0161 30.5872 39.1524 30.3828 39.3C30.3942 38.9934 30.5191 38.7891 30.837 38.7323Z" fill="#E5DBC2"/>
<path d="M34.582 9.78003C34.4004 9.79138 34.2301 9.8595 34.0938 9.63243C33.9235 9.37129 34.1846 9.26911 34.2528 9.0988L34.2641 9.08744C34.4458 9.13286 34.6729 8.91714 34.8205 9.23504C34.9681 9.56431 34.6615 9.60972 34.582 9.78003Z" fill="#EEC2A8"/>
<path d="M34.2422 9.0988C34.0832 8.96255 33.7539 9.2464 33.6858 8.88307C33.6518 8.70141 33.8334 8.63329 33.9583 8.56517C34.0832 8.49704 34.2081 8.39486 34.3557 8.55381C34.5828 8.8036 34.1627 8.89443 34.2422 9.0988C34.2535 9.0988 34.2422 9.0988 34.2422 9.0988Z" fill="#EEC2A8"/>
<path d="M33.9237 9.87077C33.9123 10.0751 33.7307 10.0751 33.5944 10.0978C33.3674 10.1319 33.2198 9.98431 33.1971 9.79129C33.1743 9.59828 33.3787 9.59828 33.515 9.56422C33.742 9.5188 33.8556 9.67776 33.9237 9.87077Z" fill="#EEC2A8"/>
<path d="M33.0943 9.41669C32.958 9.42804 32.8331 9.37127 32.8445 9.24638C32.8558 9.05336 33.0488 9.04201 33.1851 9.00795C33.31 8.97389 33.4235 9.04201 33.4235 9.17826C33.4122 9.37127 33.2191 9.35992 33.0943 9.41669Z" fill="#EEC2A8"/>
<path d="M34.2869 10.4385C34.196 10.552 34.1052 10.6882 33.9236 10.6428C33.7987 10.6088 33.7305 10.4839 33.7646 10.393C33.8214 10.2227 34.003 10.2341 34.1506 10.2568C34.2415 10.2568 34.3323 10.3136 34.2869 10.4385Z" fill="#EEC2A8"/>
</g>
</g>
<defs>
<filter id="filter0_d" x="0.671875" y="0.162109" width="56.2507" height="58.5077" filterUnits="userSpaceOnUse" color-interpolation-filters="sRGB">
<feFlood flood-opacity="0" result="BackgroundImageFix"/>
<feColorMatrix in="SourceAlpha" type="matrix" values="0 0 0 0 0 0 0 0 0 0 0 0 0 0 0 0 0 0 127 0"/>
<feOffset dy="6"/>
<feGaussianBlur stdDeviation="4"/>
<feColorMatrix type="matrix" values="0 0 0 0 0.281659 0 0 0 0 0.253576 0 0 0 0 0.454167 0 0 0 0.15 0"/>
<feBlend mode="normal" in2="BackgroundImageFix" result="effect1_dropShadow"/>
<feBlend mode="normal" in="SourceGraphic" in2="effect1_dropShadow" result="shape"/>
</filter>
<filter id="filter1_d" x="0.671875" y="2.16211" width="56.2507" height="58.5077" filterUnits="userSpaceOnUse" color-interpolation-filters="sRGB">
<feFlood flood-opacity="0" result="BackgroundImageFix"/>
<feColorMatrix in="SourceAlpha" type="matrix" values="0 0 0 0 0 0 0 0 0 0 0 0 0 0 0 0 0 0 127 0"/>
<feOffset dy="8"/>
<feGaussianBlur stdDeviation="4"/>
<feColorMatrix type="matrix" values="0 0 0 0 0 0 0 0 0 0 0 0 0 0 0 0 0 0 0.02 0"/>
<feBlend mode="normal" in2="BackgroundImageFix" result="effect1_dropShadow"/>
<feBlend mode="normal" in="SourceGraphic" in2="effect1_dropShadow" result="shape"/>
</filter>
</defs>
</svg>
