<svg width="111" height="129" viewBox="0 0 111 129" fill="none" xmlns="http://www.w3.org/2000/svg">
<path d="M103.889 45.725C104.191 48.2603 104.191 50.7957 103.889 53.331C103.859 53.7535 103.859 54.2063 103.829 54.659C103.859 56.2285 103.919 57.8282 103.557 59.3675C103.557 59.5184 103.527 59.6391 103.527 59.79C103.255 66.6112 102.018 73.3117 100.629 79.982C100.026 82.9097 99.2713 85.8374 98.5771 88.7349C98.1847 88.7048 97.8225 88.6746 97.4302 88.6444C96.7058 87.9804 95.9814 87.3767 94.925 87.3465C93.8988 86.8334 92.7821 86.7429 91.6653 86.9844C90.8202 86.924 89.9751 86.924 89.2205 87.4371C89.0696 87.4069 88.8885 87.3767 88.7376 87.3465C88.4962 87.1353 88.3151 86.8938 88.4056 86.5618C89.0093 84.1774 89.0395 81.7326 89.2809 79.2878C89.462 77.4769 89.3715 75.5452 91.454 74.519C90.1562 74.8209 89.0395 75.334 87.8925 75.6358C86.8361 75.9074 87.3794 76.2092 87.7416 76.6016C87.5002 78.322 87.1983 80.0424 87.0172 81.7628C86.7758 84.2076 86.0514 86.5618 85.9609 89.0368C83.3652 91.9041 82.3993 95.6769 80.4375 98.8762C79.532 99.9024 78.6265 100.929 77.4796 101.683C77.057 101.623 76.6345 101.683 76.3025 101.955C74.9141 102.015 73.5257 101.925 72.1675 101.593C72.0468 101.381 71.8355 101.321 71.6242 101.351C70.8093 100.717 70.0245 100.114 69.2096 99.4799C69.1794 99.3591 69.1191 99.2988 69.0285 99.2988C68.4249 98.6046 67.8514 97.8802 67.2478 97.186C67.2176 97.0049 67.127 96.8842 66.9158 96.8842C66.1008 95.7976 67.7609 95.6467 67.6703 94.8318C68.8172 93.9263 69.5718 92.6586 70.5678 91.6023C71.2017 90.9081 70.7791 90.3346 70.4471 89.7008C68.0325 84.8112 66.6139 79.6198 65.7386 74.2474C68.2438 74.3983 70.7489 74.1568 73.2541 73.855C79.8942 73.0099 86.3834 71.5008 92.8123 69.6597C95.2268 68.9655 97.732 68.392 100.207 67.1545C99.8447 67.1243 99.6637 67.064 99.5429 67.0942C94.261 68.3316 88.9187 69.1767 83.5161 69.6295C80.86 69.8408 78.204 70.0822 75.5479 69.9917C71.9562 69.8709 68.3645 69.4484 64.7426 69.1466C64.6521 69.056 64.5615 68.9655 64.471 68.8749C64.471 68.392 64.4408 67.9091 64.4408 67.4262C68.6965 63.261 73.3748 59.5486 78.0832 55.9267C82.8822 52.2444 87.8322 48.7433 93.1744 45.8457C96.5247 44.0348 99.8448 42.1635 103.618 41.3486C103.859 42.5861 103.829 43.8235 103.799 45.0308C103.859 45.2421 103.859 45.4836 103.889 45.725Z" fill="#10B3B7"/>
<path d="M78.9584 14.2448C83.516 12.132 88.2244 10.4418 93.3252 11.6189C97.7922 12.6451 101.112 15.603 104.04 19.0136C104.251 19.2852 104.221 19.587 104.221 19.8587C102.531 21.0056 100.81 22.1525 99.1504 23.3598C96.9773 24.8991 97.0377 24.3257 98.2148 26.7101C98.7581 27.7967 98.6977 28.4003 97.5206 29.0643C93.5063 31.2676 89.5826 33.5917 85.6287 35.8855C84.4818 35.3121 83.5461 34.1651 82.0672 34.4368C81.5239 33.9237 81.8257 32.5957 80.4374 32.9277C76.574 33.7728 72.6805 34.5877 68.9379 35.8855C68.3342 36.0968 67.6702 36.3383 67.7306 37.1834C67.7004 37.6059 67.6702 38.0285 67.6098 38.451C67.1873 40.2318 67.3684 42.0126 67.2477 43.8235C67.2175 44.1253 67.4589 44.9101 66.644 44.2762V44.1857L66.5836 44.1555C65.5876 40.6845 65.4971 40.594 62.0865 41.4693C59.2493 42.1937 56.4424 43.0388 53.6354 43.8235C53.3336 41.2882 52.6696 38.7831 52.8205 36.1874C52.8808 35.2215 53.0016 34.2859 53.6052 33.4709C55.6576 30.7243 58.0722 28.3399 60.8188 26.2875C61.9959 26.7705 63.173 26.5894 64.3803 26.4686C67.308 26.197 70.0546 25.2613 72.8012 24.2653C73.4652 24.0239 74.0991 23.8729 74.8536 24.0239C78.2642 24.6275 80.8901 21.8205 80.3166 18.3797C80.1054 16.8706 79.1395 15.7237 78.9584 14.2448Z" fill="#11B3B7"/>
<path d="M49.7419 63.1403C49.8325 63.9552 49.5005 64.3778 48.7157 64.7399C34.2282 71.3197 19.7708 77.99 5.28328 84.5698C2.3254 85.928 -0.57211 87.4673 -3.6809 88.4935C-3.80163 88.1011 -3.86199 87.7087 -4.0129 87.3466C-5.19002 84.7509 -6.33695 82.125 -7.63479 79.5897C-8.75154 77.3864 -8.72136 77.1751 -6.39731 76.1791C-4.94856 75.5452 -3.4998 74.8812 -2.02087 74.2172C2.56686 72.195 7.03385 69.9615 11.6819 68.06C15.7867 66.3396 19.7406 64.3174 23.7549 62.4461C28.8557 60.122 33.9264 57.7678 39.0876 55.5645C40.989 54.7496 42.7698 53.5423 44.8826 53.2103C45.0335 53.4819 45.1844 53.7234 45.3353 53.995C46.7841 56.9831 48.263 60.0617 49.7419 63.1403ZM1.05774 83.5134C1.57084 83.3625 2.05376 83.2719 2.47631 83.0607C6.94331 81.0686 11.4405 79.0766 15.9075 77.0544C22.7891 73.9154 29.6405 70.7764 36.4919 67.6374C38.5745 66.6716 40.6872 65.7058 42.7698 64.7399C43.1018 64.589 43.6753 64.4381 43.4036 63.925C43.2225 63.5628 42.8 63.7741 42.468 63.925C38.8159 65.585 35.1638 67.2149 31.5118 68.8749C21.6723 73.3721 11.8329 77.8693 1.99339 82.3665C1.57084 82.6079 1.02756 82.6985 1.05774 83.5134Z" fill="#F5DCCD"/>
<path d="M85.6288 35.8856C89.5827 33.5917 93.5064 31.2676 97.5206 29.0643C98.7279 28.4003 98.7581 27.7967 98.2148 26.7101C97.0377 24.3559 96.9774 24.9293 99.1505 23.3599C100.811 22.1827 102.531 21.0358 104.221 19.8587C106.032 20.5529 106.726 22.3337 107.571 23.7522C108.839 25.8348 109.926 28.0683 110.62 30.4527C110.982 31.6902 110.952 32.9277 110.952 34.1953C110.952 35.0103 110.439 35.4932 109.775 35.795C108.024 36.5496 106.274 37.3041 104.523 38.0285C104.131 38.1794 103.768 38.3001 103.587 38.7227C102.742 38.0285 102.078 38.8133 101.384 39.0245C97.2792 40.3526 93.2649 41.922 89.0998 43.0086C88.4961 41.4693 87.9226 39.8998 87.1681 38.3907C86.7154 37.4852 85.7193 36.9419 85.6288 35.8856Z" fill="#F9BBB1"/>
<path d="M5.85663 62.5064C4.28715 62.5064 3.44204 61.5406 3.59295 59.8805C4.43806 50.9767 6.46028 42.3446 9.75016 33.984C13.2211 25.201 18.0503 17.3837 24.5999 10.5323C28.4331 6.51805 32.7492 3.13762 37.3369 0.0288343C37.4878 -0.0918953 37.6991 -0.182442 37.8802 -0.242807C38.4838 -0.423902 39.2082 -0.846455 39.6307 -0.0918952C40.0835 0.72303 39.4496 1.17577 38.846 1.59832C37.1256 2.80561 35.375 3.95255 33.7754 5.31076C29.248 9.11374 25.3243 13.4298 21.9137 18.2288C17.1147 24.9595 13.9153 32.4749 11.6215 40.3525C10.052 45.7854 9.20688 51.3993 8.51268 57.0132C8.39195 58.0092 8.4825 59.0354 8.45232 60.0314C8.33159 61.6915 7.48648 62.5064 5.85663 62.5064Z" fill="#11B3B7"/>
<path d="M58.1628 62.5366C57.1668 60.9068 56.2009 59.2467 55.2049 57.6169C54.7824 55.7154 53.6656 54.0855 53.0922 52.2746C54.0882 51.8219 55.1144 50.9768 56.0802 51.0371C57.3177 51.0975 57.3479 52.7273 58.0119 53.6026C58.4344 54.1459 58.6759 55.3834 59.4305 54.9307C60.0039 54.5986 59.0381 53.7837 58.6759 53.2404C57.0159 50.8862 57.0762 50.5844 59.5512 49.2564C61.4527 48.2302 61.9054 48.3811 62.9618 50.3429C63.4749 51.3088 64.0786 52.2142 65.0444 53.2103C65.1349 52.1841 64.652 51.7011 64.2898 51.1579C62.3582 48.1698 62.7505 47.3247 66.3724 46.8418C66.463 46.8418 66.5837 46.8418 66.6742 46.8116C67.7004 49.1356 68.6663 51.52 69.5416 53.9346C70.9903 58.0394 71.6242 57.5867 67.1572 59.5486C64.2295 60.8162 61.3923 62.2348 58.1628 62.5366Z" fill="#F1EEDF"/>
<path d="M58.1628 62.5366C61.3924 62.2347 64.2295 60.8162 67.0968 59.5183C71.5638 57.5565 70.9602 58.0092 69.4812 53.9044C68.6361 51.4898 67.6703 49.1356 66.6139 46.7813C66.7648 45.7551 67.3081 45.6646 68.0928 46.1777C68.1532 49.5883 68.7267 50.1316 72.0166 50.1014C72.1071 50.1014 72.2278 50.1014 72.3184 50.1014C72.4391 50.2221 72.5297 50.3127 72.6504 50.4334C72.1977 50.4334 71.7449 50.3731 71.2922 50.4334C70.6885 50.524 69.6623 50.041 69.6925 51.188C69.7227 52.1538 70.3264 52.848 71.4733 52.848C73.4351 52.8782 72.8918 51.4898 72.8918 50.4032C73.0126 50.4032 73.1333 50.4032 73.254 50.3731C73.2239 51.0371 73.1937 51.7011 73.8577 52.0934C74.9744 52.7575 77.5098 51.4294 77.7814 50.0712C77.6909 49.7694 77.5701 49.4676 77.4796 49.1959C77.6909 49.1054 77.8719 48.9847 78.0832 48.8941C78.385 48.8941 78.6869 48.8941 78.9887 48.8941C78.9887 48.9847 78.9887 49.0752 78.9887 49.1959C78.3247 49.3167 78.0832 49.709 78.1134 50.3429C78.1436 50.6145 78.2643 50.7956 78.536 50.856C79.3509 50.9767 80.86 49.8901 81.1316 48.9243C81.3731 48.3508 81.7051 47.7774 81.4033 47.0832C81.4033 46.389 81.4033 45.6646 81.4033 44.9704C81.4033 44.7591 81.4033 44.578 81.3731 44.3668C81.4637 41.2278 81.4033 38.0888 80.8298 34.98C80.6789 34.1953 80.3771 33.8029 79.5923 33.8029C80.6789 32.8371 81.1316 34.5877 82.0673 34.3764C83.5462 34.1047 84.4819 35.2517 85.6288 35.8553C85.7194 36.9419 86.7154 37.455 87.1379 38.3605C87.8925 39.8696 88.466 41.4089 89.0696 42.9784C89.0093 43.4311 88.8885 43.8838 88.9187 44.3064C89.0093 45.9966 88.3151 46.9624 86.6248 47.2341C85.6288 47.385 84.663 47.7472 83.6972 47.8981C82.7011 48.049 82.1578 48.5319 82.0673 49.4978C81.9164 50.8258 81.1316 51.6407 79.9847 52.2142C77.2381 53.6026 74.5217 55.0513 71.0809 54.4175C71.3525 55.2022 71.5336 55.7455 71.7147 56.2888C72.59 59.0656 72.4089 59.6089 69.8132 60.9671C67.8212 62.0235 65.7688 62.9893 63.7466 63.9853C63.3542 64.0759 62.9618 64.106 62.5997 64.2871C59.9134 65.6152 59.4607 64.8606 58.1628 62.5366Z" fill="#D3CCB5"/>
<path d="M23.4832 43.0689C24.117 40.0809 24.8716 36.6401 26.0487 33.3502C27.1654 30.2414 28.1916 27.1024 29.7611 24.1748C33.2623 17.5044 37.4878 11.4378 43.2828 6.54823C44.46 5.55221 45.7276 4.64674 46.9047 3.62054C47.5989 3.04707 48.2328 2.8358 48.8364 3.65072C49.4099 4.40528 48.8968 4.8882 48.2931 5.37112C44.309 8.54027 40.6268 12.0112 37.7293 16.2066C35.0732 20.1001 32.7794 24.2049 31.0288 28.5814C29.0368 33.5615 27.7993 38.7529 26.7731 44.0046C26.5618 45.0308 26.1392 45.8457 24.9621 45.8155C23.9661 45.725 23.453 44.8799 23.4832 43.0689Z" fill="#11B3B7"/>
<path d="M44.8826 53.1499C42.7698 53.5121 40.989 54.6892 39.0876 55.5041C33.9264 57.7074 28.8557 60.0617 23.7549 62.3857C19.7105 64.2268 15.7566 66.2792 11.6819 67.9996C7.06403 69.9313 2.56685 72.1648 -2.02087 74.1568C-3.46963 74.7907 -4.91838 75.4849 -6.39732 76.1187C-8.72137 77.1147 -8.75155 77.326 -7.6348 79.5293C-6.36714 82.0948 -5.22021 84.6905 -4.01291 87.2862C-3.862 87.6484 -3.77145 88.0407 -3.6809 88.4331C-4.94857 89.3084 -5.49185 89.248 -6.03513 88.0407C-7.60462 84.6603 -9.11374 81.2799 -10.7134 77.9296C-11.2265 76.8431 -11.1058 76.33 -9.89848 75.7867C2.62722 70.1124 15.0925 64.3476 27.5881 58.6431C32.6889 56.319 37.8199 54.0252 42.9207 51.671C43.6753 51.3389 44.2487 51.3088 44.792 51.9728C44.8222 52.3953 44.8524 52.7575 44.8826 53.1499Z" fill="#FAEBE2"/>
<path d="M29.8216 80.9177C31.4816 78.9257 35.1035 78.1107 37.9709 79.1369C38.0312 79.2577 38.0916 79.4086 38.1821 79.5293C41.2004 84.117 40.4156 88.6142 37.3974 92.6285C36.8239 93.383 36.0996 94.2282 35.1035 94.1376C33.5944 93.9867 31.9947 93.9565 30.6969 92.8699C29.882 92.2059 28.9463 91.723 28.071 91.1495C26.411 88.2822 26.3506 85.4752 28.3427 82.6985C28.3427 84.1472 27.5278 85.4753 27.7088 86.9844C27.7994 87.7993 27.9503 88.584 28.735 88.8255C29.6707 89.0971 29.8518 88.1615 30.1234 87.5578C30.6969 86.3204 31.0893 85.0225 31.6929 83.8152C32.1457 82.9097 33.3831 82.1854 32.6588 81.0686C31.9042 80.0122 30.7573 80.9479 29.8216 80.9177Z" fill="#E93C30"/>
<path d="M63.7769 64.0156C65.7991 63.0195 67.8515 62.0537 69.8435 60.9973C72.4392 59.6391 72.6203 59.0958 71.745 56.319C71.5639 55.7758 71.3828 55.2023 71.1112 54.4477C74.552 55.0816 77.2684 53.6328 80.015 52.2444C81.1619 51.671 81.9768 50.856 82.0976 49.528C82.1881 48.532 82.7314 48.0491 83.7274 47.9283C84.7234 47.8076 85.6893 47.4454 86.6551 47.2643C88.3453 46.9927 89.0697 45.9967 88.949 44.3366C88.9188 43.8839 89.0395 43.4312 89.0999 43.0086C93.2651 41.922 97.2793 40.3526 101.384 39.0245C102.078 38.8133 102.742 38.0285 103.587 38.7227C103.406 39.598 103.98 40.4733 103.678 41.3486C99.9052 42.1635 96.5549 44.0348 93.2349 45.8458C87.8926 48.7433 82.9427 52.2444 78.1437 55.9267C73.405 59.5486 68.757 63.261 64.5012 67.4262C64.4107 67.4262 64.3201 67.396 64.2598 67.3658C64.2296 66.9734 64.1692 66.5509 64.139 66.1585C64.0787 65.9472 64.0183 65.7661 63.958 65.5549C63.8674 65.0116 63.8372 64.4985 63.7769 64.0156Z" fill="#128A8B"/>
<path d="M37.3672 131.956C36.1297 131.473 35.3752 130.447 34.6508 129.451C34.0773 128.696 34.2282 127.761 34.9526 126.976C38.2425 123.414 41.5022 119.823 44.7921 116.231C46.7539 114.088 48.7158 111.975 50.6776 109.832C52.066 110.255 52.5188 111.643 53.4242 112.549C51.9151 114.42 50.4664 116.322 48.8969 118.102C44.9128 122.66 41.14 127.308 37.3672 131.956Z" fill="#F1EEDF"/>
<path d="M64.7728 69.1164C68.3645 69.4182 71.9562 69.8407 75.5781 69.9615C78.2342 70.052 80.8902 69.8105 83.5463 69.5993C88.9489 69.1465 94.2912 68.3014 99.5731 67.064C99.6939 67.0338 99.875 67.0941 100.237 67.1243C97.7622 68.3618 95.257 68.9353 92.8425 69.6295C86.4136 71.4706 79.9244 73.0099 73.2843 73.8248C70.8093 74.1266 68.3042 74.3681 65.7688 74.2172C65.2256 72.5873 64.8936 70.8669 64.7728 69.1164Z" fill="#128A8B"/>
<path d="M77.5097 101.713C78.6566 100.959 79.5621 99.9024 80.4676 98.9064C80.6487 99.4195 80.0752 100.023 80.6487 100.446C81.4636 101.019 83.7273 100.385 84.0894 99.4195C85.0553 96.8842 85.9306 94.3488 86.8662 91.8135C87.1379 91.059 87.1681 90.0931 88.0735 89.7008C88.0132 90.0931 88.0132 90.5157 87.8924 90.8779C86.8662 93.7452 85.8702 96.6125 84.7535 99.4497C84.3913 100.385 84.6025 100.778 85.5382 100.868C86.5946 100.989 87.6208 101.08 88.6772 101.17C89.0695 101.502 89.1903 101.23 89.2808 100.868C89.3714 100.868 89.4619 100.868 89.5826 100.868C89.7939 100.868 89.975 100.868 90.1863 100.868C91.5747 101.894 93.8685 101.744 94.1402 100.536C94.5326 98.6951 95.106 96.9144 95.6493 95.1336C95.7398 94.9223 95.8304 94.7412 95.9511 94.5299C96.4642 92.5681 96.9773 90.6364 97.5206 88.6746C97.913 88.7047 98.2752 88.7349 98.6675 88.7651C98.6675 88.9462 98.6977 89.1575 98.6977 89.3386C97.7017 89.7913 97.7621 90.8175 97.5206 91.6324C96.7359 94.0772 96.102 96.5522 95.3173 98.9668C94.3515 101.894 93.9289 101.442 97.3093 102.317C97.3697 102.317 97.3999 102.317 97.4602 102.317C97.6715 103.102 98.4563 103.826 97.7923 104.732C96.585 105.275 95.3475 105.365 93.9893 105.124C91.7256 104.732 89.4317 104.581 87.1077 104.43C84.1196 104.249 81.1014 104.339 78.2039 103.494C77.6606 103.011 77.4191 102.408 77.5097 101.713Z" fill="#E5DBC2"/>
<path d="M73.2842 50.4334C73.1634 50.4334 73.0427 50.4334 72.922 50.4636C72.8314 50.4636 72.7711 50.4636 72.6805 50.4636C72.5598 50.3429 72.4692 50.2523 72.3485 50.1316C72.3485 49.0149 72.3183 47.9283 72.3787 46.8115C72.4089 45.8759 71.9561 45.5137 71.0808 45.6344C70.0848 45.7853 69.119 46.0268 68.123 46.2079C67.3382 45.6948 66.7949 45.7552 66.644 46.8115C66.5535 46.8115 66.4328 46.8115 66.3422 46.8417C62.7203 47.3246 62.3279 48.1396 64.2596 51.1578C64.5916 51.6709 65.0745 52.1538 65.0142 53.2102C64.0785 52.2142 63.4447 51.3389 62.9316 50.3429C61.9054 48.381 61.4225 48.2301 59.521 49.2563C57.046 50.5843 57.0158 50.8862 58.6457 53.2404C59.0079 53.7837 59.9737 54.5986 59.4003 54.9306C58.6457 55.3833 58.4042 54.1459 57.9817 53.6026C57.3177 52.7273 57.3177 51.0974 56.05 51.0371C55.0842 50.9767 54.058 51.8218 53.0619 52.2746C52.9412 51.9727 52.8507 51.6407 52.7299 51.3389C53.8165 51.4295 54.6918 50.856 55.4765 50.3429C56.5631 49.6487 55.7482 48.6225 55.6275 47.7472C55.5671 47.2945 55.2954 46.9021 54.6918 47.053C53.5751 47.3246 52.4281 47.5057 51.7943 48.6527C51.3717 48.1094 51.5528 47.4454 51.4623 46.8417C52.4281 46.9021 53.3336 46.6003 54.2692 46.4192C54.7522 46.3286 55.054 46.0268 54.9031 45.4533C54.7823 44.9704 54.722 44.4573 54.0278 44.4271C53.6052 44.4271 53.1525 44.7893 52.7299 44.4573C53.0318 44.246 53.3336 44.0348 53.6354 43.7933C56.4424 43.0086 59.2493 42.1635 62.0865 41.4391C65.4669 40.5638 65.5575 40.6845 66.5837 44.1253C65.7084 43.7631 65.8291 42.7671 65.316 42.1635C64.8029 41.59 64.32 40.8656 63.6258 41.9522C63.2032 42.0729 62.7807 42.1936 62.3279 42.3144C61.6337 42.5256 60.6679 42.5558 60.9697 43.6424C61.2716 44.7591 62.2072 44.4573 62.9618 44.2159C63.7767 43.9744 64.5313 43.5518 65.3764 43.4613C65.3764 43.6726 65.4066 43.8537 65.4066 44.0649C64.4105 44.3668 63.4145 44.6988 62.4185 44.9704C61.8752 45.1213 61.3621 45.3628 61.6338 45.9363C61.8752 46.4192 61.8752 47.4756 62.8109 47.1134C63.988 46.6908 65.3462 46.5399 66.2818 45.5439C66.644 45.1515 66.5837 44.6384 66.6138 44.1857C67.3986 44.8195 67.1873 44.0348 67.2175 43.7329C67.3382 41.9522 67.1571 40.1412 67.5797 38.3605C67.7608 40.2016 67.9721 42.0125 68.0626 43.8537C68.123 44.8195 68.2437 45.3326 69.451 45.0911C71.7449 44.6384 71.7449 44.6988 72.0165 42.3446C72.0165 42.254 72.0165 42.1333 72.0467 42.0427C72.0769 41.8616 72.107 41.6202 72.3485 41.59C72.6805 41.5598 72.8012 41.8013 72.8314 42.0427C72.8918 42.3446 72.922 42.6464 72.8918 42.9482C72.7107 44.2159 73.1634 44.729 74.4613 44.3668C74.7027 44.3064 74.9744 44.3366 75.2158 44.3668C76.6042 44.5177 77.2984 44.0046 77.1475 42.5256C77.1173 42.1333 76.9362 41.6202 77.6002 41.258C77.7512 41.8918 77.9624 42.4351 77.9926 43.0086C78.053 43.7631 78.3548 44.0649 79.1094 44.0951C79.8639 44.1253 80.5883 44.2762 81.3429 44.3668C81.3429 44.5781 81.3429 44.7591 81.373 44.9704C80.8298 44.9704 80.2865 44.9704 79.7432 44.9704C78.053 44.9704 77.8115 45.2421 78.1435 46.8719C78.2944 47.5661 78.385 48.2301 78.0228 48.8941C77.8115 48.9847 77.6304 49.1054 77.4191 49.196C77.4191 48.1396 77.389 47.0832 77.389 46.0268C77.389 45.4835 77.2682 45.0911 76.6042 44.9402C73.6765 44.3064 72.439 45.5439 73.0729 48.4112C73.1031 48.5018 73.1332 48.5923 73.1332 48.713C73.1634 49.4676 73.4653 49.7392 74.3104 49.5581C75.3366 49.3469 76.3929 49.2865 77.4191 49.1658C77.5097 49.4676 77.6304 49.7694 77.721 50.0411C76.3024 50.2222 74.7933 50.3127 73.2842 50.4334ZM56.382 47.5359C56.4122 49.2865 56.8649 49.6185 58.4344 48.9243C59.1286 48.6225 59.7926 48.2905 60.4566 47.9887C60.9697 47.7774 61.5734 47.5963 61.181 46.8417C60.8792 46.2381 60.8188 45.393 59.7926 45.6948C58.8872 45.9363 57.9515 45.9966 57.0762 46.4494C56.5631 46.721 56.3518 47.0228 56.382 47.5359ZM60.2755 43.9442C60.2454 43.2198 59.853 42.6766 59.0682 43.0086C58.193 43.3708 57.3177 43.6726 56.4122 43.9442C55.8387 44.1253 55.6878 44.6082 55.8387 45.1515C55.9896 45.7853 56.4424 45.8759 56.9857 45.6948C57.8911 45.4232 58.7966 45.1515 59.7021 44.9101C60.185 44.8195 60.2755 44.4573 60.2755 43.9442Z" fill="#E6E2CF"/>
<path d="M52.7903 51.3389C52.911 51.6407 53.0016 51.9727 53.1223 52.2746C53.6958 54.1157 54.8125 55.7455 55.2351 57.6168C52.3677 58.4016 51.6434 61.3595 49.7721 63.1402C48.2931 60.0616 46.8142 57.0132 45.3352 53.9346C45.2145 53.6629 45.0334 53.4215 44.8825 53.1498C44.8523 52.7575 44.8523 52.3953 44.8221 52.0029C46.452 51.9727 48.112 51.8218 49.7419 52.1538C50.8284 52.3953 51.5528 51.3993 52.5488 51.3087C52.6092 51.3087 52.6998 51.3087 52.7903 51.3389Z" fill="#EEC2A8"/>
<path d="M95.8909 107.176C95.9211 107.991 96.3134 108.746 96.1927 109.561C95.2571 109.742 94.4421 110.255 93.4159 110.104C88.9188 109.41 84.3914 108.957 79.8339 108.987C78.4455 109.018 77.2684 108.716 76.2723 107.75C75.9403 106.331 77.5702 105.909 77.8116 104.762C78.7473 104.581 79.1397 105.667 80.1055 105.697C83.3048 105.788 86.5042 105.999 89.6733 106.301C91.7559 106.482 93.8083 106.875 95.8909 107.176Z" fill="#E5DBC2"/>
<path d="M94.1102 112.006C94.1705 112.82 95.0156 113.515 94.3818 114.39C93.0236 114.873 91.5748 114.843 90.2166 114.662C86.2929 114.088 82.3692 113.786 78.4153 113.786C76.9364 113.786 75.548 113.454 74.4916 112.277C74.4312 110.979 75.9705 110.527 76.0007 109.289C77.0571 109.591 77.7815 110.527 79.1095 110.557C82.4899 110.587 85.9005 110.798 89.281 111.16C90.8806 111.342 92.5407 111.432 94.1102 112.006Z" fill="#E5DBC2"/>
<path d="M78.9586 14.2448C79.1397 15.6935 80.1055 16.8706 80.347 18.3496C80.9204 21.7903 78.2945 24.6275 74.8839 23.9937C74.1294 23.8729 73.4955 23.9937 72.8315 24.2351C70.0849 25.2311 67.3383 26.1668 64.4106 26.4384C63.2033 26.5592 62.0262 26.7101 60.8491 26.2573C63.2637 23.722 66.1009 21.6998 68.9078 19.6474C69.7529 20.251 70.598 20.8547 71.4431 21.4583C71.5639 21.5489 71.6846 21.6394 71.8053 21.73C72.2882 22.062 72.741 22.4544 73.2541 22.726C74.7934 23.5409 76.2421 23.3297 77.1778 22.1827C77.4494 22.3336 77.54 22.0318 77.7513 22.0016C79.5018 21.6998 79.8942 20.5529 79.0189 18.4099C79.0793 17.8968 79.0189 17.4139 78.7171 16.9913C78.536 16.5688 78.5058 16.0557 78.1135 15.7237C78.0531 15.6331 77.9927 15.5728 77.9324 15.5124C77.9625 15.452 77.9927 15.3615 77.9927 15.271C78.1436 14.9389 78.2644 14.5768 78.4153 14.2448C78.5964 14.2749 78.7775 14.2448 78.9586 14.2448Z" fill="#128A8B"/>
<path d="M52.4583 106.875C52.8507 106.15 53.726 106.361 54.2693 105.939C55.2049 106.361 55.2653 107.478 55.9595 108.142C57.9515 110.044 60.0643 111.855 62.4185 113.213C64.2597 114.299 66.1008 115.718 68.455 115.597C68.455 116.291 68.455 116.986 68.4248 117.71C67.127 118.525 65.7386 118.465 64.3804 117.891C60.1247 116.08 56.5933 113.183 53.3035 109.983C52.4583 109.138 51.9452 108.112 52.4583 106.875Z" fill="#E5DBC2"/>
<path d="M71.6243 101.381C71.8657 101.351 72.0468 101.411 72.1675 101.623C71.3526 102.83 70.5377 104.007 69.7228 105.214C68.9682 106.331 69.4511 107.086 70.5377 107.388C71.4734 107.629 71.9865 108.203 72.3486 109.017C72.2581 109.41 72.1374 109.802 72.0468 110.195C71.2621 110.466 70.5377 110.436 69.7228 110.134C65.6481 108.685 62.3281 106.18 59.3702 103.102C58.7062 102.438 58.3742 101.743 58.4647 100.838C58.676 100.114 59.3702 100.144 59.9135 99.9024C60.336 100.234 60.8491 100.476 61.2113 100.868C62.2074 101.985 62.9317 101.472 63.7165 100.566C64.2899 99.8722 64.6219 98.8762 65.7085 98.6951C65.2558 99.842 64.3805 100.687 63.5957 101.532C62.9921 102.166 63.0826 102.619 63.6863 103.132C64.5616 103.886 65.2256 103.977 65.9802 102.86C66.8554 101.593 67.5195 100.053 68.9984 99.2685C69.1191 99.2987 69.1795 99.3591 69.1795 99.4496C68.2438 100.808 67.3685 102.196 66.3423 103.494C65.7085 104.279 65.7085 104.762 66.614 105.214C67.3685 105.577 67.942 106.422 68.8475 105.214C69.8435 103.977 70.2962 102.347 71.6243 101.381Z" fill="#E5DBC2"/>
<path d="M55.7483 104.158C56.0199 103.404 56.7141 103.102 57.2574 102.619C58.676 105.003 60.8491 106.663 63.0222 108.172C65.3765 109.802 67.791 111.492 70.8395 111.674C70.6584 112.368 70.4773 113.062 70.5075 113.786C69.0587 114.239 67.7005 114.179 66.2819 113.545C62.7204 111.945 59.7323 109.561 56.9254 106.905C56.2312 106.211 55.537 105.335 55.7483 104.158Z" fill="#E5DBC2"/>
<path d="M28.0408 91.1495C28.9161 91.723 29.8517 92.2059 30.6666 92.8699C31.9645 93.9263 33.5642 93.9867 35.0733 94.1376C36.0693 94.2281 36.7937 93.383 37.3671 92.6285C40.3854 88.6142 41.1701 84.117 38.1519 79.5293C38.0613 79.4086 38.001 79.2577 37.9406 79.1369C38.4235 79.1369 38.9668 79.0162 39.1479 79.6802C39.2083 79.8613 39.2083 80.1028 39.2988 80.2537C41.2908 83.8756 40.8381 87.4371 39.2686 91.059C38.9064 91.9041 38.001 92.387 37.7595 93.4132C41.3814 92.4474 43.464 89.0066 43.4036 85.1131C44.4902 86.3505 44.128 87.8898 43.796 89.0971C41.9247 95.6165 34.7413 97.9104 29.4593 93.383C28.7953 92.7794 28.2219 92.0852 28.0408 91.1495Z" fill="#B93D34"/>
<path d="M97.3698 102.317C97.3095 102.317 97.2793 102.317 97.2189 102.317C93.8385 101.442 94.261 101.894 95.2269 98.9668C96.0418 96.5522 96.6756 94.047 97.4302 91.6324C97.7018 90.8175 97.6415 89.7913 98.6073 89.3386C100.207 90.3044 100.78 91.7833 100.177 93.6848C99.3015 96.5522 98.3357 99.4195 97.3698 102.317Z" fill="#F0ECDD"/>
<path d="M71.443 21.4885C70.5979 20.8849 69.7528 20.2812 68.9077 19.6776C67.9418 17.9874 67.4589 16.1463 67.0665 14.3051C66.6742 12.5545 67.4589 10.9549 69.0284 9.95886C68.6662 10.7436 68.2738 11.4982 68.0022 12.2829C67.6702 13.1884 67.8815 14.1844 68.4851 14.8182C69.1491 15.5426 69.8433 14.8182 70.5073 14.4862C70.8997 14.2749 71.3524 14.1844 71.7448 13.9731C73.2238 13.128 74.7932 12.3735 75.0951 10.4116C76.4231 10.2909 77.238 10.6229 77.2984 12.2225C77.3286 12.9469 77.8115 13.7015 78.3849 14.2749C78.234 14.607 78.1133 14.9691 77.9624 15.3011C77.8718 15.1201 77.7511 14.939 77.6304 14.7579C77.1776 12.796 76.9362 12.7055 75.4874 13.8524C73.6161 15.3313 71.7146 16.7197 69.2095 17.0517C69.4811 17.6856 69.8131 18.1081 70.2357 18.4703C70.5677 19.0739 70.8695 19.6776 71.2015 20.2812C70.8393 20.7642 71.3223 21.066 71.4732 21.4282L71.443 21.4885Z" fill="#137576"/>
<path d="M52.4583 106.875C51.9452 108.142 52.4885 109.138 53.3336 109.983C56.6235 113.183 60.1246 116.08 64.4105 117.891C65.7687 118.465 67.1269 118.525 68.455 117.71C68.3644 119.219 67.5495 120.034 66.0404 120.125C64.0483 119.551 62.2072 118.555 60.3057 117.71C59.6115 117.287 58.9173 116.865 58.2231 116.473C58.0118 115.869 57.4987 115.899 57.0158 115.899C56.5027 114.782 55.4162 114.269 54.5711 113.484C54.2994 113.032 53.9372 112.67 53.3939 112.579C52.4885 111.643 52.0357 110.285 50.6473 109.863C51.0699 108.746 50.8586 107.267 52.4583 106.875Z" fill="#D3CCB5"/>
<path d="M92.5407 116.533C91.6352 116.533 90.7599 116.503 89.8544 116.503C89.5224 116.141 89.0999 115.959 88.6169 115.99C88.0133 115.959 87.4097 115.959 86.8362 115.929C86.0816 115.386 85.2063 115.688 84.3914 115.658C82.5805 115.567 80.7997 115.446 78.9888 115.356C78.6869 115.356 78.3549 115.356 78.0531 115.356C76.5138 115.627 75.3669 114.813 74.1294 114.118C74.2501 113.515 74.3407 112.911 74.4614 112.307C75.5178 113.484 76.9062 113.816 78.3851 113.816C82.339 113.816 86.2627 114.088 90.1864 114.692C91.5446 114.903 92.9934 114.903 94.3516 114.42C94.3214 115.597 93.5669 116.171 92.5407 116.533Z" fill="#D3CCB5"/>
<path d="M94.1101 112.006C92.5407 111.462 90.8806 111.342 89.281 111.16C85.9005 110.798 82.4899 110.557 79.1095 110.557C77.7815 110.557 77.0873 109.591 76.0007 109.289C76.0309 108.776 75.88 108.203 76.3025 107.78C77.2985 108.746 78.4757 109.018 79.864 109.018C84.4216 108.957 88.9489 109.44 93.4461 110.134C94.4723 110.285 95.2873 109.772 96.2229 109.591C95.9513 110.768 95.2571 111.583 94.1101 112.006Z" fill="#D3CCB5"/>
<path d="M95.8908 107.176C93.8082 106.875 91.7558 106.482 89.6732 106.301C86.4739 106.029 83.3047 105.818 80.1054 105.697C79.1395 105.667 78.7472 104.611 77.8115 104.762C77.8115 104.309 77.7511 103.886 78.1133 103.524C81.041 104.339 84.0291 104.279 87.0171 104.46C89.311 104.611 91.635 104.762 93.8987 105.154C95.2569 105.396 96.4642 105.275 97.7017 104.762C97.913 106.15 96.7661 106.543 95.8908 107.176Z" fill="#D3CCB5"/>
<path d="M43.4639 85.0829C43.5243 89.0066 41.4417 92.4474 37.8198 93.383C38.0613 92.3568 38.9668 91.8739 39.3289 91.0288C40.8984 87.4069 41.3512 83.8152 39.3591 80.2235C39.2686 80.0424 39.2686 79.8311 39.2082 79.65C41.8039 80.5253 43.0716 82.457 43.4639 85.0829Z" fill="#E93C30"/>
<path d="M75.0951 10.4116C74.7933 12.3734 73.2238 13.128 71.7449 13.9731C71.3525 14.1844 70.8997 14.2749 70.5074 14.4862C69.8434 14.8182 69.1492 15.5426 68.4851 14.8182C67.8815 14.1542 67.6702 13.1884 68.0022 12.2829C68.2739 11.4981 68.6964 10.7436 69.0284 9.95884L68.9983 9.98902C69.119 9.89847 69.2397 9.80793 69.3303 9.71738C71.3223 8.35917 73.3445 8.60063 75.0951 10.4116Z" fill="#128A8B"/>
<path d="M55.7484 104.158C55.5371 105.335 56.2011 106.241 56.9557 106.935C59.7626 109.591 62.7507 111.975 66.3122 113.575C67.7308 114.209 69.089 114.269 70.5378 113.817C70.4472 115.145 69.6926 115.658 68.425 115.627C66.0708 115.718 64.2296 114.299 62.3885 113.243C60.0343 111.885 57.9215 110.074 55.9295 108.172C55.2353 107.508 55.1749 106.392 54.2393 105.969C54.4505 105.094 55.1145 104.611 55.7484 104.158Z" fill="#D3CCB5"/>
<path d="M65.7386 98.7253C64.6521 98.9064 64.3201 99.9024 63.7466 100.597C62.992 101.502 62.2375 101.985 61.2414 100.898C60.8793 100.506 60.3662 100.234 59.9436 99.9326C61.0905 97.9707 62.7204 96.4314 64.3804 94.9223C65.3764 94.0168 66.5837 94.9827 67.7005 94.8921C67.791 95.707 66.131 95.8881 66.9459 96.9445C66.9459 97.0351 66.9459 97.1558 66.9459 97.2463C66.0706 97.3671 65.7386 97.9103 65.7386 98.7253Z" fill="#F0ECDD"/>
<path d="M29.8217 80.9177C30.7573 80.9479 31.9043 80.0122 32.6286 81.0686C33.353 82.1854 32.1155 82.9098 31.6628 83.8152C31.0592 85.0225 30.6668 86.3204 30.0933 87.5578C29.8217 88.1313 29.6406 89.0971 28.7049 88.8255C27.9202 88.584 27.7693 87.7993 27.6787 86.9844C27.4976 85.4753 28.3126 84.1472 28.3126 82.6985C28.7049 82.6381 28.886 82.3967 28.886 82.0043C29.0067 81.4912 29.3689 81.1592 29.8217 80.9177Z" fill="#FE9F9F"/>
<path d="M70.8696 111.674C67.8211 111.492 65.4065 109.802 63.0523 108.172C60.849 106.633 58.706 104.973 57.2875 102.619C57.5893 101.955 57.71 101.17 58.4948 100.838C58.4042 101.744 58.7362 102.438 59.4002 103.102C62.3883 106.15 65.6782 108.686 69.7528 110.134C70.5677 110.436 71.2921 110.436 72.0769 110.195C72.1372 111.07 71.5336 111.402 70.8696 111.674Z" fill="#D3CCB5"/>
<path d="M53.394 112.579C53.9373 112.7 54.2995 113.032 54.5712 113.484C52.6093 113.756 52.0358 115.627 50.9795 116.835C46.5728 121.905 42.2567 127.067 37.9105 132.228C37.7294 132.137 37.5483 132.047 37.3672 131.926C41.14 127.278 44.9128 122.63 48.8667 118.133C50.406 116.322 51.8849 114.42 53.394 112.579Z" fill="#E6E2CF"/>
<path d="M52.7905 51.3389C52.6999 51.3389 52.6094 51.3389 52.549 51.3088C52.6396 50.3429 52.0661 49.528 51.885 48.6225C52.5188 47.4756 53.6658 47.2945 54.7825 47.0229C55.3862 46.8719 55.6578 47.2643 55.7182 47.7171C55.8389 48.5923 56.6538 49.6487 55.5673 50.3127C54.7222 50.8258 53.8469 51.4295 52.7905 51.3389Z" fill="#F1EEDF"/>
<path d="M52.7602 44.4574C53.2129 44.7894 53.6355 44.4272 54.0581 44.4272C54.7523 44.4574 54.8126 44.9403 54.9333 45.4534C55.0843 46.0269 54.8126 46.3287 54.2995 46.4192C53.3639 46.5701 52.4584 46.9021 51.4926 46.8418C51.5227 45.8156 51.2813 44.6686 52.7602 44.4574Z" fill="#F0ECDD"/>
<path d="M103.829 54.659C103.859 54.2062 103.859 53.7837 103.889 53.3309C104.221 53.7837 104.1 54.2364 103.829 54.659Z" fill="#128A8B"/>
<path d="M64.2295 67.3356C64.32 67.3658 64.3804 67.3959 64.471 67.3959C64.471 67.8789 64.5011 68.3618 64.5011 68.8447C63.656 68.4825 63.8371 67.909 64.2295 67.3356Z" fill="#D3CCB5"/>
<path d="M103.889 45.725C103.889 45.4835 103.859 45.2421 103.859 45.0006C104.01 45.2421 104.191 45.4835 103.889 45.725Z" fill="#128A8B"/>
<path d="M63.9275 65.5247C63.9879 65.7359 64.0483 65.917 64.1086 66.1283C63.7464 66.0076 63.6257 65.8265 63.9275 65.5247Z" fill="#D3CCB5"/>
<path d="M103.527 59.79C103.527 59.6391 103.557 59.5183 103.557 59.3674C103.829 59.5183 103.678 59.6693 103.527 59.79Z" fill="#128A8B"/>
<path d="M28.8557 82.0344C28.8557 82.4268 28.6746 82.6683 28.2822 82.7286C28.3426 82.3664 28.5539 82.1552 28.8557 82.0344Z" fill="#F1EEDF"/>
<path d="M69.3304 9.71741C69.2097 9.80795 69.089 9.8985 68.9984 9.98905C69.1191 9.8985 69.2399 9.80795 69.3304 9.71741Z" fill="#137576"/>
<path d="M70.8696 111.674C71.5336 111.372 72.1372 111.04 72.0467 110.164C72.1372 109.772 72.258 109.38 72.3485 108.987C73.1634 108.625 73.2842 107.75 73.6463 107.086C74.582 105.426 75.91 103.917 76.2722 101.985C76.6344 101.744 77.0268 101.653 77.4493 101.713C77.3588 102.408 77.6304 103.011 78.053 103.524C77.6908 103.856 77.7512 104.309 77.7512 104.762C77.5399 105.909 75.91 106.331 76.2118 107.75C75.7893 108.203 75.9402 108.746 75.91 109.259C75.8798 110.496 74.3405 110.979 74.4009 112.247C74.2802 112.851 74.1896 113.454 74.0689 114.058C70.9903 121.996 67.8513 129.904 64.9236 137.872C64.3804 139.321 64.5916 140.347 65.6178 141.343C65.2556 141.614 64.8633 141.584 64.4709 141.584C59.3097 141.433 54.1485 141.916 48.9873 141.796C47.2669 141.765 45.5767 141.916 43.8563 141.796C43.5847 141.282 44.0978 141.222 44.3392 141.041C45.8182 139.954 46.7236 138.506 47.116 136.725C47.8706 136.574 48.5648 136.846 49.2892 136.876C51.1303 137.238 52.9714 137.178 54.8125 136.997C55.718 136.906 56.3217 136.574 56.7744 135.819C59.9134 130.628 62.9618 125.376 65.8593 120.064C67.3684 119.944 68.1833 119.159 68.2739 117.65C68.2739 116.955 68.2739 116.261 68.3041 115.537C69.5415 115.567 70.3263 115.024 70.4168 113.726C70.5074 113.062 70.6885 112.368 70.8696 111.674Z" fill="#C7C1B5"/>
<path d="M88.6471 101.14C87.5907 101.049 86.5645 100.929 85.5081 100.838C84.5724 100.748 84.3612 100.355 84.7234 99.4195C85.8401 96.5824 86.8361 93.715 87.8623 90.8477C87.9831 90.4855 87.9831 90.063 88.0434 89.6706C88.8583 89.1575 89.1602 88.3728 89.2507 87.4673C90.0053 86.9542 90.8202 86.924 91.6955 87.0145C93.0235 87.2258 93.3253 87.9502 92.9028 89.2179C92.0879 91.5721 91.3333 93.9565 90.6391 96.3409C90.1864 97.8198 89.5525 99.2686 89.5525 100.838C89.462 100.838 89.3714 100.838 89.2507 100.838C89.0696 100.929 88.8583 101.019 88.6471 101.14Z" fill="#F1EEDF"/>
<path d="M97.4603 88.6444C96.9472 90.6063 96.4341 92.5379 95.8908 94.4998C95.5588 94.5903 95.257 94.6809 95.589 95.1034C95.0457 96.8842 94.4421 98.6649 94.0799 100.506C93.8384 101.713 91.5144 101.834 90.126 100.838C91.4238 96.7031 92.7217 92.5681 93.9893 88.4029C94.1704 87.8597 94.4722 87.5578 94.925 87.3466C95.9814 87.3767 96.7359 87.9804 97.4603 88.6444Z" fill="#F1EEDF"/>
<path d="M89.2808 87.4673C89.1903 88.3727 88.9186 89.1575 88.0735 89.6706C87.1681 90.0931 87.1379 91.0288 86.8662 91.7833C85.9306 94.3187 85.0553 96.8842 84.0895 99.3893C83.7273 100.355 81.4636 101.019 80.6487 100.416C80.0752 99.993 80.6487 99.3893 80.4676 98.8762C82.4596 95.6769 83.3953 91.9041 85.9909 89.0367C86.5644 88.6444 87.1379 88.252 87.7415 87.8294C88.1641 87.7993 88.5263 87.6785 88.7979 87.3163C88.9488 87.4069 89.0997 87.4371 89.2808 87.4673Z" fill="#F0ECDD"/>
<path d="M76.3023 101.985C75.91 103.947 74.6121 105.426 73.6765 107.086C73.3143 107.75 73.1935 108.625 72.3786 108.987C72.0466 108.172 71.5335 107.629 70.5677 107.357C69.4811 107.056 68.9982 106.301 69.7527 105.184C70.5677 103.977 71.3826 102.8 72.1975 101.593C73.5255 101.955 74.9139 102.045 76.3023 101.985Z" fill="#F0ECDD"/>
<path d="M71.6242 101.381C70.2962 102.377 69.8435 104.007 68.9078 105.275C68.0023 106.512 67.3987 105.637 66.6743 105.275C65.7386 104.822 65.7688 104.339 66.4027 103.555C67.4289 102.257 68.3041 100.868 69.2398 99.5101C70.0245 100.114 70.8093 100.748 71.6242 101.381Z" fill="#F0ECDD"/>
<path d="M87.7417 87.8596C87.1682 88.252 86.5947 88.6443 85.9911 89.0669C86.0515 86.5919 86.806 84.2377 87.0475 81.7929C87.2286 80.0725 87.5304 78.3522 87.7719 76.6318C88.949 76.1187 89.0395 76.7525 88.9188 77.6881C88.4962 81.0686 88.134 84.4792 87.7417 87.8596Z" fill="#B6B0A4"/>
<path d="M69.0285 99.2988C67.5194 100.084 66.8855 101.593 66.0102 102.89C65.2557 104.007 64.5917 103.917 63.7164 103.162C63.1127 102.649 63.0222 102.196 63.6258 101.562C64.4407 100.687 65.316 99.8722 65.7386 98.7253C66.2819 98.3329 66.8553 97.9707 66.9459 97.2162C67.0666 97.2162 67.1572 97.2162 67.2779 97.2162C67.8514 97.9104 68.4248 98.6046 69.0285 99.2988Z" fill="#F0ECDD"/>
<path d="M94.9552 87.3767C94.5024 87.588 94.2006 87.8596 94.0195 88.4331C92.7518 92.5983 91.454 96.7333 90.1562 100.868C89.9449 100.868 89.7638 100.868 89.5525 100.868C89.5223 99.2686 90.1863 97.85 90.6089 96.3711C91.3333 93.9867 92.0576 91.6023 92.8726 89.248C93.2951 87.9804 92.9933 87.2862 91.6653 87.0447C92.8122 86.7731 93.8988 86.8636 94.9552 87.3767Z" fill="#E6E2CF"/>
<path d="M87.7416 87.8596C88.134 84.4792 88.4962 81.0686 88.9188 77.6882C89.0395 76.7525 88.9791 76.1187 87.7718 76.6318C87.4096 76.2394 86.8664 75.9074 87.9227 75.6659C89.0998 75.3641 90.2166 74.851 91.4843 74.5492C89.4017 75.5754 89.4922 77.5071 89.3111 79.318C89.0697 81.7326 89.0395 84.2076 88.4358 86.592C88.3453 86.924 88.5264 87.1654 88.7678 87.3767C88.5264 87.7087 88.1642 87.8295 87.7416 87.8596Z" fill="#128A8B"/>
<path d="M67.2478 97.186C67.1271 97.186 67.0365 97.186 66.9158 97.186C66.9158 97.0954 66.9158 96.9747 66.9158 96.8842C67.127 96.8842 67.2176 97.0351 67.2478 97.186Z" fill="#E5DBC2"/>
<path d="M81.4032 44.397C80.6486 44.3064 79.9243 44.1555 79.1697 44.1253C78.4151 44.0952 78.1133 43.7933 78.0529 43.0388C78.0228 42.4653 77.8115 41.8918 77.6606 41.2882C76.9966 41.6504 77.1475 42.1635 77.2078 42.5559C77.3588 44.0348 76.6645 44.5781 75.2762 44.397C75.0347 44.3668 74.7631 44.3366 74.5216 44.397C73.2238 44.729 72.771 44.2159 72.9521 42.9784C72.9823 42.6766 72.9521 42.3748 72.8917 42.0729C72.8314 41.8315 72.7107 41.59 72.4088 41.6202C72.1372 41.6504 72.1372 41.8918 72.107 42.0729C72.0768 42.1635 72.107 42.2842 72.0768 42.3748C71.8052 44.7592 71.8052 44.6686 69.5113 45.1214C68.304 45.3628 68.1833 44.8497 68.1229 43.8839C68.0324 42.0428 67.7909 40.2318 67.64 38.3907C67.6702 37.9681 67.7004 37.5456 67.7607 37.123C70.5677 36.127 73.3747 35.0706 76.3627 34.7084C77.4795 34.5575 78.6264 34.3462 79.6526 33.803C80.4675 33.7728 80.7694 34.1953 80.8901 34.9801C81.4334 38.119 81.5239 41.258 81.4032 44.397Z" fill="#F1EEDF"/>
<path d="M79.6225 33.8332C78.5963 34.3765 77.4494 34.5877 76.3326 34.7386C73.3446 35.131 70.5376 36.1874 67.7306 37.1532C67.6703 36.3081 68.3343 36.0667 68.9379 35.8554C72.6806 34.5576 76.5741 33.7426 80.4374 32.8975C81.8258 32.5957 81.524 33.9237 82.0673 34.4066C81.1618 34.6179 80.7091 32.8673 79.6225 33.8332Z" fill="#E6E2CF"/>
<path d="M65.4369 44.0951C65.4369 43.8839 65.4067 43.7028 65.4067 43.4915C64.954 42.8275 64.8634 41.7711 63.6561 41.9522C64.3805 40.8656 64.8634 41.59 65.3463 42.1635C65.8594 42.7671 65.7689 43.7329 66.614 44.1253L66.6744 44.1555V44.246C66.614 44.729 66.7046 45.2119 66.3424 45.6043C66.0405 45.0912 65.7387 44.5781 65.4369 44.0951Z" fill="#D3CCB5"/>
<path d="M1.05772 83.5134C1.02754 82.6984 1.57082 82.5777 1.99338 82.3966C11.8328 77.8994 21.6723 73.4023 31.5118 68.9051C35.1638 67.2451 38.8159 65.585 42.468 63.9552C42.8 63.8043 43.2225 63.593 43.4036 63.9552C43.6753 64.4683 43.0716 64.6192 42.7698 64.7701C40.6872 65.7661 38.6046 66.7018 36.4919 67.6676C29.6405 70.8066 22.789 73.9757 15.9075 77.0845C11.4405 79.1067 6.97347 81.0988 2.47629 83.0908C2.05374 83.2719 1.57082 83.3625 1.05772 83.5134Z" fill="#EEC2A8"/>
<path d="M68.123 46.2079C69.1191 45.9966 70.0849 45.7854 71.0809 45.6345C71.926 45.5137 72.4089 45.8759 72.3788 46.8116C72.3486 47.9283 72.3788 49.0149 72.3486 50.1316C72.258 50.1316 72.1373 50.1316 72.0468 50.1316C68.7569 50.1618 68.2136 49.6185 68.123 46.2079Z" fill="#F1EEDF"/>
<path d="M78.0833 48.9243C78.4455 48.2603 78.3248 47.6265 78.2041 46.9021C77.8721 45.2723 78.1135 45.0006 79.8037 45.0006C80.347 45.0006 80.8903 45.0006 81.4336 45.0006C81.4336 45.6948 81.4336 46.4192 81.4336 47.1134C80.8299 47.9887 79.8641 48.381 78.9888 48.9243C78.687 48.9243 78.3852 48.9243 78.0833 48.9243Z" fill="#F1EEDF"/>
<path d="M73.2841 50.4335C74.7932 50.3429 76.3023 50.2524 77.7813 50.1317C77.5096 51.4597 74.9743 52.7877 73.8576 52.1539C73.2237 51.7615 73.2539 51.0673 73.2841 50.4335Z" fill="#F0ECDD"/>
<path d="M72.6806 50.4335C72.7712 50.4335 72.8316 50.4335 72.9221 50.4335C72.8919 51.52 73.4654 52.9084 71.5035 52.8782C70.3566 52.8481 69.7831 52.1539 69.7228 51.2182C69.6624 50.0713 70.6886 50.5542 71.3224 50.4637C71.7752 50.3731 72.2279 50.4335 72.6806 50.4335Z" fill="#F0ECDD"/>
<path d="M81.1619 48.9545C80.8601 49.9204 79.3812 51.0069 78.5662 50.8862C78.2644 50.8258 78.1437 50.6448 78.1437 50.3731C78.0833 49.7393 78.355 49.3167 79.019 49.2262C79.683 49.0451 80.3772 48.5622 81.1619 48.9545Z" fill="#F0ECDD"/>
<path d="M81.1618 48.9545C80.377 48.5622 79.713 49.0451 78.9886 49.2262C78.9886 49.1356 78.9886 49.0451 78.9886 48.9243C79.8338 48.3811 80.7996 47.9887 81.4334 47.1134C81.7352 47.7774 81.4032 48.3509 81.1618 48.9545Z" fill="#E6E2CF"/>
<path d="M95.5891 95.1034C95.2571 94.6809 95.5287 94.5903 95.8909 94.4998C95.8003 94.6809 95.7098 94.8921 95.5891 95.1034Z" fill="#F0ECDD"/>
<path d="M88.6471 101.14C88.8584 101.049 89.0395 100.959 89.2507 100.838C89.1904 101.17 89.0696 101.472 88.6471 101.14Z" fill="#E6E2CF"/>
<path d="M77.5098 49.2564C76.4836 49.3771 75.4272 49.4375 74.401 49.6487C73.586 49.8298 73.2842 49.5582 73.2239 48.8036C73.2239 48.7131 73.1937 48.6225 73.1635 48.5018C72.5297 45.6043 73.7671 44.397 76.6948 45.0308C77.3287 45.1817 77.4796 45.5439 77.4796 46.1174C77.4796 47.1436 77.5098 48.2 77.5098 49.2564C77.5098 49.2262 77.5098 49.2564 77.5098 49.2564Z" fill="#F1EEDF"/>
<path d="M56.382 47.536C56.3216 47.0229 56.5631 46.721 57.1064 46.4494C57.9816 45.9967 58.9173 45.9665 59.8228 45.6948C60.849 45.4232 60.9395 46.2683 61.2112 46.8418C61.5734 47.5963 60.9999 47.7774 60.4868 47.9887C59.7926 48.2905 59.1286 48.6225 58.4646 48.9244C56.8649 49.6186 56.4122 49.2866 56.382 47.536Z" fill="#F1EEDF"/>
<path d="M65.4367 44.0952C65.7386 44.6083 66.0404 45.0912 66.3422 45.6043C65.3764 46.6003 64.0483 46.7512 62.8712 47.1738C61.9356 47.5058 61.9356 46.4796 61.6941 45.9966C61.3923 45.393 61.9356 45.1817 62.4789 45.0308C63.4447 44.729 64.4407 44.397 65.4367 44.0952Z" fill="#F0ECDD"/>
<path d="M60.2756 43.9442C60.2756 44.4573 60.185 44.8195 59.7021 44.9402C58.7966 45.1817 57.8912 45.4533 56.9857 45.725C56.4122 45.8759 55.9897 45.7853 55.8388 45.1817C55.6879 44.6384 55.8388 44.1555 56.4122 43.9744C57.3177 43.6726 58.193 43.3708 59.0683 43.0387C59.853 42.7067 60.2454 43.25 60.2756 43.9442Z" fill="#F0ECDD"/>
<path d="M63.6258 41.9522C64.8331 41.7409 64.9539 42.7973 65.3764 43.4915C64.5011 43.5518 63.7466 43.9744 62.9618 44.246C62.2073 44.4875 61.2716 44.7591 60.9698 43.6726C60.668 42.586 61.6338 42.5256 62.328 42.3446C62.7807 42.1936 63.2033 42.0729 63.6258 41.9522Z" fill="#F0ECDD"/>
<path d="M71.2017 20.2813C70.8697 19.6776 70.5678 19.074 70.2358 18.4703C72.741 17.8969 74.8537 16.5387 76.9967 15.2106C77.0872 15.3314 77.208 15.4521 77.2985 15.5426C77.0872 15.8746 76.4836 16.0256 76.8458 16.599C76.9665 16.8103 77.1778 16.9914 77.4192 16.9008C77.9323 16.6896 78.0531 16.2368 78.0833 15.7237C78.4756 16.0557 78.4756 16.5688 78.6869 16.9914C77.9625 17.1121 77.6305 17.5045 77.8418 18.2289C78.0833 18.9834 78.5662 18.6816 78.9887 18.41C79.864 20.5831 79.4716 21.73 77.7211 22.0017C77.8418 21.2169 78.5058 20.1304 76.8458 20.2209C77.0571 19.7682 77.872 19.6474 77.4494 18.8023C77.0269 17.9572 76.4534 18.5307 75.9705 18.41C75.729 17.8667 76.8458 17.6252 76.2723 16.9914C75.8799 16.5688 75.5178 16.8707 75.2159 17.0216C74.8839 17.2027 74.401 17.3536 74.4916 17.8667C74.6727 18.8325 75.5479 18.078 75.9705 18.4402C75.7894 18.8929 75.1254 19.1645 75.5479 19.8587C75.9101 20.4322 76.3629 20.2813 76.8458 20.2511C76.6647 20.9453 76.6345 21.6395 77.1476 22.2129C76.212 23.3297 74.7632 23.5712 73.2239 22.7562C72.7108 22.4846 72.2581 22.0922 71.7751 21.7602C71.745 21.6697 71.7148 21.5791 71.7148 21.4886C72.0468 21.3377 72.6504 21.6093 72.6806 21.066C72.7108 20.6133 72.2882 20.3115 71.7751 20.2813C71.594 20.2813 71.4129 20.2813 71.2017 20.2813ZM75.1254 20.4926C74.9443 19.9795 74.6425 19.5871 74.0388 19.6776C73.6766 19.738 73.1333 19.7682 73.1937 20.2813C73.2541 20.7944 73.6464 21.1867 74.2501 21.0962C74.6123 21.0358 75.065 21.0358 75.1254 20.4926ZM72.9221 19.2853C73.2239 19.1343 73.7672 19.1645 73.7974 18.6514C73.8275 18.2892 73.4955 18.1383 73.1635 18.1987C72.8013 18.2892 72.2882 18.3194 72.2581 18.8325C72.2581 19.1645 72.5599 19.3154 72.9221 19.2853ZM76.0912 22.0017C76.212 21.6697 75.9705 21.5188 75.729 21.4886C75.3367 21.4584 74.8839 21.398 74.7028 21.8508C74.6123 22.1224 74.7934 22.4544 75.1254 22.5148C75.6083 22.6657 75.8498 22.3035 76.0912 22.0017Z" fill="#939087"/>
<path d="M76.8758 20.2511C78.5358 20.1605 77.8718 21.2169 77.7511 22.0318C77.5398 22.062 77.4493 22.3638 77.1776 22.2129C76.6645 21.6394 76.6645 20.9453 76.8758 20.2511Z" fill="#C7C1B5"/>
<path d="M79.0189 18.4099C78.5963 18.6815 78.1134 18.9834 77.8719 18.2288C77.6607 17.5044 77.9625 17.1121 78.717 16.9913C79.0189 17.4139 79.0792 17.8968 79.0189 18.4099Z" fill="#C7C1B5"/>
<path d="M78.0832 15.7539C78.0832 16.267 77.9323 16.7197 77.4192 16.931C77.1475 17.0518 76.9664 16.8405 76.8457 16.6292C76.4835 16.0557 77.0872 15.9048 77.2984 15.5728C77.5097 15.5426 77.6908 15.5426 77.9021 15.5125C77.9926 15.603 78.053 15.6634 78.0832 15.7539Z" fill="#EEC2A8"/>
<path d="M77.9022 15.5426C77.6909 15.5426 77.5098 15.5728 77.2985 15.6029C77.208 15.4822 77.0873 15.3615 76.9967 15.2709C77.208 15.12 77.4193 14.9691 77.6607 14.788C77.7815 14.9691 77.872 15.1502 77.9927 15.3313C77.9625 15.3917 77.9625 15.452 77.9022 15.5426Z" fill="#939087"/>
<path d="M71.7449 21.4885C71.7751 21.5791 71.7751 21.6696 71.8053 21.7602C71.6846 21.6696 71.5638 21.5791 71.4431 21.4885L71.4733 21.4584C71.5638 21.4282 71.6544 21.4584 71.7449 21.4885Z" fill="#137576"/>
<path d="M77.6607 14.7579C77.4494 14.9088 77.2381 15.0597 76.9967 15.2408C74.8537 16.5387 72.7409 17.927 70.2358 18.5005C69.8132 18.1383 69.5114 17.7158 69.2096 17.0819C71.7147 16.7499 73.6162 15.3615 75.4875 13.8826C76.9665 12.7055 77.1777 12.796 77.6607 14.7579Z" fill="#EEC2A8"/>
<path d="M71.7448 21.4886C71.6543 21.4584 71.5637 21.4584 71.4732 21.4584C71.3223 21.0962 70.8393 20.7944 71.2015 20.3115C71.4128 20.3115 71.5939 20.3115 71.8052 20.3115C72.3183 20.3416 72.7408 20.6133 72.7106 21.0962C72.6805 21.6093 72.0768 21.3377 71.7448 21.4886Z" fill="#EEC2A8"/>
<path d="M66.9158 97.2162C66.8252 97.9707 66.2518 98.3329 65.7085 98.7253C65.7387 97.9104 66.0707 97.3671 66.9158 97.2162Z" fill="#E5DBC2"/>
<path d="M76.8759 20.251C76.393 20.2812 75.9403 20.4623 75.5781 19.8587C75.1254 19.1645 75.8196 18.8928 76.0007 18.4401L76.0308 18.4099C76.5138 18.5306 77.1174 17.9572 77.5098 18.8023C77.9022 19.6776 77.0872 19.7983 76.8759 20.251Z" fill="#EEC2A8"/>
<path d="M75.9704 18.4401C75.5478 18.078 74.6725 18.8325 74.4915 17.8667C74.4009 17.3838 74.8838 17.2027 75.2158 17.0216C75.5478 16.8405 75.8798 16.5688 76.2722 16.9914C76.8759 17.6554 75.7591 17.8969 75.9704 18.4401C76.0006 18.4401 75.9704 18.4401 75.9704 18.4401Z" fill="#EEC2A8"/>
<path d="M75.1253 20.4925C75.0951 21.0358 74.6122 21.0358 74.25 21.0962C73.6463 21.1867 73.254 20.7943 73.1936 20.2812C73.1332 19.7681 73.6765 19.7681 74.0387 19.6776C74.6424 19.5569 74.9442 19.9794 75.1253 20.4925Z" fill="#EEC2A8"/>
<path d="M72.922 19.2852C72.5598 19.3154 72.2278 19.1645 72.258 18.8325C72.2882 18.3194 72.8013 18.2892 73.1635 18.1987C73.4955 18.1081 73.7973 18.2892 73.7973 18.6514C73.7671 19.1645 73.254 19.1343 72.922 19.2852Z" fill="#EEC2A8"/>
<path d="M76.0912 22.0016C75.8497 22.3034 75.6083 22.6656 75.1253 22.5449C74.7933 22.4544 74.6122 22.1224 74.7028 21.8809C74.8537 21.4282 75.3366 21.4583 75.729 21.5187C75.9705 21.5187 76.2119 21.6696 76.0912 22.0016Z" fill="#EEC2A8"/>
</svg>
