<svg width="15" height="16" viewBox="0 0 15 16" fill="none" xmlns="http://www.w3.org/2000/svg">
<path d="M13.2327 10.1498C13.0785 10.1498 12.935 10.1895 12.8058 10.2542L11.5863 8.14185L12.7954 6.04745C12.8738 6.06804 12.9547 6.08253 13.0395 6.08253C13.2951 6.0822 13.5401 5.98045 13.7207 5.79963C13.9013 5.61881 14.0028 5.3737 14.0029 5.11812C14.0026 4.86283 13.901 4.61808 13.7204 4.4377C13.5397 4.25732 13.2948 4.15606 13.0395 4.15621C12.8825 4.1559 12.7279 4.19407 12.589 4.26736C12.4502 4.34066 12.3315 4.44686 12.2432 4.57666H9.52785L8.26738 2.39348C8.36905 2.2381 8.42335 2.05651 8.42364 1.87082C8.4235 1.6151 8.3218 1.36991 8.14091 1.18915C7.96003 1.0084 7.71476 0.906889 7.45904 0.906937C7.20347 0.907174 6.95844 1.00887 6.7778 1.18967C6.59717 1.37048 6.4957 1.6156 6.4957 1.87117C6.49645 2.05179 6.54826 2.22852 6.64516 2.38095L5.37735 4.57666H2.59758C2.43487 4.27488 2.12002 4.06743 1.75344 4.06796C1.6269 4.0677 1.50154 4.0924 1.38454 4.14064C1.26755 4.18888 1.16121 4.25971 1.07162 4.34909C0.982026 4.43846 0.910936 4.54463 0.862415 4.6615C0.813895 4.77838 0.788896 4.90368 0.788849 5.03023C0.788944 5.28598 0.890618 5.53122 1.07151 5.71201C1.2524 5.8928 1.4977 5.99434 1.75344 5.99429C1.90756 5.99429 2.05111 5.95438 2.18034 5.88994L3.40001 8.00242L2.19073 10.097C2.1112 10.0748 2.02913 10.063 1.94658 10.0619C1.69113 10.0619 1.44615 10.1634 1.26552 10.344C1.08489 10.5247 0.983415 10.7696 0.983415 11.0251C0.983415 11.2805 1.08489 11.5255 1.26552 11.7061C1.44615 11.8868 1.69113 11.9882 1.94658 11.9882C2.10362 11.9884 2.25832 11.9502 2.39719 11.8769C2.53606 11.8036 2.65488 11.6974 2.74328 11.5676H5.45843L6.67827 13.6806C6.60341 13.8183 6.56363 13.9723 6.56246 14.129C6.56249 14.2556 6.58746 14.381 6.63595 14.498C6.68444 14.615 6.7555 14.7213 6.84507 14.8108C6.93465 14.9004 7.04098 14.9714 7.15799 15.0198C7.27501 15.0682 7.40042 15.0931 7.52706 15.0931C7.78264 15.0927 8.02764 14.991 8.20826 14.8102C8.38888 14.6293 8.49036 14.3842 8.4904 14.1286C8.48911 13.9769 8.45168 13.8277 8.38122 13.6933L9.60858 11.5676H12.3887C12.5514 11.8692 12.8663 12.0767 13.233 12.0767C13.3596 12.0768 13.4849 12.052 13.6019 12.0037C13.7188 11.9554 13.8251 11.8845 13.9147 11.7952C14.0043 11.7058 14.0754 11.5996 14.1239 11.4827C14.1725 11.3659 14.1975 11.2406 14.1976 11.114C14.1973 10.8583 14.0955 10.6131 13.9146 10.4323C13.7337 10.2515 13.4884 10.1499 13.2327 10.1498Z" fill="#7782AD"/>
</svg>
