<svg width="14" height="16" viewBox="0 0 14 16" fill="none" xmlns="http://www.w3.org/2000/svg">
<path d="M5 3.01229C4.73478 3.01229 4.48043 3.11765 4.29289 3.30518C4.10536 3.49272 4 3.74707 4 4.01229C4 4.2775 4.10536 4.53186 4.29289 4.71939C4.48043 4.90693 4.73478 5.01229 5 5.01229H10.586L9.293 6.30529C9.11084 6.49389 9.01005 6.74649 9.01233 7.00869C9.0146 7.27089 9.11977 7.5217 9.30518 7.70711C9.49059 7.89251 9.7414 7.99768 10.0036 7.99996C10.2658 8.00224 10.5184 7.90145 10.707 7.71929L13.707 4.71929C13.8945 4.53176 13.9998 4.27745 13.9998 4.01229C13.9998 3.74712 13.8945 3.49282 13.707 3.30529L10.707 0.305288C10.6148 0.209778 10.5044 0.133596 10.3824 0.0811869C10.2604 0.0287779 10.1292 0.00119157 9.9964 3.77567e-05C9.86362 -0.00111606 9.73194 0.0241857 9.60905 0.0744666C9.48615 0.124747 9.3745 0.199001 9.28061 0.292893C9.18671 0.386786 9.11246 0.498438 9.06218 0.621334C9.0119 0.744231 8.9866 0.87591 8.98775 1.00869C8.9889 1.14147 9.01649 1.27269 9.0689 1.39469C9.12131 1.5167 9.19749 1.62704 9.293 1.71929L10.586 3.01229H5Z" fill="#FD6D14"/>
<path d="M8.99979 13.0123C9.265 13.0123 9.51936 12.9069 9.70689 12.7194C9.89443 12.5319 9.99979 12.2775 9.99979 12.0123C9.99979 11.7471 9.89443 11.4927 9.70689 11.3052C9.51936 11.1176 9.265 11.0123 8.99979 11.0123H3.41379L4.70679 9.71929C4.8023 9.62704 4.87848 9.5167 4.93089 9.39469C4.9833 9.27269 5.01088 9.14147 5.01204 9.00869C5.01319 8.87591 4.98789 8.74423 4.93761 8.62133C4.88733 8.49844 4.81307 8.38679 4.71918 8.29289C4.62529 8.199 4.51364 8.12475 4.39074 8.07447C4.26784 8.02419 4.13616 7.99888 4.00339 8.00004C3.87061 8.00119 3.73939 8.02878 3.61738 8.08119C3.49538 8.1336 3.38503 8.20978 3.29279 8.30529L0.292786 11.3053C0.105315 11.4928 0 11.7471 0 12.0123C0 12.2775 0.105315 12.5318 0.292786 12.7193L3.29279 15.7193C3.48139 15.9014 3.73399 16.0022 3.99619 16C4.25838 15.9977 4.5092 15.8925 4.6946 15.7071C4.88001 15.5217 4.98518 15.2709 4.98746 15.0087C4.98974 14.7465 4.88894 14.4939 4.70679 14.3053L3.41379 13.0123H8.99979Z" fill="#FD6D14"/>
</svg>
