<svg width="21" height="14" viewBox="0 0 21 14" fill="none" xmlns="http://www.w3.org/2000/svg">
<path d="M10.4621 13.9208C8.94243 13.9208 7.42271 13.9143 5.90299 13.9272C5.61887 13.9272 5.52637 13.8562 5.52637 13.566C5.53958 10.689 5.53297 7.8055 5.52637 4.9285C5.52637 4.65757 5.61226 4.58016 5.88317 4.58661C8.92921 4.59306 11.9819 4.59306 15.0279 4.58661C15.2988 4.58661 15.3847 4.65757 15.3847 4.9285C15.3781 7.8184 15.3781 10.7083 15.3847 13.5982C15.3847 13.8498 15.3054 13.9272 15.0477 13.9272C13.5214 13.9143 11.9885 13.9208 10.4621 13.9208ZM13.4355 6.96691C13.4025 6.68308 13.191 6.65083 12.9532 6.65083C11.2881 6.65083 9.6296 6.65083 7.96452 6.65083C7.93148 6.65083 7.89845 6.65083 7.86541 6.65083C7.66058 6.66373 7.48218 6.72824 7.48878 6.96691C7.49539 7.17979 7.65397 7.25074 7.85219 7.26364C7.93809 7.27009 8.0306 7.26364 8.11649 7.26364C9.30584 7.26364 10.4952 7.27009 11.6845 7.25719C11.9158 7.25719 12.0413 7.2959 12.0215 7.55392C12.0083 7.74099 12.1074 7.87001 12.3056 7.87646C12.5039 7.88291 12.6294 7.76035 12.6162 7.57328C12.5964 7.27655 12.7549 7.23784 12.9994 7.25719C13.2108 7.27655 13.3893 7.21204 13.4355 6.96691Z" fill="#7782AD"/>
<path d="M17.717 9.23114C17.717 7.79264 17.7236 6.35415 17.7104 4.91565C17.7104 4.63827 17.7963 4.56731 18.0672 4.58666C19.3094 4.66407 20.3269 5.56071 20.3798 6.77344C20.4525 8.44416 20.4657 10.1278 20.3732 11.7985C20.3071 12.9725 19.2301 13.8885 18.0275 13.9208C17.7764 13.9272 17.7038 13.8563 17.7104 13.6111C17.7236 12.1533 17.717 10.6954 17.717 9.23114Z" fill="#7782AD"/>
<path d="M3.19997 9.25048C3.19997 10.7019 3.19336 12.1533 3.20658 13.5982C3.20658 13.8627 3.12068 13.9272 2.8696 13.9143C1.66043 13.8692 0.609842 12.9532 0.543768 11.7727C0.477693 10.5922 0.517338 9.41174 0.51073 8.23127C0.51073 7.74746 0.490908 7.26366 0.530553 6.77986C0.629665 5.54778 1.61418 4.64469 2.8762 4.58018C3.1339 4.56728 3.21318 4.63824 3.21318 4.89627C3.19336 6.35412 3.19997 7.79907 3.19997 9.25048Z" fill="#7782AD"/>
<path d="M10.4814 0.477566C11.1752 0.477566 11.869 0.477566 12.5628 0.477566C13.7389 0.484016 14.5252 1.25165 14.5318 2.39986C14.5384 2.83851 14.5252 3.2836 14.5384 3.72225C14.545 3.91577 14.4723 3.99317 14.2741 3.98027C13.9702 3.96092 13.5936 4.07058 13.3689 3.93511C13.1178 3.7803 13.2896 3.38681 13.2698 3.09653C13.2103 2.29665 12.6421 1.729 11.8161 1.72254C10.9109 1.70964 10.0123 1.70964 9.10708 1.72254C8.30097 1.73545 7.71952 2.28375 7.66666 3.07072C7.66666 3.11588 7.66666 3.15458 7.66005 3.19974C7.63362 3.45131 7.77898 3.85126 7.59397 3.92222C7.27682 4.04478 6.88037 3.96737 6.52356 3.96737C6.44427 3.96737 6.40463 3.90931 6.40463 3.8448C6.41785 3.16748 6.29891 2.48372 6.47731 1.82575C6.68875 1.01942 7.38914 0.496916 8.24151 0.484015C8.98154 0.471113 9.72819 0.477566 10.4814 0.477566Z" fill="#7782AD"/>
<path d="M3.83376 9.26337C3.83376 7.81196 3.84036 6.36056 3.82715 4.90916C3.82715 4.65758 3.89322 4.57373 4.15752 4.58018C4.91738 4.58663 4.91738 4.57373 4.91738 5.322C4.91738 8.05064 4.91077 10.7793 4.92399 13.5079C4.92399 13.824 4.85791 13.9401 4.50772 13.9272C3.82715 13.9014 3.82715 13.9208 3.82715 13.2628C3.83376 11.9275 3.83376 10.5987 3.83376 9.26337Z" fill="#7782AD"/>
<path d="M17.0822 9.26337C17.0822 10.7019 17.0756 12.1404 17.0888 13.5853C17.0888 13.8563 17.0029 13.9337 16.732 13.9272C15.992 13.9143 15.992 13.9272 15.992 13.1918C15.992 10.4438 15.9986 7.68941 15.9854 4.94142C15.9854 4.65114 16.0712 4.58019 16.3554 4.58664C17.0756 4.59954 17.0756 4.58664 17.0756 5.30267C17.0822 6.6186 17.0822 7.94098 17.0822 9.26337Z" fill="#7782AD"/>
</svg>
