<svg width="21" height="15" viewBox="0 0 21 15" fill="none" xmlns="http://www.w3.org/2000/svg">
<path d="M11.2949 14.5V10.5H14.2949L10.2949 5.5L6.29492 10.5H9.29492V14.5H11.2949Z" fill="white"/>
<path d="M5.29492 14.5H7.29492V12.5H5.29492C3.64092 12.5 2.29492 11.154 2.29492 9.5C2.29492 8.096 3.49392 6.744 4.96792 6.485L5.54892 6.383L5.74092 5.825C6.44392 3.774 8.18992 2.5 10.2949 2.5C13.0519 2.5 15.2949 4.743 15.2949 7.5V8.5H16.2949C17.3979 8.5 18.2949 9.397 18.2949 10.5C18.2949 11.603 17.3979 12.5 16.2949 12.5H13.2949V14.5H16.2949C18.5009 14.5 20.2949 12.706 20.2949 10.5C20.2934 9.60361 19.9916 8.73358 19.4376 8.02883C18.8837 7.32408 18.1096 6.82526 17.2389 6.612C16.8019 3.17 13.8549 0.5 10.2949 0.5C7.53892 0.5 5.14492 2.111 4.05192 4.65C1.90392 5.292 0.294922 7.32 0.294922 9.5C0.294922 12.257 2.53792 14.5 5.29492 14.5Z" fill="white"/>
</svg>
