<svg width="23" height="16" viewBox="0 0 23 16" fill="none" xmlns="http://www.w3.org/2000/svg">
<path d="M21.85 0L1.15 0C0.845001 0 0.552494 0.120408 0.336827 0.334735C0.12116 0.549063 0 0.839753 0 1.14286L0 5.71429H1.02695C2.17235 5.71429 3.23495 6.49257 3.41895 7.616C3.475 7.94404 3.45835 8.28029 3.37015 8.60128C3.28195 8.92226 3.12433 9.22026 2.90828 9.47446C2.69224 9.72866 2.42298 9.93295 2.1193 10.0731C1.81561 10.2132 1.48482 10.2858 1.15 10.2857H0L0 14.8571C0 15.1602 0.12116 15.4509 0.336827 15.6653C0.552494 15.8796 0.845001 16 1.15 16H21.85C22.155 16 22.4475 15.8796 22.6632 15.6653C22.8788 15.4509 23 15.1602 23 14.8571V10.2857H21.85C21.5152 10.2858 21.1844 10.2132 20.8807 10.0731C20.577 9.93295 20.3078 9.72866 20.0917 9.47446C19.8757 9.22026 19.7181 8.92226 19.6299 8.60128C19.5416 8.28029 19.525 7.94404 19.5811 7.616C19.7651 6.49257 20.8277 5.71429 21.973 5.71429H23V1.14286C23 0.839753 22.8788 0.549063 22.6632 0.334735C22.4475 0.120408 22.155 0 21.85 0ZM10.35 13.7143H8.05V11.4286H10.35V13.7143ZM10.35 9.14286H8.05V6.85714H10.35V9.14286ZM10.35 4.57143H8.05V2.28571H10.35V4.57143Z" fill="#7782AD"/>
</svg>
