<svg width="15" height="14" viewBox="0 0 15 14" fill="none" xmlns="http://www.w3.org/2000/svg">
<path d="M7.09006 13.6929C5.36644 13.6929 3.64281 13.6929 1.91919 13.6929C0.947182 13.6929 0.308594 13.0694 0.308594 12.126C0.308594 8.76056 0.308594 5.39512 0.308594 2.02968C0.308594 1.08074 0.947182 0.451782 1.91354 0.451782C5.37209 0.451782 8.82498 0.451782 12.2835 0.451782C13.2329 0.451782 13.8715 1.08625 13.8772 2.01313C13.8772 2.65863 13.8772 2.65863 13.2216 2.65863C11.2268 2.65863 9.22622 2.65863 7.23134 2.65863C6.21412 2.65863 5.59248 3.25999 5.59248 4.25307C5.58683 6.12889 5.59248 8.00472 5.59248 9.88054C5.59248 10.8847 6.21412 11.486 7.24829 11.486C9.3562 11.486 11.4698 11.4915 13.5777 11.4805C13.8094 11.4805 13.8602 11.5357 13.8828 11.7674C13.9958 13.097 13.1821 13.7646 11.9219 13.7094C10.3113 13.6432 8.69501 13.6929 7.09006 13.6929Z" fill="#7782AD"/>
<path d="M10.8477 10.0185C9.6892 10.0185 8.5307 10.0129 7.37785 10.024C7.16875 10.024 7.08398 9.97433 7.08398 9.74812C7.09529 7.9661 7.09529 6.18407 7.08398 4.40204C7.08398 4.18688 7.14615 4.12067 7.36655 4.12067C9.6892 4.12618 12.0175 4.12618 14.3402 4.12067C14.5606 4.12067 14.634 4.19791 14.634 4.40756C14.6284 6.17855 14.6284 7.95507 14.634 9.72606C14.634 9.95778 14.5493 10.024 14.3232 10.024C13.1647 10.0185 12.0062 10.0185 10.8477 10.0185ZM10.0904 5.9689C9.46315 5.97442 8.97149 6.47096 8.9828 7.08888C8.9941 7.69024 9.48575 8.17023 10.1017 8.17023C10.7234 8.17023 11.2376 7.67369 11.232 7.06129C11.2263 6.45993 10.7121 5.96338 10.0904 5.9689Z" fill="#7782AD"/>
</svg>
