<svg width="10" height="10" viewBox="0 0 10 10" fill="none" xmlns="http://www.w3.org/2000/svg">
<circle cx="5" cy="5" r="5" fill="#D1C6A8"/>
<path d="M5.00559 3.416C4.81893 3.416 4.66426 3.36 4.54159 3.248C4.42426 3.136 4.36559 2.99467 4.36559 2.824C4.36559 2.65333 4.42426 2.51467 4.54159 2.408C4.66426 2.296 4.81893 2.24 5.00559 2.24C5.19226 2.24 5.34426 2.296 5.46159 2.408C5.58426 2.51467 5.64559 2.65333 5.64559 2.824C5.64559 2.99467 5.58426 3.136 5.46159 3.248C5.34426 3.36 5.19226 3.416 5.00559 3.416ZM4.49359 8V4.032H5.51759V8H4.49359Z" fill="#262C46"/>
</svg>
