<svg width="20" height="26" viewBox="0 0 20 26" fill="none" xmlns="http://www.w3.org/2000/svg">
<g clip-path="url(#clip0)">
<path d="M19.4659 12.4805C19.4659 16.1714 19.4659 19.8622 19.4659 23.5394C19.4659 23.7581 19.4112 23.9495 19.2745 24.1272C18.8917 24.6466 18.5227 25.1934 18.1536 25.7129C17.8938 26.0957 17.5658 26.0957 17.306 25.7266C16.9096 25.1661 16.5269 24.6056 16.1304 24.0452C16.0348 23.9085 15.9937 23.7581 15.9937 23.5804C15.9937 22.4458 15.9937 21.2975 15.9937 20.1629C15.9937 17.6477 15.9937 15.1325 15.9937 12.6309C15.9937 11.3322 15.9801 10.0336 15.9801 8.73497C15.9801 7.8191 15.9937 6.90322 15.9937 5.98734C15.9937 4.62036 15.9937 3.25338 15.9937 1.88639C15.9937 1.81804 16.0484 1.69502 15.9117 1.66768C15.8024 1.65401 15.7203 1.66768 15.652 1.80437C15.488 2.13245 15.2146 2.32383 14.8318 2.31016C14.4901 2.29649 14.1483 2.29649 13.8066 2.31016C13.4238 2.32383 13.1504 2.13245 12.9864 1.80437C12.918 1.66768 12.836 1.66768 12.7267 1.68135C12.5763 1.69502 12.6446 1.81804 12.6446 1.88639C12.6446 6.47945 12.6446 11.0588 12.6446 15.6519C12.6446 18.3175 12.6446 20.9831 12.6446 23.6351C12.6446 23.7854 12.6036 23.9085 12.5216 24.0315C12.1252 24.592 11.7288 25.1524 11.346 25.6992C11.0863 26.0683 10.7719 26.0683 10.5121 25.7129C10.1294 25.1661 9.74663 24.633 9.36388 24.0862C9.24085 23.9221 9.18617 23.7444 9.18617 23.5394C9.18617 22.3091 9.18617 21.0788 9.18617 19.8485C9.18617 18.5772 9.18617 17.2923 9.18617 16.021C9.18617 14.9274 9.18617 13.8338 9.18617 12.7402C9.18617 11.9337 9.18617 11.1272 9.18617 10.3207C9.18617 10.143 9.1725 10.0883 8.96745 10.1293C8.07892 10.3343 7.25873 10.1703 6.50689 9.66452C5.49532 8.98103 4.93486 8.02414 4.9622 6.79386C5.00321 5.3722 6.05578 4.05989 7.43644 3.69081C7.95589 3.55411 8.47534 3.52677 8.9948 3.66347C9.1725 3.71815 9.18617 3.63613 9.18617 3.49943C9.18617 2.77493 9.18617 2.05043 9.18617 1.32593C9.18617 0.902166 9.33654 0.765467 9.7603 0.765467C10.7445 0.765467 11.7288 0.765467 12.713 0.765467C12.8634 0.765467 12.9454 0.738128 13.0274 0.58776C13.1778 0.287024 13.4375 0.122986 13.7929 0.122986C14.1483 0.122986 14.5174 0.122986 14.8728 0.122986C15.2282 0.122986 15.488 0.300694 15.652 0.60143C15.7203 0.738128 15.8024 0.765467 15.9391 0.765467C16.9233 0.765467 17.9212 0.765467 18.9054 0.765467C19.3292 0.765467 19.4795 0.915836 19.4795 1.32593C19.4659 5.07146 19.4659 8.77598 19.4659 12.4805ZM11.7834 21.6256C11.7834 21.0105 11.7834 20.3953 11.7834 19.7802C11.7834 19.6435 11.7424 19.6025 11.6057 19.6025C11.1546 19.6025 10.6899 19.6025 10.2387 19.6025C10.1021 19.6025 10.061 19.6435 10.061 19.7802C10.061 20.9968 10.061 22.2134 10.061 23.43C10.061 23.5394 10.0884 23.6351 10.1431 23.7171C10.3618 24.0315 10.5942 24.3459 10.8129 24.674C10.8949 24.7833 10.9359 24.7833 11.0179 24.674C11.223 24.3596 11.4417 24.0588 11.6604 23.7581C11.7424 23.6488 11.7698 23.5531 11.7698 23.4164C11.7698 22.8149 11.7834 22.2134 11.7834 21.6256ZM18.591 21.6119C18.591 21.0105 18.591 20.3953 18.591 19.7939C18.591 19.6435 18.55 19.6025 18.3996 19.6025C17.9622 19.6162 17.5248 19.6162 17.0873 19.6025C16.937 19.6025 16.8686 19.6435 16.8686 19.8075C16.8686 20.9968 16.8686 22.1998 16.8686 23.389C16.8686 23.5257 16.9096 23.6351 16.978 23.7444C17.183 24.0315 17.4017 24.3322 17.5931 24.633C17.6751 24.7697 17.7298 24.7833 17.8392 24.633C18.0442 24.3186 18.2766 24.0042 18.4953 23.6898C18.5637 23.6077 18.5773 23.5121 18.5773 23.4027C18.591 22.8149 18.591 22.2134 18.591 21.6119ZM5.83707 6.91689C5.83707 7.02625 5.83707 7.14927 5.83707 7.25863C5.85074 7.35432 5.86441 7.45001 5.89175 7.5457C5.97376 7.91478 6.0011 7.92845 6.34285 7.76442C7.20405 7.32698 7.88754 6.67083 8.48901 5.93266C8.76241 5.60458 9.00846 5.24917 9.1725 4.83907C9.22718 4.70238 9.21351 4.6477 9.06314 4.60669C7.35442 4.11457 5.8234 5.22183 5.83707 6.91689ZM6.52056 8.68029C6.65726 8.74864 6.75294 8.65296 6.8623 8.62562C7.20405 8.52993 7.49111 8.74864 7.45011 9.10406C7.43644 9.21342 7.46377 9.25443 7.55946 9.2681C8.68039 9.55516 9.80131 9.17241 10.3891 8.17451C10.7035 7.65506 10.7582 7.08093 10.6762 6.47945C10.6078 6.00101 10.3481 5.61825 10.0747 5.24917C9.97902 5.11247 9.93801 5.22183 9.897 5.30385C9.15883 6.72551 8.07892 7.80543 6.65726 8.55727C6.61625 8.58461 6.5479 8.59828 6.52056 8.68029ZM18.591 3.25338C18.591 2.7886 18.591 2.31016 18.591 1.84538C18.591 1.73603 18.5637 1.69502 18.4406 1.69502C17.9759 1.69502 17.5111 1.70869 17.0463 1.69502C16.9096 1.69502 16.8686 1.73602 16.8686 1.87272C16.8686 2.80227 16.8686 3.73182 16.8686 4.66137C16.8686 4.81173 16.9096 4.86641 17.06 4.86641C17.4974 4.85274 17.9485 4.85274 18.386 4.86641C18.55 4.86641 18.5773 4.81173 18.5773 4.66137C18.5773 4.18292 18.591 3.71815 18.591 3.25338ZM11.7834 3.26705C11.7834 2.80227 11.7834 2.32383 11.7834 1.85905C11.7834 1.72236 11.7424 1.68135 11.6057 1.68135C11.1546 1.69502 10.6899 1.69502 10.2387 1.68135C10.0884 1.68135 10.061 1.73602 10.061 1.87272C10.061 2.58355 10.061 3.29438 10.061 4.00522C10.061 4.07356 10.061 4.15558 10.1157 4.21026C10.5258 4.56568 10.8812 5.00311 11.51 4.83907C11.5374 4.8254 11.5784 4.83907 11.6057 4.83907C11.7288 4.85274 11.7698 4.79807 11.7698 4.67504C11.7698 4.21026 11.7834 3.73182 11.7834 3.26705ZM11.7834 17.4427C11.7834 17.0736 11.7834 16.6908 11.7834 16.3217C11.7834 16.1714 11.7424 16.1303 11.5921 16.144C11.1546 16.1577 10.7035 16.1577 10.2661 16.144C10.1157 16.144 10.061 16.185 10.061 16.3354C10.061 17.0872 10.061 17.8391 10.061 18.5909C10.061 18.7139 10.0884 18.755 10.2251 18.755C10.6899 18.755 11.1546 18.7413 11.6194 18.755C11.7561 18.755 11.7834 18.7003 11.7834 18.5772C11.7698 18.1945 11.7834 17.8117 11.7834 17.4427ZM16.8686 17.4427C16.8686 17.7981 16.8686 18.1672 16.8686 18.5226C16.8686 18.6729 16.896 18.7413 17.0737 18.7276C17.5111 18.7139 17.9622 18.7139 18.3996 18.7276C18.5363 18.7276 18.591 18.7003 18.591 18.5499C18.5773 17.7981 18.591 17.0462 18.591 16.2944C18.591 16.1577 18.55 16.103 18.3996 16.103C17.9622 16.1167 17.5111 16.1167 17.0737 16.103C16.896 16.103 16.8686 16.1714 16.8686 16.3217C16.8823 16.7045 16.8686 17.0736 16.8686 17.4427ZM18.591 7.02625C18.591 6.64349 18.591 6.26074 18.591 5.87798C18.591 5.75495 18.5637 5.71394 18.427 5.71394C17.9622 5.71394 17.4974 5.71394 17.0326 5.71394C16.9096 5.71394 16.8686 5.76862 16.8686 5.89165C16.8686 6.64349 16.8686 7.39533 16.8686 8.14717C16.8686 8.28387 16.9096 8.32488 17.0463 8.32488C17.4974 8.32488 17.9622 8.31121 18.4133 8.32488C18.5637 8.32488 18.5773 8.2702 18.5773 8.14717C18.5773 7.76442 18.591 7.39533 18.591 7.02625ZM11.7834 13.9568C11.7834 13.5741 11.7834 13.1913 11.7834 12.8086C11.7834 12.6992 11.7424 12.6445 11.6331 12.6582C11.1683 12.6582 10.6899 12.6582 10.2251 12.6582C10.1157 12.6582 10.0747 12.6992 10.0747 12.8223C10.0747 13.5878 10.0747 14.3533 10.0747 15.1188C10.0747 15.2418 10.1157 15.2691 10.2387 15.2691C10.7035 15.2691 11.182 15.2691 11.6467 15.2691C11.7698 15.2691 11.7971 15.2281 11.7971 15.1188C11.7698 14.7224 11.7834 14.3396 11.7834 13.9568ZM18.591 10.4984C18.591 10.1293 18.591 9.74654 18.591 9.37746C18.591 9.24076 18.5637 9.18608 18.4133 9.18608C17.9622 9.19975 17.5111 9.19975 17.06 9.18608C16.9096 9.18608 16.8686 9.24076 16.8686 9.37746C16.8686 10.1156 16.8686 10.8675 16.8686 11.6056C16.8686 11.7423 16.9096 11.7833 17.0463 11.7833C17.4974 11.7833 17.9622 11.7697 18.4133 11.7833C18.55 11.7833 18.591 11.7287 18.5773 11.6056C18.5773 11.2366 18.591 10.8675 18.591 10.4984ZM18.591 13.9705C18.591 13.5878 18.591 13.205 18.591 12.8223C18.591 12.7129 18.5637 12.6445 18.4406 12.6445C17.9759 12.6445 17.5111 12.6445 17.0463 12.6445C16.9233 12.6445 16.8823 12.6856 16.8823 12.8086C16.8823 13.5604 16.8823 14.3259 16.8823 15.0778C16.8823 15.2008 16.9233 15.2418 17.0463 15.2418C17.5111 15.2418 17.9759 15.2418 18.4406 15.2418C18.5637 15.2418 18.6047 15.2145 18.6047 15.0778C18.5773 14.7224 18.591 14.3533 18.591 13.9705ZM11.7834 10.4847C11.7834 10.102 11.7834 9.7192 11.7834 9.33645C11.7834 9.22709 11.7424 9.17241 11.6331 9.18608C11.3597 9.18608 11.0726 9.18608 10.7992 9.18608C10.6899 9.18608 10.102 9.63718 10.0747 9.74654C10.061 9.77388 10.0747 9.81489 10.0747 9.84223C10.0747 10.43 10.0747 11.0178 10.0747 11.6056C10.0747 11.7423 10.1157 11.7833 10.2524 11.7833C10.7035 11.7833 11.1683 11.7697 11.6194 11.7833C11.7698 11.7833 11.7971 11.7287 11.7971 11.592C11.7698 11.2229 11.7834 10.8538 11.7834 10.4847ZM11.7834 7.01258C11.7834 6.62982 11.7834 6.24707 11.7834 5.86431C11.7834 5.80963 11.8108 5.72761 11.7151 5.71394C11.6057 5.70027 11.4827 5.67293 11.4007 5.72761C11.3323 5.76862 11.4007 5.83697 11.4144 5.89165C11.6604 6.62982 11.6467 7.36799 11.3597 8.09249C11.2777 8.28387 11.346 8.31121 11.51 8.29754C11.8381 8.28387 11.7834 8.31121 11.7834 8.02414C11.7834 7.69607 11.7834 7.35432 11.7834 7.01258ZM14.326 1.44896C14.4491 1.44896 14.5858 1.44896 14.7088 1.44896C14.8865 1.46263 14.8455 1.3396 14.8455 1.24391C14.8455 1.14822 14.8728 1.03886 14.6951 1.03886C14.4491 1.05253 14.1893 1.03886 13.9433 1.03886C13.8339 1.03886 13.8066 1.07987 13.7929 1.18923C13.7792 1.40795 13.8476 1.4763 14.0526 1.44896C14.1483 1.43529 14.2303 1.44896 14.326 1.44896Z" fill="white"/>
<path d="M2.96639 0.751831C3.21245 0.751831 3.39016 0.915869 3.43117 1.14826C3.63621 2.39221 3.84126 3.63616 4.04631 4.88012C4.25135 6.09673 4.44273 7.31334 4.64778 8.52996C4.83916 9.67822 5.03053 10.8265 5.22191 11.9748C5.41329 13.123 5.60467 14.2576 5.78237 15.4059C5.96008 16.4721 6.12412 17.552 6.30183 18.6183C6.54788 20.163 6.80761 21.7077 7.06734 23.266C7.08101 23.3891 7.05367 23.4984 6.99899 23.6078C6.68458 24.2503 6.38385 24.8927 6.06944 25.5489C5.9054 25.8906 5.57733 25.9453 5.3176 25.6856C4.81182 25.1661 4.30603 24.6467 3.80025 24.1409C3.64988 23.9905 3.63621 23.8128 3.60887 23.6351C3.36282 22.1998 3.13043 20.7644 2.89804 19.3428C2.72034 18.2492 2.5563 17.1556 2.36492 16.0757C2.17354 14.8728 1.96849 13.6698 1.76345 12.4669C1.4217 10.3617 1.07996 8.25656 0.724541 6.15141C0.478484 4.67507 0.246097 3.2124 0.0137103 1.7634C-0.040969 1.43532 0.0957292 1.2166 0.410135 1.16193C1.23032 1.02523 2.05051 0.888529 2.8707 0.751831C2.91171 0.765501 2.93905 0.751831 2.96639 0.751831ZM6.15146 23.1977C6.08311 22.8149 6.01476 22.3912 5.94641 21.9674C5.80971 21.1609 5.68669 20.368 5.54999 19.5615C5.53632 19.4658 5.52265 19.3701 5.37228 19.3975C4.90751 19.4795 4.44273 19.5615 3.97796 19.6299C3.85493 19.6435 3.82759 19.6845 3.84126 19.8212C4.03264 20.9558 4.22402 22.0768 4.38805 23.2113C4.42906 23.4711 4.52475 23.6761 4.71613 23.8402C4.94852 24.0452 5.16723 24.2776 5.37228 24.51C5.46797 24.6193 5.52265 24.6057 5.57733 24.469C5.74137 24.1272 5.9054 23.7855 6.06944 23.4301C6.12412 23.3891 6.15146 23.3207 6.15146 23.1977ZM1.54473 5.07149C2.03684 4.98948 2.52896 4.90746 3.02107 4.82544C3.11676 4.81177 3.13043 4.74342 3.11676 4.6614C2.96639 3.73185 2.80235 2.78863 2.65199 1.85909C2.63832 1.73606 2.58364 1.69505 2.46061 1.72239C2.0095 1.80441 1.54473 1.87276 1.09363 1.94111C0.984268 1.95478 0.943258 2.00945 0.956928 2.11881C1.01161 2.46056 1.06629 2.8023 1.12097 3.14405C1.21665 3.73185 1.31234 4.33332 1.40803 4.92113C1.43537 5.00315 1.4217 5.08516 1.54473 5.07149ZM3.80025 9.10409C3.23979 9.19978 2.734 9.2818 2.22822 9.36382C2.15987 9.37749 2.1462 9.43217 2.15987 9.48685C2.2829 10.266 2.4196 11.0315 2.54263 11.8107C2.5563 11.9201 2.61098 11.9474 2.70666 11.9337C3.17144 11.8517 3.63621 11.7697 4.10099 11.7014C4.22402 11.6877 4.25135 11.6193 4.23769 11.51C4.21035 11.3459 4.18301 11.1682 4.15567 11.0042C4.05998 10.4301 3.96429 9.85593 3.8686 9.2818C3.85493 9.21345 3.8686 9.10409 3.80025 9.10409ZM2.11886 8.50262C2.59731 8.4206 3.08942 8.33858 3.56786 8.25656C3.67722 8.24289 3.67722 8.17454 3.66355 8.09252C3.63621 7.91482 3.60887 7.72344 3.56786 7.54573C3.47218 6.9716 3.37649 6.39747 3.2808 5.837C3.2808 5.75499 3.2808 5.6593 3.1441 5.68664C2.66566 5.76865 2.18721 5.85067 1.70877 5.91902C1.61308 5.93269 1.58574 5.96003 1.59941 6.06939C1.73611 6.8349 1.85914 7.60041 1.98216 8.36592C1.99583 8.46161 2.02317 8.51629 2.11886 8.50262ZM3.23979 15.3512C3.64988 15.2829 4.05998 15.2145 4.47007 15.1462C4.81182 15.0915 4.81182 15.0915 4.75714 14.7497C4.64778 14.0662 4.53842 13.3964 4.42906 12.7129C4.41539 12.6036 4.40172 12.5079 4.23769 12.5352C3.78658 12.6172 3.32181 12.6993 2.8707 12.7676C2.734 12.7813 2.72033 12.836 2.734 12.959C2.78868 13.2324 2.82969 13.4921 2.8707 13.7655C2.95272 14.2439 3.02107 14.7224 3.10309 15.2008C3.11676 15.2828 3.10309 15.3922 3.23979 15.3512ZM3.80025 18.7823C4.29236 18.7003 4.79815 18.6183 5.29026 18.5363C5.38595 18.5226 5.37228 18.4679 5.35861 18.3996C5.23558 17.6477 5.09888 16.8959 4.98953 16.144C4.96219 15.98 4.89384 15.9663 4.75714 15.9937C4.38805 16.062 4.01897 16.1167 3.64988 16.1714C3.2808 16.2261 3.26713 16.2261 3.32181 16.5952C3.43117 17.2786 3.54052 17.9485 3.64988 18.632C3.67722 18.714 3.67722 18.8097 3.80025 18.7823Z" fill="white"/>
<path d="M6.19243 3.62249C6.16509 3.62249 6.09674 3.63616 6.05573 3.60882C5.80967 3.47212 5.6593 3.62249 5.50894 3.78652C5.44059 3.86854 5.35857 3.95056 5.27655 4.01891C5.08517 4.19662 4.82545 4.19662 4.64774 4.01891C4.4837 3.8412 4.4837 3.58148 4.66141 3.3901C4.78444 3.2534 4.92113 3.13037 5.05783 2.99367C5.13985 2.92532 5.13985 2.85698 5.11251 2.76129C4.98948 2.40587 5.04416 2.0778 5.33123 1.8044C5.68664 1.46265 6.02839 1.12091 6.35647 0.779163C6.62986 0.492097 6.94427 0.451087 7.29968 0.560446C7.40904 0.587785 7.47739 0.574116 7.54574 0.505767C7.66877 0.369068 7.7918 0.24604 7.91483 0.123011C8.11987 -0.068366 8.3796 -0.068366 8.55731 0.109342C8.74868 0.314389 8.73501 0.546776 8.55731 0.751823C8.5163 0.792833 8.47529 0.847512 8.43428 0.888521C8.18822 1.0799 8.03785 1.27128 8.16088 1.62669C8.2429 1.85908 8.13354 2.10514 7.94217 2.29651C7.57308 2.65193 7.21766 3.02101 6.84858 3.37643C6.64353 3.58148 6.50683 3.63616 6.19243 3.62249ZM6.19243 2.76129C6.26078 2.69294 6.30179 2.67927 6.32913 2.65193C6.61619 2.36486 6.88959 2.0778 7.19032 1.8044C7.28601 1.70871 7.27234 1.65403 7.17666 1.59935C7.09464 1.54467 7.05363 1.3533 6.88959 1.51733C6.61619 1.8044 6.32913 2.0778 6.05573 2.36486C6.01472 2.40587 5.94637 2.44688 6.00105 2.51523C6.05573 2.59725 6.12408 2.67927 6.19243 2.76129Z" fill="white"/>
<path d="M8.22928 8.70767C8.02423 8.70767 7.9012 8.62565 7.81918 8.44794C7.75083 8.28391 7.7645 8.11987 7.88753 7.99684C8.05157 7.8328 8.21561 7.68243 8.39331 7.55941C8.54368 7.43638 8.7624 7.46372 8.8991 7.58675C9.04947 7.72344 9.11782 7.88748 9.02213 8.06519C8.87176 8.35226 8.61203 8.54363 8.33864 8.694C8.3113 8.72134 8.25662 8.70767 8.22928 8.70767Z" fill="white"/>
<path d="M9.938 6.01471C10.2797 6.01471 10.4848 6.37012 10.3071 6.67086C10.1977 6.84857 10.0747 7.02628 9.938 7.17664C9.8013 7.34068 9.55524 7.35435 9.37754 7.24499C9.19983 7.13563 9.13148 6.88958 9.22717 6.6982C9.33653 6.49315 9.48689 6.30178 9.65093 6.12407C9.71928 6.04205 9.81497 6.01471 9.938 6.01471Z" fill="white"/>
</g>
<defs>
<clipPath id="clip0">
<rect width="19.4658" height="26" fill="white"/>
</clipPath>
</defs>
</svg>
