<svg width="13" height="14" viewBox="0 0 13 14" fill="none" xmlns="http://www.w3.org/2000/svg">
<path d="M11.8125 1.32027H10.375V0.695267C10.375 0.626517 10.3188 0.570267 10.25 0.570267H2.25C2.18125 0.570267 2.125 0.626517 2.125 0.695267V1.32027H0.6875C0.505164 1.32027 0.330295 1.3927 0.201364 1.52163C0.0724328 1.65056 0 1.82543 0 2.00777V4.32027C0 5.59683 0.9375 6.65777 2.15937 6.85152C2.4 8.66714 3.85938 10.0984 5.6875 10.2968V11.9406H2.625C2.34844 11.9406 2.125 12.164 2.125 12.4406V12.9453C2.125 13.014 2.18125 13.0703 2.25 13.0703H10.25C10.3188 13.0703 10.375 13.014 10.375 12.9453V12.4406C10.375 12.164 10.1516 11.9406 9.875 11.9406H6.8125V10.2968C8.64062 10.0984 10.1 8.66714 10.3406 6.85152C11.5625 6.65777 12.5 5.59683 12.5 4.32027V2.00777C12.5 1.82543 12.4276 1.65056 12.2986 1.52163C12.1697 1.3927 11.9948 1.32027 11.8125 1.32027ZM2.125 5.68902C1.54531 5.50308 1.125 4.95933 1.125 4.32027V2.44527H2.125V5.68902ZM11.375 4.32027C11.375 4.96089 10.9547 5.50464 10.375 5.68902V2.44527H11.375V4.32027Z" fill="#7782AD"/>
</svg>
